  0
SECTION
  2
HEADER
  9
$ACADVER
  1
AC1015
  9
$INSUNITS
  70
1
  9
$DWGCODEPAGE
  3
ANSI_1252
  9
$EXTMIN
  10
0.10000000000000009
  20
0.30833333333333335
  30
0.0
  9
$EXTMAX
  10
19.34444444444444
  20
13.913888888888888
  30
0.0
  9
$LIMMIN
  10
0.10000000000000009
  20
0.30833333333333335
  9
$LIMMAX
  10
19.34444444444444
  20
13.913888888888888
  0
ENDSEC
  0
SECTION
  2
TABLES
  0
TABLE
  2
VPORT
  5
12
  330
0
  100
AcDbSymbolTable
  70
1
  0
VPORT
  5
13
  330
8
  100
AcDbSymbolTableRecord
  100
AcDbViewportTableRecord
  2
*Active
  0
ENDTAB
  0
TABLE
  2
LTYPE
  5
14
  330
0
  100
AcDbSymbolTable
  70
1
  0
LTYPE
  5
15
  330
5
  100
AcDbSymbolTableRecord
  100
AcDbLinetypeTableRecord
  2
CONTINUOUS
  70
0
  3
Solid line
  72
65
  73
0
  40
0.0
  0
ENDTAB
  0
TABLE
  2
LAYER
  5
16
  330
0
  100
AcDbSymbolTable
  70
5
  0
LAYER
  5
17
  330
2
  100
AcDbSymbolTableRecord
  100
AcDbLayerTableRecord
  2
0
  70
0
  62
7
  370
-3
  0
LAYER
  5
18
  330
2
  100
AcDbSymbolTableRecord
  100
AcDbLayerTableRecord
  2
WIRES
  70
0
  62
7
  370
-3
  0
LAYER
  5
19
  330
2
  100
AcDbSymbolTableRecord
  100
AcDbLayerTableRecord
  2
FILLS
  70
0
  62
9
  370
-3
  0
LAYER
  5
1A
  330
2
  100
AcDbSymbolTableRecord
  100
AcDbLayerTableRecord
  2
INKFILL
  70
0
  62
7
  370
-3
  0
LAYER
  5
1B
  330
2
  100
AcDbSymbolTableRecord
  100
AcDbLayerTableRecord
  2
GUIDES
  70
0
  62
8
  370
-3
  0
ENDTAB
  0
TABLE
  2
STYLE
  5
1C
  330
0
  100
AcDbSymbolTable
  70
1
  0
STYLE
  5
1D
  330
3
  100
AcDbSymbolTableRecord
  100
AcDbTextStyleTableRecord
  2
Standard
  70
0
  40
0.0
  41
1.0
  50
0.0
  71
0
  42
0.2
  3
Arial Narrow.ttf
  4

  0
ENDTAB
  0
TABLE
  2
VIEW
  5
1E
  330
0
  100
AcDbSymbolTable
  70
0
  0
ENDTAB
  0
TABLE
  2
UCS
  5
1F
  330
0
  100
AcDbSymbolTable
  70
0
  0
ENDTAB
  0
TABLE
  2
APPID
  5
20
  330
0
  100
AcDbSymbolTable
  70
1
  0
APPID
  5
21
  330
9
  100
AcDbSymbolTableRecord
  100
AcDbRegAppTableRecord
  2
ACAD
  70
0
  0
ENDTAB
  0
TABLE
  2
DIMSTYLE
  5
22
  330
0
  100
AcDbSymbolTable
  70
1
  0
DIMSTYLE
  105
23
  330
A
  100
AcDbSymbolTableRecord
  100
AcDbDimStyleTableRecord
  2
Standard
  70
0
  0
ENDTAB
  0
TABLE
  2
BLOCK_RECORD
  5
24
  330
0
  100
AcDbSymbolTable
  70
2
  0
BLOCK_RECORD
  5
10
  330
1
  100
AcDbSymbolTableRecord
  100
AcDbBlockTableRecord
  2
*Model_Space
  0
BLOCK_RECORD
  5
11
  330
1
  100
AcDbSymbolTableRecord
  100
AcDbBlockTableRecord
  2
*Paper_Space
  0
ENDTAB
  0
ENDSEC
  0
SECTION
  2
ENTITIES
  0
SOLID
  5
25
  330
10
  100
AcDbEntity
  8
FILLS
  370
-3
  100
AcDbTrace
  10
1.3333333333333333
  20
12.555555555555555
  30
0.0
  11
3.083333333333333
  21
12.555555555555555
  31
0.0
  12
1.3333333333333333
  22
12.305555555555555
  32
0.0
  13
3.083333333333333
  23
12.305555555555555
  33
0.0
  0
SOLID
  5
32
  330
10
  100
AcDbEntity
  8
FILLS
  370
-3
  100
AcDbTrace
  10
1.3368055555555556
  20
12.180555555555555
  30
0.0
  11
2.083333333333333
  21
12.180555555555555
  31
0.0
  12
1.3368055555555556
  22
12.055555555555555
  32
0.0
  13
2.083333333333333
  23
12.055555555555555
  33
0.0
  0
SOLID
  5
33
  330
10
  100
AcDbEntity
  8
FILLS
  370
-3
  100
AcDbTrace
  10
2.333333333333333
  20
12.180555555555555
  30
0.0
  11
3.079861111111111
  21
12.180555555555555
  31
0.0
  12
2.333333333333333
  22
12.055555555555555
  32
0.0
  13
3.079861111111111
  23
12.055555555555555
  33
0.0
  0
SOLID
  5
38
  330
10
  100
AcDbEntity
  8
FILLS
  370
-3
  100
AcDbTrace
  10
5.111111111111111
  20
12.555555555555555
  30
0.0
  11
6.111111111111111
  21
12.555555555555555
  31
0.0
  12
5.111111111111111
  22
12.305555555555555
  32
0.0
  13
6.111111111111111
  23
12.305555555555555
  33
0.0
  0
SOLID
  5
41
  330
10
  100
AcDbEntity
  8
FILLS
  370
-3
  100
AcDbTrace
  10
5.114583333333333
  20
12.180555555555555
  30
0.0
  11
6.107638888888888
  21
12.180555555555555
  31
0.0
  12
5.114583333333333
  22
12.055555555555555
  32
0.0
  13
6.107638888888888
  23
12.055555555555555
  33
0.0
  0
SOLID
  5
45
  330
10
  100
AcDbEntity
  8
FILLS
  370
-3
  100
AcDbTrace
  10
16.444444444444443
  20
10.222222222222221
  30
0.0
  11
17.444444444444443
  21
10.222222222222221
  31
0.0
  12
16.444444444444443
  22
9.805555555555555
  32
0.0
  13
17.444444444444443
  23
9.805555555555555
  33
0.0
  0
SOLID
  5
56
  330
10
  100
AcDbEntity
  8
FILLS
  370
-3
  100
AcDbTrace
  10
1.3333333333333333
  20
7.888888888888888
  30
0.0
  11
2.333333333333333
  21
7.888888888888888
  31
0.0
  12
1.3333333333333333
  22
7.472222222222221
  32
0.0
  13
2.333333333333333
  23
7.472222222222221
  33
0.0
  0
SOLID
  5
61
  330
10
  100
AcDbEntity
  8
FILLS
  370
-3
  100
AcDbTrace
  10
5.111111111111111
  20
7.888888888888888
  30
0.0
  11
6.111111111111111
  21
7.888888888888888
  31
0.0
  12
5.111111111111111
  22
7.472222222222221
  32
0.0
  13
6.111111111111111
  23
7.472222222222221
  33
0.0
  0
SOLID
  5
74
  330
10
  100
AcDbEntity
  8
FILLS
  370
-3
  100
AcDbTrace
  10
8.88888888888889
  20
7.888888888888888
  30
0.0
  11
9.888888888888888
  21
7.888888888888888
  31
0.0
  12
8.88888888888889
  22
7.472222222222221
  32
0.0
  13
9.888888888888888
  23
7.472222222222221
  33
0.0
  0
SOLID
  5
87
  330
10
  100
AcDbEntity
  8
FILLS
  370
-3
  100
AcDbTrace
  10
1.3333333333333333
  20
2.833333333333334
  30
0.0
  11
3.083333333333333
  21
2.833333333333334
  31
0.0
  12
1.3333333333333333
  22
2.583333333333334
  32
0.0
  13
3.083333333333333
  23
2.583333333333334
  33
0.0
  0
SOLID
  5
9E
  330
10
  100
AcDbEntity
  8
FILLS
  370
-3
  100
AcDbTrace
  10
1.3368055555555556
  20
2.458333333333334
  30
0.0
  11
2.083333333333333
  21
2.458333333333334
  31
0.0
  12
1.3368055555555556
  22
2.333333333333334
  32
0.0
  13
2.083333333333333
  23
2.333333333333334
  33
0.0
  0
SOLID
  5
9F
  330
10
  100
AcDbEntity
  8
FILLS
  370
-3
  100
AcDbTrace
  10
2.333333333333333
  20
2.458333333333334
  30
0.0
  11
3.079861111111111
  21
2.458333333333334
  31
0.0
  12
2.333333333333333
  22
2.333333333333334
  32
0.0
  13
3.079861111111111
  23
2.333333333333334
  33
0.0
  0
SOLID
  5
AE
  330
10
  100
AcDbEntity
  8
FILLS
  370
-3
  100
AcDbTrace
  10
5.111111111111111
  20
2.833333333333334
  30
0.0
  11
6.111111111111111
  21
2.833333333333334
  31
0.0
  12
5.111111111111111
  22
2.583333333333334
  32
0.0
  13
6.111111111111111
  23
2.583333333333334
  33
0.0
  0
SOLID
  5
BB
  330
10
  100
AcDbEntity
  8
FILLS
  370
-3
  100
AcDbTrace
  10
5.114583333333333
  20
2.458333333333334
  30
0.0
  11
6.107638888888888
  21
2.458333333333334
  31
0.0
  12
5.114583333333333
  22
2.333333333333334
  32
0.0
  13
6.107638888888888
  23
2.333333333333334
  33
0.0
  0
SOLID
  5
BF
  330
10
  100
AcDbEntity
  8
FILLS
  370
-3
  100
AcDbTrace
  10
5.114583333333333
  20
1.958333333333334
  30
0.0
  11
6.107638888888888
  21
1.958333333333334
  31
0.0
  12
5.114583333333333
  22
1.833333333333334
  32
0.0
  13
6.107638888888888
  23
1.833333333333334
  33
0.0
  0
SOLID
  5
C3
  330
10
  100
AcDbEntity
  8
FILLS
  370
-3
  100
AcDbTrace
  10
8.88888888888889
  20
2.833333333333334
  30
0.0
  11
9.888888888888888
  21
2.833333333333334
  31
0.0
  12
8.88888888888889
  22
2.416666666666666
  32
0.0
  13
9.888888888888888
  23
2.416666666666666
  33
0.0
  0
SOLID
  5
D9
  330
10
  100
AcDbEntity
  8
FILLS
  370
-3
  100
AcDbTrace
  10
12.666666666666666
  20
2.833333333333334
  30
0.0
  11
13.666666666666666
  21
2.833333333333334
  31
0.0
  12
12.666666666666666
  22
2.416666666666666
  32
0.0
  13
13.666666666666666
  23
2.416666666666666
  33
0.0
  0
SOLID
  5
E8
  330
10
  100
AcDbEntity
  8
FILLS
  370
-3
  100
AcDbTrace
  10
16.444444444444443
  20
2.833333333333334
  30
0.0
  11
18.194444444444443
  21
2.833333333333334
  31
0.0
  12
16.444444444444443
  22
2.583333333333334
  32
0.0
  13
18.194444444444443
  23
2.583333333333334
  33
0.0
  0
SOLID
  5
F6
  330
10
  100
AcDbEntity
  8
FILLS
  370
-3
  100
AcDbTrace
  10
16.447916666666664
  20
2.458333333333334
  30
0.0
  11
17.194444444444443
  21
2.458333333333334
  31
0.0
  12
16.447916666666664
  22
2.333333333333334
  32
0.0
  13
17.194444444444443
  23
2.333333333333334
  33
0.0  0
TEXT
  5
26
  330
10
  100
AcDbEntity
  8
0
  370
-3
  100
AcDbText
  10
2.208333333333333
  20
12.659722222222221
  30
0.0
  40
0.125
  1
DEV / 1
  7
Standard
  100
AcDbText
  72
1
  11
2.208333333333333
  21
12.659722222222221
  31
0.0
  73
2
  0
LWPOLYLINE
  5
27
  330
10
  100
AcDbEntity
  8
0
  370
-3
  100
AcDbPolyline
  90
4
  70
0
  10
1.3368055555555556
  20
12.552083333333332
  10
3.079861111111111
  20
12.552083333333332
  10
3.079861111111111
  20
11.809027777777777
  10
1.3368055555555556
  20
11.809027777777777
  0
LWPOLYLINE
  5
28
  330
10
  100
AcDbEntity
  8
0
  370
-3
  100
AcDbPolyline
  90
2
  70
0
  10
1.3368055555555556
  20
12.305555555555555
  10
3.079861111111111
  20
12.305555555555555
  0
LWPOLYLINE
  5
29
  330
10
  100
AcDbEntity
  8
0
  370
-3
  100
AcDbPolyline
  90
2
  70
0
  10
2.083333333333333
  20
12.180555555555555
  10
2.083333333333333
  20
11.930555555555555
  0
LWPOLYLINE
  5
2A
  330
10
  100
AcDbEntity
  8
0
  370
-3
  100
AcDbPolyline
  90
2
  70
0
  10
2.333333333333333
  20
12.180555555555555
  10
2.333333333333333
  20
11.930555555555555
  0
LWPOLYLINE
  5
2B
  330
10
  100
AcDbEntity
  8
0
  370
-3
  100
AcDbPolyline
  90
2
  70
0
  10
1.3368055555555556
  20
12.180555555555555
  10
2.083333333333333
  20
12.180555555555555
  0
LWPOLYLINE
  5
2C
  330
10
  100
AcDbEntity
  8
0
  370
-3
  100
AcDbPolyline
  90
2
  70
0
  10
1.3368055555555556
  20
12.055555555555555
  10
2.083333333333333
  20
12.055555555555555
  0
LWPOLYLINE
  5
2D
  330
10
  100
AcDbEntity
  8
0
  370
-3
  100
AcDbPolyline
  90
2
  70
0
  10
1.3368055555555556
  20
11.930555555555555
  10
2.083333333333333
  20
11.930555555555555
  0
LWPOLYLINE
  5
2E
  330
10
  100
AcDbEntity
  8
0
  370
-3
  100
AcDbPolyline
  90
2
  70
0
  10
2.333333333333333
  20
12.180555555555555
  10
3.079861111111111
  20
12.180555555555555
  0
LWPOLYLINE
  5
2F
  330
10
  100
AcDbEntity
  8
0
  370
-3
  100
AcDbPolyline
  90
2
  70
0
  10
2.333333333333333
  20
12.055555555555555
  10
3.079861111111111
  20
12.055555555555555
  0
LWPOLYLINE
  5
30
  330
10
  100
AcDbEntity
  8
0
  370
-3
  100
AcDbPolyline
  90
2
  70
0
  10
2.333333333333333
  20
11.930555555555555
  10
3.079861111111111
  20
11.930555555555555
  0
TEXT
  5
31
  330
10
  100
AcDbEntity
  8
0
  370
-3
  100
AcDbText
  10
2.208333333333333
  20
12.430555555555555
  30
0.0
  40
0.125
  1
Device block
  7
Standard
  100
AcDbText
  72
1
  11
2.208333333333333
  21
12.430555555555555
  31
0.0
  73
2
  0
TEXT
  5
34
  330
10
  100
AcDbEntity
  8
0
  370
-3
  100
AcDbText
  10
1.392361111111111
  20
12.118055555555555
  30
0.0
  40
0.06944444444444445
  1
Input
  7
Standard
  100
AcDbText
  72
0
  11
1.392361111111111
  21
12.118055555555555
  31
0.0
  73
2
  0
TEXT
  5
35
  330
10
  100
AcDbEntity
  8
0
  370
-3
  100
AcDbText
  10
3.0243055555555554
  20
12.118055555555555
  30
0.0
  40
0.06944444444444445
  1
Output
  7
Standard
  100
AcDbText
  72
2
  11
3.0243055555555554
  21
12.118055555555555
  31
0.0
  73
2
  0
TEXT
  5
36
  330
10
  100
AcDbEntity
  8
0
  370
-3
  100
AcDbText
  10
1.392361111111111
  20
11.993055555555555
  30
0.0
  40
0.06944444444444445
  1
1
  7
Standard
  100
AcDbText
  72
0
  11
1.392361111111111
  21
11.993055555555555
  31
0.0
  73
2
  0
TEXT
  5
37
  330
10
  100
AcDbEntity
  8
0
  370
-3
  100
AcDbText
  10
3.0243055555555554
  20
11.993055555555555
  30
0.0
  40
0.06944444444444445
  1
1
  7
Standard
  100
AcDbText
  72
2
  11
3.0243055555555554
  21
11.993055555555555
  31
0.0
  73
2
  0
TEXT
  5
39
  330
10
  100
AcDbEntity
  8
0
  370
-3
  100
AcDbText
  10
5.611111111111111
  20
12.659722222222221
  30
0.0
  40
0.125
  1
AVP / 1
  7
Standard
  100
AcDbText
  72
1
  11
5.611111111111111
  21
12.659722222222221
  31
0.0
  73
2
  0
LWPOLYLINE
  5
3A
  330
10
  100
AcDbEntity
  8
0
  370
-3
  100
AcDbPolyline
  90
4
  70
0
  10
5.114583333333333
  20
12.552083333333332
  10
6.107638888888888
  20
12.552083333333332
  10
6.107638888888888
  20
11.684027777777777
  10
5.114583333333333
  20
11.684027777777777
  0
LWPOLYLINE
  5
3B
  330
10
  100
AcDbEntity
  8
0
  370
-3
  100
AcDbPolyline
  90
2
  70
0
  10
5.114583333333333
  20
12.305555555555555
  10
6.107638888888888
  20
12.305555555555555
  0
LWPOLYLINE
  5
3C
  330
10
  100
AcDbEntity
  8
0
  370
-3
  100
AcDbPolyline
  90
2
  70
0
  10
5.114583333333333
  20
12.180555555555555
  10
6.107638888888888
  20
12.180555555555555
  0
LWPOLYLINE
  5
3D
  330
10
  100
AcDbEntity
  8
0
  370
-3
  100
AcDbPolyline
  90
2
  70
0
  10
5.114583333333333
  20
12.055555555555555
  10
6.107638888888888
  20
12.055555555555555
  0
LWPOLYLINE
  5
3E
  330
10
  100
AcDbEntity
  8
0
  370
-3
  100
AcDbPolyline
  90
2
  70
0
  10
5.114583333333333
  20
11.930555555555555
  10
6.107638888888888
  20
11.930555555555555
  0
LWPOLYLINE
  5
3F
  330
10
  100
AcDbEntity
  8
0
  370
-3
  100
AcDbPolyline
  90
2
  70
0
  10
5.114583333333333
  20
11.805555555555555
  10
6.107638888888888
  20
11.805555555555555
  0
TEXT
  5
40
  330
10
  100
AcDbEntity
  8
0
  370
-3
  100
AcDbText
  10
5.611111111111111
  20
12.430555555555555
  30
0.0
  40
0.125
  1
AV plate
  7
Standard
  100
AcDbText
  72
1
  11
5.611111111111111
  21
12.430555555555555
  31
0.0
  73
2
  0
TEXT
  5
42
  330
10
  100
AcDbEntity
  8
0
  370
-3
  100
AcDbText
  10
5.611111111111111
  20
12.118055555555555
  30
0.0
  40
0.06944444444444445
  1
Ports
  7
Standard
  100
AcDbText
  72
1
  11
5.611111111111111
  21
12.118055555555555
  31
0.0
  73
2
  0
TEXT
  5
43
  330
10
  100
AcDbEntity
  8
0
  370
-3
  100
AcDbText
  10
5.170138888888888
  20
11.993055555555555
  30
0.0
  40
0.06944444444444445
  1
In
  7
Standard
  100
AcDbText
  72
0
  11
5.170138888888888
  21
11.993055555555555
  31
0.0
  73
2
  0
TEXT
  5
44
  330
10
  100
AcDbEntity
  8
0
  370
-3
  100
AcDbText
  10
6.052083333333333
  20
11.868055555555555
  30
0.0
  40
0.06944444444444445
  1
Out
  7
Standard
  100
AcDbText
  72
2
  11
6.052083333333333
  21
11.868055555555555
  31
0.0
  73
2
  0
TEXT
  5
46
  330
10
  100
AcDbEntity
  8
0
  370
-3
  100
AcDbText
  10
16.944444444444443
  20
10.32638888888889
  30
0.0
  40
0.125
  1
LPP / 1
  7
Standard
  100
AcDbText
  72
1
  11
16.944444444444443
  21
10.32638888888889
  31
0.0
  73
2
  0
LWPOLYLINE
  5
47
  330
10
  100
AcDbEntity
  8
0
  370
-3
  100
AcDbPolyline
  90
4
  70
0
  10
16.447916666666664
  20
10.21875
  10
17.44097222222222
  20
10.21875
  10
17.44097222222222
  20
9.309027777777779
  10
16.447916666666664
  20
9.309027777777779
  0
LWPOLYLINE
  5
48
  330
10
  100
AcDbEntity
  8
0
  370
-3
  100
AcDbPolyline
  90
2
  70
0
  10
16.447916666666664
  20
9.805555555555555
  10
17.44097222222222
  20
9.805555555555555
  0
TEXT
  5
49
  330
10
  100
AcDbEntity
  8
0
  370
-3
  100
AcDbText
  10
16.944444444444443
  20
10.085763888888888
  30
0.0
  40
0.125
  1
LOUDSPEAKER
  7
Standard
  100
AcDbText
  72
1
  11
16.944444444444443
  21
10.085763888888888
  31
0.0
  73
2
  0
TEXT
  5
4A
  330
10
  100
AcDbEntity
  8
0
  370
-3
  100
AcDbText
  10
16.944444444444443
  20
9.942013888888887
  30
0.0
  40
0.125
  1
PATCH
  7
Standard
  100
AcDbText
  72
1
  11
16.944444444444443
  21
9.942013888888887
  31
0.0
  73
2
  0
LWPOLYLINE
  5
4B
  330
10
  100
AcDbEntity
  8
0
  370
-3
  100
AcDbPolyline
  90
2
  70
0
  10
16.447916666666664
  20
9.597222222222221
  10
17.44097222222222
  20
9.597222222222221
  0
LWPOLYLINE
  5
4C
  330
10
  100
AcDbEntity
  8
0
  370
-3
  100
AcDbPolyline
  90
3
  70
0
  10
16.822777777777777
  20
9.632378472222221
  10
16.77777777777778
  20
9.597222222222221
  10
16.822777777777777
  20
9.562065972222221
  0
LWPOLYLINE
  5
4D
  330
10
  100
AcDbEntity
  8
0
  370
-3
  100
AcDbPolyline
  90
3
  70
0
  10
17.06611111111111
  20
9.632378472222221
  10
17.11111111111111
  20
9.597222222222221
  10
17.06611111111111
  20
9.562065972222221
  0
TEXT
  5
4E
  330
10
  100
AcDbEntity
  8
0
  370
-3
  100
AcDbText
  10
16.5
  20
9.597222222222221
  30
0.0
  40
0.08333333333333333
  1
1
  7
Standard
  100
AcDbText
  72
0
  11
16.5
  21
9.597222222222221
  31
0.0
  73
1
  0
TEXT
  5
4F
  330
10
  100
AcDbEntity
  8
0
  370
-3
  100
AcDbText
  10
17.38888888888889
  20
9.597222222222221
  30
0.0
  40
0.08333333333333333
  1
1
  7
Standard
  100
AcDbText
  72
2
  11
17.38888888888889
  21
9.597222222222221
  31
0.0
  73
1
  0
LWPOLYLINE
  5
50
  330
10
  100
AcDbEntity
  8
0
  370
-3
  100
AcDbPolyline
  90
2
  70
0
  10
16.447916666666664
  20
9.472222222222221
  10
16.77777777777778
  20
9.472222222222221
  0
LWPOLYLINE
  5
51
  330
10
  100
AcDbEntity
  8
0
  370
-3
  100
AcDbPolyline
  90
2
  70
0
  10
17.11111111111111
  20
9.472222222222221
  10
17.44097222222222
  20
9.472222222222221
  0
LWPOLYLINE
  5
52
  330
10
  100
AcDbEntity
  8
0
  370
-3
  100
AcDbPolyline
  90
3
  70
0
  10
16.822777777777777
  20
9.507378472222221
  10
16.77777777777778
  20
9.472222222222221
  10
16.822777777777777
  20
9.437065972222221
  0
LWPOLYLINE
  5
53
  330
10
  100
AcDbEntity
  8
0
  370
-3
  100
AcDbPolyline
  90
3
  70
0
  10
17.06611111111111
  20
9.507378472222221
  10
17.11111111111111
  20
9.472222222222221
  10
17.06611111111111
  20
9.437065972222221
  0
TEXT
  5
54
  330
10
  100
AcDbEntity
  8
0
  370
-3
  100
AcDbText
  10
16.5
  20
9.472222222222221
  30
0.0
  40
0.08333333333333333
  1
2
  7
Standard
  100
AcDbText
  72
0
  11
16.5
  21
9.472222222222221
  31
0.0
  73
1
  0
TEXT
  5
55
  330
10
  100
AcDbEntity
  8
0
  370
-3
  100
AcDbText
  10
17.38888888888889
  20
9.472222222222221
  30
0.0
  40
0.08333333333333333
  1
2
  7
Standard
  100
AcDbText
  72
2
  11
17.38888888888889
  21
9.472222222222221
  31
0.0
  73
1
  0
TEXT
  5
57
  330
10
  100
AcDbEntity
  8
0
  370
-3
  100
AcDbText
  10
1.8333333333333333
  20
7.993055555555555
  30
0.0
  40
0.125
  1
DPP / 1
  7
Standard
  100
AcDbText
  72
1
  11
1.8333333333333333
  21
7.993055555555555
  31
0.0
  73
2
  0
LWPOLYLINE
  5
58
  330
10
  100
AcDbEntity
  8
0
  370
-3
  100
AcDbPolyline
  90
4
  70
0
  10
1.3368055555555556
  20
7.885416666666666
  10
2.329861111111111
  20
7.885416666666666
  10
2.329861111111111
  20
6.975694444444444
  10
1.3368055555555556
  20
6.975694444444444
  0
LWPOLYLINE
  5
59
  330
10
  100
AcDbEntity
  8
0
  370
-3
  100
AcDbPolyline
  90
2
  70
0
  10
1.3368055555555556
  20
7.472222222222221
  10
2.329861111111111
  20
7.472222222222221
  0
TEXT
  5
5A
  330
10
  100
AcDbEntity
  8
0
  370
-3
  100
AcDbText
  10
1.8333333333333333
  20
7.680555555555555
  30
0.0
  40
0.125
  1
DATA PATCH
  7
Standard
  100
AcDbText
  72
1
  11
1.8333333333333333
  21
7.680555555555555
  31
0.0
  73
2
  0
LWPOLYLINE
  5
5B
  330
10
  100
AcDbEntity
  8
0
  370
-3
  100
AcDbPolyline
  90
2
  70
0
  10
1.3368055555555556
  20
7.263888888888888
  10
2.302083333333333
  20
7.263888888888888
  0
LWPOLYLINE
  5
5C
  330
10
  100
AcDbEntity
  8
0
  370
-3
  100
AcDbPolyline
  90
3
  70
0
  10
2.257083333333333
  20
7.299045138888888
  10
2.302083333333333
  20
7.263888888888888
  10
2.257083333333333
  20
7.228732638888888
  0
TEXT
  5
5D
  330
10
  100
AcDbEntity
  8
0
  370
-3
  100
AcDbText
  10
1.3888888888888888
  20
7.263888888888888
  30
0.0
  40
0.08333333333333333
  1
1
  7
Standard
  100
AcDbText
  72
0
  11
1.3888888888888888
  21
7.263888888888888
  31
0.0
  73
1
  0
LWPOLYLINE
  5
5E
  330
10
  100
AcDbEntity
  8
0
  370
-3
  100
AcDbPolyline
  90
2
  70
0
  10
1.3645833333333333
  20
7.138888888888888
  10
2.329861111111111
  20
7.138888888888888
  0
LWPOLYLINE
  5
5F
  330
10
  100
AcDbEntity
  8
0
  370
-3
  100
AcDbPolyline
  90
3
  70
0
  10
1.4095833333333332
  20
7.174045138888888
  10
1.3645833333333333
  20
7.138888888888888
  10
1.4095833333333332
  20
7.103732638888888
  0
TEXT
  5
60
  330
10
  100
AcDbEntity
  8
0
  370
-3
  100
AcDbText
  10
2.2777777777777777
  20
7.138888888888888
  30
0.0
  40
0.08333333333333333
  1
2
  7
Standard
  100
AcDbText
  72
2
  11
2.2777777777777777
  21
7.138888888888888
  31
0.0
  73
1
  0
TEXT
  5
62
  330
10
  100
AcDbEntity
  8
0
  370
-3
  100
AcDbText
  10
5.611111111111111
  20
7.993055555555555
  30
0.0
  40
0.125
  1
APP / 1
  7
Standard
  100
AcDbText
  72
1
  11
5.611111111111111
  21
7.993055555555555
  31
0.0
  73
2
  0
LWPOLYLINE
  5
63
  330
10
  100
AcDbEntity
  8
0
  370
-3
  100
AcDbPolyline
  90
4
  70
0
  10
5.114583333333333
  20
7.885416666666666
  10
6.107638888888888
  20
7.885416666666666
  10
6.107638888888888
  20
6.975694444444444
  10
5.114583333333333
  20
6.975694444444444
  0
LWPOLYLINE
  5
64
  330
10
  100
AcDbEntity
  8
0
  370
-3
  100
AcDbPolyline
  90
2
  70
0
  10
5.114583333333333
  20
7.472222222222221
  10
6.107638888888888
  20
7.472222222222221
  0
TEXT
  5
65
  330
10
  100
AcDbEntity
  8
0
  370
-3
  100
AcDbText
  10
5.611111111111111
  20
7.752430555555556
  30
0.0
  40
0.125
  1
MIC/LINE
  7
Standard
  100
AcDbText
  72
1
  11
5.611111111111111
  21
7.752430555555556
  31
0.0
  73
2
  0
TEXT
  5
66
  330
10
  100
AcDbEntity
  8
0
  370
-3
  100
AcDbText
  10
5.611111111111111
  20
7.608680555555555
  30
0.0
  40
0.125
  1
PATCH PANEL
  7
Standard
  100
AcDbText
  72
1
  11
5.611111111111111
  21
7.608680555555555
  31
0.0
  73
2
  0
LWPOLYLINE
  5
67
  330
10
  100
AcDbEntity
  8
0
  370
-3
  100
AcDbPolyline
  90
2
  70
0
  10
5.114583333333333
  20
7.263888888888888
  10
5.444444444444444
  20
7.263888888888888
  0
LWPOLYLINE
  5
68
  330
10
  100
AcDbEntity
  8
0
  370
-3
  100
AcDbPolyline
  90
2
  70
0
  10
5.777777777777778
  20
7.263888888888888
  10
6.107638888888888
  20
7.263888888888888
  0
LWPOLYLINE
  5
69
  330
10
  100
AcDbEntity
  8
0
  370
-3
  100
AcDbPolyline
  90
3
  70
0
  10
5.489444444444445
  20
7.299045138888888
  10
5.444444444444444
  20
7.263888888888888
  10
5.489444444444445
  20
7.228732638888888
  0
LWPOLYLINE
  5
6A
  330
10
  100
AcDbEntity
  8
0
  370
-3
  100
AcDbPolyline
  90
3
  70
0
  10
5.732777777777778
  20
7.299045138888888
  10
5.777777777777778
  20
7.263888888888888
  10
5.732777777777778
  20
7.228732638888888
  0
TEXT
  5
6B
  330
10
  100
AcDbEntity
  8
0
  370
-3
  100
AcDbText
  10
5.611111111111111
  20
7.263888888888888
  30
0.0
  40
0.08333333333333333
  1
HN
  7
Standard
  100
AcDbText
  72
1
  11
5.611111111111111
  21
7.263888888888888
  31
0.0
  73
2
  0
TEXT
  5
6C
  330
10
  100
AcDbEntity
  8
0
  370
-3
  100
AcDbText
  10
5.166666666666666
  20
7.263888888888888
  30
0.0
  40
0.08333333333333333
  1
1
  7
Standard
  100
AcDbText
  72
0
  11
5.166666666666666
  21
7.263888888888888
  31
0.0
  73
1
  0
TEXT
  5
6D
  330
10
  100
AcDbEntity
  8
0
  370
-3
  100
AcDbText
  10
6.055555555555555
  20
7.263888888888888
  30
0.0
  40
0.08333333333333333
  1
1
  7
Standard
  100
AcDbText
  72
2
  11
6.055555555555555
  21
7.263888888888888
  31
0.0
  73
1
  0
LWPOLYLINE
  5
6E
  330
10
  100
AcDbEntity
  8
0
  370
-3
  100
AcDbPolyline
  90
2
  70
0
  10
5.114583333333333
  20
7.138888888888888
  10
5.444444444444444
  20
7.138888888888888
  0
LWPOLYLINE
  5
6F
  330
10
  100
AcDbEntity
  8
0
  370
-3
  100
AcDbPolyline
  90
2
  70
0
  10
5.777777777777778
  20
7.138888888888888
  10
6.107638888888888
  20
7.138888888888888
  0
LWPOLYLINE
  5
70
  330
10
  100
AcDbEntity
  8
0
  370
-3
  100
AcDbPolyline
  90
3
  70
0
  10
5.489444444444445
  20
7.174045138888888
  10
5.444444444444444
  20
7.138888888888888
  10
5.489444444444445
  20
7.103732638888888
  0
LWPOLYLINE
  5
71
  330
10
  100
AcDbEntity
  8
0
  370
-3
  100
AcDbPolyline
  90
3
  70
0
  10
5.732777777777778
  20
7.174045138888888
  10
5.777777777777778
  20
7.138888888888888
  10
5.732777777777778
  20
7.103732638888888
  0
TEXT
  5
72
  330
10
  100
AcDbEntity
  8
0
  370
-3
  100
AcDbText
  10
5.166666666666666
  20
7.138888888888888
  30
0.0
  40
0.08333333333333333
  1
2
  7
Standard
  100
AcDbText
  72
0
  11
5.166666666666666
  21
7.138888888888888
  31
0.0
  73
1
  0
TEXT
  5
73
  330
10
  100
AcDbEntity
  8
0
  370
-3
  100
AcDbText
  10
6.055555555555555
  20
7.138888888888888
  30
0.0
  40
0.08333333333333333
  1
2
  7
Standard
  100
AcDbText
  72
2
  11
6.055555555555555
  21
7.138888888888888
  31
0.0
  73
1
  0
TEXT
  5
75
  330
10
  100
AcDbEntity
  8
0
  370
-3
  100
AcDbText
  10
9.388888888888888
  20
7.993055555555555
  30
0.0
  40
0.125
  1
VPP / 1
  7
Standard
  100
AcDbText
  72
1
  11
9.388888888888888
  21
7.993055555555555
  31
0.0
  73
2
  0
LWPOLYLINE
  5
76
  330
10
  100
AcDbEntity
  8
0
  370
-3
  100
AcDbPolyline
  90
4
  70
0
  10
8.89236111111111
  20
7.885416666666666
  10
9.885416666666666
  20
7.885416666666666
  10
9.885416666666666
  20
6.975694444444444
  10
8.89236111111111
  20
6.975694444444444
  0
LWPOLYLINE
  5
77
  330
10
  100
AcDbEntity
  8
0
  370
-3
  100
AcDbPolyline
  90
2
  70
0
  10
8.89236111111111
  20
7.472222222222221
  10
9.885416666666666
  20
7.472222222222221
  0
TEXT
  5
78
  330
10
  100
AcDbEntity
  8
0
  370
-3
  100
AcDbText
  10
9.388888888888888
  20
7.752430555555556
  30
0.0
  40
0.125
  1
VIDEO
  7
Standard
  100
AcDbText
  72
1
  11
9.388888888888888
  21
7.752430555555556
  31
0.0
  73
2
  0
TEXT
  5
79
  330
10
  100
AcDbEntity
  8
0
  370
-3
  100
AcDbText
  10
9.388888888888888
  20
7.608680555555555
  30
0.0
  40
0.125
  1
PATCH PANEL
  7
Standard
  100
AcDbText
  72
1
  11
9.388888888888888
  21
7.608680555555555
  31
0.0
  73
2
  0
LWPOLYLINE
  5
7A
  330
10
  100
AcDbEntity
  8
0
  370
-3
  100
AcDbPolyline
  90
2
  70
0
  10
8.89236111111111
  20
7.263888888888888
  10
9.222222222222221
  20
7.263888888888888
  0
LWPOLYLINE
  5
7B
  330
10
  100
AcDbEntity
  8
0
  370
-3
  100
AcDbPolyline
  90
2
  70
0
  10
9.555555555555555
  20
7.263888888888888
  10
9.885416666666666
  20
7.263888888888888
  0
LWPOLYLINE
  5
7C
  330
10
  100
AcDbEntity
  8
0
  370
-3
  100
AcDbPolyline
  90
3
  70
0
  10
9.267222222222221
  20
7.299045138888888
  10
9.222222222222221
  20
7.263888888888888
  10
9.267222222222221
  20
7.228732638888888
  0
LWPOLYLINE
  5
7D
  330
10
  100
AcDbEntity
  8
0
  370
-3
  100
AcDbPolyline
  90
3
  70
0
  10
9.510555555555555
  20
7.299045138888888
  10
9.555555555555555
  20
7.263888888888888
  10
9.510555555555555
  20
7.228732638888888
  0
TEXT
  5
7E
  330
10
  100
AcDbEntity
  8
0
  370
-3
  100
AcDbText
  10
9.388888888888888
  20
7.263888888888888
  30
0.0
  40
0.08333333333333333
  1
N
  7
Standard
  100
AcDbText
  72
1
  11
9.388888888888888
  21
7.263888888888888
  31
0.0
  73
2
  0
TEXT
  5
7F
  330
10
  100
AcDbEntity
  8
0
  370
-3
  100
AcDbText
  10
8.944444444444445
  20
7.263888888888888
  30
0.0
  40
0.08333333333333333
  1
1
  7
Standard
  100
AcDbText
  72
0
  11
8.944444444444445
  21
7.263888888888888
  31
0.0
  73
1
  0
TEXT
  5
80
  330
10
  100
AcDbEntity
  8
0
  370
-3
  100
AcDbText
  10
9.833333333333332
  20
7.263888888888888
  30
0.0
  40
0.08333333333333333
  1
1
  7
Standard
  100
AcDbText
  72
2
  11
9.833333333333332
  21
7.263888888888888
  31
0.0
  73
1
  0
LWPOLYLINE
  5
81
  330
10
  100
AcDbEntity
  8
0
  370
-3
  100
AcDbPolyline
  90
2
  70
0
  10
8.89236111111111
  20
7.138888888888888
  10
9.222222222222221
  20
7.138888888888888
  0
LWPOLYLINE
  5
82
  330
10
  100
AcDbEntity
  8
0
  370
-3
  100
AcDbPolyline
  90
2
  70
0
  10
9.555555555555555
  20
7.138888888888888
  10
9.885416666666666
  20
7.138888888888888
  0
LWPOLYLINE
  5
83
  330
10
  100
AcDbEntity
  8
0
  370
-3
  100
AcDbPolyline
  90
3
  70
0
  10
9.267222222222221
  20
7.174045138888888
  10
9.222222222222221
  20
7.138888888888888
  10
9.267222222222221
  20
7.103732638888888
  0
LWPOLYLINE
  5
84
  330
10
  100
AcDbEntity
  8
0
  370
-3
  100
AcDbPolyline
  90
3
  70
0
  10
9.510555555555555
  20
7.174045138888888
  10
9.555555555555555
  20
7.138888888888888
  10
9.510555555555555
  20
7.103732638888888
  0
TEXT
  5
85
  330
10
  100
AcDbEntity
  8
0
  370
-3
  100
AcDbText
  10
8.944444444444445
  20
7.138888888888888
  30
0.0
  40
0.08333333333333333
  1
2
  7
Standard
  100
AcDbText
  72
0
  11
8.944444444444445
  21
7.138888888888888
  31
0.0
  73
1
  0
TEXT
  5
86
  330
10
  100
AcDbEntity
  8
0
  370
-3
  100
AcDbText
  10
9.833333333333332
  20
7.138888888888888
  30
0.0
  40
0.08333333333333333
  1
2
  7
Standard
  100
AcDbText
  72
2
  11
9.833333333333332
  21
7.138888888888888
  31
0.0
  73
1
  0
TEXT
  5
88
  330
10
  100
AcDbEntity
  8
0
  370
-3
  100
AcDbText
  10
2.208333333333333
  20
2.9375
  30
0.0
  40
0.125
  1
HUB / 1
  7
Standard
  100
AcDbText
  72
1
  11
2.208333333333333
  21
2.9375
  31
0.0
  73
2
  0
LWPOLYLINE
  5
89
  330
10
  100
AcDbEntity
  8
0
  370
-3
  100
AcDbPolyline
  90
4
  70
0
  10
1.3368055555555556
  20
2.8298611111111107
  10
3.079861111111111
  20
2.8298611111111107
  10
3.079861111111111
  20
1.4618055555555554
  10
1.3368055555555556
  20
1.4618055555555554
  0
LWPOLYLINE
  5
8A
  330
10
  100
AcDbEntity
  8
0
  370
-3
  100
AcDbPolyline
  90
2
  70
0
  10
1.3368055555555556
  20
2.583333333333334
  10
3.079861111111111
  20
2.583333333333334
  0
LWPOLYLINE
  5
8B
  330
10
  100
AcDbEntity
  8
0
  370
-3
  100
AcDbPolyline
  90
2
  70
0
  10
2.083333333333333
  20
2.458333333333334
  10
2.083333333333333
  20
1.583333333333334
  0
LWPOLYLINE
  5
8C
  330
10
  100
AcDbEntity
  8
0
  370
-3
  100
AcDbPolyline
  90
2
  70
0
  10
2.333333333333333
  20
2.458333333333334
  10
2.333333333333333
  20
1.583333333333334
  0
LWPOLYLINE
  5
8D
  330
10
  100
AcDbEntity
  8
0
  370
-3
  100
AcDbPolyline
  90
2
  70
0
  10
1.3368055555555556
  20
2.458333333333334
  10
2.083333333333333
  20
2.458333333333334
  0
LWPOLYLINE
  5
8E
  330
10
  100
AcDbEntity
  8
0
  370
-3
  100
AcDbPolyline
  90
2
  70
0
  10
1.3368055555555556
  20
2.333333333333334
  10
2.083333333333333
  20
2.333333333333334
  0
LWPOLYLINE
  5
8F
  330
10
  100
AcDbEntity
  8
0
  370
-3
  100
AcDbPolyline
  90
2
  70
0
  10
1.3368055555555556
  20
2.208333333333334
  10
2.083333333333333
  20
2.208333333333334
  0
LWPOLYLINE
  5
90
  330
10
  100
AcDbEntity
  8
0
  370
-3
  100
AcDbPolyline
  90
2
  70
0
  10
1.3368055555555556
  20
2.083333333333334
  10
2.083333333333333
  20
2.083333333333334
  0
LWPOLYLINE
  5
91
  330
10
  100
AcDbEntity
  8
0
  370
-3
  100
AcDbPolyline
  90
2
  70
0
  10
1.3368055555555556
  20
1.958333333333334
  10
2.083333333333333
  20
1.958333333333334
  0
LWPOLYLINE
  5
92
  330
10
  100
AcDbEntity
  8
0
  370
-3
  100
AcDbPolyline
  90
2
  70
0
  10
1.3368055555555556
  20
1.833333333333334
  10
2.083333333333333
  20
1.833333333333334
  0
LWPOLYLINE
  5
93
  330
10
  100
AcDbEntity
  8
0
  370
-3
  100
AcDbPolyline
  90
2
  70
0
  10
1.3368055555555556
  20
1.708333333333334
  10
2.083333333333333
  20
1.708333333333334
  0
LWPOLYLINE
  5
94
  330
10
  100
AcDbEntity
  8
0
  370
-3
  100
AcDbPolyline
  90
2
  70
0
  10
1.3368055555555556
  20
1.583333333333334
  10
2.083333333333333
  20
1.583333333333334
  0
LWPOLYLINE
  5
95
  330
10
  100
AcDbEntity
  8
0
  370
-3
  100
AcDbPolyline
  90
2
  70
0
  10
2.333333333333333
  20
2.458333333333334
  10
3.079861111111111
  20
2.458333333333334
  0
LWPOLYLINE
  5
96
  330
10
  100
AcDbEntity
  8
0
  370
-3
  100
AcDbPolyline
  90
2
  70
0
  10
2.333333333333333
  20
2.333333333333334
  10
3.079861111111111
  20
2.333333333333334
  0
LWPOLYLINE
  5
97
  330
10
  100
AcDbEntity
  8
0
  370
-3
  100
AcDbPolyline
  90
2
  70
0
  10
2.333333333333333
  20
2.208333333333334
  10
3.079861111111111
  20
2.208333333333334
  0
LWPOLYLINE
  5
98
  330
10
  100
AcDbEntity
  8
0
  370
-3
  100
AcDbPolyline
  90
2
  70
0
  10
2.333333333333333
  20
2.083333333333334
  10
3.079861111111111
  20
2.083333333333334
  0
LWPOLYLINE
  5
99
  330
10
  100
AcDbEntity
  8
0
  370
-3
  100
AcDbPolyline
  90
2
  70
0
  10
2.333333333333333
  20
1.958333333333334
  10
3.079861111111111
  20
1.958333333333334
  0
LWPOLYLINE
  5
9A
  330
10
  100
AcDbEntity
  8
0
  370
-3
  100
AcDbPolyline
  90
2
  70
0
  10
2.333333333333333
  20
1.833333333333334
  10
3.079861111111111
  20
1.833333333333334
  0
LWPOLYLINE
  5
9B
  330
10
  100
AcDbEntity
  8
0
  370
-3
  100
AcDbPolyline
  90
2
  70
0
  10
2.333333333333333
  20
1.708333333333334
  10
3.079861111111111
  20
1.708333333333334
  0
LWPOLYLINE
  5
9C
  330
10
  100
AcDbEntity
  8
0
  370
-3
  100
AcDbPolyline
  90
2
  70
0
  10
2.333333333333333
  20
1.583333333333334
  10
3.079861111111111
  20
1.583333333333334
  0
TEXT
  5
9D
  330
10
  100
AcDbEntity
  8
0
  370
-3
  100
AcDbText
  10
2.208333333333333
  20
2.708333333333334
  30
0.0
  40
0.125
  1
Bundle hub
  7
Standard
  100
AcDbText
  72
1
  11
2.208333333333333
  21
2.708333333333334
  31
0.0
  73
2
  0
TEXT
  5
A0
  330
10
  100
AcDbEntity
  8
0
  370
-3
  100
AcDbText
  10
1.392361111111111
  20
2.395833333333334
  30
0.0
  40
0.06944444444444445
  1
Inputs
  7
Standard
  100
AcDbText
  72
0
  11
1.392361111111111
  21
2.395833333333334
  31
0.0
  73
2
  0
TEXT
  5
A1
  330
10
  100
AcDbEntity
  8
0
  370
-3
  100
AcDbText
  10
3.0243055555555554
  20
2.395833333333334
  30
0.0
  40
0.06944444444444445
  1
Outputs
  7
Standard
  100
AcDbText
  72
2
  11
3.0243055555555554
  21
2.395833333333334
  31
0.0
  73
2
  0
TEXT
  5
A2
  330
10
  100
AcDbEntity
  8
0
  370
-3
  100
AcDbText
  10
1.392361111111111
  20
2.270833333333334
  30
0.0
  40
0.06944444444444445
  1
Aud 1
  7
Standard
  100
AcDbText
  72
0
  11
1.392361111111111
  21
2.270833333333334
  31
0.0
  73
2
  0
TEXT
  5
A3
  330
10
  100
AcDbEntity
  8
0
  370
-3
  100
AcDbText
  10
3.0243055555555554
  20
2.270833333333334
  30
0.0
  40
0.06944444444444445
  1
Aud 1
  7
Standard
  100
AcDbText
  72
2
  11
3.0243055555555554
  21
2.270833333333334
  31
0.0
  73
2
  0
TEXT
  5
A4
  330
10
  100
AcDbEntity
  8
0
  370
-3
  100
AcDbText
  10
1.392361111111111
  20
2.145833333333334
  30
0.0
  40
0.06944444444444445
  1
Aud 2
  7
Standard
  100
AcDbText
  72
0
  11
1.392361111111111
  21
2.145833333333334
  31
0.0
  73
2
  0
TEXT
  5
A5
  330
10
  100
AcDbEntity
  8
0
  370
-3
  100
AcDbText
  10
3.0243055555555554
  20
2.145833333333334
  30
0.0
  40
0.06944444444444445
  1
Aud 2
  7
Standard
  100
AcDbText
  72
2
  11
3.0243055555555554
  21
2.145833333333334
  31
0.0
  73
2
  0
TEXT
  5
A6
  330
10
  100
AcDbEntity
  8
0
  370
-3
  100
AcDbText
  10
1.392361111111111
  20
2.020833333333334
  30
0.0
  40
0.06944444444444445
  1
Video
  7
Standard
  100
AcDbText
  72
0
  11
1.392361111111111
  21
2.020833333333334
  31
0.0
  73
2
  0
TEXT
  5
A7
  330
10
  100
AcDbEntity
  8
0
  370
-3
  100
AcDbText
  10
3.0243055555555554
  20
2.020833333333334
  30
0.0
  40
0.06944444444444445
  1
Video
  7
Standard
  100
AcDbText
  72
2
  11
3.0243055555555554
  21
2.020833333333334
  31
0.0
  73
2
  0
TEXT
  5
A8
  330
10
  100
AcDbEntity
  8
0
  370
-3
  100
AcDbText
  10
1.392361111111111
  20
1.895833333333334
  30
0.0
  40
0.06944444444444445
  1
Control
  7
Standard
  100
AcDbText
  72
0
  11
1.392361111111111
  21
1.895833333333334
  31
0.0
  73
2
  0
TEXT
  5
A9
  330
10
  100
AcDbEntity
  8
0
  370
-3
  100
AcDbText
  10
3.0243055555555554
  20
1.895833333333334
  30
0.0
  40
0.06944444444444445
  1
Control
  7
Standard
  100
AcDbText
  72
2
  11
3.0243055555555554
  21
1.895833333333334
  31
0.0
  73
2
  0
TEXT
  5
AA
  330
10
  100
AcDbEntity
  8
0
  370
-3
  100
AcDbText
  10
1.392361111111111
  20
1.770833333333334
  30
0.0
  40
0.06944444444444445
  1
Network
  7
Standard
  100
AcDbText
  72
0
  11
1.392361111111111
  21
1.770833333333334
  31
0.0
  73
2
  0
TEXT
  5
AB
  330
10
  100
AcDbEntity
  8
0
  370
-3
  100
AcDbText
  10
3.0243055555555554
  20
1.770833333333334
  30
0.0
  40
0.06944444444444445
  1
Network
  7
Standard
  100
AcDbText
  72
2
  11
3.0243055555555554
  21
1.770833333333334
  31
0.0
  73
2
  0
TEXT
  5
AC
  330
10
  100
AcDbEntity
  8
0
  370
-3
  100
AcDbText
  10
1.392361111111111
  20
1.645833333333334
  30
0.0
  40
0.06944444444444445
  1
RF
  7
Standard
  100
AcDbText
  72
0
  11
1.392361111111111
  21
1.645833333333334
  31
0.0
  73
2
  0
TEXT
  5
AD
  330
10
  100
AcDbEntity
  8
0
  370
-3
  100
AcDbText
  10
3.0243055555555554
  20
1.645833333333334
  30
0.0
  40
0.06944444444444445
  1
RF
  7
Standard
  100
AcDbText
  72
2
  11
3.0243055555555554
  21
1.645833333333334
  31
0.0
  73
2
  0
TEXT
  5
AF
  330
10
  100
AcDbEntity
  8
0
  370
-3
  100
AcDbText
  10
5.611111111111111
  20
2.9375
  30
0.0
  40
0.125
  1
AVP / 2
  7
Standard
  100
AcDbText
  72
1
  11
5.611111111111111
  21
2.9375
  31
0.0
  73
2
  0
LWPOLYLINE
  5
B0
  330
10
  100
AcDbEntity
  8
0
  370
-3
  100
AcDbPolyline
  90
4
  70
0
  10
5.114583333333333
  20
2.8298611111111107
  10
6.107638888888888
  20
2.8298611111111107
  10
6.107638888888888
  20
1.4618055555555554
  10
5.114583333333333
  20
1.4618055555555554
  0
LWPOLYLINE
  5
B1
  330
10
  100
AcDbEntity
  8
0
  370
-3
  100
AcDbPolyline
  90
2
  70
0
  10
5.114583333333333
  20
2.583333333333334
  10
6.107638888888888
  20
2.583333333333334
  0
LWPOLYLINE
  5
B2
  330
10
  100
AcDbEntity
  8
0
  370
-3
  100
AcDbPolyline
  90
2
  70
0
  10
5.114583333333333
  20
2.458333333333334
  10
6.107638888888888
  20
2.458333333333334
  0
LWPOLYLINE
  5
B3
  330
10
  100
AcDbEntity
  8
0
  370
-3
  100
AcDbPolyline
  90
2
  70
0
  10
5.114583333333333
  20
2.333333333333334
  10
6.107638888888888
  20
2.333333333333334
  0
LWPOLYLINE
  5
B4
  330
10
  100
AcDbEntity
  8
0
  370
-3
  100
AcDbPolyline
  90
2
  70
0
  10
5.114583333333333
  20
2.208333333333334
  10
6.107638888888888
  20
2.208333333333334
  0
LWPOLYLINE
  5
B5
  330
10
  100
AcDbEntity
  8
0
  370
-3
  100
AcDbPolyline
  90
2
  70
0
  10
5.114583333333333
  20
2.083333333333334
  10
6.107638888888888
  20
2.083333333333334
  0
LWPOLYLINE
  5
B6
  330
10
  100
AcDbEntity
  8
0
  370
-3
  100
AcDbPolyline
  90
2
  70
0
  10
5.114583333333333
  20
1.958333333333334
  10
6.107638888888888
  20
1.958333333333334
  0
LWPOLYLINE
  5
B7
  330
10
  100
AcDbEntity
  8
0
  370
-3
  100
AcDbPolyline
  90
2
  70
0
  10
5.114583333333333
  20
1.833333333333334
  10
6.107638888888888
  20
1.833333333333334
  0
LWPOLYLINE
  5
B8
  330
10
  100
AcDbEntity
  8
0
  370
-3
  100
AcDbPolyline
  90
2
  70
0
  10
5.114583333333333
  20
1.708333333333334
  10
6.107638888888888
  20
1.708333333333334
  0
LWPOLYLINE
  5
B9
  330
10
  100
AcDbEntity
  8
0
  370
-3
  100
AcDbPolyline
  90
2
  70
0
  10
5.114583333333333
  20
1.583333333333334
  10
6.107638888888888
  20
1.583333333333334
  0
TEXT
  5
BA
  330
10
  100
AcDbEntity
  8
0
  370
-3
  100
AcDbText
  10
5.611111111111111
  20
2.708333333333334
  30
0.0
  40
0.125
  1
AV bundle plate
  7
Standard
  100
AcDbText
  72
1
  11
5.611111111111111
  21
2.708333333333334
  31
0.0
  73
2
  0
TEXT
  5
BC
  330
10
  100
AcDbEntity
  8
0
  370
-3
  100
AcDbText
  10
5.611111111111111
  20
2.395833333333334
  30
0.0
  40
0.06944444444444445
  1
Video in
  7
Standard
  100
AcDbText
  72
1
  11
5.611111111111111
  21
2.395833333333334
  31
0.0
  73
2
  0
TEXT
  5
BD
  330
10
  100
AcDbEntity
  8
0
  370
-3
  100
AcDbText
  10
5.170138888888888
  20
2.270833333333334
  30
0.0
  40
0.06944444444444445
  1
V1
  7
Standard
  100
AcDbText
  72
0
  11
5.170138888888888
  21
2.270833333333334
  31
0.0
  73
2
  0
TEXT
  5
BE
  330
10
  100
AcDbEntity
  8
0
  370
-3
  100
AcDbText
  10
5.170138888888888
  20
2.145833333333334
  30
0.0
  40
0.06944444444444445
  1
V2
  7
Standard
  100
AcDbText
  72
0
  11
5.170138888888888
  21
2.145833333333334
  31
0.0
  73
2
  0
TEXT
  5
C0
  330
10
  100
AcDbEntity
  8
0
  370
-3
  100
AcDbText
  10
5.611111111111111
  20
1.895833333333334
  30
0.0
  40
0.06944444444444445
  1
Audio out
  7
Standard
  100
AcDbText
  72
1
  11
5.611111111111111
  21
1.895833333333334
  31
0.0
  73
2
  0
TEXT
  5
C1
  330
10
  100
AcDbEntity
  8
0
  370
-3
  100
AcDbText
  10
6.052083333333333
  20
1.770833333333334
  30
0.0
  40
0.06944444444444445
  1
A1
  7
Standard
  100
AcDbText
  72
2
  11
6.052083333333333
  21
1.770833333333334
  31
0.0
  73
2
  0
TEXT
  5
C2
  330
10
  100
AcDbEntity
  8
0
  370
-3
  100
AcDbText
  10
6.052083333333333
  20
1.645833333333334
  30
0.0
  40
0.06944444444444445
  1
A2
  7
Standard
  100
AcDbText
  72
2
  11
6.052083333333333
  21
1.645833333333334
  31
0.0
  73
2
  0
TEXT
  5
C4
  330
10
  100
AcDbEntity
  8
0
  370
-3
  100
AcDbText
  10
9.388888888888888
  20
2.9375
  30
0.0
  40
0.125
  1
LPP / 2
  7
Standard
  100
AcDbText
  72
1
  11
9.388888888888888
  21
2.9375
  31
0.0
  73
2
  0
LWPOLYLINE
  5
C5
  330
10
  100
AcDbEntity
  8
0
  370
-3
  100
AcDbPolyline
  90
4
  70
0
  10
8.89236111111111
  20
2.8298611111111107
  10
9.885416666666666
  20
2.8298611111111107
  10
9.885416666666666
  20
1.7951388888888893
  10
8.89236111111111
  20
1.7951388888888893
  0
LWPOLYLINE
  5
C6
  330
10
  100
AcDbEntity
  8
0
  370
-3
  100
AcDbPolyline
  90
2
  70
0
  10
8.89236111111111
  20
2.416666666666666
  10
9.885416666666666
  20
2.416666666666666
  0
TEXT
  5
C7
  330
10
  100
AcDbEntity
  8
0
  370
-3
  100
AcDbText
  10
9.388888888888888
  20
2.6968749999999986
  30
0.0
  40
0.125
  1
AUDIO PATCH
  7
Standard
  100
AcDbText
  72
1
  11
9.388888888888888
  21
2.6968749999999986
  31
0.0
  73
2
  0
TEXT
  5
C8
  330
10
  100
AcDbEntity
  8
0
  370
-3
  100
AcDbText
  10
9.388888888888888
  20
2.5531249999999996
  30
0.0
  40
0.125
  1
BUNDLE
  7
Standard
  100
AcDbText
  72
1
  11
9.388888888888888
  21
2.5531249999999996
  31
0.0
  73
2
  0
LWPOLYLINE
  5
C9
  330
10
  100
AcDbEntity
  8
0
  370
-3
  100
AcDbPolyline
  90
2
  70
0
  10
8.89236111111111
  20
2.208333333333334
  10
9.885416666666666
  20
2.208333333333334
  0
LWPOLYLINE
  5
CA
  330
10
  100
AcDbEntity
  8
0
  370
-3
  100
AcDbPolyline
  90
3
  70
0
  10
9.267222222222221
  20
2.243489583333334
  10
9.222222222222221
  20
2.208333333333334
  10
9.267222222222221
  20
2.173177083333334
  0
LWPOLYLINE
  5
CB
  330
10
  100
AcDbEntity
  8
0
  370
-3
  100
AcDbPolyline
  90
3
  70
0
  10
9.510555555555555
  20
2.243489583333334
  10
9.555555555555555
  20
2.208333333333334
  10
9.510555555555555
  20
2.173177083333334
  0
TEXT
  5
CC
  330
10
  100
AcDbEntity
  8
0
  370
-3
  100
AcDbText
  10
8.944444444444445
  20
2.208333333333334
  30
0.0
  40
0.08333333333333333
  1
1
  7
Standard
  100
AcDbText
  72
0
  11
8.944444444444445
  21
2.208333333333334
  31
0.0
  73
1
  0
TEXT
  5
CD
  330
10
  100
AcDbEntity
  8
0
  370
-3
  100
AcDbText
  10
9.833333333333332
  20
2.208333333333334
  30
0.0
  40
0.08333333333333333
  1
1
  7
Standard
  100
AcDbText
  72
2
  11
9.833333333333332
  21
2.208333333333334
  31
0.0
  73
1
  0
LWPOLYLINE
  5
CE
  330
10
  100
AcDbEntity
  8
0
  370
-3
  100
AcDbPolyline
  90
2
  70
0
  10
8.89236111111111
  20
2.083333333333334
  10
9.885416666666666
  20
2.083333333333334
  0
LWPOLYLINE
  5
CF
  330
10
  100
AcDbEntity
  8
0
  370
-3
  100
AcDbPolyline
  90
3
  70
0
  10
9.267222222222221
  20
2.118489583333334
  10
9.222222222222221
  20
2.083333333333334
  10
9.267222222222221
  20
2.048177083333334
  0
LWPOLYLINE
  5
D0
  330
10
  100
AcDbEntity
  8
0
  370
-3
  100
AcDbPolyline
  90
3
  70
0
  10
9.510555555555555
  20
2.118489583333334
  10
9.555555555555555
  20
2.083333333333334
  10
9.510555555555555
  20
2.048177083333334
  0
TEXT
  5
D1
  330
10
  100
AcDbEntity
  8
0
  370
-3
  100
AcDbText
  10
8.944444444444445
  20
2.083333333333334
  30
0.0
  40
0.08333333333333333
  1
2
  7
Standard
  100
AcDbText
  72
0
  11
8.944444444444445
  21
2.083333333333334
  31
0.0
  73
1
  0
TEXT
  5
D2
  330
10
  100
AcDbEntity
  8
0
  370
-3
  100
AcDbText
  10
9.833333333333332
  20
2.083333333333334
  30
0.0
  40
0.08333333333333333
  1
2
  7
Standard
  100
AcDbText
  72
2
  11
9.833333333333332
  21
2.083333333333334
  31
0.0
  73
1
  0
LWPOLYLINE
  5
D3
  330
10
  100
AcDbEntity
  8
0
  370
-3
  100
AcDbPolyline
  90
2
  70
0
  10
8.89236111111111
  20
1.958333333333334
  10
9.222222222222221
  20
1.958333333333334
  0
LWPOLYLINE
  5
D4
  330
10
  100
AcDbEntity
  8
0
  370
-3
  100
AcDbPolyline
  90
2
  70
0
  10
9.555555555555555
  20
1.958333333333334
  10
9.885416666666666
  20
1.958333333333334
  0
LWPOLYLINE
  5
D5
  330
10
  100
AcDbEntity
  8
0
  370
-3
  100
AcDbPolyline
  90
3
  70
0
  10
9.267222222222221
  20
1.993489583333334
  10
9.222222222222221
  20
1.958333333333334
  10
9.267222222222221
  20
1.923177083333334
  0
LWPOLYLINE
  5
D6
  330
10
  100
AcDbEntity
  8
0
  370
-3
  100
AcDbPolyline
  90
3
  70
0
  10
9.510555555555555
  20
1.993489583333334
  10
9.555555555555555
  20
1.958333333333334
  10
9.510555555555555
  20
1.923177083333334
  0
TEXT
  5
D7
  330
10
  100
AcDbEntity
  8
0
  370
-3
  100
AcDbText
  10
8.944444444444445
  20
1.958333333333334
  30
0.0
  40
0.08333333333333333
  1
3
  7
Standard
  100
AcDbText
  72
0
  11
8.944444444444445
  21
1.958333333333334
  31
0.0
  73
1
  0
TEXT
  5
D8
  330
10
  100
AcDbEntity
  8
0
  370
-3
  100
AcDbText
  10
9.833333333333332
  20
1.958333333333334
  30
0.0
  40
0.08333333333333333
  1
3
  7
Standard
  100
AcDbText
  72
2
  11
9.833333333333332
  21
1.958333333333334
  31
0.0
  73
1
  0
TEXT
  5
DA
  330
10
  100
AcDbEntity
  8
0
  370
-3
  100
AcDbText
  10
13.166666666666666
  20
2.9375
  30
0.0
  40
0.125
  1
DPP / 2
  7
Standard
  100
AcDbText
  72
1
  11
13.166666666666666
  21
2.9375
  31
0.0
  73
2
  0
LWPOLYLINE
  5
DB
  330
10
  100
AcDbEntity
  8
0
  370
-3
  100
AcDbPolyline
  90
4
  70
0
  10
12.670138888888888
  20
2.8298611111111107
  10
13.663194444444443
  20
2.8298611111111107
  10
13.663194444444443
  20
1.7951388888888893
  10
12.670138888888888
  20
1.7951388888888893
  0
LWPOLYLINE
  5
DC
  330
10
  100
AcDbEntity
  8
0
  370
-3
  100
AcDbPolyline
  90
2
  70
0
  10
12.670138888888888
  20
2.416666666666666
  10
13.663194444444443
  20
2.416666666666666
  0
TEXT
  5
DD
  330
10
  100
AcDbEntity
  8
0
  370
-3
  100
AcDbText
  10
13.166666666666666
  20
2.6968749999999986
  30
0.0
  40
0.125
  1
NETWORK PATCH
  7
Standard
  100
AcDbText
  72
1
  11
13.166666666666666
  21
2.6968749999999986
  31
0.0
  73
2
  0
TEXT
  5
DE
  330
10
  100
AcDbEntity
  8
0
  370
-3
  100
AcDbText
  10
13.166666666666666
  20
2.5531249999999996
  30
0.0
  40
0.125
  1
BUNDLE
  7
Standard
  100
AcDbText
  72
1
  11
13.166666666666666
  21
2.5531249999999996
  31
0.0
  73
2
  0
LWPOLYLINE
  5
DF
  330
10
  100
AcDbEntity
  8
0
  370
-3
  100
AcDbPolyline
  90
2
  70
0
  10
12.670138888888888
  20
2.208333333333334
  10
13.635416666666666
  20
2.208333333333334
  0
LWPOLYLINE
  5
E0
  330
10
  100
AcDbEntity
  8
0
  370
-3
  100
AcDbPolyline
  90
3
  70
0
  10
13.590416666666666
  20
2.243489583333334
  10
13.635416666666666
  20
2.208333333333334
  10
13.590416666666666
  20
2.173177083333334
  0
TEXT
  5
E1
  330
10
  100
AcDbEntity
  8
0
  370
-3
  100
AcDbText
  10
12.722222222222221
  20
2.208333333333334
  30
0.0
  40
0.08333333333333333
  1
1
  7
Standard
  100
AcDbText
  72
0
  11
12.722222222222221
  21
2.208333333333334
  31
0.0
  73
1
  0
LWPOLYLINE
  5
E2
  330
10
  100
AcDbEntity
  8
0
  370
-3
  100
AcDbPolyline
  90
2
  70
0
  10
12.670138888888888
  20
2.083333333333334
  10
13.635416666666666
  20
2.083333333333334
  0
LWPOLYLINE
  5
E3
  330
10
  100
AcDbEntity
  8
0
  370
-3
  100
AcDbPolyline
  90
3
  70
0
  10
13.590416666666666
  20
2.118489583333334
  10
13.635416666666666
  20
2.083333333333334
  10
13.590416666666666
  20
2.048177083333334
  0
TEXT
  5
E4
  330
10
  100
AcDbEntity
  8
0
  370
-3
  100
AcDbText
  10
12.722222222222221
  20
2.083333333333334
  30
0.0
  40
0.08333333333333333
  1
2
  7
Standard
  100
AcDbText
  72
0
  11
12.722222222222221
  21
2.083333333333334
  31
0.0
  73
1
  0
LWPOLYLINE
  5
E5
  330
10
  100
AcDbEntity
  8
0
  370
-3
  100
AcDbPolyline
  90
2
  70
0
  10
12.697916666666666
  20
1.958333333333334
  10
13.663194444444443
  20
1.958333333333334
  0
LWPOLYLINE
  5
E6
  330
10
  100
AcDbEntity
  8
0
  370
-3
  100
AcDbPolyline
  90
3
  70
0
  10
12.742916666666666
  20
1.993489583333334
  10
12.697916666666666
  20
1.958333333333334
  10
12.742916666666666
  20
1.923177083333334
  0
TEXT
  5
E7
  330
10
  100
AcDbEntity
  8
0
  370
-3
  100
AcDbText
  10
13.61111111111111
  20
1.958333333333334
  30
0.0
  40
0.08333333333333333
  1
3
  7
Standard
  100
AcDbText
  72
2
  11
13.61111111111111
  21
1.958333333333334
  31
0.0
  73
1
  0
TEXT
  5
E9
  330
10
  100
AcDbEntity
  8
0
  370
-3
  100
AcDbText
  10
17.319444444444443
  20
2.9375
  30
0.0
  40
0.125
  1
SNK / 1
  7
Standard
  100
AcDbText
  72
1
  11
17.319444444444443
  21
2.9375
  31
0.0
  73
2
  0
LWPOLYLINE
  5
EA
  330
10
  100
AcDbEntity
  8
0
  370
-3
  100
AcDbPolyline
  90
4
  70
0
  10
16.447916666666664
  20
2.8298611111111107
  10
18.19097222222222
  20
2.8298611111111107
  10
18.19097222222222
  20
1.4618055555555554
  10
16.447916666666664
  20
1.4618055555555554
  0
LWPOLYLINE
  5
EB
  330
10
  100
AcDbEntity
  8
0
  370
-3
  100
AcDbPolyline
  90
2
  70
0
  10
16.447916666666664
  20
2.583333333333334
  10
18.19097222222222
  20
2.583333333333334
  0
LWPOLYLINE
  5
EC
  330
10
  100
AcDbEntity
  8
0
  370
-3
  100
AcDbPolyline
  90
2
  70
0
  10
17.194444444444443
  20
2.458333333333334
  10
17.194444444444443
  20
1.583333333333334
  0
LWPOLYLINE
  5
ED
  330
10
  100
AcDbEntity
  8
0
  370
-3
  100
AcDbPolyline
  90
2
  70
0
  10
16.447916666666664
  20
2.458333333333334
  10
17.194444444444443
  20
2.458333333333334
  0
LWPOLYLINE
  5
EE
  330
10
  100
AcDbEntity
  8
0
  370
-3
  100
AcDbPolyline
  90
2
  70
0
  10
16.447916666666664
  20
2.333333333333334
  10
17.194444444444443
  20
2.333333333333334
  0
LWPOLYLINE
  5
EF
  330
10
  100
AcDbEntity
  8
0
  370
-3
  100
AcDbPolyline
  90
2
  70
0
  10
16.447916666666664
  20
2.208333333333334
  10
17.194444444444443
  20
2.208333333333334
  0
LWPOLYLINE
  5
F0
  330
10
  100
AcDbEntity
  8
0
  370
-3
  100
AcDbPolyline
  90
2
  70
0
  10
16.447916666666664
  20
2.083333333333334
  10
17.194444444444443
  20
2.083333333333334
  0
LWPOLYLINE
  5
F1
  330
10
  100
AcDbEntity
  8
0
  370
-3
  100
AcDbPolyline
  90
2
  70
0
  10
16.447916666666664
  20
1.958333333333334
  10
17.194444444444443
  20
1.958333333333334
  0
LWPOLYLINE
  5
F2
  330
10
  100
AcDbEntity
  8
0
  370
-3
  100
AcDbPolyline
  90
2
  70
0
  10
16.447916666666664
  20
1.833333333333334
  10
17.194444444444443
  20
1.833333333333334
  0
LWPOLYLINE
  5
F3
  330
10
  100
AcDbEntity
  8
0
  370
-3
  100
AcDbPolyline
  90
2
  70
0
  10
16.447916666666664
  20
1.708333333333334
  10
17.194444444444443
  20
1.708333333333334
  0
LWPOLYLINE
  5
F4
  330
10
  100
AcDbEntity
  8
0
  370
-3
  100
AcDbPolyline
  90
2
  70
0
  10
16.447916666666664
  20
1.583333333333334
  10
17.194444444444443
  20
1.583333333333334
  0
TEXT
  5
F5
  330
10
  100
AcDbEntity
  8
0
  370
-3
  100
AcDbText
  10
17.319444444444443
  20
2.708333333333334
  30
0.0
  40
0.125
  1
Wire-type sink
  7
Standard
  100
AcDbText
  72
1
  11
17.319444444444443
  21
2.708333333333334
  31
0.0
  73
2
  0
TEXT
  5
F7
  330
10
  100
AcDbEntity
  8
0
  370
-3
  100
AcDbText
  10
16.50347222222222
  20
2.395833333333334
  30
0.0
  40
0.06944444444444445
  1
Inputs
  7
Standard
  100
AcDbText
  72
0
  11
16.50347222222222
  21
2.395833333333334
  31
0.0
  73
2
  0
TEXT
  5
F8
  330
10
  100
AcDbEntity
  8
0
  370
-3
  100
AcDbText
  10
16.50347222222222
  20
2.270833333333334
  30
0.0
  40
0.06944444444444445
  1
Audio
  7
Standard
  100
AcDbText
  72
0
  11
16.50347222222222
  21
2.270833333333334
  31
0.0
  73
2
  0
TEXT
  5
F9
  330
10
  100
AcDbEntity
  8
0
  370
-3
  100
AcDbText
  10
16.50347222222222
  20
2.145833333333334
  30
0.0
  40
0.06944444444444445
  1
Video
  7
Standard
  100
AcDbText
  72
0
  11
16.50347222222222
  21
2.145833333333334
  31
0.0
  73
2
  0
TEXT
  5
FA
  330
10
  100
AcDbEntity
  8
0
  370
-3
  100
AcDbText
  10
16.50347222222222
  20
2.020833333333334
  30
0.0
  40
0.06944444444444445
  1
Control
  7
Standard
  100
AcDbText
  72
0
  11
16.50347222222222
  21
2.020833333333334
  31
0.0
  73
2
  0
TEXT
  5
FB
  330
10
  100
AcDbEntity
  8
0
  370
-3
  100
AcDbText
  10
16.50347222222222
  20
1.895833333333334
  30
0.0
  40
0.06944444444444445
  1
Network
  7
Standard
  100
AcDbText
  72
0
  11
16.50347222222222
  21
1.895833333333334
  31
0.0
  73
2
  0
TEXT
  5
FC
  330
10
  100
AcDbEntity
  8
0
  370
-3
  100
AcDbText
  10
16.50347222222222
  20
1.770833333333334
  30
0.0
  40
0.06944444444444445
  1
RF
  7
Standard
  100
AcDbText
  72
0
  11
16.50347222222222
  21
1.770833333333334
  31
0.0
  73
2
  0
TEXT
  5
FD
  330
10
  100
AcDbEntity
  8
0
  370
-3
  100
AcDbText
  10
16.50347222222222
  20
1.645833333333334
  30
0.0
  40
0.06944444444444445
  1
Default
  7
Standard
  100
AcDbText
  72
0
  11
16.50347222222222
  21
1.645833333333334
  31
0.0
  73
2
  0
LWPOLYLINE
  5
FE
  330
10
  100
AcDbEntity
  8
audio
  370
-3
  100
AcDbPolyline
  90
2
  70
0
  10
9.375
  20
11.972222222222221
  10
9.375
  20
9.597222222222221
  0
LWPOLYLINE
  5
FF
  330
10
  100
AcDbEntity
  8
audio
  370
-3
  100
AcDbPolyline
  90
2
  70
0
  10
17.44097222222222
  20
9.597222222222221
  10
17.541666666666664
  20
9.597222222222221
  0
LWPOLYLINE
  5
1000
  330
10
  100
AcDbEntity
  8
audio
  370
-3
  100
AcDbPolyline
  90
2
  70
0
  10
9.375
  20
9.597222222222221
  10
17.541666666666664
  20
9.597222222222221
  0
LWPOLYLINE
  5
101
  330
10
  100
AcDbEntity
  8
audio
  370
-3
  100
AcDbPolyline
  90
2
  70
0
  10
1.25
  20
11.972222222222221
  10
9.375
  20
11.972222222222221
  0
LWPOLYLINE
  5
102
  330
10
  100
AcDbEntity
  8
audio
  370
-3
  100
AcDbPolyline
  90
2
  70
0
  10
1.25
  20
11.972222222222221
  10
1.3368055555555556
  20
11.972222222222221
  0
LWPOLYLINE
  5
103
  330
10
  100
AcDbEntity
  8
default
  370
-3
  100
AcDbPolyline
  90
2
  70
0
  10
8.88888888888889
  20
5.513888888888889
  10
9.0
  20
5.513888888888889
  0
LWPOLYLINE
  5
104
  330
10
  100
AcDbEntity
  8
default
  370
-3
  100
AcDbPolyline
  90
2
  70
0
  10
9.0
  20
5.513888888888889
  10
9.708333333333332
  20
5.513888888888889
  0
LWPOLYLINE
  5
105
  330
10
  100
AcDbEntity
  8
default
  370
-3
  100
AcDbPolyline
  90
2
  70
0
  10
9.708333333333332
  20
5.513888888888889
  10
9.777777777777777
  20
5.513888888888889
  0
LWPOLYLINE
  5
106
  330
10
  100
AcDbEntity
  8
default
  370
-3
  100
AcDbPolyline
  90
2
  70
0
  10
10.25
  20
5.513888888888889
  10
10.333333333333332
  20
5.513888888888889
  0
LWPOLYLINE
  5
107
  330
10
  100
AcDbEntity
  8
default
  370
-3
  100
AcDbPolyline
  90
2
  70
0
  10
9.5
  20
5.513888888888889
  10
10.25
  20
5.513888888888889
  0
LWPOLYLINE
  5
108
  330
10
  100
AcDbEntity
  8
default
  370
-3
  100
AcDbPolyline
  90
2
  70
0
  10
9.444444444444445
  20
5.513888888888889
  10
9.5
  20
5.513888888888889
  0
LWPOLYLINE
  5
109
  330
10
  100
AcDbEntity
  8
default
  370
-3
  100
AcDbPolyline
  90
2
  70
0
  10
5.291666666666666
  20
11.972222222222221
  10
5.291666666666666
  20
5.513888888888889
  0
LWPOLYLINE
  5
10A
  330
10
  100
AcDbEntity
  8
default
  370
-3
  100
AcDbPolyline
  90
2
  70
0
  10
9.333333333333332
  20
5.513888888888889
  10
9.444444444444445
  20
5.513888888888889
  0
LWPOLYLINE
  5
10B
  330
10
  100
AcDbEntity
  8
default
  370
-3
  100
AcDbPolyline
  90
2
  70
0
  10
5.291666666666666
  20
5.513888888888889
  10
9.333333333333332
  20
5.513888888888889
  0
LWPOLYLINE
  5
10C
  330
10
  100
AcDbEntity
  8
default
  370
-3
  100
AcDbPolyline
  90
2
  70
0
  10
1.25
  20
11.972222222222221
  10
5.291666666666666
  20
11.972222222222221
  0
LWPOLYLINE
  5
10D
  330
10
  100
AcDbEntity
  8
default
  370
-3
  100
AcDbPolyline
  90
2
  70
0
  10
1.25
  20
11.972222222222221
  10
1.3368055555555556
  20
11.972222222222221
  0
LWPOLYLINE
  5
10E
  330
10
  100
AcDbEntity
  8
video
  370
-3
  100
AcDbPolyline
  90
6
  70
0
  10
3.079861111111111
  20
2.020833333333334
  10
3.1666666666666665
  20
2.0138888888888893
  10
4.041666666666666
  20
2.0138888888888893
  10
4.041666666666666
  20
2.2638888888888893
  10
4.875
  20
2.2638888888888893
  10
5.114583333333333
  20
2.270833333333334
  0
LWPOLYLINE
  5
10F
  330
10
  100
AcDbEntity
  8
audio
  370
-3
  100
AcDbPolyline
  90
2
  70
0
  10
11.375
  20
2.1388888888888893
  10
11.375
  20
1.8888888888888893
  0
LWPOLYLINE
  5
110
  330
10
  100
AcDbEntity
  8
audio
  370
-3
  100
AcDbPolyline
  90
2
  70
0
  10
6.107638888888888
  20
1.7638888888888893
  10
6.333333333333333
  20
1.7638888888888893
  0
LWPOLYLINE
  5
111
  330
10
  100
AcDbEntity
  8
audio
  370
-3
  100
AcDbPolyline
  90
2
  70
0
  10
6.333333333333333
  20
1.7638888888888893
  10
9.694444444444445
  20
1.7638888888888893
  0
LWPOLYLINE
  5
112
  330
10
  100
AcDbEntity
  8
audio
  370
-3
  100
AcDbPolyline
  90
2
  70
0
  10
9.805555555555555
  20
1.7638888888888893
  10
11.25
  20
1.7638888888888893
  0
LWPOLYLINE
  5
113
  330
10
  100
AcDbEntity
  8
audio
  370
-3
  100
AcDbPolyline
  90
2
  70
0
  10
11.5
  20
2.2638888888888893
  10
16.375
  20
2.2638888888888893
  0
LWPOLYLINE
  5
114
  330
10
  100
AcDbEntity
  8
audio
  370
-3
  100
AcDbPolyline
  90
2
  70
0
  10
16.375
  20
2.2638888888888893
  10
16.447916666666664
  20
2.2638888888888893
  0
LWPOLYLINE
  5
115
  330
10
  100
AcDbEntity
  8
audio
  370
-3
  100
AcDbPolyline
  90
9
  70
0
  10
11.25
  20
1.7638888888888893
  10
11.274386290252014
  20
1.7662907288384844
  10
11.297835429045636
  20
1.7734039473249776
  10
11.31944627912745
  20
1.7849551873510698
  10
11.33838834764832
  20
1.8005005412405701
  10
11.353933701537818
  20
1.8194426097614382
  10
11.36548494156391
  20
1.841053459843252
  10
11.372598160050403
  20
1.8645025986368733
  10
11.375
  20
1.8888888888888893
  0
LWPOLYLINE
  5
116
  330
10
  100
AcDbEntity
  8
audio
  370
-3
  100
AcDbPolyline
  90
9
  70
0
  10
11.375
  20
2.1388888888888893
  10
11.377401839949595
  20
2.1632751791409035
  10
11.384515058436088
  20
2.186724317934525
  10
11.39606629846218
  20
2.2083351680163386
  10
11.41161165235168
  20
2.2272772365372084
  10
11.430553720872549
  20
2.242822590426707
  10
11.452164570954363
  20
2.254373830452799
  10
11.475613709747984
  20
2.2614870489392924
  10
11.5
  20
2.2638888888888893
  0
LWPOLYLINE
  5
117
  330
10
  100
AcDbEntity
  8
audio
  370
-3
  100
AcDbPolyline
  90
2
  70
0
  10
3.079861111111111
  20
2.2638888888888893
  10
3.1666666666666665
  20
2.2638888888888893
  0
LWPOLYLINE
  5
118
  330
10
  100
AcDbEntity
  8
audio
  370
-3
  100
AcDbPolyline
  90
2
  70
0
  10
3.1666666666666665
  20
2.2638888888888893
  10
16.375
  20
2.2638888888888893
  0
LWPOLYLINE
  5
119
  330
10
  100
AcDbEntity
  8
audio
  370
-3
  100
AcDbPolyline
  90
2
  70
0
  10
16.375
  20
2.2638888888888893
  10
16.447916666666664
  20
2.2638888888888893
  0
LWPOLYLINE
  5
11A
  330
10
  100
AcDbEntity
  8
audio
  370
-3
  100
AcDbPolyline
  90
2
  70
0
  10
9.75
  20
2.1388888888888893
  10
9.75
  20
1.6388888888888893
  0
LWPOLYLINE
  5
11B
  330
10
  100
AcDbEntity
  8
audio
  370
-3
  100
AcDbPolyline
  90
2
  70
0
  10
3.079861111111111
  20
2.1388888888888893
  10
3.1666666666666665
  20
2.1388888888888893
  0
LWPOLYLINE
  5
11C
  330
10
  100
AcDbEntity
  8
audio
  370
-3
  100
AcDbPolyline
  90
2
  70
0
  10
3.1666666666666665
  20
2.1388888888888893
  10
3.9861111111111107
  20
2.1388888888888893
  0
LWPOLYLINE
  5
11D
  330
10
  100
AcDbEntity
  8
audio
  370
-3
  100
AcDbPolyline
  90
2
  70
0
  10
4.097222222222222
  20
2.1388888888888893
  10
9.75
  20
2.1388888888888893
  0
LWPOLYLINE
  5
11E
  330
10
  100
AcDbEntity
  8
audio
  370
-3
  100
AcDbPolyline
  90
2
  70
0
  10
9.75
  20
1.6388888888888893
  10
16.375
  20
1.6388888888888893
  0
LWPOLYLINE
  5
11F
  330
10
  100
AcDbEntity
  8
audio
  370
-3
  100
AcDbPolyline
  90
2
  70
0
  10
16.375
  20
1.6388888888888893
  10
16.447916666666664
  20
1.6388888888888893
  0
LWPOLYLINE
  5
120
  330
10
  100
AcDbEntity
  8
control
  370
-3
  100
AcDbPolyline
  90
2
  70
0
  10
9.75
  20
2.0138888888888893
  10
9.75
  20
1.8888888888888893
  0
LWPOLYLINE
  5
121
  330
10
  100
AcDbEntity
  8
control
  370
-3
  100
AcDbPolyline
  90
2
  70
0
  10
3.079861111111111
  20
1.8888888888888893
  10
3.1666666666666665
  20
1.8888888888888893
  0
LWPOLYLINE
  5
122
  330
10
  100
AcDbEntity
  8
control
  370
-3
  100
AcDbPolyline
  90
2
  70
0
  10
3.1666666666666665
  20
1.8888888888888893
  10
9.75
  20
1.8888888888888893
  0
LWPOLYLINE
  5
123
  330
10
  100
AcDbEntity
  8
control
  370
-3
  100
AcDbPolyline
  90
2
  70
0
  10
9.75
  20
2.0138888888888893
  10
11.319444444444445
  20
2.0138888888888893
  0
LWPOLYLINE
  5
124
  330
10
  100
AcDbEntity
  8
control
  370
-3
  100
AcDbPolyline
  90
2
  70
0
  10
11.430555555555555
  20
2.0138888888888893
  10
16.375
  20
2.0138888888888893
  0
LWPOLYLINE
  5
125
  330
10
  100
AcDbEntity
  8
control
  370
-3
  100
AcDbPolyline
  90
2
  70
0
  10
16.375
  20
2.0138888888888893
  10
16.447916666666664
  20
2.0138888888888893
  0
LWPOLYLINE
  5
126
  330
10
  100
AcDbEntity
  8
network
  370
-3
  100
AcDbPolyline
  90
6
  70
0
  10
3.079861111111111
  20
1.770833333333334
  10
3.1666666666666665
  20
1.7638888888888893
  10
9.75
  20
1.7638888888888893
  10
9.75
  20
1.8888888888888893
  10
16.375
  20
1.8888888888888893
  10
16.447916666666664
  20
1.895833333333334
  0
LWPOLYLINE
  5
127
  330
10
  100
AcDbEntity
  8
rf
  370
-3
  100
AcDbPolyline
  90
6
  70
0
  10
3.079861111111111
  20
1.645833333333334
  10
3.1666666666666665
  20
1.6388888888888893
  10
9.75
  20
1.6388888888888893
  10
9.75
  20
1.7638888888888893
  10
16.375
  20
1.7638888888888893
  10
16.447916666666664
  20
1.770833333333334
  0
ENDSEC
  0
EOF