  0
SECTION
  2
HEADER
  9
$ANGBASE
 50
0.0
  9
$ANGDIR
 70
1
  9
$AUNITS
 70
0
  9
$AUPREC
 70
0
  9
$ATTMODE
 70
1
  9
$DWGCODEPAGE
  3
ANSI_1252
  9
$TDCREATE
 40
2461190.3583611459471285
  9
$CECOLOR
 62
256
  9
$CELTSCALE
 40
1.0
  9
$CELWEIGHT
370
-1
  9
$CLAYER
  8
0
  9
$CELTYPE
  6
ByLayer
  9
$CMLJUST
 70
0
  9
$CMLSCALE
 40
20.0
  9
$CMLSTYLE
  2
Standard
  9
$DIMSTYLE
  2
Standard
  9
$LWDISPLAY
290
0
  9
$EXTNAMES
290
1
  9
$HANDSEED
  5
4C6
  9
$INSUNITS
 70
1
  9
$LUNITS
 70
2
  9
$LUPREC
 70
4
  9
$LTSCALE
 40
1.0
  9
$MIRRTEXT
 70
0
  9
$INSBASE
 10
0.0
 20
0.0
 30
0.0
  9
$SPLINESEGS
 70
8
  9
$PSLTSCALE
 70
1
  9
$PDMODE
 70
0
  9
$PDSIZE
 40
0.0
  9
$PLINEGEN
 70
0
  9
$TEXTSIZE
 40
0.2
  9
$TEXTSTYLE
  7
Standard
  9
$TDINDWG
 40
0.0
  9
$TDUCREATE
 40
2461190.3583611459471285
  9
$TDUUPDATE
 40
2461190.3583611459471285
  9
$TDUPDATE
 40
2461190.3583611459471285
  9
$ACADVER
  1
AC1015
  9
$EXTMIN
 10
1.1625
 20
-1.9
 30
0.0
9
$EXTMAX
 10
22.84444444444444
 20
15.7125
 30
0.0
9
$LIMMIN
 10
1.1625
 20
-1.9
9
$LIMMAX
 10
22.84444444444444
 20
15.7125
  0
ENDSEC
  0
SECTION
  2
CLASSES
  0
CLASS
  1
ACDBDICTIONARYWDFLT
  2
AcDbDictionaryWithDefault
  3
ObjectDBX Classes
 90
32768
280
0
281
0
  0
CLASS
  1
ACDBPLACEHOLDER
  2
AcDbPlaceHolder
  3
ObjectDBX Classes
 90
0
280
0
281
0
  0
CLASS
  1
LAYOUT
  2
AcDbLayout
  3
ObjectDBX Classes
 90
0
280
0
281
0
  0
CLASS
  1
DICTIONARYVAR
  2
AcDbDictionaryVar
  3
ObjectDBX Classes
 90
0
280
0
281
0
  0
CLASS
  1
TABLESTYLE
  2
AcDbTableStyle
  3
ObjectDBX Classes
 90
4095
280
0
281
0
  0
CLASS
  1
MATERIAL
  2
AcDbMaterial
  3
ObjectDBX Classes
 90
1153
280
0
281
0
  0
CLASS
  1
VISUALSTYLE
  2
AcDbVisualStyle
  3
ObjectDBX Classes
 90
4095
280
0
281
0
  0
CLASS
  1
SCALE
  2
AcDbScale
  3
ObjectDBX Classes
 90
1153
280
0
281
0
  0
CLASS
  1
MLEADERSTYLE
  2
AcDbMLeaderStyle
  3
ObjectDBX Classes
 90
4095
280
0
281
0
  0
CLASS
  1
CELLSTYLEMAP
  2
AcDbCellStyleMap
  3
ObjectDBX Classes
 90
1152
280
0
281
0
  0
CLASS
  1
EXACXREFPANELOBJECT
  2
ExAcXREFPanelObject
  3
ObjectDBX Classes
 90
1025
280
0
281
0
  0
CLASS
  1
NPOCOLLECTION
  2
AcDbImpNonPersistentObjectsCollection
  3
ObjectDBX Classes
 90
1153
280
0
281
0
  0
CLASS
  1
LAYER_INDEX
  2
AcDbLayerIndex
  3
ObjectDBX Classes
 90
0
280
0
281
0
  0
CLASS
  1
SPATIAL_INDEX
  2
AcDbSpatialIndex
  3
ObjectDBX Classes
 90
0
280
0
281
0
  0
CLASS
  1
IDBUFFER
  2
AcDbIdBuffer
  3
ObjectDBX Classes
 90
32768
280
0
281
0
  0
CLASS
  1
ACDBSECTIONVIEWSTYLE
  2
AcDbSectionViewStyle
  3
ObjectDBX Classes
 90
1025
280
0
281
0
  0
CLASS
  1
ACDBDETAILVIEWSTYLE
  2
AcDbDetailViewStyle
  3
ObjectDBX Classes
 90
1025
280
0
281
0
  0
CLASS
  1
MESH
  2
AcDbSubDMesh
  3
ObjectDBX Classes
 90
0
280
0
281
1
  0
CLASS
  1
SORTENTSTABLE
  2
AcDbSortentsTable
  3
ObjectDBX Classes
 90
0
280
0
281
0
  0
CLASS
  1
ACDB_TEXTOBJECTCONTEXTDATA_CLASS
  2
AcDbTextObjectContextData
  3
ObjectDBX Classes
 90
1153
280
0
281
0
  0
CLASS
  1
WIPEOUT
  2
AcDbWipeout
  3
WipeOut
 90
32895
280
0
281
1
  0
CLASS
  1
WIPEOUTVARIABLES
  2
AcDbWipeoutVariables
  3
WipeOut
 90
32768
280
0
281
0
  0
CLASS
  1
DIMASSOC
  2
AcDbDimAssoc
  3
AcDbDimAssoc
 90
0
280
0
281
0
  0
CLASS
  1
ACAD_TABLE
  2
AcDbTable
  3
ObjectDBX Classes
 90
1025
280
0
281
1
  0
CLASS
  1
TABLECONTENT
  2
AcDbTableContent
  3
ObjectDBX Classes
 90
1152
280
0
281
0
  0
CLASS
  1
TABLEGEOMETRY
  2
AcDbTableGeometry
  3
ObjectDBX Classes
 90
1152
280
0
281
0
  0
CLASS
  1
IMAGE
  2
AcDbRasterImage
  3
ISM
 90
32895
280
0
281
1
  0
CLASS
  1
IMAGEDEF
  2
AcDbRasterImageDef
  3
ISM
 90
0
280
0
281
0
  0
CLASS
  1
IMAGEDEF_REACTOR
  2
AcDbRasterImageDefReactor
  3
ISM
 90
1
280
0
281
0
  0
CLASS
  1
DBCOLOR
  2
AcDbColor
  3
ObjectDBX Classes
 90
0
280
0
281
0
  0
CLASS
  1
GEODATA
  2
AcDbGeoData
  3
ObjectDBX Classes
 90
4095
280
0
281
0
  0
CLASS
  1
MULTILEADER
  2
AcDbMLeader
  3
ObjectDBX Classes
 90
1025
280
0
281
0
  0
CLASS
  1
PDFUNDERLAY
  2
AcDbPdfReference
  3
ObjectDBX Classes
 90
4095
280
0
281
1
  0
CLASS
  1
PDFDEFINITION
  2
AcDbPdfDefinition
  3
ObjectDBX Classes
 90
1153
280
0
281
0
  0
CLASS
  1
RASTERVARIABLES
  2
AcDbRasterVariables
  3
ISM
 90
0
280
0
281
0
  0
CLASS
  1
SPATIAL_FILTER
  2
AcDbSpatialFilter
  3
ObjectDBX Classes
 90
0
280
0
281
0
  0
CLASS
  1
ACDB_MLEADEROBJECTCONTEXTDATA_CLASS
  2
AcDbMLeaderObjectContextData
  3
ObjectDBX Classes
 90
1025
280
0
281
0
  0
CLASS
  1
PLOTSETTINGS
  2
AcDbPlotSettings
  3
ObjectDBX Classes
 90
0
280
0
281
0
  0
CLASS
  1
FIELD
  2
AcDbField
  3
ObjectDBX Classes
 90
1152
280
0
281
0
  0
CLASS
  1
FIELDLIST
  2
AcDbFieldList
  3
ObjectDBX Classes
 90
1152
280
0
281
0
  0
CLASS
  1
ACDB_MTEXTATTRIBUTEOBJECTCONTEXTDATA_CLASS
  2
AcDbMTextAttributeObjectContextData
  3
ObjectDBX Classes
 90
1153
280
0
281
0
  0
CLASS
  1
ACDB_BLKREFOBJECTCONTEXTDATA_CLASS
  2
AcDbBlkRefObjectContextData
  3
ObjectDBX Classes
 90
1153
280
0
281
0
  0
ENDSEC
  0
SECTION
  2
TABLES
  0
TABLE
  2
VPORT
  5
18
330
0
100
AcDbSymbolTable
 70
1
  0
VPORT
  5
26
330
18
100
AcDbSymbolTableRecord
100
AcDbViewportTableRecord
  2
*Active
 70
0
 10
0.0
 20
0.0
 11
1.0
 21
1.0
 12
0.0
 22
0.0
 13
0.0
 23
0.0
 14
0.5
 24
0.5
 15
10.0
 25
10.0
 16
0.0
 26
0.0
 36
1.0
 17
0.0
 27
0.0
 37
0.0
 40
10.0
 41
1.0
 75
0
 76
1
  0
ENDTAB
  0
TABLE
  2
LTYPE
  5
14
330
0
100
AcDbSymbolTable
 70
3
  0
LTYPE
  5
19
330
14
100
AcDbSymbolTableRecord
100
AcDbLinetypeTableRecord
  2
ByLayer
 70
0
 72
0
 73
0
 40
0.0
  0
LTYPE
  5
1A
330
14
100
AcDbSymbolTableRecord
100
AcDbLinetypeTableRecord
  2
ByBlock
 70
0
 72
0
 73
0
 40
0.0
  0
LTYPE
  5
1B
330
14
100
AcDbSymbolTableRecord
100
AcDbLinetypeTableRecord
  2
Continuous
 70
0
 72
0
 73
0
 40
0.0
  0
ENDTAB
  0
TABLE
  2
LAYER
  5
13
330
0
100
AcDbSymbolTable
 70
5
  0
LAYER
  5
1C
330
13
100
AcDbSymbolTableRecord
100
AcDbLayerTableRecord
  2
0
 70
0
 62
7
  6
Continuous
290
1
370
9
390
0
  0
LAYER
  5
27
330
13
100
AcDbSymbolTableRecord
100
AcDbLayerTableRecord
  2
WIRES
 70
0
 62
7
  6
Continuous
290
1
370
9
390
0
  0
LAYER
  5
28
330
13
100
AcDbSymbolTableRecord
100
AcDbLayerTableRecord
  2
FILLS
 70
0
 62
9
  6
Continuous
290
1
370
9
390
0
  0
LAYER
  5
29
330
13
100
AcDbSymbolTableRecord
100
AcDbLayerTableRecord
  2
INKFILL
 70
0
 62
7
  6
Continuous
290
1
370
9
390
0
  0
LAYER
  5
2A
330
13
100
AcDbSymbolTableRecord
100
AcDbLayerTableRecord
  2
GUIDES
 70
0
 62
8
  6
Continuous
290
1
370
9
390
0
  0
ENDTAB
  0
TABLE
  2
STYLE
  5
15
330
0
100
AcDbSymbolTable
 70
1
  0
STYLE
  5
23
330
15
100
AcDbSymbolTableRecord
100
AcDbTextStyleTableRecord
  2
Standard
 70
0
  3
Arial Narrow.ttf
 40
0.0
 41
1.0
 42
0.0
 50
0.0
 71
0
  0
ENDTAB
  0
TABLE
  2
VIEW
  5
17
330
0
100
AcDbSymbolTable
 70
0
  0
ENDTAB
  0
TABLE
  2
UCS
  5
16
330
0
100
AcDbSymbolTable
 70
0
  0
ENDTAB
  0
TABLE
  2
APPID
  5
10
330
0
100
AcDbSymbolTable
 70
1
  0
APPID
  5
25
330
10
100
AcDbSymbolTableRecord
100
AcDbRegAppTableRecord
  2
ACAD
 70
0
  0
ENDTAB
  0
TABLE
  2
DIMSTYLE
  5
12
330
0
100
AcDbSymbolTable
 70
1
100
AcDbDimStyleTable
  0
DIMSTYLE
105
24
330
12
100
AcDbSymbolTableRecord
100
AcDbDimStyleTableRecord
  2
Standard
 70
0
  3
<>
  4
[]
 40
1.0
 41
0.18
 42
0.625
 43
3.75
 44
1.25
 45
0.0
 46
0.0
 47
0.0
 48
0.0
 49
1.0
 50
45.0
 70
0
 90
0
140
0.18
141
0.09
142
0.0
143
25.3999999999999986
144
1.0
145
0.0
146
1.0
147
0.625
148
0.0
 71
0
 72
0
 73
0
 74
0
 75
0
 76
0
 77
1
 78
8
 79
0
170
0
171
3
172
0
173
1
174
0
175
0
176
0
177
0
178
0
179
0
271
2
272
2
273
2
274
3
275
0
276
0
277
2
278
46
279
0
280
0
281
0
282
0
283
0
284
8
285
0
286
0
287
0
288
0
289
3
290
0
340
0
371
-2
372
-2
  0
ENDTAB
  0
TABLE
  2
BLOCK_RECORD
  5
11
330
0
100
AcDbSymbolTable
 70
2
  0
BLOCK_RECORD
  5
1D
330
11
100
AcDbSymbolTableRecord
100
AcDbBlockTableRecord
  2
*Model_Space
 70
0
340
2B
 70
0
280
0
281
1
  0
BLOCK_RECORD
  5
20
330
11
100
AcDbSymbolTableRecord
100
AcDbBlockTableRecord
  2
*Paper_Space
 70
0
340
2C
 70
0
280
0
281
1
  0
ENDTAB
  0
ENDSEC
  0
SECTION
  2
BLOCKS
  0
BLOCK
  5
1E
330
1D
100
AcDbEntity
  8
0
  6
ByLayer
 62
256
 48
1.0
 60
0
 67
0
370
-1
100
AcDbBlockBegin
  2
*Model_Space
 70
0
 10
0.0
 20
0.0
 30
0.0
  3
*Model_Space
  0
ENDBLK
  5
1F
330
1D
100
AcDbEntity
  8
0
100
AcDbBlockEnd
  0
BLOCK
  5
21
330
20
100
AcDbEntity
  8
0
  6
ByLayer
 62
256
 48
1.0
 60
0
 67
1
370
-1
100
AcDbBlockBegin
  2
*Paper_Space
 70
0
 10
0.0
 20
0.0
 30
0.0
  3
*Paper_Space
  0
ENDBLK
  5
22
330
20
100
AcDbEntity
  8
0
100
AcDbBlockEnd
  0
ENDSEC
  0
SECTION
  2
ENTITIES
  0
LWPOLYLINE
  5
331
  330
1D
  100
AcDbEntity
  8
0
  6
ByLayer
  62
256
  48
1.0
  60
0
  67
0
  370
9
  100
AcDbPolyline
  90
4
  70
1
  43
0.0
  38
0.0
  39
0.0
  210
0.0
  220
0.0
  230
1.0
  10
12.774305555555555
  20
12.121527777777779
  40
0.0
  41
0.0
  42
0.0
  10
14.51736111111111
  20
12.121527777777779
  40
0.0
  41
0.0
  42
0.0
  10
14.51736111111111
  20
10.628472222222221
  40
0.0
  41
0.0
  42
0.0
  10
12.774305555555555
  20
10.628472222222221
  40
0.0
  41
0.0
  42
0.0
  0
LWPOLYLINE
  5
332
  330
1D
  100
AcDbEntity
  8
0
  6
ByLayer
  62
256
  48
1.0
  60
0
  67
0
  370
9
  100
AcDbPolyline
  90
2
  70
0
  43
0.0
  38
0.0
  39
0.0
  210
0.0
  220
0.0
  230
1.0
  10
12.774305555555555
  20
11.875
  40
0.0
  41
0.0
  42
0.0
  10
14.51736111111111
  20
11.875
  40
0.0
  41
0.0
  42
0.0
  0
LWPOLYLINE
  5
333
  330
1D
  100
AcDbEntity
  8
0
  6
ByLayer
  62
256
  48
1.0
  60
0
  67
0
  370
9
  100
AcDbPolyline
  90
2
  70
0
  43
0.0
  38
0.0
  39
0.0
  210
0.0
  220
0.0
  230
1.0
  10
13.520833333333332
  20
11.75
  40
0.0
  41
0.0
  42
0.0
  10
13.520833333333332
  20
11.125
  40
0.0
  41
0.0
  42
0.0
  0
LWPOLYLINE
  5
334
  330
1D
  100
AcDbEntity
  8
0
  6
ByLayer
  62
256
  48
1.0
  60
0
  67
0
  370
9
  100
AcDbPolyline
  90
2
  70
0
  43
0.0
  38
0.0
  39
0.0
  210
0.0
  220
0.0
  230
1.0
  10
13.520833333333332
  20
11.0
  40
0.0
  41
0.0
  42
0.0
  10
13.520833333333332
  20
10.75
  40
0.0
  41
0.0
  42
0.0
  0
LWPOLYLINE
  5
335
  330
1D
  100
AcDbEntity
  8
0
  6
ByLayer
  62
256
  48
1.0
  60
0
  67
0
  370
9
  100
AcDbPolyline
  90
2
  70
0
  43
0.0
  38
0.0
  39
0.0
  210
0.0
  220
0.0
  230
1.0
  10
13.770833333333332
  20
11.75
  40
0.0
  41
0.0
  42
0.0
  10
13.770833333333332
  20
11.125
  40
0.0
  41
0.0
  42
0.0
  0
LWPOLYLINE
  5
336
  330
1D
  100
AcDbEntity
  8
0
  6
ByLayer
  62
256
  48
1.0
  60
0
  67
0
  370
9
  100
AcDbPolyline
  90
2
  70
0
  43
0.0
  38
0.0
  39
0.0
  210
0.0
  220
0.0
  230
1.0
  10
12.774305555555555
  20
11.75
  40
0.0
  41
0.0
  42
0.0
  10
13.520833333333332
  20
11.75
  40
0.0
  41
0.0
  42
0.0
  0
LWPOLYLINE
  5
337
  330
1D
  100
AcDbEntity
  8
0
  6
ByLayer
  62
256
  48
1.0
  60
0
  67
0
  370
9
  100
AcDbPolyline
  90
2
  70
0
  43
0.0
  38
0.0
  39
0.0
  210
0.0
  220
0.0
  230
1.0
  10
12.774305555555555
  20
11.625
  40
0.0
  41
0.0
  42
0.0
  10
13.520833333333332
  20
11.625
  40
0.0
  41
0.0
  42
0.0
  0
LWPOLYLINE
  5
338
  330
1D
  100
AcDbEntity
  8
0
  6
ByLayer
  62
256
  48
1.0
  60
0
  67
0
  370
9
  100
AcDbPolyline
  90
2
  70
0
  43
0.0
  38
0.0
  39
0.0
  210
0.0
  220
0.0
  230
1.0
  10
12.774305555555555
  20
11.5
  40
0.0
  41
0.0
  42
0.0
  10
13.520833333333332
  20
11.5
  40
0.0
  41
0.0
  42
0.0
  0
LWPOLYLINE
  5
339
  330
1D
  100
AcDbEntity
  8
0
  6
ByLayer
  62
256
  48
1.0
  60
0
  67
0
  370
9
  100
AcDbPolyline
  90
2
  70
0
  43
0.0
  38
0.0
  39
0.0
  210
0.0
  220
0.0
  230
1.0
  10
12.774305555555555
  20
11.375
  40
0.0
  41
0.0
  42
0.0
  10
13.520833333333332
  20
11.375
  40
0.0
  41
0.0
  42
0.0
  0
LWPOLYLINE
  5
33A
  330
1D
  100
AcDbEntity
  8
0
  6
ByLayer
  62
256
  48
1.0
  60
0
  67
0
  370
9
  100
AcDbPolyline
  90
2
  70
0
  43
0.0
  38
0.0
  39
0.0
  210
0.0
  220
0.0
  230
1.0
  10
12.774305555555555
  20
11.25
  40
0.0
  41
0.0
  42
0.0
  10
13.520833333333332
  20
11.25
  40
0.0
  41
0.0
  42
0.0
  0
LWPOLYLINE
  5
33B
  330
1D
  100
AcDbEntity
  8
0
  6
ByLayer
  62
256
  48
1.0
  60
0
  67
0
  370
9
  100
AcDbPolyline
  90
2
  70
0
  43
0.0
  38
0.0
  39
0.0
  210
0.0
  220
0.0
  230
1.0
  10
12.774305555555555
  20
11.125
  40
0.0
  41
0.0
  42
0.0
  10
13.520833333333332
  20
11.125
  40
0.0
  41
0.0
  42
0.0
  0
LWPOLYLINE
  5
33C
  330
1D
  100
AcDbEntity
  8
0
  6
ByLayer
  62
256
  48
1.0
  60
0
  67
0
  370
9
  100
AcDbPolyline
  90
2
  70
0
  43
0.0
  38
0.0
  39
0.0
  210
0.0
  220
0.0
  230
1.0
  10
12.774305555555555
  20
11.0
  40
0.0
  41
0.0
  42
0.0
  10
13.520833333333332
  20
11.0
  40
0.0
  41
0.0
  42
0.0
  0
LWPOLYLINE
  5
33D
  330
1D
  100
AcDbEntity
  8
0
  6
ByLayer
  62
256
  48
1.0
  60
0
  67
0
  370
9
  100
AcDbPolyline
  90
2
  70
0
  43
0.0
  38
0.0
  39
0.0
  210
0.0
  220
0.0
  230
1.0
  10
12.774305555555555
  20
10.875
  40
0.0
  41
0.0
  42
0.0
  10
13.520833333333332
  20
10.875
  40
0.0
  41
0.0
  42
0.0
  0
LWPOLYLINE
  5
33E
  330
1D
  100
AcDbEntity
  8
0
  6
ByLayer
  62
256
  48
1.0
  60
0
  67
0
  370
9
  100
AcDbPolyline
  90
2
  70
0
  43
0.0
  38
0.0
  39
0.0
  210
0.0
  220
0.0
  230
1.0
  10
12.774305555555555
  20
10.75
  40
0.0
  41
0.0
  42
0.0
  10
13.520833333333332
  20
10.75
  40
0.0
  41
0.0
  42
0.0
  0
LWPOLYLINE
  5
33F
  330
1D
  100
AcDbEntity
  8
0
  6
ByLayer
  62
256
  48
1.0
  60
0
  67
0
  370
9
  100
AcDbPolyline
  90
2
  70
0
  43
0.0
  38
0.0
  39
0.0
  210
0.0
  220
0.0
  230
1.0
  10
13.770833333333332
  20
11.75
  40
0.0
  41
0.0
  42
0.0
  10
14.51736111111111
  20
11.75
  40
0.0
  41
0.0
  42
0.0
  0
LWPOLYLINE
  5
340
  330
1D
  100
AcDbEntity
  8
0
  6
ByLayer
  62
256
  48
1.0
  60
0
  67
0
  370
9
  100
AcDbPolyline
  90
2
  70
0
  43
0.0
  38
0.0
  39
0.0
  210
0.0
  220
0.0
  230
1.0
  10
13.770833333333332
  20
11.625
  40
0.0
  41
0.0
  42
0.0
  10
14.51736111111111
  20
11.625
  40
0.0
  41
0.0
  42
0.0
  0
LWPOLYLINE
  5
341
  330
1D
  100
AcDbEntity
  8
0
  6
ByLayer
  62
256
  48
1.0
  60
0
  67
0
  370
9
  100
AcDbPolyline
  90
2
  70
0
  43
0.0
  38
0.0
  39
0.0
  210
0.0
  220
0.0
  230
1.0
  10
13.770833333333332
  20
11.5
  40
0.0
  41
0.0
  42
0.0
  10
14.51736111111111
  20
11.5
  40
0.0
  41
0.0
  42
0.0
  0
LWPOLYLINE
  5
342
  330
1D
  100
AcDbEntity
  8
0
  6
ByLayer
  62
256
  48
1.0
  60
0
  67
0
  370
9
  100
AcDbPolyline
  90
2
  70
0
  43
0.0
  38
0.0
  39
0.0
  210
0.0
  220
0.0
  230
1.0
  10
13.770833333333332
  20
11.375
  40
0.0
  41
0.0
  42
0.0
  10
14.51736111111111
  20
11.375
  40
0.0
  41
0.0
  42
0.0
  0
LWPOLYLINE
  5
343
  330
1D
  100
AcDbEntity
  8
0
  6
ByLayer
  62
256
  48
1.0
  60
0
  67
0
  370
9
  100
AcDbPolyline
  90
2
  70
0
  43
0.0
  38
0.0
  39
0.0
  210
0.0
  220
0.0
  230
1.0
  10
13.770833333333332
  20
11.25
  40
0.0
  41
0.0
  42
0.0
  10
14.51736111111111
  20
11.25
  40
0.0
  41
0.0
  42
0.0
  0
LWPOLYLINE
  5
344
  330
1D
  100
AcDbEntity
  8
0
  6
ByLayer
  62
256
  48
1.0
  60
0
  67
0
  370
9
  100
AcDbPolyline
  90
2
  70
0
  43
0.0
  38
0.0
  39
0.0
  210
0.0
  220
0.0
  230
1.0
  10
13.770833333333332
  20
11.125
  40
0.0
  41
0.0
  42
0.0
  10
14.51736111111111
  20
11.125
  40
0.0
  41
0.0
  42
0.0
  0
LWPOLYLINE
  5
345
  330
1D
  100
AcDbEntity
  8
0
  6
ByLayer
  62
256
  48
1.0
  60
0
  67
0
  370
9
  100
AcDbPolyline
  90
2
  70
0
  43
0.0
  38
0.0
  39
0.0
  210
0.0
  220
0.0
  230
1.0
  10
12.520833333333332
  20
11.479166666666668
  40
0.0
  41
0.0
  42
0.0
  10
12.520833333333332
  20
11.270833333333334
  40
0.0
  41
0.0
  42
0.0
  0
LWPOLYLINE
  5
346
  330
1D
  100
AcDbEntity
  8
0
  6
ByLayer
  62
256
  48
1.0
  60
0
  67
0
  370
9
  100
AcDbPolyline
  90
2
  70
0
  43
0.0
  38
0.0
  39
0.0
  210
0.0
  220
0.0
  230
1.0
  10
12.53889772927706
  20
11.471684148870697
  40
0.0
  41
0.0
  42
0.0
  10
12.544215129950715
  20
11.490538229481102
  40
0.0
  41
0.0
  42
0.0
  0
LWPOLYLINE
  5
347
  330
1D
  100
AcDbEntity
  8
0
  6
ByLayer
  62
256
  48
1.0
  60
0
  67
0
  370
9
  100
AcDbPolyline
  90
2
  70
0
  43
0.0
  38
0.0
  39
0.0
  210
0.0
  220
0.0
  230
1.0
  10
12.544215129950715
  20
11.490538229481102
  40
0.0
  41
0.0
  42
0.0
  10
12.544984212712214
  20
11.510112692878442
  40
0.0
  41
0.0
  42
0.0
  0
LWPOLYLINE
  5
348
  330
1D
  100
AcDbEntity
  8
0
  6
ByLayer
  62
256
  48
1.0
  60
0
  67
0
  370
9
  100
AcDbPolyline
  90
2
  70
0
  43
0.0
  38
0.0
  39
0.0
  210
0.0
  220
0.0
  230
1.0
  10
12.544984212712214
  20
11.510112692878442
  40
0.0
  41
0.0
  42
0.0
  10
12.541162477925717
  20
11.529325851099033
  40
0.0
  41
0.0
  42
0.0
  0
LWPOLYLINE
  5
349
  330
1D
  100
AcDbEntity
  8
0
  6
ByLayer
  62
256
  48
1.0
  60
0
  67
0
  370
9
  100
AcDbPolyline
  90
2
  70
0
  43
0.0
  38
0.0
  39
0.0
  210
0.0
  220
0.0
  230
1.0
  10
12.541162477925717
  20
11.529325851099033
  40
0.0
  41
0.0
  42
0.0
  10
12.53296111526396
  20
11.547115981960783
  40
0.0
  41
0.0
  42
0.0
  0
LWPOLYLINE
  5
34A
  330
1D
  100
AcDbEntity
  8
0
  6
ByLayer
  62
256
  48
1.0
  60
0
  67
0
  370
9
  100
AcDbPolyline
  90
2
  70
0
  43
0.0
  38
0.0
  39
0.0
  210
0.0
  220
0.0
  230
1.0
  10
12.53296111526396
  20
11.547115981960783
  40
0.0
  41
0.0
  42
0.0
  10
12.520833333333332
  20
11.5625
  40
0.0
  41
0.0
  42
0.0
  0
LWPOLYLINE
  5
34B
  330
1D
  100
AcDbEntity
  8
0
  6
ByLayer
  62
256
  48
1.0
  60
0
  67
0
  370
9
  100
AcDbPolyline
  90
2
  70
0
  43
0.0
  38
0.0
  39
0.0
  210
0.0
  220
0.0
  230
1.0
  10
12.520833333333332
  20
11.5625
  40
0.0
  41
0.0
  42
0.0
  10
12.505449315294115
  20
11.57462778193063
  40
0.0
  41
0.0
  42
0.0
  0
LWPOLYLINE
  5
34C
  330
1D
  100
AcDbEntity
  8
0
  6
ByLayer
  62
256
  48
1.0
  60
0
  67
0
  370
9
  100
AcDbPolyline
  90
2
  70
0
  43
0.0
  38
0.0
  39
0.0
  210
0.0
  220
0.0
  230
1.0
  10
12.505449315294115
  20
11.57462778193063
  40
0.0
  41
0.0
  42
0.0
  10
12.487659184432365
  20
11.582829144592385
  40
0.0
  41
0.0
  42
0.0
  0
LWPOLYLINE
  5
34D
  330
1D
  100
AcDbEntity
  8
0
  6
ByLayer
  62
256
  48
1.0
  60
0
  67
0
  370
9
  100
AcDbPolyline
  90
2
  70
0
  43
0.0
  38
0.0
  39
0.0
  210
0.0
  220
0.0
  230
1.0
  10
12.487659184432365
  20
11.582829144592385
  40
0.0
  41
0.0
  42
0.0
  10
12.468446026211774
  20
11.586650879378881
  40
0.0
  41
0.0
  42
0.0
  0
LWPOLYLINE
  5
34E
  330
1D
  100
AcDbEntity
  8
0
  6
ByLayer
  62
256
  48
1.0
  60
0
  67
0
  370
9
  100
AcDbPolyline
  90
2
  70
0
  43
0.0
  38
0.0
  39
0.0
  210
0.0
  220
0.0
  230
1.0
  10
12.468446026211774
  20
11.586650879378881
  40
0.0
  41
0.0
  42
0.0
  10
12.448871562814434
  20
11.585881796617382
  40
0.0
  41
0.0
  42
0.0
  0
LWPOLYLINE
  5
34F
  330
1D
  100
AcDbEntity
  8
0
  6
ByLayer
  62
256
  48
1.0
  60
0
  67
0
  370
9
  100
AcDbPolyline
  90
2
  70
0
  43
0.0
  38
0.0
  39
0.0
  210
0.0
  220
0.0
  230
1.0
  10
12.448871562814434
  20
11.585881796617382
  40
0.0
  41
0.0
  42
0.0
  10
12.430017482204029
  20
11.580564395943728
  40
0.0
  41
0.0
  42
0.0
  0
LWPOLYLINE
  5
350
  330
1D
  100
AcDbEntity
  8
0
  6
ByLayer
  62
256
  48
1.0
  60
0
  67
0
  370
9
  100
AcDbPolyline
  90
2
  70
0
  43
0.0
  38
0.0
  39
0.0
  210
0.0
  220
0.0
  230
1.0
  10
12.770833333333332
  20
11.5625
  40
0.0
  41
0.0
  42
0.0
  10
12.4375
  20
11.5625
  40
0.0
  41
0.0
  42
0.0
  0
LWPOLYLINE
  5
351
  330
1D
  100
AcDbEntity
  8
0
  6
ByLayer
  62
256
  48
1.0
  60
0
  67
0
  370
9
  100
AcDbPolyline
  90
2
  70
0
  43
0.0
  38
0.0
  39
0.0
  210
0.0
  220
0.0
  230
1.0
  10
12.502768937389604
  20
11.278315851129303
  40
0.0
  41
0.0
  42
0.0
  10
12.49745153671595
  20
11.259461770518898
  40
0.0
  41
0.0
  42
0.0
  0
LWPOLYLINE
  5
352
  330
1D
  100
AcDbEntity
  8
0
  6
ByLayer
  62
256
  48
1.0
  60
0
  67
0
  370
9
  100
AcDbPolyline
  90
2
  70
0
  43
0.0
  38
0.0
  39
0.0
  210
0.0
  220
0.0
  230
1.0
  10
12.49745153671595
  20
11.259461770518898
  40
0.0
  41
0.0
  42
0.0
  10
12.49668245395445
  20
11.23988730712156
  40
0.0
  41
0.0
  42
0.0
  0
LWPOLYLINE
  5
353
  330
1D
  100
AcDbEntity
  8
0
  6
ByLayer
  62
256
  48
1.0
  60
0
  67
0
  370
9
  100
AcDbPolyline
  90
2
  70
0
  43
0.0
  38
0.0
  39
0.0
  210
0.0
  220
0.0
  230
1.0
  10
12.49668245395445
  20
11.23988730712156
  40
0.0
  41
0.0
  42
0.0
  10
12.500504188740948
  20
11.220674148900967
  40
0.0
  41
0.0
  42
0.0
  0
LWPOLYLINE
  5
354
  330
1D
  100
AcDbEntity
  8
0
  6
ByLayer
  62
256
  48
1.0
  60
0
  67
0
  370
9
  100
AcDbPolyline
  90
2
  70
0
  43
0.0
  38
0.0
  39
0.0
  210
0.0
  220
0.0
  230
1.0
  10
12.500504188740948
  20
11.220674148900967
  40
0.0
  41
0.0
  42
0.0
  10
12.508705551402704
  20
11.202884018039217
  40
0.0
  41
0.0
  42
0.0
  0
LWPOLYLINE
  5
355
  330
1D
  100
AcDbEntity
  8
0
  6
ByLayer
  62
256
  48
1.0
  60
0
  67
0
  370
9
  100
AcDbPolyline
  90
2
  70
0
  43
0.0
  38
0.0
  39
0.0
  210
0.0
  220
0.0
  230
1.0
  10
12.508705551402704
  20
11.202884018039217
  40
0.0
  41
0.0
  42
0.0
  10
12.520833333333332
  20
11.1875
  40
0.0
  41
0.0
  42
0.0
  0
LWPOLYLINE
  5
356
  330
1D
  100
AcDbEntity
  8
0
  6
ByLayer
  62
256
  48
1.0
  60
0
  67
0
  370
9
  100
AcDbPolyline
  90
2
  70
0
  43
0.0
  38
0.0
  39
0.0
  210
0.0
  220
0.0
  230
1.0
  10
12.520833333333332
  20
11.1875
  40
0.0
  41
0.0
  42
0.0
  10
12.53621735137255
  20
11.175372218069372
  40
0.0
  41
0.0
  42
0.0
  0
LWPOLYLINE
  5
357
  330
1D
  100
AcDbEntity
  8
0
  6
ByLayer
  62
256
  48
1.0
  60
0
  67
0
  370
9
  100
AcDbPolyline
  90
2
  70
0
  43
0.0
  38
0.0
  39
0.0
  210
0.0
  220
0.0
  230
1.0
  10
12.53621735137255
  20
11.175372218069372
  40
0.0
  41
0.0
  42
0.0
  10
12.554007482234299
  20
11.167170855407615
  40
0.0
  41
0.0
  42
0.0
  0
LWPOLYLINE
  5
358
  330
1D
  100
AcDbEntity
  8
0
  6
ByLayer
  62
256
  48
1.0
  60
0
  67
0
  370
9
  100
AcDbPolyline
  90
2
  70
0
  43
0.0
  38
0.0
  39
0.0
  210
0.0
  220
0.0
  230
1.0
  10
12.554007482234299
  20
11.167170855407615
  40
0.0
  41
0.0
  42
0.0
  10
12.573220640454892
  20
11.163349120621119
  40
0.0
  41
0.0
  42
0.0
  0
LWPOLYLINE
  5
359
  330
1D
  100
AcDbEntity
  8
0
  6
ByLayer
  62
256
  48
1.0
  60
0
  67
0
  370
9
  100
AcDbPolyline
  90
2
  70
0
  43
0.0
  38
0.0
  39
0.0
  210
0.0
  220
0.0
  230
1.0
  10
12.573220640454892
  20
11.163349120621119
  40
0.0
  41
0.0
  42
0.0
  10
12.59279510385223
  20
11.164118203382618
  40
0.0
  41
0.0
  42
0.0
  0
LWPOLYLINE
  5
35A
  330
1D
  100
AcDbEntity
  8
0
  6
ByLayer
  62
256
  48
1.0
  60
0
  67
0
  370
9
  100
AcDbPolyline
  90
2
  70
0
  43
0.0
  38
0.0
  39
0.0
  210
0.0
  220
0.0
  230
1.0
  10
12.59279510385223
  20
11.164118203382618
  40
0.0
  41
0.0
  42
0.0
  10
12.611649184462635
  20
11.169435604056272
  40
0.0
  41
0.0
  42
0.0
  0
LWPOLYLINE
  5
35B
  330
1D
  100
AcDbEntity
  8
0
  6
ByLayer
  62
256
  48
1.0
  60
0
  67
0
  370
9
  100
AcDbPolyline
  90
2
  70
0
  43
0.0
  38
0.0
  39
0.0
  210
0.0
  220
0.0
  230
1.0
  10
12.770833333333332
  20
11.1875
  40
0.0
  41
0.0
  42
0.0
  10
12.604166666666666
  20
11.1875
  40
0.0
  41
0.0
  42
0.0
  0
LWPOLYLINE
  5
35C
  330
1D
  100
AcDbEntity
  8
0
  6
ByLayer
  62
256
  48
1.0
  60
0
  67
0
  370
9
  100
AcDbPolyline
  90
2
  70
0
  43
0.0
  38
0.0
  39
0.0
  210
0.0
  220
0.0
  230
1.0
  10
12.645833333333332
  20
11.5625
  40
0.0
  41
0.0
  42
0.0
  10
12.645833333333332
  20
11.645833333333334
  40
0.0
  41
0.0
  42
0.0
  0
LWPOLYLINE
  5
35D
  330
1D
  100
AcDbEntity
  8
0
  6
ByLayer
  62
256
  48
1.0
  60
0
  67
0
  370
9
  100
AcDbPolyline
  90
2
  70
0
  43
0.0
  38
0.0
  39
0.0
  210
0.0
  220
0.0
  230
1.0
  10
12.645833333333332
  20
11.5625
  40
0.0
  41
0.0
  42
0.0
  10
12.604166666666666
  20
11.604166666666668
  40
0.0
  41
0.0
  42
0.0
  0
LWPOLYLINE
  5
35E
  330
1D
  100
AcDbEntity
  8
0
  6
ByLayer
  62
256
  48
1.0
  60
0
  67
0
  370
9
  100
AcDbPolyline
  90
2
  70
0
  43
0.0
  38
0.0
  39
0.0
  210
0.0
  220
0.0
  230
1.0
  10
12.645833333333332
  20
11.5625
  40
0.0
  41
0.0
  42
0.0
  10
12.6875
  20
11.604166666666668
  40
0.0
  41
0.0
  42
0.0
  0
LWPOLYLINE
  5
35F
  330
1D
  100
AcDbEntity
  8
0
  6
ByLayer
  62
256
  48
1.0
  60
0
  67
0
  370
9
  100
AcDbPolyline
  90
2
  70
0
  43
0.0
  38
0.0
  39
0.0
  210
0.0
  220
0.0
  230
1.0
  10
12.645833333333332
  20
11.1875
  40
0.0
  41
0.0
  42
0.0
  10
12.645833333333332
  20
11.104166666666668
  40
0.0
  41
0.0
  42
0.0
  0
LWPOLYLINE
  5
360
  330
1D
  100
AcDbEntity
  8
0
  6
ByLayer
  62
256
  48
1.0
  60
0
  67
0
  370
9
  100
AcDbPolyline
  90
2
  70
0
  43
0.0
  38
0.0
  39
0.0
  210
0.0
  220
0.0
  230
1.0
  10
12.645833333333332
  20
11.1875
  40
0.0
  41
0.0
  42
0.0
  10
12.604166666666666
  20
11.145833333333334
  40
0.0
  41
0.0
  42
0.0
  0
LWPOLYLINE
  5
361
  330
1D
  100
AcDbEntity
  8
0
  6
ByLayer
  62
256
  48
1.0
  60
0
  67
0
  370
9
  100
AcDbPolyline
  90
2
  70
0
  43
0.0
  38
0.0
  39
0.0
  210
0.0
  220
0.0
  230
1.0
  10
12.645833333333332
  20
11.1875
  40
0.0
  41
0.0
  42
0.0
  10
12.6875
  20
11.145833333333334
  40
0.0
  41
0.0
  42
0.0
  0
LWPOLYLINE
  5
362
  330
1D
  100
AcDbEntity
  8
0
  6
ByLayer
  62
256
  48
1.0
  60
0
  67
0
  370
9
  100
AcDbPolyline
  90
4
  70
1
  43
0.0
  38
0.0
  39
0.0
  210
0.0
  220
0.0
  230
1.0
  10
11.774305555555555
  20
8.663194444444445
  40
0.0
  41
0.0
  42
0.0
  10
13.51736111111111
  20
8.663194444444445
  40
0.0
  41
0.0
  42
0.0
  10
13.51736111111111
  20
7.295138888888889
  40
0.0
  41
0.0
  42
0.0
  10
11.774305555555555
  20
7.295138888888889
  40
0.0
  41
0.0
  42
0.0
  0
LWPOLYLINE
  5
363
  330
1D
  100
AcDbEntity
  8
0
  6
ByLayer
  62
256
  48
1.0
  60
0
  67
0
  370
9
  100
AcDbPolyline
  90
2
  70
0
  43
0.0
  38
0.0
  39
0.0
  210
0.0
  220
0.0
  230
1.0
  10
11.774305555555555
  20
8.416666666666668
  40
0.0
  41
0.0
  42
0.0
  10
13.51736111111111
  20
8.416666666666668
  40
0.0
  41
0.0
  42
0.0
  0
LWPOLYLINE
  5
364
  330
1D
  100
AcDbEntity
  8
0
  6
ByLayer
  62
256
  48
1.0
  60
0
  67
0
  370
9
  100
AcDbPolyline
  90
2
  70
0
  43
0.0
  38
0.0
  39
0.0
  210
0.0
  220
0.0
  230
1.0
  10
12.520833333333332
  20
8.291666666666668
  40
0.0
  41
0.0
  42
0.0
  10
12.520833333333332
  20
7.416666666666667
  40
0.0
  41
0.0
  42
0.0
  0
LWPOLYLINE
  5
365
  330
1D
  100
AcDbEntity
  8
0
  6
ByLayer
  62
256
  48
1.0
  60
0
  67
0
  370
9
  100
AcDbPolyline
  90
2
  70
0
  43
0.0
  38
0.0
  39
0.0
  210
0.0
  220
0.0
  230
1.0
  10
12.770833333333332
  20
8.291666666666668
  40
0.0
  41
0.0
  42
0.0
  10
12.770833333333332
  20
7.416666666666667
  40
0.0
  41
0.0
  42
0.0
  0
LWPOLYLINE
  5
366
  330
1D
  100
AcDbEntity
  8
0
  6
ByLayer
  62
256
  48
1.0
  60
0
  67
0
  370
9
  100
AcDbPolyline
  90
2
  70
0
  43
0.0
  38
0.0
  39
0.0
  210
0.0
  220
0.0
  230
1.0
  10
11.774305555555555
  20
8.291666666666668
  40
0.0
  41
0.0
  42
0.0
  10
12.520833333333332
  20
8.291666666666668
  40
0.0
  41
0.0
  42
0.0
  0
LWPOLYLINE
  5
367
  330
1D
  100
AcDbEntity
  8
0
  6
ByLayer
  62
256
  48
1.0
  60
0
  67
0
  370
9
  100
AcDbPolyline
  90
2
  70
0
  43
0.0
  38
0.0
  39
0.0
  210
0.0
  220
0.0
  230
1.0
  10
11.774305555555555
  20
8.166666666666668
  40
0.0
  41
0.0
  42
0.0
  10
12.520833333333332
  20
8.166666666666668
  40
0.0
  41
0.0
  42
0.0
  0
LWPOLYLINE
  5
368
  330
1D
  100
AcDbEntity
  8
0
  6
ByLayer
  62
256
  48
1.0
  60
0
  67
0
  370
9
  100
AcDbPolyline
  90
2
  70
0
  43
0.0
  38
0.0
  39
0.0
  210
0.0
  220
0.0
  230
1.0
  10
11.774305555555555
  20
8.041666666666668
  40
0.0
  41
0.0
  42
0.0
  10
12.520833333333332
  20
8.041666666666668
  40
0.0
  41
0.0
  42
0.0
  0
LWPOLYLINE
  5
369
  330
1D
  100
AcDbEntity
  8
0
  6
ByLayer
  62
256
  48
1.0
  60
0
  67
0
  370
9
  100
AcDbPolyline
  90
2
  70
0
  43
0.0
  38
0.0
  39
0.0
  210
0.0
  220
0.0
  230
1.0
  10
11.774305555555555
  20
7.916666666666667
  40
0.0
  41
0.0
  42
0.0
  10
12.520833333333332
  20
7.916666666666667
  40
0.0
  41
0.0
  42
0.0
  0
LWPOLYLINE
  5
36A
  330
1D
  100
AcDbEntity
  8
0
  6
ByLayer
  62
256
  48
1.0
  60
0
  67
0
  370
9
  100
AcDbPolyline
  90
2
  70
0
  43
0.0
  38
0.0
  39
0.0
  210
0.0
  220
0.0
  230
1.0
  10
11.774305555555555
  20
7.791666666666667
  40
0.0
  41
0.0
  42
0.0
  10
12.520833333333332
  20
7.791666666666667
  40
0.0
  41
0.0
  42
0.0
  0
LWPOLYLINE
  5
36B
  330
1D
  100
AcDbEntity
  8
0
  6
ByLayer
  62
256
  48
1.0
  60
0
  67
0
  370
9
  100
AcDbPolyline
  90
2
  70
0
  43
0.0
  38
0.0
  39
0.0
  210
0.0
  220
0.0
  230
1.0
  10
11.774305555555555
  20
7.666666666666667
  40
0.0
  41
0.0
  42
0.0
  10
12.520833333333332
  20
7.666666666666667
  40
0.0
  41
0.0
  42
0.0
  0
LWPOLYLINE
  5
36C
  330
1D
  100
AcDbEntity
  8
0
  6
ByLayer
  62
256
  48
1.0
  60
0
  67
0
  370
9
  100
AcDbPolyline
  90
2
  70
0
  43
0.0
  38
0.0
  39
0.0
  210
0.0
  220
0.0
  230
1.0
  10
11.774305555555555
  20
7.541666666666667
  40
0.0
  41
0.0
  42
0.0
  10
12.520833333333332
  20
7.541666666666667
  40
0.0
  41
0.0
  42
0.0
  0
LWPOLYLINE
  5
36D
  330
1D
  100
AcDbEntity
  8
0
  6
ByLayer
  62
256
  48
1.0
  60
0
  67
0
  370
9
  100
AcDbPolyline
  90
2
  70
0
  43
0.0
  38
0.0
  39
0.0
  210
0.0
  220
0.0
  230
1.0
  10
11.774305555555555
  20
7.416666666666667
  40
0.0
  41
0.0
  42
0.0
  10
12.520833333333332
  20
7.416666666666667
  40
0.0
  41
0.0
  42
0.0
  0
LWPOLYLINE
  5
36E
  330
1D
  100
AcDbEntity
  8
0
  6
ByLayer
  62
256
  48
1.0
  60
0
  67
0
  370
9
  100
AcDbPolyline
  90
2
  70
0
  43
0.0
  38
0.0
  39
0.0
  210
0.0
  220
0.0
  230
1.0
  10
12.770833333333332
  20
8.291666666666668
  40
0.0
  41
0.0
  42
0.0
  10
13.51736111111111
  20
8.291666666666668
  40
0.0
  41
0.0
  42
0.0
  0
LWPOLYLINE
  5
36F
  330
1D
  100
AcDbEntity
  8
0
  6
ByLayer
  62
256
  48
1.0
  60
0
  67
0
  370
9
  100
AcDbPolyline
  90
2
  70
0
  43
0.0
  38
0.0
  39
0.0
  210
0.0
  220
0.0
  230
1.0
  10
12.770833333333332
  20
8.166666666666668
  40
0.0
  41
0.0
  42
0.0
  10
13.51736111111111
  20
8.166666666666668
  40
0.0
  41
0.0
  42
0.0
  0
LWPOLYLINE
  5
370
  330
1D
  100
AcDbEntity
  8
0
  6
ByLayer
  62
256
  48
1.0
  60
0
  67
0
  370
9
  100
AcDbPolyline
  90
2
  70
0
  43
0.0
  38
0.0
  39
0.0
  210
0.0
  220
0.0
  230
1.0
  10
12.770833333333332
  20
8.041666666666668
  40
0.0
  41
0.0
  42
0.0
  10
13.51736111111111
  20
8.041666666666668
  40
0.0
  41
0.0
  42
0.0
  0
LWPOLYLINE
  5
371
  330
1D
  100
AcDbEntity
  8
0
  6
ByLayer
  62
256
  48
1.0
  60
0
  67
0
  370
9
  100
AcDbPolyline
  90
2
  70
0
  43
0.0
  38
0.0
  39
0.0
  210
0.0
  220
0.0
  230
1.0
  10
12.770833333333332
  20
7.916666666666667
  40
0.0
  41
0.0
  42
0.0
  10
13.51736111111111
  20
7.916666666666667
  40
0.0
  41
0.0
  42
0.0
  0
LWPOLYLINE
  5
372
  330
1D
  100
AcDbEntity
  8
0
  6
ByLayer
  62
256
  48
1.0
  60
0
  67
0
  370
9
  100
AcDbPolyline
  90
2
  70
0
  43
0.0
  38
0.0
  39
0.0
  210
0.0
  220
0.0
  230
1.0
  10
12.770833333333332
  20
7.791666666666667
  40
0.0
  41
0.0
  42
0.0
  10
13.51736111111111
  20
7.791666666666667
  40
0.0
  41
0.0
  42
0.0
  0
LWPOLYLINE
  5
373
  330
1D
  100
AcDbEntity
  8
0
  6
ByLayer
  62
256
  48
1.0
  60
0
  67
0
  370
9
  100
AcDbPolyline
  90
2
  70
0
  43
0.0
  38
0.0
  39
0.0
  210
0.0
  220
0.0
  230
1.0
  10
12.770833333333332
  20
7.666666666666667
  40
0.0
  41
0.0
  42
0.0
  10
13.51736111111111
  20
7.666666666666667
  40
0.0
  41
0.0
  42
0.0
  0
LWPOLYLINE
  5
374
  330
1D
  100
AcDbEntity
  8
0
  6
ByLayer
  62
256
  48
1.0
  60
0
  67
0
  370
9
  100
AcDbPolyline
  90
2
  70
0
  43
0.0
  38
0.0
  39
0.0
  210
0.0
  220
0.0
  230
1.0
  10
12.770833333333332
  20
7.541666666666667
  40
0.0
  41
0.0
  42
0.0
  10
13.51736111111111
  20
7.541666666666667
  40
0.0
  41
0.0
  42
0.0
  0
LWPOLYLINE
  5
375
  330
1D
  100
AcDbEntity
  8
0
  6
ByLayer
  62
256
  48
1.0
  60
0
  67
0
  370
9
  100
AcDbPolyline
  90
2
  70
0
  43
0.0
  38
0.0
  39
0.0
  210
0.0
  220
0.0
  230
1.0
  10
12.770833333333332
  20
7.416666666666667
  40
0.0
  41
0.0
  42
0.0
  10
13.51736111111111
  20
7.416666666666667
  40
0.0
  41
0.0
  42
0.0
  0
LWPOLYLINE
  5
376
  330
1D
  100
AcDbEntity
  8
0
  6
ByLayer
  62
256
  48
1.0
  60
0
  67
0
  370
9
  100
AcDbPolyline
  90
4
  70
1
  43
0.0
  38
0.0
  39
0.0
  210
0.0
  220
0.0
  230
1.0
  10
6.920138888888888
  20
7.788194444444445
  40
0.0
  41
0.0
  42
0.0
  10
8.663194444444445
  20
7.788194444444445
  40
0.0
  41
0.0
  42
0.0
  10
8.663194444444445
  20
7.045138888888889
  40
0.0
  41
0.0
  42
0.0
  10
6.920138888888888
  20
7.045138888888889
  40
0.0
  41
0.0
  42
0.0
  0
LWPOLYLINE
  5
377
  330
1D
  100
AcDbEntity
  8
0
  6
ByLayer
  62
256
  48
1.0
  60
0
  67
0
  370
9
  100
AcDbPolyline
  90
2
  70
0
  43
0.0
  38
0.0
  39
0.0
  210
0.0
  220
0.0
  230
1.0
  10
6.920138888888888
  20
7.541666666666667
  40
0.0
  41
0.0
  42
0.0
  10
8.663194444444445
  20
7.541666666666667
  40
0.0
  41
0.0
  42
0.0
  0
LWPOLYLINE
  5
378
  330
1D
  100
AcDbEntity
  8
0
  6
ByLayer
  62
256
  48
1.0
  60
0
  67
0
  370
9
  100
AcDbPolyline
  90
2
  70
0
  43
0.0
  38
0.0
  39
0.0
  210
0.0
  220
0.0
  230
1.0
  10
7.666666666666666
  20
7.416666666666667
  40
0.0
  41
0.0
  42
0.0
  10
7.666666666666666
  20
7.291666666666667
  40
0.0
  41
0.0
  42
0.0
  0
LWPOLYLINE
  5
379
  330
1D
  100
AcDbEntity
  8
0
  6
ByLayer
  62
256
  48
1.0
  60
0
  67
0
  370
9
  100
AcDbPolyline
  90
2
  70
0
  43
0.0
  38
0.0
  39
0.0
  210
0.0
  220
0.0
  230
1.0
  10
7.916666666666666
  20
7.416666666666667
  40
0.0
  41
0.0
  42
0.0
  10
7.916666666666666
  20
7.166666666666667
  40
0.0
  41
0.0
  42
0.0
  0
LWPOLYLINE
  5
37A
  330
1D
  100
AcDbEntity
  8
0
  6
ByLayer
  62
256
  48
1.0
  60
0
  67
0
  370
9
  100
AcDbPolyline
  90
2
  70
0
  43
0.0
  38
0.0
  39
0.0
  210
0.0
  220
0.0
  230
1.0
  10
6.920138888888888
  20
7.416666666666667
  40
0.0
  41
0.0
  42
0.0
  10
7.666666666666666
  20
7.416666666666667
  40
0.0
  41
0.0
  42
0.0
  0
LWPOLYLINE
  5
37B
  330
1D
  100
AcDbEntity
  8
0
  6
ByLayer
  62
256
  48
1.0
  60
0
  67
0
  370
9
  100
AcDbPolyline
  90
2
  70
0
  43
0.0
  38
0.0
  39
0.0
  210
0.0
  220
0.0
  230
1.0
  10
6.920138888888888
  20
7.291666666666667
  40
0.0
  41
0.0
  42
0.0
  10
7.666666666666666
  20
7.291666666666667
  40
0.0
  41
0.0
  42
0.0
  0
LWPOLYLINE
  5
37C
  330
1D
  100
AcDbEntity
  8
0
  6
ByLayer
  62
256
  48
1.0
  60
0
  67
0
  370
9
  100
AcDbPolyline
  90
2
  70
0
  43
0.0
  38
0.0
  39
0.0
  210
0.0
  220
0.0
  230
1.0
  10
7.916666666666666
  20
7.416666666666667
  40
0.0
  41
0.0
  42
0.0
  10
8.663194444444445
  20
7.416666666666667
  40
0.0
  41
0.0
  42
0.0
  0
LWPOLYLINE
  5
37D
  330
1D
  100
AcDbEntity
  8
0
  6
ByLayer
  62
256
  48
1.0
  60
0
  67
0
  370
9
  100
AcDbPolyline
  90
2
  70
0
  43
0.0
  38
0.0
  39
0.0
  210
0.0
  220
0.0
  230
1.0
  10
7.916666666666666
  20
7.291666666666667
  40
0.0
  41
0.0
  42
0.0
  10
8.663194444444445
  20
7.291666666666667
  40
0.0
  41
0.0
  42
0.0
  0
LWPOLYLINE
  5
37E
  330
1D
  100
AcDbEntity
  8
0
  6
ByLayer
  62
256
  48
1.0
  60
0
  67
0
  370
9
  100
AcDbPolyline
  90
2
  70
0
  43
0.0
  38
0.0
  39
0.0
  210
0.0
  220
0.0
  230
1.0
  10
7.916666666666666
  20
7.166666666666667
  40
0.0
  41
0.0
  42
0.0
  10
8.663194444444445
  20
7.166666666666667
  40
0.0
  41
0.0
  42
0.0
  0
LWPOLYLINE
  5
37F
  330
1D
  100
AcDbEntity
  8
0
  6
ByLayer
  62
256
  48
1.0
  60
0
  67
0
  370
9
  100
AcDbPolyline
  90
4
  70
1
  43
0.0
  38
0.0
  39
0.0
  210
0.0
  220
0.0
  230
1.0
  10
4.065972222222222
  20
12.121527777777779
  40
0.0
  41
0.0
  42
0.0
  10
5.809027777777778
  20
12.121527777777779
  40
0.0
  41
0.0
  42
0.0
  10
5.809027777777778
  20
11.253472222222221
  40
0.0
  41
0.0
  42
0.0
  10
4.065972222222222
  20
11.253472222222221
  40
0.0
  41
0.0
  42
0.0
  0
LWPOLYLINE
  5
380
  330
1D
  100
AcDbEntity
  8
0
  6
ByLayer
  62
256
  48
1.0
  60
0
  67
0
  370
9
  100
AcDbPolyline
  90
2
  70
0
  43
0.0
  38
0.0
  39
0.0
  210
0.0
  220
0.0
  230
1.0
  10
4.065972222222222
  20
11.875
  40
0.0
  41
0.0
  42
0.0
  10
5.809027777777778
  20
11.875
  40
0.0
  41
0.0
  42
0.0
  0
LWPOLYLINE
  5
381
  330
1D
  100
AcDbEntity
  8
0
  6
ByLayer
  62
256
  48
1.0
  60
0
  67
0
  370
9
  100
AcDbPolyline
  90
2
  70
0
  43
0.0
  38
0.0
  39
0.0
  210
0.0
  220
0.0
  230
1.0
  10
4.8125
  20
11.75
  40
0.0
  41
0.0
  42
0.0
  10
4.8125
  20
11.375
  40
0.0
  41
0.0
  42
0.0
  0
LWPOLYLINE
  5
382
  330
1D
  100
AcDbEntity
  8
0
  6
ByLayer
  62
256
  48
1.0
  60
0
  67
0
  370
9
  100
AcDbPolyline
  90
2
  70
0
  43
0.0
  38
0.0
  39
0.0
  210
0.0
  220
0.0
  230
1.0
  10
5.0625
  20
11.75
  40
0.0
  41
0.0
  42
0.0
  10
5.0625
  20
11.375
  40
0.0
  41
0.0
  42
0.0
  0
LWPOLYLINE
  5
383
  330
1D
  100
AcDbEntity
  8
0
  6
ByLayer
  62
256
  48
1.0
  60
0
  67
0
  370
9
  100
AcDbPolyline
  90
2
  70
0
  43
0.0
  38
0.0
  39
0.0
  210
0.0
  220
0.0
  230
1.0
  10
4.065972222222222
  20
11.75
  40
0.0
  41
0.0
  42
0.0
  10
4.8125
  20
11.75
  40
0.0
  41
0.0
  42
0.0
  0
LWPOLYLINE
  5
384
  330
1D
  100
AcDbEntity
  8
0
  6
ByLayer
  62
256
  48
1.0
  60
0
  67
0
  370
9
  100
AcDbPolyline
  90
2
  70
0
  43
0.0
  38
0.0
  39
0.0
  210
0.0
  220
0.0
  230
1.0
  10
4.065972222222222
  20
11.625
  40
0.0
  41
0.0
  42
0.0
  10
4.8125
  20
11.625
  40
0.0
  41
0.0
  42
0.0
  0
LWPOLYLINE
  5
385
  330
1D
  100
AcDbEntity
  8
0
  6
ByLayer
  62
256
  48
1.0
  60
0
  67
0
  370
9
  100
AcDbPolyline
  90
2
  70
0
  43
0.0
  38
0.0
  39
0.0
  210
0.0
  220
0.0
  230
1.0
  10
4.065972222222222
  20
11.5
  40
0.0
  41
0.0
  42
0.0
  10
4.8125
  20
11.5
  40
0.0
  41
0.0
  42
0.0
  0
LWPOLYLINE
  5
386
  330
1D
  100
AcDbEntity
  8
0
  6
ByLayer
  62
256
  48
1.0
  60
0
  67
0
  370
9
  100
AcDbPolyline
  90
2
  70
0
  43
0.0
  38
0.0
  39
0.0
  210
0.0
  220
0.0
  230
1.0
  10
4.065972222222222
  20
11.375
  40
0.0
  41
0.0
  42
0.0
  10
4.8125
  20
11.375
  40
0.0
  41
0.0
  42
0.0
  0
LWPOLYLINE
  5
387
  330
1D
  100
AcDbEntity
  8
0
  6
ByLayer
  62
256
  48
1.0
  60
0
  67
0
  370
9
  100
AcDbPolyline
  90
2
  70
0
  43
0.0
  38
0.0
  39
0.0
  210
0.0
  220
0.0
  230
1.0
  10
5.0625
  20
11.75
  40
0.0
  41
0.0
  42
0.0
  10
5.809027777777778
  20
11.75
  40
0.0
  41
0.0
  42
0.0
  0
LWPOLYLINE
  5
388
  330
1D
  100
AcDbEntity
  8
0
  6
ByLayer
  62
256
  48
1.0
  60
0
  67
0
  370
9
  100
AcDbPolyline
  90
2
  70
0
  43
0.0
  38
0.0
  39
0.0
  210
0.0
  220
0.0
  230
1.0
  10
5.0625
  20
11.625
  40
0.0
  41
0.0
  42
0.0
  10
5.809027777777778
  20
11.625
  40
0.0
  41
0.0
  42
0.0
  0
LWPOLYLINE
  5
389
  330
1D
  100
AcDbEntity
  8
0
  6
ByLayer
  62
256
  48
1.0
  60
0
  67
0
  370
9
  100
AcDbPolyline
  90
2
  70
0
  43
0.0
  38
0.0
  39
0.0
  210
0.0
  220
0.0
  230
1.0
  10
5.0625
  20
11.5
  40
0.0
  41
0.0
  42
0.0
  10
5.809027777777778
  20
11.5
  40
0.0
  41
0.0
  42
0.0
  0
LWPOLYLINE
  5
38A
  330
1D
  100
AcDbEntity
  8
0
  6
ByLayer
  62
256
  48
1.0
  60
0
  67
0
  370
9
  100
AcDbPolyline
  90
2
  70
0
  43
0.0
  38
0.0
  39
0.0
  210
0.0
  220
0.0
  230
1.0
  10
5.0625
  20
11.375
  40
0.0
  41
0.0
  42
0.0
  10
5.809027777777778
  20
11.375
  40
0.0
  41
0.0
  42
0.0
  0
LWPOLYLINE
  5
38B
  330
1D
  100
AcDbEntity
  8
0
  6
ByLayer
  62
256
  48
1.0
  60
0
  67
0
  370
9
  100
AcDbPolyline
  90
2
  70
0
  43
0.0
  38
0.0
  39
0.0
  210
0.0
  220
0.0
  230
1.0
  10
3.5486111111111107
  20
11.770833333333334
  40
0.0
  41
0.0
  42
0.0
  10
3.5486111111111107
  20
11.5625
  40
0.0
  41
0.0
  42
0.0
  0
LWPOLYLINE
  5
38C
  330
1D
  100
AcDbEntity
  8
0
  6
ByLayer
  62
256
  48
1.0
  60
0
  67
0
  370
9
  100
AcDbPolyline
  90
2
  70
0
  43
0.0
  38
0.0
  39
0.0
  210
0.0
  220
0.0
  230
1.0
  10
3.5486111111111107
  20
11.5625
  40
0.0
  41
0.0
  42
0.0
  10
3.631944444444444
  20
11.5625
  40
0.0
  41
0.0
  42
0.0
  0
LWPOLYLINE
  5
38D
  330
1D
  100
AcDbEntity
  8
0
  6
ByLayer
  62
256
  48
1.0
  60
0
  67
0
  370
9
  100
AcDbPolyline
  90
2
  70
0
  43
0.0
  38
0.0
  39
0.0
  210
0.0
  220
0.0
  230
1.0
  10
3.4652777777777777
  20
11.770833333333334
  40
0.0
  41
0.0
  42
0.0
  10
3.5486111111111107
  20
11.6875
  40
0.0
  41
0.0
  42
0.0
  0
LWPOLYLINE
  5
38E
  330
1D
  100
AcDbEntity
  8
0
  6
ByLayer
  62
256
  48
1.0
  60
0
  67
0
  370
9
  100
AcDbPolyline
  90
2
  70
0
  43
0.0
  38
0.0
  39
0.0
  210
0.0
  220
0.0
  230
1.0
  10
3.631944444444444
  20
11.770833333333334
  40
0.0
  41
0.0
  42
0.0
  10
3.5486111111111107
  20
11.6875
  40
0.0
  41
0.0
  42
0.0
  0
LWPOLYLINE
  5
38F
  330
1D
  100
AcDbEntity
  8
0
  6
ByLayer
  62
256
  48
1.0
  60
0
  67
0
  370
9
  100
AcDbPolyline
  90
2
  70
0
  43
0.0
  38
0.0
  39
0.0
  210
0.0
  220
0.0
  230
1.0
  10
2.8402777777777777
  20
11.645833333333334
  40
0.0
  41
0.0
  42
0.0
  10
2.8402777777777777
  20
11.4375
  40
0.0
  41
0.0
  42
0.0
  0
LWPOLYLINE
  5
390
  330
1D
  100
AcDbEntity
  8
0
  6
ByLayer
  62
256
  48
1.0
  60
0
  67
0
  370
9
  100
AcDbPolyline
  90
2
  70
0
  43
0.0
  38
0.0
  39
0.0
  210
0.0
  220
0.0
  230
1.0
  10
2.8402777777777777
  20
11.4375
  40
0.0
  41
0.0
  42
0.0
  10
2.923611111111111
  20
11.4375
  40
0.0
  41
0.0
  42
0.0
  0
LWPOLYLINE
  5
391
  330
1D
  100
AcDbEntity
  8
0
  6
ByLayer
  62
256
  48
1.0
  60
0
  67
0
  370
9
  100
AcDbPolyline
  90
2
  70
0
  43
0.0
  38
0.0
  39
0.0
  210
0.0
  220
0.0
  230
1.0
  10
2.756944444444444
  20
11.645833333333334
  40
0.0
  41
0.0
  42
0.0
  10
2.8402777777777777
  20
11.5625
  40
0.0
  41
0.0
  42
0.0
  0
LWPOLYLINE
  5
392
  330
1D
  100
AcDbEntity
  8
0
  6
ByLayer
  62
256
  48
1.0
  60
0
  67
0
  370
9
  100
AcDbPolyline
  90
2
  70
0
  43
0.0
  38
0.0
  39
0.0
  210
0.0
  220
0.0
  230
1.0
  10
2.923611111111111
  20
11.645833333333334
  40
0.0
  41
0.0
  42
0.0
  10
2.8402777777777777
  20
11.5625
  40
0.0
  41
0.0
  42
0.0
  0
LWPOLYLINE
  5
393
  330
1D
  100
AcDbEntity
  8
0
  6
ByLayer
  62
256
  48
1.0
  60
0
  67
0
  370
9
  100
AcDbPolyline
  90
4
  70
1
  43
0.0
  38
0.0
  39
0.0
  210
0.0
  220
0.0
  230
1.0
  10
6.920138888888888
  20
6.579861111111112
  40
0.0
  41
0.0
  42
0.0
  10
8.663194444444445
  20
6.579861111111112
  40
0.0
  41
0.0
  42
0.0
  10
8.663194444444445
  20
5.836805555555556
  40
0.0
  41
0.0
  42
0.0
  10
6.920138888888888
  20
5.836805555555556
  40
0.0
  41
0.0
  42
0.0
  0
LWPOLYLINE
  5
394
  330
1D
  100
AcDbEntity
  8
0
  6
ByLayer
  62
256
  48
1.0
  60
0
  67
0
  370
9
  100
AcDbPolyline
  90
2
  70
0
  43
0.0
  38
0.0
  39
0.0
  210
0.0
  220
0.0
  230
1.0
  10
6.920138888888888
  20
6.333333333333334
  40
0.0
  41
0.0
  42
0.0
  10
8.663194444444445
  20
6.333333333333334
  40
0.0
  41
0.0
  42
0.0
  0
LWPOLYLINE
  5
395
  330
1D
  100
AcDbEntity
  8
0
  6
ByLayer
  62
256
  48
1.0
  60
0
  67
0
  370
9
  100
AcDbPolyline
  90
2
  70
0
  43
0.0
  38
0.0
  39
0.0
  210
0.0
  220
0.0
  230
1.0
  10
7.666666666666666
  20
6.208333333333334
  40
0.0
  41
0.0
  42
0.0
  10
7.666666666666666
  20
6.083333333333334
  40
0.0
  41
0.0
  42
0.0
  0
LWPOLYLINE
  5
396
  330
1D
  100
AcDbEntity
  8
0
  6
ByLayer
  62
256
  48
1.0
  60
0
  67
0
  370
9
  100
AcDbPolyline
  90
2
  70
0
  43
0.0
  38
0.0
  39
0.0
  210
0.0
  220
0.0
  230
1.0
  10
7.916666666666666
  20
6.208333333333334
  40
0.0
  41
0.0
  42
0.0
  10
7.916666666666666
  20
5.958333333333334
  40
0.0
  41
0.0
  42
0.0
  0
LWPOLYLINE
  5
397
  330
1D
  100
AcDbEntity
  8
0
  6
ByLayer
  62
256
  48
1.0
  60
0
  67
0
  370
9
  100
AcDbPolyline
  90
2
  70
0
  43
0.0
  38
0.0
  39
0.0
  210
0.0
  220
0.0
  230
1.0
  10
6.920138888888888
  20
6.208333333333334
  40
0.0
  41
0.0
  42
0.0
  10
7.666666666666666
  20
6.208333333333334
  40
0.0
  41
0.0
  42
0.0
  0
LWPOLYLINE
  5
398
  330
1D
  100
AcDbEntity
  8
0
  6
ByLayer
  62
256
  48
1.0
  60
0
  67
0
  370
9
  100
AcDbPolyline
  90
2
  70
0
  43
0.0
  38
0.0
  39
0.0
  210
0.0
  220
0.0
  230
1.0
  10
6.920138888888888
  20
6.083333333333334
  40
0.0
  41
0.0
  42
0.0
  10
7.666666666666666
  20
6.083333333333334
  40
0.0
  41
0.0
  42
0.0
  0
LWPOLYLINE
  5
399
  330
1D
  100
AcDbEntity
  8
0
  6
ByLayer
  62
256
  48
1.0
  60
0
  67
0
  370
9
  100
AcDbPolyline
  90
2
  70
0
  43
0.0
  38
0.0
  39
0.0
  210
0.0
  220
0.0
  230
1.0
  10
7.916666666666666
  20
6.208333333333334
  40
0.0
  41
0.0
  42
0.0
  10
8.663194444444445
  20
6.208333333333334
  40
0.0
  41
0.0
  42
0.0
  0
LWPOLYLINE
  5
39A
  330
1D
  100
AcDbEntity
  8
0
  6
ByLayer
  62
256
  48
1.0
  60
0
  67
0
  370
9
  100
AcDbPolyline
  90
2
  70
0
  43
0.0
  38
0.0
  39
0.0
  210
0.0
  220
0.0
  230
1.0
  10
7.916666666666666
  20
6.083333333333334
  40
0.0
  41
0.0
  42
0.0
  10
8.663194444444445
  20
6.083333333333334
  40
0.0
  41
0.0
  42
0.0
  0
LWPOLYLINE
  5
39B
  330
1D
  100
AcDbEntity
  8
0
  6
ByLayer
  62
256
  48
1.0
  60
0
  67
0
  370
9
  100
AcDbPolyline
  90
2
  70
0
  43
0.0
  38
0.0
  39
0.0
  210
0.0
  220
0.0
  230
1.0
  10
7.916666666666666
  20
5.958333333333334
  40
0.0
  41
0.0
  42
0.0
  10
8.663194444444445
  20
5.958333333333334
  40
0.0
  41
0.0
  42
0.0
  0
LWPOLYLINE
  5
39C
  330
1D
  100
AcDbEntity
  8
0
  6
ByLayer
  62
256
  48
1.0
  60
0
  67
0
  370
9
  100
AcDbPolyline
  90
4
  70
1
  43
0.0
  38
0.0
  39
0.0
  210
0.0
  220
0.0
  230
1.0
  10
9.711805555555555
  20
12.121527777777779
  40
0.0
  41
0.0
  42
0.0
  10
11.45486111111111
  20
12.121527777777779
  40
0.0
  41
0.0
  42
0.0
  10
11.45486111111111
  20
9.878472222222221
  40
0.0
  41
0.0
  42
0.0
  10
9.711805555555555
  20
9.878472222222221
  40
0.0
  41
0.0
  42
0.0
  0
LWPOLYLINE
  5
39D
  330
1D
  100
AcDbEntity
  8
0
  6
ByLayer
  62
256
  48
1.0
  60
0
  67
0
  370
9
  100
AcDbPolyline
  90
2
  70
0
  43
0.0
  38
0.0
  39
0.0
  210
0.0
  220
0.0
  230
1.0
  10
9.711805555555555
  20
11.875
  40
0.0
  41
0.0
  42
0.0
  10
11.45486111111111
  20
11.875
  40
0.0
  41
0.0
  42
0.0
  0
LWPOLYLINE
  5
39E
  330
1D
  100
AcDbEntity
  8
0
  6
ByLayer
  62
256
  48
1.0
  60
0
  67
0
  370
9
  100
AcDbPolyline
  90
2
  70
0
  43
0.0
  38
0.0
  39
0.0
  210
0.0
  220
0.0
  230
1.0
  10
10.458333333333332
  20
11.75
  40
0.0
  41
0.0
  42
0.0
  10
10.458333333333332
  20
10.375
  40
0.0
  41
0.0
  42
0.0
  0
LWPOLYLINE
  5
39F
  330
1D
  100
AcDbEntity
  8
0
  6
ByLayer
  62
256
  48
1.0
  60
0
  67
0
  370
9
  100
AcDbPolyline
  90
2
  70
0
  43
0.0
  38
0.0
  39
0.0
  210
0.0
  220
0.0
  230
1.0
  10
10.458333333333332
  20
10.25
  40
0.0
  41
0.0
  42
0.0
  10
10.458333333333332
  20
10.0
  40
0.0
  41
0.0
  42
0.0
  0
LWPOLYLINE
  5
3A0
  330
1D
  100
AcDbEntity
  8
0
  6
ByLayer
  62
256
  48
1.0
  60
0
  67
0
  370
9
  100
AcDbPolyline
  90
2
  70
0
  43
0.0
  38
0.0
  39
0.0
  210
0.0
  220
0.0
  230
1.0
  10
10.708333333333332
  20
11.75
  40
0.0
  41
0.0
  42
0.0
  10
10.708333333333332
  20
10.375
  40
0.0
  41
0.0
  42
0.0
  0
LWPOLYLINE
  5
3A1
  330
1D
  100
AcDbEntity
  8
0
  6
ByLayer
  62
256
  48
1.0
  60
0
  67
0
  370
9
  100
AcDbPolyline
  90
2
  70
0
  43
0.0
  38
0.0
  39
0.0
  210
0.0
  220
0.0
  230
1.0
  10
10.708333333333332
  20
10.25
  40
0.0
  41
0.0
  42
0.0
  10
10.708333333333332
  20
10.0
  40
0.0
  41
0.0
  42
0.0
  0
LWPOLYLINE
  5
3A2
  330
1D
  100
AcDbEntity
  8
0
  6
ByLayer
  62
256
  48
1.0
  60
0
  67
0
  370
9
  100
AcDbPolyline
  90
2
  70
0
  43
0.0
  38
0.0
  39
0.0
  210
0.0
  220
0.0
  230
1.0
  10
9.711805555555555
  20
11.75
  40
0.0
  41
0.0
  42
0.0
  10
10.458333333333332
  20
11.75
  40
0.0
  41
0.0
  42
0.0
  0
LWPOLYLINE
  5
3A3
  330
1D
  100
AcDbEntity
  8
0
  6
ByLayer
  62
256
  48
1.0
  60
0
  67
0
  370
9
  100
AcDbPolyline
  90
2
  70
0
  43
0.0
  38
0.0
  39
0.0
  210
0.0
  220
0.0
  230
1.0
  10
9.711805555555555
  20
11.625
  40
0.0
  41
0.0
  42
0.0
  10
10.458333333333332
  20
11.625
  40
0.0
  41
0.0
  42
0.0
  0
LWPOLYLINE
  5
3A4
  330
1D
  100
AcDbEntity
  8
0
  6
ByLayer
  62
256
  48
1.0
  60
0
  67
0
  370
9
  100
AcDbPolyline
  90
2
  70
0
  43
0.0
  38
0.0
  39
0.0
  210
0.0
  220
0.0
  230
1.0
  10
9.711805555555555
  20
11.5
  40
0.0
  41
0.0
  42
0.0
  10
10.458333333333332
  20
11.5
  40
0.0
  41
0.0
  42
0.0
  0
LWPOLYLINE
  5
3A5
  330
1D
  100
AcDbEntity
  8
0
  6
ByLayer
  62
256
  48
1.0
  60
0
  67
0
  370
9
  100
AcDbPolyline
  90
2
  70
0
  43
0.0
  38
0.0
  39
0.0
  210
0.0
  220
0.0
  230
1.0
  10
9.711805555555555
  20
11.375
  40
0.0
  41
0.0
  42
0.0
  10
10.458333333333332
  20
11.375
  40
0.0
  41
0.0
  42
0.0
  0
LWPOLYLINE
  5
3A6
  330
1D
  100
AcDbEntity
  8
0
  6
ByLayer
  62
256
  48
1.0
  60
0
  67
0
  370
9
  100
AcDbPolyline
  90
2
  70
0
  43
0.0
  38
0.0
  39
0.0
  210
0.0
  220
0.0
  230
1.0
  10
9.711805555555555
  20
11.25
  40
0.0
  41
0.0
  42
0.0
  10
10.458333333333332
  20
11.25
  40
0.0
  41
0.0
  42
0.0
  0
LWPOLYLINE
  5
3A7
  330
1D
  100
AcDbEntity
  8
0
  6
ByLayer
  62
256
  48
1.0
  60
0
  67
0
  370
9
  100
AcDbPolyline
  90
2
  70
0
  43
0.0
  38
0.0
  39
0.0
  210
0.0
  220
0.0
  230
1.0
  10
9.711805555555555
  20
11.125
  40
0.0
  41
0.0
  42
0.0
  10
10.458333333333332
  20
11.125
  40
0.0
  41
0.0
  42
0.0
  0
LWPOLYLINE
  5
3A8
  330
1D
  100
AcDbEntity
  8
0
  6
ByLayer
  62
256
  48
1.0
  60
0
  67
0
  370
9
  100
AcDbPolyline
  90
2
  70
0
  43
0.0
  38
0.0
  39
0.0
  210
0.0
  220
0.0
  230
1.0
  10
9.711805555555555
  20
11.0
  40
0.0
  41
0.0
  42
0.0
  10
10.458333333333332
  20
11.0
  40
0.0
  41
0.0
  42
0.0
  0
LWPOLYLINE
  5
3A9
  330
1D
  100
AcDbEntity
  8
0
  6
ByLayer
  62
256
  48
1.0
  60
0
  67
0
  370
9
  100
AcDbPolyline
  90
2
  70
0
  43
0.0
  38
0.0
  39
0.0
  210
0.0
  220
0.0
  230
1.0
  10
9.711805555555555
  20
10.875
  40
0.0
  41
0.0
  42
0.0
  10
10.458333333333332
  20
10.875
  40
0.0
  41
0.0
  42
0.0
  0
LWPOLYLINE
  5
3AA
  330
1D
  100
AcDbEntity
  8
0
  6
ByLayer
  62
256
  48
1.0
  60
0
  67
0
  370
9
  100
AcDbPolyline
  90
2
  70
0
  43
0.0
  38
0.0
  39
0.0
  210
0.0
  220
0.0
  230
1.0
  10
9.711805555555555
  20
10.75
  40
0.0
  41
0.0
  42
0.0
  10
10.458333333333332
  20
10.75
  40
0.0
  41
0.0
  42
0.0
  0
LWPOLYLINE
  5
3AB
  330
1D
  100
AcDbEntity
  8
0
  6
ByLayer
  62
256
  48
1.0
  60
0
  67
0
  370
9
  100
AcDbPolyline
  90
2
  70
0
  43
0.0
  38
0.0
  39
0.0
  210
0.0
  220
0.0
  230
1.0
  10
9.711805555555555
  20
10.625
  40
0.0
  41
0.0
  42
0.0
  10
10.458333333333332
  20
10.625
  40
0.0
  41
0.0
  42
0.0
  0
LWPOLYLINE
  5
3AC
  330
1D
  100
AcDbEntity
  8
0
  6
ByLayer
  62
256
  48
1.0
  60
0
  67
0
  370
9
  100
AcDbPolyline
  90
2
  70
0
  43
0.0
  38
0.0
  39
0.0
  210
0.0
  220
0.0
  230
1.0
  10
9.711805555555555
  20
10.5
  40
0.0
  41
0.0
  42
0.0
  10
10.458333333333332
  20
10.5
  40
0.0
  41
0.0
  42
0.0
  0
LWPOLYLINE
  5
3AD
  330
1D
  100
AcDbEntity
  8
0
  6
ByLayer
  62
256
  48
1.0
  60
0
  67
0
  370
9
  100
AcDbPolyline
  90
2
  70
0
  43
0.0
  38
0.0
  39
0.0
  210
0.0
  220
0.0
  230
1.0
  10
9.711805555555555
  20
10.375
  40
0.0
  41
0.0
  42
0.0
  10
10.458333333333332
  20
10.375
  40
0.0
  41
0.0
  42
0.0
  0
LWPOLYLINE
  5
3AE
  330
1D
  100
AcDbEntity
  8
0
  6
ByLayer
  62
256
  48
1.0
  60
0
  67
0
  370
9
  100
AcDbPolyline
  90
2
  70
0
  43
0.0
  38
0.0
  39
0.0
  210
0.0
  220
0.0
  230
1.0
  10
9.711805555555555
  20
10.25
  40
0.0
  41
0.0
  42
0.0
  10
10.458333333333332
  20
10.25
  40
0.0
  41
0.0
  42
0.0
  0
LWPOLYLINE
  5
3AF
  330
1D
  100
AcDbEntity
  8
0
  6
ByLayer
  62
256
  48
1.0
  60
0
  67
0
  370
9
  100
AcDbPolyline
  90
2
  70
0
  43
0.0
  38
0.0
  39
0.0
  210
0.0
  220
0.0
  230
1.0
  10
9.711805555555555
  20
10.125
  40
0.0
  41
0.0
  42
0.0
  10
10.458333333333332
  20
10.125
  40
0.0
  41
0.0
  42
0.0
  0
LWPOLYLINE
  5
3B0
  330
1D
  100
AcDbEntity
  8
0
  6
ByLayer
  62
256
  48
1.0
  60
0
  67
0
  370
9
  100
AcDbPolyline
  90
2
  70
0
  43
0.0
  38
0.0
  39
0.0
  210
0.0
  220
0.0
  230
1.0
  10
9.711805555555555
  20
10.0
  40
0.0
  41
0.0
  42
0.0
  10
10.458333333333332
  20
10.0
  40
0.0
  41
0.0
  42
0.0
  0
LWPOLYLINE
  5
3B1
  330
1D
  100
AcDbEntity
  8
0
  6
ByLayer
  62
256
  48
1.0
  60
0
  67
0
  370
9
  100
AcDbPolyline
  90
2
  70
0
  43
0.0
  38
0.0
  39
0.0
  210
0.0
  220
0.0
  230
1.0
  10
10.708333333333332
  20
11.75
  40
0.0
  41
0.0
  42
0.0
  10
11.45486111111111
  20
11.75
  40
0.0
  41
0.0
  42
0.0
  0
LWPOLYLINE
  5
3B2
  330
1D
  100
AcDbEntity
  8
0
  6
ByLayer
  62
256
  48
1.0
  60
0
  67
0
  370
9
  100
AcDbPolyline
  90
2
  70
0
  43
0.0
  38
0.0
  39
0.0
  210
0.0
  220
0.0
  230
1.0
  10
10.708333333333332
  20
11.625
  40
0.0
  41
0.0
  42
0.0
  10
11.45486111111111
  20
11.625
  40
0.0
  41
0.0
  42
0.0
  0
LWPOLYLINE
  5
3B3
  330
1D
  100
AcDbEntity
  8
0
  6
ByLayer
  62
256
  48
1.0
  60
0
  67
0
  370
9
  100
AcDbPolyline
  90
2
  70
0
  43
0.0
  38
0.0
  39
0.0
  210
0.0
  220
0.0
  230
1.0
  10
10.708333333333332
  20
11.5
  40
0.0
  41
0.0
  42
0.0
  10
11.45486111111111
  20
11.5
  40
0.0
  41
0.0
  42
0.0
  0
LWPOLYLINE
  5
3B4
  330
1D
  100
AcDbEntity
  8
0
  6
ByLayer
  62
256
  48
1.0
  60
0
  67
0
  370
9
  100
AcDbPolyline
  90
2
  70
0
  43
0.0
  38
0.0
  39
0.0
  210
0.0
  220
0.0
  230
1.0
  10
10.708333333333332
  20
11.375
  40
0.0
  41
0.0
  42
0.0
  10
11.45486111111111
  20
11.375
  40
0.0
  41
0.0
  42
0.0
  0
LWPOLYLINE
  5
3B5
  330
1D
  100
AcDbEntity
  8
0
  6
ByLayer
  62
256
  48
1.0
  60
0
  67
0
  370
9
  100
AcDbPolyline
  90
2
  70
0
  43
0.0
  38
0.0
  39
0.0
  210
0.0
  220
0.0
  230
1.0
  10
10.708333333333332
  20
11.25
  40
0.0
  41
0.0
  42
0.0
  10
11.45486111111111
  20
11.25
  40
0.0
  41
0.0
  42
0.0
  0
LWPOLYLINE
  5
3B6
  330
1D
  100
AcDbEntity
  8
0
  6
ByLayer
  62
256
  48
1.0
  60
0
  67
0
  370
9
  100
AcDbPolyline
  90
2
  70
0
  43
0.0
  38
0.0
  39
0.0
  210
0.0
  220
0.0
  230
1.0
  10
10.708333333333332
  20
11.125
  40
0.0
  41
0.0
  42
0.0
  10
11.45486111111111
  20
11.125
  40
0.0
  41
0.0
  42
0.0
  0
LWPOLYLINE
  5
3B7
  330
1D
  100
AcDbEntity
  8
0
  6
ByLayer
  62
256
  48
1.0
  60
0
  67
0
  370
9
  100
AcDbPolyline
  90
2
  70
0
  43
0.0
  38
0.0
  39
0.0
  210
0.0
  220
0.0
  230
1.0
  10
10.708333333333332
  20
11.0
  40
0.0
  41
0.0
  42
0.0
  10
11.45486111111111
  20
11.0
  40
0.0
  41
0.0
  42
0.0
  0
LWPOLYLINE
  5
3B8
  330
1D
  100
AcDbEntity
  8
0
  6
ByLayer
  62
256
  48
1.0
  60
0
  67
0
  370
9
  100
AcDbPolyline
  90
2
  70
0
  43
0.0
  38
0.0
  39
0.0
  210
0.0
  220
0.0
  230
1.0
  10
10.708333333333332
  20
10.875
  40
0.0
  41
0.0
  42
0.0
  10
11.45486111111111
  20
10.875
  40
0.0
  41
0.0
  42
0.0
  0
LWPOLYLINE
  5
3B9
  330
1D
  100
AcDbEntity
  8
0
  6
ByLayer
  62
256
  48
1.0
  60
0
  67
0
  370
9
  100
AcDbPolyline
  90
2
  70
0
  43
0.0
  38
0.0
  39
0.0
  210
0.0
  220
0.0
  230
1.0
  10
10.708333333333332
  20
10.75
  40
0.0
  41
0.0
  42
0.0
  10
11.45486111111111
  20
10.75
  40
0.0
  41
0.0
  42
0.0
  0
LWPOLYLINE
  5
3BA
  330
1D
  100
AcDbEntity
  8
0
  6
ByLayer
  62
256
  48
1.0
  60
0
  67
0
  370
9
  100
AcDbPolyline
  90
2
  70
0
  43
0.0
  38
0.0
  39
0.0
  210
0.0
  220
0.0
  230
1.0
  10
10.708333333333332
  20
10.625
  40
0.0
  41
0.0
  42
0.0
  10
11.45486111111111
  20
10.625
  40
0.0
  41
0.0
  42
0.0
  0
LWPOLYLINE
  5
3BB
  330
1D
  100
AcDbEntity
  8
0
  6
ByLayer
  62
256
  48
1.0
  60
0
  67
0
  370
9
  100
AcDbPolyline
  90
2
  70
0
  43
0.0
  38
0.0
  39
0.0
  210
0.0
  220
0.0
  230
1.0
  10
10.708333333333332
  20
10.5
  40
0.0
  41
0.0
  42
0.0
  10
11.45486111111111
  20
10.5
  40
0.0
  41
0.0
  42
0.0
  0
LWPOLYLINE
  5
3BC
  330
1D
  100
AcDbEntity
  8
0
  6
ByLayer
  62
256
  48
1.0
  60
0
  67
0
  370
9
  100
AcDbPolyline
  90
2
  70
0
  43
0.0
  38
0.0
  39
0.0
  210
0.0
  220
0.0
  230
1.0
  10
10.708333333333332
  20
10.375
  40
0.0
  41
0.0
  42
0.0
  10
11.45486111111111
  20
10.375
  40
0.0
  41
0.0
  42
0.0
  0
LWPOLYLINE
  5
3BD
  330
1D
  100
AcDbEntity
  8
0
  6
ByLayer
  62
256
  48
1.0
  60
0
  67
0
  370
9
  100
AcDbPolyline
  90
2
  70
0
  43
0.0
  38
0.0
  39
0.0
  210
0.0
  220
0.0
  230
1.0
  10
10.708333333333332
  20
10.25
  40
0.0
  41
0.0
  42
0.0
  10
11.45486111111111
  20
10.25
  40
0.0
  41
0.0
  42
0.0
  0
LWPOLYLINE
  5
3BE
  330
1D
  100
AcDbEntity
  8
0
  6
ByLayer
  62
256
  48
1.0
  60
0
  67
0
  370
9
  100
AcDbPolyline
  90
2
  70
0
  43
0.0
  38
0.0
  39
0.0
  210
0.0
  220
0.0
  230
1.0
  10
10.708333333333332
  20
10.125
  40
0.0
  41
0.0
  42
0.0
  10
11.45486111111111
  20
10.125
  40
0.0
  41
0.0
  42
0.0
  0
LWPOLYLINE
  5
3BF
  330
1D
  100
AcDbEntity
  8
0
  6
ByLayer
  62
256
  48
1.0
  60
0
  67
0
  370
9
  100
AcDbPolyline
  90
2
  70
0
  43
0.0
  38
0.0
  39
0.0
  210
0.0
  220
0.0
  230
1.0
  10
10.708333333333332
  20
10.0
  40
0.0
  41
0.0
  42
0.0
  10
11.45486111111111
  20
10.0
  40
0.0
  41
0.0
  42
0.0
  0
LWPOLYLINE
  5
3C0
  330
1D
  100
AcDbEntity
  8
0
  6
ByLayer
  62
256
  48
1.0
  60
0
  67
0
  370
9
  100
AcDbPolyline
  90
2
  70
0
  43
0.0
  38
0.0
  39
0.0
  210
0.0
  220
0.0
  230
1.0
  10
9.458333333333332
  20
11.479166666666668
  40
0.0
  41
0.0
  42
0.0
  10
9.458333333333332
  20
10.520833333333334
  40
0.0
  41
0.0
  42
0.0
  0
LWPOLYLINE
  5
3C1
  330
1D
  100
AcDbEntity
  8
0
  6
ByLayer
  62
256
  48
1.0
  60
0
  67
0
  370
9
  100
AcDbPolyline
  90
2
  70
0
  43
0.0
  38
0.0
  39
0.0
  210
0.0
  220
0.0
  230
1.0
  10
9.47639772927706
  20
11.471684148870697
  40
0.0
  41
0.0
  42
0.0
  10
9.481715129950716
  20
11.490538229481102
  40
0.0
  41
0.0
  42
0.0
  0
LWPOLYLINE
  5
3C2
  330
1D
  100
AcDbEntity
  8
0
  6
ByLayer
  62
256
  48
1.0
  60
0
  67
0
  370
9
  100
AcDbPolyline
  90
2
  70
0
  43
0.0
  38
0.0
  39
0.0
  210
0.0
  220
0.0
  230
1.0
  10
9.481715129950716
  20
11.490538229481102
  40
0.0
  41
0.0
  42
0.0
  10
9.482484212712214
  20
11.510112692878442
  40
0.0
  41
0.0
  42
0.0
  0
LWPOLYLINE
  5
3C3
  330
1D
  100
AcDbEntity
  8
0
  6
ByLayer
  62
256
  48
1.0
  60
0
  67
0
  370
9
  100
AcDbPolyline
  90
2
  70
0
  43
0.0
  38
0.0
  39
0.0
  210
0.0
  220
0.0
  230
1.0
  10
9.482484212712214
  20
11.510112692878442
  40
0.0
  41
0.0
  42
0.0
  10
9.478662477925717
  20
11.529325851099033
  40
0.0
  41
0.0
  42
0.0
  0
LWPOLYLINE
  5
3C4
  330
1D
  100
AcDbEntity
  8
0
  6
ByLayer
  62
256
  48
1.0
  60
0
  67
0
  370
9
  100
AcDbPolyline
  90
2
  70
0
  43
0.0
  38
0.0
  39
0.0
  210
0.0
  220
0.0
  230
1.0
  10
9.478662477925717
  20
11.529325851099033
  40
0.0
  41
0.0
  42
0.0
  10
9.47046111526396
  20
11.547115981960783
  40
0.0
  41
0.0
  42
0.0
  0
LWPOLYLINE
  5
3C5
  330
1D
  100
AcDbEntity
  8
0
  6
ByLayer
  62
256
  48
1.0
  60
0
  67
0
  370
9
  100
AcDbPolyline
  90
2
  70
0
  43
0.0
  38
0.0
  39
0.0
  210
0.0
  220
0.0
  230
1.0
  10
9.47046111526396
  20
11.547115981960783
  40
0.0
  41
0.0
  42
0.0
  10
9.458333333333332
  20
11.5625
  40
0.0
  41
0.0
  42
0.0
  0
LWPOLYLINE
  5
3C6
  330
1D
  100
AcDbEntity
  8
0
  6
ByLayer
  62
256
  48
1.0
  60
0
  67
0
  370
9
  100
AcDbPolyline
  90
2
  70
0
  43
0.0
  38
0.0
  39
0.0
  210
0.0
  220
0.0
  230
1.0
  10
9.458333333333332
  20
11.5625
  40
0.0
  41
0.0
  42
0.0
  10
9.442949315294117
  20
11.57462778193063
  40
0.0
  41
0.0
  42
0.0
  0
LWPOLYLINE
  5
3C7
  330
1D
  100
AcDbEntity
  8
0
  6
ByLayer
  62
256
  48
1.0
  60
0
  67
0
  370
9
  100
AcDbPolyline
  90
2
  70
0
  43
0.0
  38
0.0
  39
0.0
  210
0.0
  220
0.0
  230
1.0
  10
9.442949315294117
  20
11.57462778193063
  40
0.0
  41
0.0
  42
0.0
  10
9.425159184432365
  20
11.582829144592385
  40
0.0
  41
0.0
  42
0.0
  0
LWPOLYLINE
  5
3C8
  330
1D
  100
AcDbEntity
  8
0
  6
ByLayer
  62
256
  48
1.0
  60
0
  67
0
  370
9
  100
AcDbPolyline
  90
2
  70
0
  43
0.0
  38
0.0
  39
0.0
  210
0.0
  220
0.0
  230
1.0
  10
9.425159184432365
  20
11.582829144592385
  40
0.0
  41
0.0
  42
0.0
  10
9.405946026211774
  20
11.586650879378881
  40
0.0
  41
0.0
  42
0.0
  0
LWPOLYLINE
  5
3C9
  330
1D
  100
AcDbEntity
  8
0
  6
ByLayer
  62
256
  48
1.0
  60
0
  67
0
  370
9
  100
AcDbPolyline
  90
2
  70
0
  43
0.0
  38
0.0
  39
0.0
  210
0.0
  220
0.0
  230
1.0
  10
9.405946026211774
  20
11.586650879378881
  40
0.0
  41
0.0
  42
0.0
  10
9.386371562814434
  20
11.585881796617382
  40
0.0
  41
0.0
  42
0.0
  0
LWPOLYLINE
  5
3CA
  330
1D
  100
AcDbEntity
  8
0
  6
ByLayer
  62
256
  48
1.0
  60
0
  67
0
  370
9
  100
AcDbPolyline
  90
2
  70
0
  43
0.0
  38
0.0
  39
0.0
  210
0.0
  220
0.0
  230
1.0
  10
9.386371562814434
  20
11.585881796617382
  40
0.0
  41
0.0
  42
0.0
  10
9.367517482204029
  20
11.580564395943728
  40
0.0
  41
0.0
  42
0.0
  0
LWPOLYLINE
  5
3CB
  330
1D
  100
AcDbEntity
  8
0
  6
ByLayer
  62
256
  48
1.0
  60
0
  67
0
  370
9
  100
AcDbPolyline
  90
2
  70
0
  43
0.0
  38
0.0
  39
0.0
  210
0.0
  220
0.0
  230
1.0
  10
9.708333333333332
  20
11.5625
  40
0.0
  41
0.0
  42
0.0
  10
9.375
  20
11.5625
  40
0.0
  41
0.0
  42
0.0
  0
LWPOLYLINE
  5
3CC
  330
1D
  100
AcDbEntity
  8
0
  6
ByLayer
  62
256
  48
1.0
  60
0
  67
0
  370
9
  100
AcDbPolyline
  90
2
  70
0
  43
0.0
  38
0.0
  39
0.0
  210
0.0
  220
0.0
  230
1.0
  10
9.440268937389606
  20
10.528315851129303
  40
0.0
  41
0.0
  42
0.0
  10
9.43495153671595
  20
10.509461770518898
  40
0.0
  41
0.0
  42
0.0
  0
LWPOLYLINE
  5
3CD
  330
1D
  100
AcDbEntity
  8
0
  6
ByLayer
  62
256
  48
1.0
  60
0
  67
0
  370
9
  100
AcDbPolyline
  90
2
  70
0
  43
0.0
  38
0.0
  39
0.0
  210
0.0
  220
0.0
  230
1.0
  10
9.43495153671595
  20
10.509461770518898
  40
0.0
  41
0.0
  42
0.0
  10
9.43418245395445
  20
10.48988730712156
  40
0.0
  41
0.0
  42
0.0
  0
LWPOLYLINE
  5
3CE
  330
1D
  100
AcDbEntity
  8
0
  6
ByLayer
  62
256
  48
1.0
  60
0
  67
0
  370
9
  100
AcDbPolyline
  90
2
  70
0
  43
0.0
  38
0.0
  39
0.0
  210
0.0
  220
0.0
  230
1.0
  10
9.43418245395445
  20
10.48988730712156
  40
0.0
  41
0.0
  42
0.0
  10
9.43800418874095
  20
10.470674148900967
  40
0.0
  41
0.0
  42
0.0
  0
LWPOLYLINE
  5
3CF
  330
1D
  100
AcDbEntity
  8
0
  6
ByLayer
  62
256
  48
1.0
  60
0
  67
0
  370
9
  100
AcDbPolyline
  90
2
  70
0
  43
0.0
  38
0.0
  39
0.0
  210
0.0
  220
0.0
  230
1.0
  10
9.43800418874095
  20
10.470674148900967
  40
0.0
  41
0.0
  42
0.0
  10
9.446205551402704
  20
10.452884018039217
  40
0.0
  41
0.0
  42
0.0
  0
LWPOLYLINE
  5
3D0
  330
1D
  100
AcDbEntity
  8
0
  6
ByLayer
  62
256
  48
1.0
  60
0
  67
0
  370
9
  100
AcDbPolyline
  90
2
  70
0
  43
0.0
  38
0.0
  39
0.0
  210
0.0
  220
0.0
  230
1.0
  10
9.446205551402704
  20
10.452884018039217
  40
0.0
  41
0.0
  42
0.0
  10
9.458333333333332
  20
10.4375
  40
0.0
  41
0.0
  42
0.0
  0
LWPOLYLINE
  5
3D1
  330
1D
  100
AcDbEntity
  8
0
  6
ByLayer
  62
256
  48
1.0
  60
0
  67
0
  370
9
  100
AcDbPolyline
  90
2
  70
0
  43
0.0
  38
0.0
  39
0.0
  210
0.0
  220
0.0
  230
1.0
  10
9.458333333333332
  20
10.4375
  40
0.0
  41
0.0
  42
0.0
  10
9.47371735137255
  20
10.425372218069372
  40
0.0
  41
0.0
  42
0.0
  0
LWPOLYLINE
  5
3D2
  330
1D
  100
AcDbEntity
  8
0
  6
ByLayer
  62
256
  48
1.0
  60
0
  67
0
  370
9
  100
AcDbPolyline
  90
2
  70
0
  43
0.0
  38
0.0
  39
0.0
  210
0.0
  220
0.0
  230
1.0
  10
9.47371735137255
  20
10.425372218069372
  40
0.0
  41
0.0
  42
0.0
  10
9.491507482234299
  20
10.417170855407615
  40
0.0
  41
0.0
  42
0.0
  0
LWPOLYLINE
  5
3D3
  330
1D
  100
AcDbEntity
  8
0
  6
ByLayer
  62
256
  48
1.0
  60
0
  67
0
  370
9
  100
AcDbPolyline
  90
2
  70
0
  43
0.0
  38
0.0
  39
0.0
  210
0.0
  220
0.0
  230
1.0
  10
9.491507482234299
  20
10.417170855407615
  40
0.0
  41
0.0
  42
0.0
  10
9.510720640454892
  20
10.413349120621119
  40
0.0
  41
0.0
  42
0.0
  0
LWPOLYLINE
  5
3D4
  330
1D
  100
AcDbEntity
  8
0
  6
ByLayer
  62
256
  48
1.0
  60
0
  67
0
  370
9
  100
AcDbPolyline
  90
2
  70
0
  43
0.0
  38
0.0
  39
0.0
  210
0.0
  220
0.0
  230
1.0
  10
9.510720640454892
  20
10.413349120621119
  40
0.0
  41
0.0
  42
0.0
  10
9.53029510385223
  20
10.414118203382618
  40
0.0
  41
0.0
  42
0.0
  0
LWPOLYLINE
  5
3D5
  330
1D
  100
AcDbEntity
  8
0
  6
ByLayer
  62
256
  48
1.0
  60
0
  67
0
  370
9
  100
AcDbPolyline
  90
2
  70
0
  43
0.0
  38
0.0
  39
0.0
  210
0.0
  220
0.0
  230
1.0
  10
9.53029510385223
  20
10.414118203382618
  40
0.0
  41
0.0
  42
0.0
  10
9.549149184462637
  20
10.419435604056272
  40
0.0
  41
0.0
  42
0.0
  0
LWPOLYLINE
  5
3D6
  330
1D
  100
AcDbEntity
  8
0
  6
ByLayer
  62
256
  48
1.0
  60
0
  67
0
  370
9
  100
AcDbPolyline
  90
2
  70
0
  43
0.0
  38
0.0
  39
0.0
  210
0.0
  220
0.0
  230
1.0
  10
9.708333333333332
  20
10.4375
  40
0.0
  41
0.0
  42
0.0
  10
9.541666666666666
  20
10.4375
  40
0.0
  41
0.0
  42
0.0
  0
LWPOLYLINE
  5
3D7
  330
1D
  100
AcDbEntity
  8
0
  6
ByLayer
  62
256
  48
1.0
  60
0
  67
0
  370
9
  100
AcDbPolyline
  90
2
  70
0
  43
0.0
  38
0.0
  39
0.0
  210
0.0
  220
0.0
  230
1.0
  10
9.583333333333332
  20
11.5625
  40
0.0
  41
0.0
  42
0.0
  10
9.583333333333332
  20
11.645833333333334
  40
0.0
  41
0.0
  42
0.0
  0
LWPOLYLINE
  5
3D8
  330
1D
  100
AcDbEntity
  8
0
  6
ByLayer
  62
256
  48
1.0
  60
0
  67
0
  370
9
  100
AcDbPolyline
  90
2
  70
0
  43
0.0
  38
0.0
  39
0.0
  210
0.0
  220
0.0
  230
1.0
  10
9.583333333333332
  20
11.5625
  40
0.0
  41
0.0
  42
0.0
  10
9.541666666666666
  20
11.604166666666668
  40
0.0
  41
0.0
  42
0.0
  0
LWPOLYLINE
  5
3D9
  330
1D
  100
AcDbEntity
  8
0
  6
ByLayer
  62
256
  48
1.0
  60
0
  67
0
  370
9
  100
AcDbPolyline
  90
2
  70
0
  43
0.0
  38
0.0
  39
0.0
  210
0.0
  220
0.0
  230
1.0
  10
9.583333333333332
  20
11.5625
  40
0.0
  41
0.0
  42
0.0
  10
9.625
  20
11.604166666666668
  40
0.0
  41
0.0
  42
0.0
  0
LWPOLYLINE
  5
3DA
  330
1D
  100
AcDbEntity
  8
0
  6
ByLayer
  62
256
  48
1.0
  60
0
  67
0
  370
9
  100
AcDbPolyline
  90
2
  70
0
  43
0.0
  38
0.0
  39
0.0
  210
0.0
  220
0.0
  230
1.0
  10
9.583333333333332
  20
10.4375
  40
0.0
  41
0.0
  42
0.0
  10
9.583333333333332
  20
10.354166666666668
  40
0.0
  41
0.0
  42
0.0
  0
LWPOLYLINE
  5
3DB
  330
1D
  100
AcDbEntity
  8
0
  6
ByLayer
  62
256
  48
1.0
  60
0
  67
0
  370
9
  100
AcDbPolyline
  90
2
  70
0
  43
0.0
  38
0.0
  39
0.0
  210
0.0
  220
0.0
  230
1.0
  10
9.583333333333332
  20
10.4375
  40
0.0
  41
0.0
  42
0.0
  10
9.541666666666666
  20
10.395833333333334
  40
0.0
  41
0.0
  42
0.0
  0
LWPOLYLINE
  5
3DC
  330
1D
  100
AcDbEntity
  8
0
  6
ByLayer
  62
256
  48
1.0
  60
0
  67
0
  370
9
  100
AcDbPolyline
  90
2
  70
0
  43
0.0
  38
0.0
  39
0.0
  210
0.0
  220
0.0
  230
1.0
  10
9.583333333333332
  20
10.4375
  40
0.0
  41
0.0
  42
0.0
  10
9.625
  20
10.395833333333334
  40
0.0
  41
0.0
  42
0.0
  0
LWPOLYLINE
  5
3DD
  330
1D
  100
AcDbEntity
  8
0
  6
ByLayer
  62
256
  48
1.0
  60
0
  67
0
  370
9
  100
AcDbPolyline
  90
2
  70
0
  43
0.0
  38
0.0
  39
0.0
  210
0.0
  220
0.0
  230
1.0
  10
11.708333333333332
  20
11.479166666666668
  40
0.0
  41
0.0
  42
0.0
  10
11.708333333333332
  20
11.270833333333334
  40
0.0
  41
0.0
  42
0.0
  0
LWPOLYLINE
  5
3DE
  330
1D
  100
AcDbEntity
  8
0
  6
ByLayer
  62
256
  48
1.0
  60
0
  67
0
  370
9
  100
AcDbPolyline
  90
2
  70
0
  43
0.0
  38
0.0
  39
0.0
  210
0.0
  220
0.0
  230
1.0
  10
11.690268937389606
  20
11.471684148870697
  40
0.0
  41
0.0
  42
0.0
  10
11.68495153671595
  20
11.490538229481102
  40
0.0
  41
0.0
  42
0.0
  0
LWPOLYLINE
  5
3DF
  330
1D
  100
AcDbEntity
  8
0
  6
ByLayer
  62
256
  48
1.0
  60
0
  67
0
  370
9
  100
AcDbPolyline
  90
2
  70
0
  43
0.0
  38
0.0
  39
0.0
  210
0.0
  220
0.0
  230
1.0
  10
11.68495153671595
  20
11.490538229481102
  40
0.0
  41
0.0
  42
0.0
  10
11.68418245395445
  20
11.510112692878442
  40
0.0
  41
0.0
  42
0.0
  0
LWPOLYLINE
  5
3E0
  330
1D
  100
AcDbEntity
  8
0
  6
ByLayer
  62
256
  48
1.0
  60
0
  67
0
  370
9
  100
AcDbPolyline
  90
2
  70
0
  43
0.0
  38
0.0
  39
0.0
  210
0.0
  220
0.0
  230
1.0
  10
11.68418245395445
  20
11.510112692878442
  40
0.0
  41
0.0
  42
0.0
  10
11.68800418874095
  20
11.529325851099033
  40
0.0
  41
0.0
  42
0.0
  0
LWPOLYLINE
  5
3E1
  330
1D
  100
AcDbEntity
  8
0
  6
ByLayer
  62
256
  48
1.0
  60
0
  67
0
  370
9
  100
AcDbPolyline
  90
2
  70
0
  43
0.0
  38
0.0
  39
0.0
  210
0.0
  220
0.0
  230
1.0
  10
11.68800418874095
  20
11.529325851099033
  40
0.0
  41
0.0
  42
0.0
  10
11.696205551402704
  20
11.547115981960783
  40
0.0
  41
0.0
  42
0.0
  0
LWPOLYLINE
  5
3E2
  330
1D
  100
AcDbEntity
  8
0
  6
ByLayer
  62
256
  48
1.0
  60
0
  67
0
  370
9
  100
AcDbPolyline
  90
2
  70
0
  43
0.0
  38
0.0
  39
0.0
  210
0.0
  220
0.0
  230
1.0
  10
11.696205551402704
  20
11.547115981960783
  40
0.0
  41
0.0
  42
0.0
  10
11.708333333333332
  20
11.5625
  40
0.0
  41
0.0
  42
0.0
  0
LWPOLYLINE
  5
3E3
  330
1D
  100
AcDbEntity
  8
0
  6
ByLayer
  62
256
  48
1.0
  60
0
  67
0
  370
9
  100
AcDbPolyline
  90
2
  70
0
  43
0.0
  38
0.0
  39
0.0
  210
0.0
  220
0.0
  230
1.0
  10
11.708333333333332
  20
11.5625
  40
0.0
  41
0.0
  42
0.0
  10
11.72371735137255
  20
11.57462778193063
  40
0.0
  41
0.0
  42
0.0
  0
LWPOLYLINE
  5
3E4
  330
1D
  100
AcDbEntity
  8
0
  6
ByLayer
  62
256
  48
1.0
  60
0
  67
0
  370
9
  100
AcDbPolyline
  90
2
  70
0
  43
0.0
  38
0.0
  39
0.0
  210
0.0
  220
0.0
  230
1.0
  10
11.72371735137255
  20
11.57462778193063
  40
0.0
  41
0.0
  42
0.0
  10
11.741507482234299
  20
11.582829144592385
  40
0.0
  41
0.0
  42
0.0
  0
LWPOLYLINE
  5
3E5
  330
1D
  100
AcDbEntity
  8
0
  6
ByLayer
  62
256
  48
1.0
  60
0
  67
0
  370
9
  100
AcDbPolyline
  90
2
  70
0
  43
0.0
  38
0.0
  39
0.0
  210
0.0
  220
0.0
  230
1.0
  10
11.741507482234299
  20
11.582829144592385
  40
0.0
  41
0.0
  42
0.0
  10
11.760720640454892
  20
11.586650879378881
  40
0.0
  41
0.0
  42
0.0
  0
LWPOLYLINE
  5
3E6
  330
1D
  100
AcDbEntity
  8
0
  6
ByLayer
  62
256
  48
1.0
  60
0
  67
0
  370
9
  100
AcDbPolyline
  90
2
  70
0
  43
0.0
  38
0.0
  39
0.0
  210
0.0
  220
0.0
  230
1.0
  10
11.760720640454892
  20
11.586650879378881
  40
0.0
  41
0.0
  42
0.0
  10
11.78029510385223
  20
11.585881796617382
  40
0.0
  41
0.0
  42
0.0
  0
LWPOLYLINE
  5
3E7
  330
1D
  100
AcDbEntity
  8
0
  6
ByLayer
  62
256
  48
1.0
  60
0
  67
0
  370
9
  100
AcDbPolyline
  90
2
  70
0
  43
0.0
  38
0.0
  39
0.0
  210
0.0
  220
0.0
  230
1.0
  10
11.78029510385223
  20
11.585881796617382
  40
0.0
  41
0.0
  42
0.0
  10
11.799149184462637
  20
11.580564395943728
  40
0.0
  41
0.0
  42
0.0
  0
LWPOLYLINE
  5
3E8
  330
1D
  100
AcDbEntity
  8
0
  6
ByLayer
  62
256
  48
1.0
  60
0
  67
0
  370
9
  100
AcDbPolyline
  90
2
  70
0
  43
0.0
  38
0.0
  39
0.0
  210
0.0
  220
0.0
  230
1.0
  10
11.458333333333332
  20
11.5625
  40
0.0
  41
0.0
  42
0.0
  10
11.791666666666666
  20
11.5625
  40
0.0
  41
0.0
  42
0.0
  0
LWPOLYLINE
  5
3E9
  330
1D
  100
AcDbEntity
  8
0
  6
ByLayer
  62
256
  48
1.0
  60
0
  67
0
  370
9
  100
AcDbPolyline
  90
2
  70
0
  43
0.0
  38
0.0
  39
0.0
  210
0.0
  220
0.0
  230
1.0
  10
11.72639772927706
  20
11.278315851129303
  40
0.0
  41
0.0
  42
0.0
  10
11.731715129950716
  20
11.259461770518898
  40
0.0
  41
0.0
  42
0.0
  0
LWPOLYLINE
  5
3EA
  330
1D
  100
AcDbEntity
  8
0
  6
ByLayer
  62
256
  48
1.0
  60
0
  67
0
  370
9
  100
AcDbPolyline
  90
2
  70
0
  43
0.0
  38
0.0
  39
0.0
  210
0.0
  220
0.0
  230
1.0
  10
11.731715129950716
  20
11.259461770518898
  40
0.0
  41
0.0
  42
0.0
  10
11.732484212712214
  20
11.23988730712156
  40
0.0
  41
0.0
  42
0.0
  0
LWPOLYLINE
  5
3EB
  330
1D
  100
AcDbEntity
  8
0
  6
ByLayer
  62
256
  48
1.0
  60
0
  67
0
  370
9
  100
AcDbPolyline
  90
2
  70
0
  43
0.0
  38
0.0
  39
0.0
  210
0.0
  220
0.0
  230
1.0
  10
11.732484212712214
  20
11.23988730712156
  40
0.0
  41
0.0
  42
0.0
  10
11.728662477925717
  20
11.220674148900967
  40
0.0
  41
0.0
  42
0.0
  0
LWPOLYLINE
  5
3EC
  330
1D
  100
AcDbEntity
  8
0
  6
ByLayer
  62
256
  48
1.0
  60
0
  67
0
  370
9
  100
AcDbPolyline
  90
2
  70
0
  43
0.0
  38
0.0
  39
0.0
  210
0.0
  220
0.0
  230
1.0
  10
11.728662477925717
  20
11.220674148900967
  40
0.0
  41
0.0
  42
0.0
  10
11.72046111526396
  20
11.202884018039217
  40
0.0
  41
0.0
  42
0.0
  0
LWPOLYLINE
  5
3ED
  330
1D
  100
AcDbEntity
  8
0
  6
ByLayer
  62
256
  48
1.0
  60
0
  67
0
  370
9
  100
AcDbPolyline
  90
2
  70
0
  43
0.0
  38
0.0
  39
0.0
  210
0.0
  220
0.0
  230
1.0
  10
11.72046111526396
  20
11.202884018039217
  40
0.0
  41
0.0
  42
0.0
  10
11.708333333333332
  20
11.1875
  40
0.0
  41
0.0
  42
0.0
  0
LWPOLYLINE
  5
3EE
  330
1D
  100
AcDbEntity
  8
0
  6
ByLayer
  62
256
  48
1.0
  60
0
  67
0
  370
9
  100
AcDbPolyline
  90
2
  70
0
  43
0.0
  38
0.0
  39
0.0
  210
0.0
  220
0.0
  230
1.0
  10
11.708333333333332
  20
11.1875
  40
0.0
  41
0.0
  42
0.0
  10
11.692949315294117
  20
11.175372218069372
  40
0.0
  41
0.0
  42
0.0
  0
LWPOLYLINE
  5
3EF
  330
1D
  100
AcDbEntity
  8
0
  6
ByLayer
  62
256
  48
1.0
  60
0
  67
0
  370
9
  100
AcDbPolyline
  90
2
  70
0
  43
0.0
  38
0.0
  39
0.0
  210
0.0
  220
0.0
  230
1.0
  10
11.692949315294117
  20
11.175372218069372
  40
0.0
  41
0.0
  42
0.0
  10
11.675159184432365
  20
11.167170855407615
  40
0.0
  41
0.0
  42
0.0
  0
LWPOLYLINE
  5
3F0
  330
1D
  100
AcDbEntity
  8
0
  6
ByLayer
  62
256
  48
1.0
  60
0
  67
0
  370
9
  100
AcDbPolyline
  90
2
  70
0
  43
0.0
  38
0.0
  39
0.0
  210
0.0
  220
0.0
  230
1.0
  10
11.675159184432365
  20
11.167170855407615
  40
0.0
  41
0.0
  42
0.0
  10
11.655946026211774
  20
11.163349120621119
  40
0.0
  41
0.0
  42
0.0
  0
LWPOLYLINE
  5
3F1
  330
1D
  100
AcDbEntity
  8
0
  6
ByLayer
  62
256
  48
1.0
  60
0
  67
0
  370
9
  100
AcDbPolyline
  90
2
  70
0
  43
0.0
  38
0.0
  39
0.0
  210
0.0
  220
0.0
  230
1.0
  10
11.655946026211774
  20
11.163349120621119
  40
0.0
  41
0.0
  42
0.0
  10
11.636371562814434
  20
11.164118203382618
  40
0.0
  41
0.0
  42
0.0
  0
LWPOLYLINE
  5
3F2
  330
1D
  100
AcDbEntity
  8
0
  6
ByLayer
  62
256
  48
1.0
  60
0
  67
0
  370
9
  100
AcDbPolyline
  90
2
  70
0
  43
0.0
  38
0.0
  39
0.0
  210
0.0
  220
0.0
  230
1.0
  10
11.636371562814434
  20
11.164118203382618
  40
0.0
  41
0.0
  42
0.0
  10
11.617517482204029
  20
11.169435604056272
  40
0.0
  41
0.0
  42
0.0
  0
LWPOLYLINE
  5
3F3
  330
1D
  100
AcDbEntity
  8
0
  6
ByLayer
  62
256
  48
1.0
  60
0
  67
0
  370
9
  100
AcDbPolyline
  90
2
  70
0
  43
0.0
  38
0.0
  39
0.0
  210
0.0
  220
0.0
  230
1.0
  10
11.458333333333332
  20
11.1875
  40
0.0
  41
0.0
  42
0.0
  10
11.625
  20
11.1875
  40
0.0
  41
0.0
  42
0.0
  0
LWPOLYLINE
  5
3F4
  330
1D
  100
AcDbEntity
  8
0
  6
ByLayer
  62
256
  48
1.0
  60
0
  67
0
  370
9
  100
AcDbPolyline
  90
2
  70
0
  43
0.0
  38
0.0
  39
0.0
  210
0.0
  220
0.0
  230
1.0
  10
11.583333333333332
  20
11.5625
  40
0.0
  41
0.0
  42
0.0
  10
11.583333333333332
  20
11.645833333333334
  40
0.0
  41
0.0
  42
0.0
  0
LWPOLYLINE
  5
3F5
  330
1D
  100
AcDbEntity
  8
0
  6
ByLayer
  62
256
  48
1.0
  60
0
  67
0
  370
9
  100
AcDbPolyline
  90
2
  70
0
  43
0.0
  38
0.0
  39
0.0
  210
0.0
  220
0.0
  230
1.0
  10
11.583333333333332
  20
11.5625
  40
0.0
  41
0.0
  42
0.0
  10
11.541666666666666
  20
11.604166666666668
  40
0.0
  41
0.0
  42
0.0
  0
LWPOLYLINE
  5
3F6
  330
1D
  100
AcDbEntity
  8
0
  6
ByLayer
  62
256
  48
1.0
  60
0
  67
0
  370
9
  100
AcDbPolyline
  90
2
  70
0
  43
0.0
  38
0.0
  39
0.0
  210
0.0
  220
0.0
  230
1.0
  10
11.583333333333332
  20
11.5625
  40
0.0
  41
0.0
  42
0.0
  10
11.625
  20
11.604166666666668
  40
0.0
  41
0.0
  42
0.0
  0
LWPOLYLINE
  5
3F7
  330
1D
  100
AcDbEntity
  8
0
  6
ByLayer
  62
256
  48
1.0
  60
0
  67
0
  370
9
  100
AcDbPolyline
  90
2
  70
0
  43
0.0
  38
0.0
  39
0.0
  210
0.0
  220
0.0
  230
1.0
  10
11.583333333333332
  20
11.1875
  40
0.0
  41
0.0
  42
0.0
  10
11.583333333333332
  20
11.104166666666668
  40
0.0
  41
0.0
  42
0.0
  0
LWPOLYLINE
  5
3F8
  330
1D
  100
AcDbEntity
  8
0
  6
ByLayer
  62
256
  48
1.0
  60
0
  67
0
  370
9
  100
AcDbPolyline
  90
2
  70
0
  43
0.0
  38
0.0
  39
0.0
  210
0.0
  220
0.0
  230
1.0
  10
11.583333333333332
  20
11.1875
  40
0.0
  41
0.0
  42
0.0
  10
11.541666666666666
  20
11.145833333333334
  40
0.0
  41
0.0
  42
0.0
  0
LWPOLYLINE
  5
3F9
  330
1D
  100
AcDbEntity
  8
0
  6
ByLayer
  62
256
  48
1.0
  60
0
  67
0
  370
9
  100
AcDbPolyline
  90
2
  70
0
  43
0.0
  38
0.0
  39
0.0
  210
0.0
  220
0.0
  230
1.0
  10
11.583333333333332
  20
11.1875
  40
0.0
  41
0.0
  42
0.0
  10
11.625
  20
11.145833333333334
  40
0.0
  41
0.0
  42
0.0
  0
LWPOLYLINE
  5
3FA
  330
1D
  100
AcDbEntity
  8
0
  6
ByLayer
  62
256
  48
1.0
  60
0
  67
0
  370
9
  100
AcDbPolyline
  90
2
  70
0
  43
0.0
  38
0.0
  39
0.0
  210
0.0
  220
0.0
  230
1.0
  10
11.708333333333332
  20
10.979166666666668
  40
0.0
  41
0.0
  42
0.0
  10
11.708333333333332
  20
10.520833333333334
  40
0.0
  41
0.0
  42
0.0
  0
LWPOLYLINE
  5
3FB
  330
1D
  100
AcDbEntity
  8
0
  6
ByLayer
  62
256
  48
1.0
  60
0
  67
0
  370
9
  100
AcDbPolyline
  90
2
  70
0
  43
0.0
  38
0.0
  39
0.0
  210
0.0
  220
0.0
  230
1.0
  10
11.690268937389606
  20
10.971684148870697
  40
0.0
  41
0.0
  42
0.0
  10
11.68495153671595
  20
10.990538229481102
  40
0.0
  41
0.0
  42
0.0
  0
LWPOLYLINE
  5
3FC
  330
1D
  100
AcDbEntity
  8
0
  6
ByLayer
  62
256
  48
1.0
  60
0
  67
0
  370
9
  100
AcDbPolyline
  90
2
  70
0
  43
0.0
  38
0.0
  39
0.0
  210
0.0
  220
0.0
  230
1.0
  10
11.68495153671595
  20
10.990538229481102
  40
0.0
  41
0.0
  42
0.0
  10
11.68418245395445
  20
11.010112692878442
  40
0.0
  41
0.0
  42
0.0
  0
LWPOLYLINE
  5
3FD
  330
1D
  100
AcDbEntity
  8
0
  6
ByLayer
  62
256
  48
1.0
  60
0
  67
0
  370
9
  100
AcDbPolyline
  90
2
  70
0
  43
0.0
  38
0.0
  39
0.0
  210
0.0
  220
0.0
  230
1.0
  10
11.68418245395445
  20
11.010112692878442
  40
0.0
  41
0.0
  42
0.0
  10
11.68800418874095
  20
11.029325851099033
  40
0.0
  41
0.0
  42
0.0
  0
LWPOLYLINE
  5
3FE
  330
1D
  100
AcDbEntity
  8
0
  6
ByLayer
  62
256
  48
1.0
  60
0
  67
0
  370
9
  100
AcDbPolyline
  90
2
  70
0
  43
0.0
  38
0.0
  39
0.0
  210
0.0
  220
0.0
  230
1.0
  10
11.68800418874095
  20
11.029325851099033
  40
0.0
  41
0.0
  42
0.0
  10
11.696205551402704
  20
11.047115981960783
  40
0.0
  41
0.0
  42
0.0
  0
LWPOLYLINE
  5
3FF
  330
1D
  100
AcDbEntity
  8
0
  6
ByLayer
  62
256
  48
1.0
  60
0
  67
0
  370
9
  100
AcDbPolyline
  90
2
  70
0
  43
0.0
  38
0.0
  39
0.0
  210
0.0
  220
0.0
  230
1.0
  10
11.696205551402704
  20
11.047115981960783
  40
0.0
  41
0.0
  42
0.0
  10
11.708333333333332
  20
11.0625
  40
0.0
  41
0.0
  42
0.0
  0
LWPOLYLINE
  5
400
  330
1D
  100
AcDbEntity
  8
0
  6
ByLayer
  62
256
  48
1.0
  60
0
  67
0
  370
9
  100
AcDbPolyline
  90
2
  70
0
  43
0.0
  38
0.0
  39
0.0
  210
0.0
  220
0.0
  230
1.0
  10
11.708333333333332
  20
11.0625
  40
0.0
  41
0.0
  42
0.0
  10
11.72371735137255
  20
11.074627781930628
  40
0.0
  41
0.0
  42
0.0
  0
LWPOLYLINE
  5
401
  330
1D
  100
AcDbEntity
  8
0
  6
ByLayer
  62
256
  48
1.0
  60
0
  67
0
  370
9
  100
AcDbPolyline
  90
2
  70
0
  43
0.0
  38
0.0
  39
0.0
  210
0.0
  220
0.0
  230
1.0
  10
11.72371735137255
  20
11.074627781930628
  40
0.0
  41
0.0
  42
0.0
  10
11.741507482234299
  20
11.082829144592385
  40
0.0
  41
0.0
  42
0.0
  0
LWPOLYLINE
  5
402
  330
1D
  100
AcDbEntity
  8
0
  6
ByLayer
  62
256
  48
1.0
  60
0
  67
0
  370
9
  100
AcDbPolyline
  90
2
  70
0
  43
0.0
  38
0.0
  39
0.0
  210
0.0
  220
0.0
  230
1.0
  10
11.741507482234299
  20
11.082829144592385
  40
0.0
  41
0.0
  42
0.0
  10
11.760720640454892
  20
11.086650879378881
  40
0.0
  41
0.0
  42
0.0
  0
LWPOLYLINE
  5
403
  330
1D
  100
AcDbEntity
  8
0
  6
ByLayer
  62
256
  48
1.0
  60
0
  67
0
  370
9
  100
AcDbPolyline
  90
2
  70
0
  43
0.0
  38
0.0
  39
0.0
  210
0.0
  220
0.0
  230
1.0
  10
11.760720640454892
  20
11.086650879378881
  40
0.0
  41
0.0
  42
0.0
  10
11.78029510385223
  20
11.085881796617382
  40
0.0
  41
0.0
  42
0.0
  0
LWPOLYLINE
  5
404
  330
1D
  100
AcDbEntity
  8
0
  6
ByLayer
  62
256
  48
1.0
  60
0
  67
0
  370
9
  100
AcDbPolyline
  90
2
  70
0
  43
0.0
  38
0.0
  39
0.0
  210
0.0
  220
0.0
  230
1.0
  10
11.78029510385223
  20
11.085881796617382
  40
0.0
  41
0.0
  42
0.0
  10
11.799149184462637
  20
11.080564395943728
  40
0.0
  41
0.0
  42
0.0
  0
LWPOLYLINE
  5
405
  330
1D
  100
AcDbEntity
  8
0
  6
ByLayer
  62
256
  48
1.0
  60
0
  67
0
  370
9
  100
AcDbPolyline
  90
2
  70
0
  43
0.0
  38
0.0
  39
0.0
  210
0.0
  220
0.0
  230
1.0
  10
11.458333333333332
  20
11.0625
  40
0.0
  41
0.0
  42
0.0
  10
11.791666666666666
  20
11.0625
  40
0.0
  41
0.0
  42
0.0
  0
LWPOLYLINE
  5
406
  330
1D
  100
AcDbEntity
  8
0
  6
ByLayer
  62
256
  48
1.0
  60
0
  67
0
  370
9
  100
AcDbPolyline
  90
2
  70
0
  43
0.0
  38
0.0
  39
0.0
  210
0.0
  220
0.0
  230
1.0
  10
11.72639772927706
  20
10.528315851129303
  40
0.0
  41
0.0
  42
0.0
  10
11.731715129950716
  20
10.509461770518898
  40
0.0
  41
0.0
  42
0.0
  0
LWPOLYLINE
  5
407
  330
1D
  100
AcDbEntity
  8
0
  6
ByLayer
  62
256
  48
1.0
  60
0
  67
0
  370
9
  100
AcDbPolyline
  90
2
  70
0
  43
0.0
  38
0.0
  39
0.0
  210
0.0
  220
0.0
  230
1.0
  10
11.731715129950716
  20
10.509461770518898
  40
0.0
  41
0.0
  42
0.0
  10
11.732484212712214
  20
10.48988730712156
  40
0.0
  41
0.0
  42
0.0
  0
LWPOLYLINE
  5
408
  330
1D
  100
AcDbEntity
  8
0
  6
ByLayer
  62
256
  48
1.0
  60
0
  67
0
  370
9
  100
AcDbPolyline
  90
2
  70
0
  43
0.0
  38
0.0
  39
0.0
  210
0.0
  220
0.0
  230
1.0
  10
11.732484212712214
  20
10.48988730712156
  40
0.0
  41
0.0
  42
0.0
  10
11.728662477925717
  20
10.470674148900967
  40
0.0
  41
0.0
  42
0.0
  0
LWPOLYLINE
  5
409
  330
1D
  100
AcDbEntity
  8
0
  6
ByLayer
  62
256
  48
1.0
  60
0
  67
0
  370
9
  100
AcDbPolyline
  90
2
  70
0
  43
0.0
  38
0.0
  39
0.0
  210
0.0
  220
0.0
  230
1.0
  10
11.728662477925717
  20
10.470674148900967
  40
0.0
  41
0.0
  42
0.0
  10
11.72046111526396
  20
10.452884018039217
  40
0.0
  41
0.0
  42
0.0
  0
LWPOLYLINE
  5
40A
  330
1D
  100
AcDbEntity
  8
0
  6
ByLayer
  62
256
  48
1.0
  60
0
  67
0
  370
9
  100
AcDbPolyline
  90
2
  70
0
  43
0.0
  38
0.0
  39
0.0
  210
0.0
  220
0.0
  230
1.0
  10
11.72046111526396
  20
10.452884018039217
  40
0.0
  41
0.0
  42
0.0
  10
11.708333333333332
  20
10.4375
  40
0.0
  41
0.0
  42
0.0
  0
LWPOLYLINE
  5
40B
  330
1D
  100
AcDbEntity
  8
0
  6
ByLayer
  62
256
  48
1.0
  60
0
  67
0
  370
9
  100
AcDbPolyline
  90
2
  70
0
  43
0.0
  38
0.0
  39
0.0
  210
0.0
  220
0.0
  230
1.0
  10
11.708333333333332
  20
10.4375
  40
0.0
  41
0.0
  42
0.0
  10
11.692949315294117
  20
10.425372218069372
  40
0.0
  41
0.0
  42
0.0
  0
LWPOLYLINE
  5
40C
  330
1D
  100
AcDbEntity
  8
0
  6
ByLayer
  62
256
  48
1.0
  60
0
  67
0
  370
9
  100
AcDbPolyline
  90
2
  70
0
  43
0.0
  38
0.0
  39
0.0
  210
0.0
  220
0.0
  230
1.0
  10
11.692949315294117
  20
10.425372218069372
  40
0.0
  41
0.0
  42
0.0
  10
11.675159184432365
  20
10.417170855407615
  40
0.0
  41
0.0
  42
0.0
  0
LWPOLYLINE
  5
40D
  330
1D
  100
AcDbEntity
  8
0
  6
ByLayer
  62
256
  48
1.0
  60
0
  67
0
  370
9
  100
AcDbPolyline
  90
2
  70
0
  43
0.0
  38
0.0
  39
0.0
  210
0.0
  220
0.0
  230
1.0
  10
11.675159184432365
  20
10.417170855407615
  40
0.0
  41
0.0
  42
0.0
  10
11.655946026211774
  20
10.413349120621119
  40
0.0
  41
0.0
  42
0.0
  0
LWPOLYLINE
  5
40E
  330
1D
  100
AcDbEntity
  8
0
  6
ByLayer
  62
256
  48
1.0
  60
0
  67
0
  370
9
  100
AcDbPolyline
  90
2
  70
0
  43
0.0
  38
0.0
  39
0.0
  210
0.0
  220
0.0
  230
1.0
  10
11.655946026211774
  20
10.413349120621119
  40
0.0
  41
0.0
  42
0.0
  10
11.636371562814434
  20
10.414118203382618
  40
0.0
  41
0.0
  42
0.0
  0
LWPOLYLINE
  5
40F
  330
1D
  100
AcDbEntity
  8
0
  6
ByLayer
  62
256
  48
1.0
  60
0
  67
0
  370
9
  100
AcDbPolyline
  90
2
  70
0
  43
0.0
  38
0.0
  39
0.0
  210
0.0
  220
0.0
  230
1.0
  10
11.636371562814434
  20
10.414118203382618
  40
0.0
  41
0.0
  42
0.0
  10
11.617517482204029
  20
10.419435604056272
  40
0.0
  41
0.0
  42
0.0
  0
LWPOLYLINE
  5
410
  330
1D
  100
AcDbEntity
  8
0
  6
ByLayer
  62
256
  48
1.0
  60
0
  67
0
  370
9
  100
AcDbPolyline
  90
2
  70
0
  43
0.0
  38
0.0
  39
0.0
  210
0.0
  220
0.0
  230
1.0
  10
11.458333333333332
  20
10.4375
  40
0.0
  41
0.0
  42
0.0
  10
11.625
  20
10.4375
  40
0.0
  41
0.0
  42
0.0
  0
LWPOLYLINE
  5
411
  330
1D
  100
AcDbEntity
  8
0
  6
ByLayer
  62
256
  48
1.0
  60
0
  67
0
  370
9
  100
AcDbPolyline
  90
2
  70
0
  43
0.0
  38
0.0
  39
0.0
  210
0.0
  220
0.0
  230
1.0
  10
11.583333333333332
  20
11.0625
  40
0.0
  41
0.0
  42
0.0
  10
11.583333333333332
  20
11.145833333333334
  40
0.0
  41
0.0
  42
0.0
  0
LWPOLYLINE
  5
412
  330
1D
  100
AcDbEntity
  8
0
  6
ByLayer
  62
256
  48
1.0
  60
0
  67
0
  370
9
  100
AcDbPolyline
  90
2
  70
0
  43
0.0
  38
0.0
  39
0.0
  210
0.0
  220
0.0
  230
1.0
  10
11.583333333333332
  20
11.0625
  40
0.0
  41
0.0
  42
0.0
  10
11.541666666666666
  20
11.104166666666668
  40
0.0
  41
0.0
  42
0.0
  0
LWPOLYLINE
  5
413
  330
1D
  100
AcDbEntity
  8
0
  6
ByLayer
  62
256
  48
1.0
  60
0
  67
0
  370
9
  100
AcDbPolyline
  90
2
  70
0
  43
0.0
  38
0.0
  39
0.0
  210
0.0
  220
0.0
  230
1.0
  10
11.583333333333332
  20
11.0625
  40
0.0
  41
0.0
  42
0.0
  10
11.625
  20
11.104166666666668
  40
0.0
  41
0.0
  42
0.0
  0
LWPOLYLINE
  5
414
  330
1D
  100
AcDbEntity
  8
0
  6
ByLayer
  62
256
  48
1.0
  60
0
  67
0
  370
9
  100
AcDbPolyline
  90
2
  70
0
  43
0.0
  38
0.0
  39
0.0
  210
0.0
  220
0.0
  230
1.0
  10
11.583333333333332
  20
10.4375
  40
0.0
  41
0.0
  42
0.0
  10
11.583333333333332
  20
10.354166666666668
  40
0.0
  41
0.0
  42
0.0
  0
LWPOLYLINE
  5
415
  330
1D
  100
AcDbEntity
  8
0
  6
ByLayer
  62
256
  48
1.0
  60
0
  67
0
  370
9
  100
AcDbPolyline
  90
2
  70
0
  43
0.0
  38
0.0
  39
0.0
  210
0.0
  220
0.0
  230
1.0
  10
11.583333333333332
  20
10.4375
  40
0.0
  41
0.0
  42
0.0
  10
11.541666666666666
  20
10.395833333333334
  40
0.0
  41
0.0
  42
0.0
  0
LWPOLYLINE
  5
416
  330
1D
  100
AcDbEntity
  8
0
  6
ByLayer
  62
256
  48
1.0
  60
0
  67
0
  370
9
  100
AcDbPolyline
  90
2
  70
0
  43
0.0
  38
0.0
  39
0.0
  210
0.0
  220
0.0
  230
1.0
  10
11.583333333333332
  20
10.4375
  40
0.0
  41
0.0
  42
0.0
  10
11.625
  20
10.395833333333334
  40
0.0
  41
0.0
  42
0.0
  0
LWPOLYLINE
  5
417
  330
1D
  100
AcDbEntity
  8
0
  6
ByLayer
  62
256
  48
1.0
  60
0
  67
0
  370
9
  100
AcDbPolyline
  90
6
  70
1
  43
0.0
  38
0.0
  39
0.0
  210
0.0
  220
0.0
  230
1.0
  10
15.211805555555555
  20
11.887152777777779
  40
0.0
  41
0.0
  42
0.0
  10
15.274305555555555
  20
11.887152777777779
  40
0.0
  41
0.0
  42
0.0
  10
15.399305555555555
  20
11.934027777777779
  40
0.0
  41
0.0
  42
0.0
  10
15.399305555555555
  20
11.746527777777779
  40
0.0
  41
0.0
  42
0.0
  10
15.274305555555555
  20
11.793402777777779
  40
0.0
  41
0.0
  42
0.0
  10
15.211805555555555
  20
11.793402777777779
  40
0.0
  41
0.0
  42
0.0
  0
LWPOLYLINE
  5
418
  330
1D
  100
AcDbEntity
  8
0
  6
ByLayer
  62
256
  48
1.0
  60
0
  67
0
  370
9
  100
AcDbPolyline
  90
2
  70
0
  43
0.0
  38
0.0
  39
0.0
  210
0.0
  220
0.0
  230
1.0
  10
15.274305555555555
  20
11.887152777777779
  40
0.0
  41
0.0
  42
0.0
  10
15.274305555555555
  20
11.793402777777779
  40
0.0
  41
0.0
  42
0.0
  0
LWPOLYLINE
  5
419
  330
1D
  100
AcDbEntity
  8
0
  6
ByLayer
  62
256
  48
1.0
  60
0
  67
0
  370
9
  100
AcDbPolyline
  90
6
  70
1
  43
0.0
  38
0.0
  39
0.0
  210
0.0
  220
0.0
  230
1.0
  10
15.197916666666666
  20
10.137152777777779
  40
0.0
  41
0.0
  42
0.0
  10
15.260416666666666
  20
10.137152777777779
  40
0.0
  41
0.0
  42
0.0
  10
15.385416666666666
  20
10.184027777777779
  40
0.0
  41
0.0
  42
0.0
  10
15.385416666666666
  20
9.996527777777779
  40
0.0
  41
0.0
  42
0.0
  10
15.260416666666666
  20
10.043402777777779
  40
0.0
  41
0.0
  42
0.0
  10
15.197916666666666
  20
10.043402777777779
  40
0.0
  41
0.0
  42
0.0
  0
LWPOLYLINE
  5
41A
  330
1D
  100
AcDbEntity
  8
0
  6
ByLayer
  62
256
  48
1.0
  60
0
  67
0
  370
9
  100
AcDbPolyline
  90
2
  70
0
  43
0.0
  38
0.0
  39
0.0
  210
0.0
  220
0.0
  230
1.0
  10
15.260416666666666
  20
10.137152777777779
  40
0.0
  41
0.0
  42
0.0
  10
15.260416666666666
  20
10.043402777777779
  40
0.0
  41
0.0
  42
0.0
  0
LWPOLYLINE
  5
41B
  330
1D
  100
AcDbEntity
  8
0
  6
ByLayer
  62
256
  48
1.0
  60
0
  67
0
  370
9
  100
AcDbPolyline
  90
4
  70
1
  43
0.0
  38
0.0
  39
0.0
  210
0.0
  220
0.0
  230
1.0
  10
4.815972222222222
  20
7.704861111111112
  40
0.0
  41
0.0
  42
0.0
  10
5.809027777777778
  20
7.704861111111112
  40
0.0
  41
0.0
  42
0.0
  10
5.809027777777778
  20
6.461805555555556
  40
0.0
  41
0.0
  42
0.0
  10
4.815972222222222
  20
6.461805555555556
  40
0.0
  41
0.0
  42
0.0
  0
LWPOLYLINE
  5
41C
  330
1D
  100
AcDbEntity
  8
0
  6
ByLayer
  62
256
  48
1.0
  60
0
  67
0
  370
9
  100
AcDbPolyline
  90
2
  70
0
  43
0.0
  38
0.0
  39
0.0
  210
0.0
  220
0.0
  230
1.0
  10
4.815972222222222
  20
7.458333333333334
  40
0.0
  41
0.0
  42
0.0
  10
5.809027777777778
  20
7.458333333333334
  40
0.0
  41
0.0
  42
0.0
  0
LWPOLYLINE
  5
41D
  330
1D
  100
AcDbEntity
  8
0
  6
ByLayer
  62
256
  48
1.0
  60
0
  67
0
  370
9
  100
AcDbPolyline
  90
2
  70
0
  43
0.0
  38
0.0
  39
0.0
  210
0.0
  220
0.0
  230
1.0
  10
4.815972222222222
  20
7.333333333333334
  40
0.0
  41
0.0
  42
0.0
  10
5.809027777777778
  20
7.333333333333334
  40
0.0
  41
0.0
  42
0.0
  0
LWPOLYLINE
  5
41E
  330
1D
  100
AcDbEntity
  8
0
  6
ByLayer
  62
256
  48
1.0
  60
0
  67
0
  370
9
  100
AcDbPolyline
  90
2
  70
0
  43
0.0
  38
0.0
  39
0.0
  210
0.0
  220
0.0
  230
1.0
  10
4.815972222222222
  20
7.208333333333334
  40
0.0
  41
0.0
  42
0.0
  10
5.809027777777778
  20
7.208333333333334
  40
0.0
  41
0.0
  42
0.0
  0
LWPOLYLINE
  5
41F
  330
1D
  100
AcDbEntity
  8
0
  6
ByLayer
  62
256
  48
1.0
  60
0
  67
0
  370
9
  100
AcDbPolyline
  90
2
  70
0
  43
0.0
  38
0.0
  39
0.0
  210
0.0
  220
0.0
  230
1.0
  10
4.815972222222222
  20
7.083333333333334
  40
0.0
  41
0.0
  42
0.0
  10
5.809027777777778
  20
7.083333333333334
  40
0.0
  41
0.0
  42
0.0
  0
LWPOLYLINE
  5
420
  330
1D
  100
AcDbEntity
  8
0
  6
ByLayer
  62
256
  48
1.0
  60
0
  67
0
  370
9
  100
AcDbPolyline
  90
2
  70
0
  43
0.0
  38
0.0
  39
0.0
  210
0.0
  220
0.0
  230
1.0
  10
4.815972222222222
  20
6.958333333333334
  40
0.0
  41
0.0
  42
0.0
  10
5.809027777777778
  20
6.958333333333334
  40
0.0
  41
0.0
  42
0.0
  0
LWPOLYLINE
  5
421
  330
1D
  100
AcDbEntity
  8
0
  6
ByLayer
  62
256
  48
1.0
  60
0
  67
0
  370
9
  100
AcDbPolyline
  90
2
  70
0
  43
0.0
  38
0.0
  39
0.0
  210
0.0
  220
0.0
  230
1.0
  10
4.815972222222222
  20
6.833333333333334
  40
0.0
  41
0.0
  42
0.0
  10
5.809027777777778
  20
6.833333333333334
  40
0.0
  41
0.0
  42
0.0
  0
LWPOLYLINE
  5
422
  330
1D
  100
AcDbEntity
  8
0
  6
ByLayer
  62
256
  48
1.0
  60
0
  67
0
  370
9
  100
AcDbPolyline
  90
2
  70
0
  43
0.0
  38
0.0
  39
0.0
  210
0.0
  220
0.0
  230
1.0
  10
4.815972222222222
  20
6.708333333333334
  40
0.0
  41
0.0
  42
0.0
  10
5.809027777777778
  20
6.708333333333334
  40
0.0
  41
0.0
  42
0.0
  0
LWPOLYLINE
  5
423
  330
1D
  100
AcDbEntity
  8
0
  6
ByLayer
  62
256
  48
1.0
  60
0
  67
0
  370
9
  100
AcDbPolyline
  90
2
  70
0
  43
0.0
  38
0.0
  39
0.0
  210
0.0
  220
0.0
  230
1.0
  10
4.815972222222222
  20
6.583333333333334
  40
0.0
  41
0.0
  42
0.0
  10
5.809027777777778
  20
6.583333333333334
  40
0.0
  41
0.0
  42
0.0
  0
LWPOLYLINE
  5
424
  330
1D
  100
AcDbEntity
  8
0
  6
ByLayer
  62
256
  48
1.0
  60
0
  67
0
  370
9
  100
AcDbPolyline
  90
4
  70
1
  43
0.0
  38
0.0
  39
0.0
  210
0.0
  220
0.0
  230
1.0
  10
4.815972222222222
  20
6.079861111111112
  40
0.0
  41
0.0
  42
0.0
  10
5.809027777777778
  20
6.079861111111112
  40
0.0
  41
0.0
  42
0.0
  10
5.809027777777778
  20
4.836805555555555
  40
0.0
  41
0.0
  42
0.0
  10
4.815972222222222
  20
4.836805555555555
  40
0.0
  41
0.0
  42
0.0
  0
LWPOLYLINE
  5
425
  330
1D
  100
AcDbEntity
  8
0
  6
ByLayer
  62
256
  48
1.0
  60
0
  67
0
  370
9
  100
AcDbPolyline
  90
2
  70
0
  43
0.0
  38
0.0
  39
0.0
  210
0.0
  220
0.0
  230
1.0
  10
4.815972222222222
  20
5.833333333333334
  40
0.0
  41
0.0
  42
0.0
  10
5.809027777777778
  20
5.833333333333334
  40
0.0
  41
0.0
  42
0.0
  0
LWPOLYLINE
  5
426
  330
1D
  100
AcDbEntity
  8
0
  6
ByLayer
  62
256
  48
1.0
  60
0
  67
0
  370
9
  100
AcDbPolyline
  90
2
  70
0
  43
0.0
  38
0.0
  39
0.0
  210
0.0
  220
0.0
  230
1.0
  10
4.815972222222222
  20
5.708333333333334
  40
0.0
  41
0.0
  42
0.0
  10
5.809027777777778
  20
5.708333333333334
  40
0.0
  41
0.0
  42
0.0
  0
LWPOLYLINE
  5
427
  330
1D
  100
AcDbEntity
  8
0
  6
ByLayer
  62
256
  48
1.0
  60
0
  67
0
  370
9
  100
AcDbPolyline
  90
2
  70
0
  43
0.0
  38
0.0
  39
0.0
  210
0.0
  220
0.0
  230
1.0
  10
4.815972222222222
  20
5.583333333333334
  40
0.0
  41
0.0
  42
0.0
  10
5.809027777777778
  20
5.583333333333334
  40
0.0
  41
0.0
  42
0.0
  0
LWPOLYLINE
  5
428
  330
1D
  100
AcDbEntity
  8
0
  6
ByLayer
  62
256
  48
1.0
  60
0
  67
0
  370
9
  100
AcDbPolyline
  90
2
  70
0
  43
0.0
  38
0.0
  39
0.0
  210
0.0
  220
0.0
  230
1.0
  10
4.815972222222222
  20
5.458333333333334
  40
0.0
  41
0.0
  42
0.0
  10
5.809027777777778
  20
5.458333333333334
  40
0.0
  41
0.0
  42
0.0
  0
LWPOLYLINE
  5
429
  330
1D
  100
AcDbEntity
  8
0
  6
ByLayer
  62
256
  48
1.0
  60
0
  67
0
  370
9
  100
AcDbPolyline
  90
2
  70
0
  43
0.0
  38
0.0
  39
0.0
  210
0.0
  220
0.0
  230
1.0
  10
4.815972222222222
  20
5.333333333333334
  40
0.0
  41
0.0
  42
0.0
  10
5.809027777777778
  20
5.333333333333334
  40
0.0
  41
0.0
  42
0.0
  0
LWPOLYLINE
  5
42A
  330
1D
  100
AcDbEntity
  8
0
  6
ByLayer
  62
256
  48
1.0
  60
0
  67
0
  370
9
  100
AcDbPolyline
  90
2
  70
0
  43
0.0
  38
0.0
  39
0.0
  210
0.0
  220
0.0
  230
1.0
  10
4.815972222222222
  20
5.208333333333334
  40
0.0
  41
0.0
  42
0.0
  10
5.809027777777778
  20
5.208333333333334
  40
0.0
  41
0.0
  42
0.0
  0
LWPOLYLINE
  5
42B
  330
1D
  100
AcDbEntity
  8
0
  6
ByLayer
  62
256
  48
1.0
  60
0
  67
0
  370
9
  100
AcDbPolyline
  90
2
  70
0
  43
0.0
  38
0.0
  39
0.0
  210
0.0
  220
0.0
  230
1.0
  10
4.815972222222222
  20
5.083333333333334
  40
0.0
  41
0.0
  42
0.0
  10
5.809027777777778
  20
5.083333333333334
  40
0.0
  41
0.0
  42
0.0
  0
LWPOLYLINE
  5
42C
  330
1D
  100
AcDbEntity
  8
0
  6
ByLayer
  62
256
  48
1.0
  60
0
  67
0
  370
9
  100
AcDbPolyline
  90
2
  70
0
  43
0.0
  38
0.0
  39
0.0
  210
0.0
  220
0.0
  230
1.0
  10
4.815972222222222
  20
4.958333333333334
  40
0.0
  41
0.0
  42
0.0
  10
5.809027777777778
  20
4.958333333333334
  40
0.0
  41
0.0
  42
0.0
  0
LWPOLYLINE
  5
42D
  330
1D
  100
AcDbEntity
  8
0
  6
ByLayer
  62
256
  48
1.0
  60
0
  67
0
  370
9
  100
AcDbPolyline
  90
4
  70
1
  43
0.0
  38
0.0
  39
0.0
  210
0.0
  220
0.0
  230
1.0
  10
4.815972222222222
  20
10.913194444444445
  40
0.0
  41
0.0
  42
0.0
  10
5.809027777777778
  20
10.913194444444445
  40
0.0
  41
0.0
  42
0.0
  10
5.809027777777778
  20
9.67013888888889
  40
0.0
  41
0.0
  42
0.0
  10
4.815972222222222
  20
9.67013888888889
  40
0.0
  41
0.0
  42
0.0
  0
LWPOLYLINE
  5
42E
  330
1D
  100
AcDbEntity
  8
0
  6
ByLayer
  62
256
  48
1.0
  60
0
  67
0
  370
9
  100
AcDbPolyline
  90
2
  70
0
  43
0.0
  38
0.0
  39
0.0
  210
0.0
  220
0.0
  230
1.0
  10
4.815972222222222
  20
10.666666666666668
  40
0.0
  41
0.0
  42
0.0
  10
5.809027777777778
  20
10.666666666666668
  40
0.0
  41
0.0
  42
0.0
  0
LWPOLYLINE
  5
42F
  330
1D
  100
AcDbEntity
  8
0
  6
ByLayer
  62
256
  48
1.0
  60
0
  67
0
  370
9
  100
AcDbPolyline
  90
2
  70
0
  43
0.0
  38
0.0
  39
0.0
  210
0.0
  220
0.0
  230
1.0
  10
4.815972222222222
  20
10.541666666666668
  40
0.0
  41
0.0
  42
0.0
  10
5.809027777777778
  20
10.541666666666668
  40
0.0
  41
0.0
  42
0.0
  0
LWPOLYLINE
  5
430
  330
1D
  100
AcDbEntity
  8
0
  6
ByLayer
  62
256
  48
1.0
  60
0
  67
0
  370
9
  100
AcDbPolyline
  90
2
  70
0
  43
0.0
  38
0.0
  39
0.0
  210
0.0
  220
0.0
  230
1.0
  10
4.815972222222222
  20
10.416666666666668
  40
0.0
  41
0.0
  42
0.0
  10
5.809027777777778
  20
10.416666666666668
  40
0.0
  41
0.0
  42
0.0
  0
LWPOLYLINE
  5
431
  330
1D
  100
AcDbEntity
  8
0
  6
ByLayer
  62
256
  48
1.0
  60
0
  67
0
  370
9
  100
AcDbPolyline
  90
2
  70
0
  43
0.0
  38
0.0
  39
0.0
  210
0.0
  220
0.0
  230
1.0
  10
4.815972222222222
  20
10.291666666666668
  40
0.0
  41
0.0
  42
0.0
  10
5.809027777777778
  20
10.291666666666668
  40
0.0
  41
0.0
  42
0.0
  0
LWPOLYLINE
  5
432
  330
1D
  100
AcDbEntity
  8
0
  6
ByLayer
  62
256
  48
1.0
  60
0
  67
0
  370
9
  100
AcDbPolyline
  90
2
  70
0
  43
0.0
  38
0.0
  39
0.0
  210
0.0
  220
0.0
  230
1.0
  10
4.815972222222222
  20
10.166666666666668
  40
0.0
  41
0.0
  42
0.0
  10
5.809027777777778
  20
10.166666666666668
  40
0.0
  41
0.0
  42
0.0
  0
LWPOLYLINE
  5
433
  330
1D
  100
AcDbEntity
  8
0
  6
ByLayer
  62
256
  48
1.0
  60
0
  67
0
  370
9
  100
AcDbPolyline
  90
2
  70
0
  43
0.0
  38
0.0
  39
0.0
  210
0.0
  220
0.0
  230
1.0
  10
4.815972222222222
  20
10.041666666666668
  40
0.0
  41
0.0
  42
0.0
  10
5.809027777777778
  20
10.041666666666668
  40
0.0
  41
0.0
  42
0.0
  0
LWPOLYLINE
  5
434
  330
1D
  100
AcDbEntity
  8
0
  6
ByLayer
  62
256
  48
1.0
  60
0
  67
0
  370
9
  100
AcDbPolyline
  90
2
  70
0
  43
0.0
  38
0.0
  39
0.0
  210
0.0
  220
0.0
  230
1.0
  10
4.815972222222222
  20
9.916666666666668
  40
0.0
  41
0.0
  42
0.0
  10
5.809027777777778
  20
9.916666666666668
  40
0.0
  41
0.0
  42
0.0
  0
LWPOLYLINE
  5
435
  330
1D
  100
AcDbEntity
  8
0
  6
ByLayer
  62
256
  48
1.0
  60
0
  67
0
  370
9
  100
AcDbPolyline
  90
2
  70
0
  43
0.0
  38
0.0
  39
0.0
  210
0.0
  220
0.0
  230
1.0
  10
4.815972222222222
  20
9.791666666666668
  40
0.0
  41
0.0
  42
0.0
  10
5.809027777777778
  20
9.791666666666668
  40
0.0
  41
0.0
  42
0.0
  0
LWPOLYLINE
  5
436
  330
1D
  100
AcDbEntity
  8
0
  6
ByLayer
  62
256
  48
1.0
  60
0
  67
0
  370
9
  100
AcDbPolyline
  90
4
  70
1
  43
0.0
  38
0.0
  39
0.0
  210
0.0
  220
0.0
  230
1.0
  10
4.815972222222222
  20
9.32986111111111
  40
0.0
  41
0.0
  42
0.0
  10
5.809027777777778
  20
9.32986111111111
  40
0.0
  41
0.0
  42
0.0
  10
5.809027777777778
  20
8.086805555555557
  40
0.0
  41
0.0
  42
0.0
  10
4.815972222222222
  20
8.086805555555557
  40
0.0
  41
0.0
  42
0.0
  0
LWPOLYLINE
  5
437
  330
1D
  100
AcDbEntity
  8
0
  6
ByLayer
  62
256
  48
1.0
  60
0
  67
0
  370
9
  100
AcDbPolyline
  90
2
  70
0
  43
0.0
  38
0.0
  39
0.0
  210
0.0
  220
0.0
  230
1.0
  10
4.815972222222222
  20
9.083333333333334
  40
0.0
  41
0.0
  42
0.0
  10
5.809027777777778
  20
9.083333333333334
  40
0.0
  41
0.0
  42
0.0
  0
LWPOLYLINE
  5
438
  330
1D
  100
AcDbEntity
  8
0
  6
ByLayer
  62
256
  48
1.0
  60
0
  67
0
  370
9
  100
AcDbPolyline
  90
2
  70
0
  43
0.0
  38
0.0
  39
0.0
  210
0.0
  220
0.0
  230
1.0
  10
4.815972222222222
  20
8.958333333333334
  40
0.0
  41
0.0
  42
0.0
  10
5.809027777777778
  20
8.958333333333334
  40
0.0
  41
0.0
  42
0.0
  0
LWPOLYLINE
  5
439
  330
1D
  100
AcDbEntity
  8
0
  6
ByLayer
  62
256
  48
1.0
  60
0
  67
0
  370
9
  100
AcDbPolyline
  90
2
  70
0
  43
0.0
  38
0.0
  39
0.0
  210
0.0
  220
0.0
  230
1.0
  10
4.815972222222222
  20
8.833333333333334
  40
0.0
  41
0.0
  42
0.0
  10
5.809027777777778
  20
8.833333333333334
  40
0.0
  41
0.0
  42
0.0
  0
LWPOLYLINE
  5
43A
  330
1D
  100
AcDbEntity
  8
0
  6
ByLayer
  62
256
  48
1.0
  60
0
  67
0
  370
9
  100
AcDbPolyline
  90
2
  70
0
  43
0.0
  38
0.0
  39
0.0
  210
0.0
  220
0.0
  230
1.0
  10
4.815972222222222
  20
8.708333333333334
  40
0.0
  41
0.0
  42
0.0
  10
5.809027777777778
  20
8.708333333333334
  40
0.0
  41
0.0
  42
0.0
  0
LWPOLYLINE
  5
43B
  330
1D
  100
AcDbEntity
  8
0
  6
ByLayer
  62
256
  48
1.0
  60
0
  67
0
  370
9
  100
AcDbPolyline
  90
2
  70
0
  43
0.0
  38
0.0
  39
0.0
  210
0.0
  220
0.0
  230
1.0
  10
4.815972222222222
  20
8.583333333333334
  40
0.0
  41
0.0
  42
0.0
  10
5.809027777777778
  20
8.583333333333334
  40
0.0
  41
0.0
  42
0.0
  0
LWPOLYLINE
  5
43C
  330
1D
  100
AcDbEntity
  8
0
  6
ByLayer
  62
256
  48
1.0
  60
0
  67
0
  370
9
  100
AcDbPolyline
  90
2
  70
0
  43
0.0
  38
0.0
  39
0.0
  210
0.0
  220
0.0
  230
1.0
  10
4.815972222222222
  20
8.458333333333334
  40
0.0
  41
0.0
  42
0.0
  10
5.809027777777778
  20
8.458333333333334
  40
0.0
  41
0.0
  42
0.0
  0
LWPOLYLINE
  5
43D
  330
1D
  100
AcDbEntity
  8
0
  6
ByLayer
  62
256
  48
1.0
  60
0
  67
0
  370
9
  100
AcDbPolyline
  90
2
  70
0
  43
0.0
  38
0.0
  39
0.0
  210
0.0
  220
0.0
  230
1.0
  10
4.815972222222222
  20
8.333333333333334
  40
0.0
  41
0.0
  42
0.0
  10
5.809027777777778
  20
8.333333333333334
  40
0.0
  41
0.0
  42
0.0
  0
LWPOLYLINE
  5
43E
  330
1D
  100
AcDbEntity
  8
0
  6
ByLayer
  62
256
  48
1.0
  60
0
  67
0
  370
9
  100
AcDbPolyline
  90
2
  70
0
  43
0.0
  38
0.0
  39
0.0
  210
0.0
  220
0.0
  230
1.0
  10
4.815972222222222
  20
8.208333333333334
  40
0.0
  41
0.0
  42
0.0
  10
5.809027777777778
  20
8.208333333333334
  40
0.0
  41
0.0
  42
0.0
  0
LWPOLYLINE
  5
43F
  330
1D
  100
AcDbEntity
  8
0
  6
ByLayer
  62
256
  48
1.0
  60
0
  67
0
  370
9
  100
AcDbPolyline
  90
6
  70
1
  43
0.0
  38
0.0
  39
0.0
  210
0.0
  220
0.0
  230
1.0
  10
16.239583333333332
  20
11.887152777777779
  40
0.0
  41
0.0
  42
0.0
  10
16.302083333333332
  20
11.887152777777779
  40
0.0
  41
0.0
  42
0.0
  10
16.427083333333332
  20
11.934027777777779
  40
0.0
  41
0.0
  42
0.0
  10
16.427083333333332
  20
11.746527777777779
  40
0.0
  41
0.0
  42
0.0
  10
16.302083333333332
  20
11.793402777777779
  40
0.0
  41
0.0
  42
0.0
  10
16.239583333333332
  20
11.793402777777779
  40
0.0
  41
0.0
  42
0.0
  0
LWPOLYLINE
  5
440
  330
1D
  100
AcDbEntity
  8
0
  6
ByLayer
  62
256
  48
1.0
  60
0
  67
0
  370
9
  100
AcDbPolyline
  90
2
  70
0
  43
0.0
  38
0.0
  39
0.0
  210
0.0
  220
0.0
  230
1.0
  10
16.302083333333332
  20
11.887152777777779
  40
0.0
  41
0.0
  42
0.0
  10
16.302083333333332
  20
11.793402777777779
  40
0.0
  41
0.0
  42
0.0
  0
LWPOLYLINE
  5
441
  330
1D
  100
AcDbEntity
  8
0
  6
ByLayer
  62
256
  48
1.0
  60
0
  67
0
  370
9
  100
AcDbPolyline
  90
6
  70
1
  43
0.0
  38
0.0
  39
0.0
  210
0.0
  220
0.0
  230
1.0
  10
17.28125
  20
11.887152777777779
  40
0.0
  41
0.0
  42
0.0
  10
17.34375
  20
11.887152777777779
  40
0.0
  41
0.0
  42
0.0
  10
17.46875
  20
11.934027777777779
  40
0.0
  41
0.0
  42
0.0
  10
17.46875
  20
11.746527777777779
  40
0.0
  41
0.0
  42
0.0
  10
17.34375
  20
11.793402777777779
  40
0.0
  41
0.0
  42
0.0
  10
17.28125
  20
11.793402777777779
  40
0.0
  41
0.0
  42
0.0
  0
LWPOLYLINE
  5
442
  330
1D
  100
AcDbEntity
  8
0
  6
ByLayer
  62
256
  48
1.0
  60
0
  67
0
  370
9
  100
AcDbPolyline
  90
2
  70
0
  43
0.0
  38
0.0
  39
0.0
  210
0.0
  220
0.0
  230
1.0
  10
17.34375
  20
11.887152777777779
  40
0.0
  41
0.0
  42
0.0
  10
17.34375
  20
11.793402777777779
  40
0.0
  41
0.0
  42
0.0
  0
LWPOLYLINE
  5
443
  330
1D
  100
AcDbEntity
  8
0
  6
ByLayer
  62
256
  48
1.0
  60
0
  67
0
  370
9
  100
AcDbPolyline
  90
6
  70
1
  43
0.0
  38
0.0
  39
0.0
  210
0.0
  220
0.0
  230
1.0
  10
18.322916666666664
  20
11.887152777777779
  40
0.0
  41
0.0
  42
0.0
  10
18.385416666666664
  20
11.887152777777779
  40
0.0
  41
0.0
  42
0.0
  10
18.510416666666664
  20
11.934027777777779
  40
0.0
  41
0.0
  42
0.0
  10
18.510416666666664
  20
11.746527777777779
  40
0.0
  41
0.0
  42
0.0
  10
18.385416666666664
  20
11.793402777777779
  40
0.0
  41
0.0
  42
0.0
  10
18.322916666666664
  20
11.793402777777779
  40
0.0
  41
0.0
  42
0.0
  0
LWPOLYLINE
  5
444
  330
1D
  100
AcDbEntity
  8
0
  6
ByLayer
  62
256
  48
1.0
  60
0
  67
0
  370
9
  100
AcDbPolyline
  90
2
  70
0
  43
0.0
  38
0.0
  39
0.0
  210
0.0
  220
0.0
  230
1.0
  10
18.385416666666664
  20
11.887152777777779
  40
0.0
  41
0.0
  42
0.0
  10
18.385416666666664
  20
11.793402777777779
  40
0.0
  41
0.0
  42
0.0
  0
LWPOLYLINE
  5
445
  330
1D
  100
AcDbEntity
  8
0
  6
ByLayer
  62
256
  48
1.0
  60
0
  67
0
  370
9
  100
AcDbPolyline
  90
6
  70
1
  43
0.0
  38
0.0
  39
0.0
  210
0.0
  220
0.0
  230
1.0
  10
15.211805555555555
  20
11.303819444444445
  40
0.0
  41
0.0
  42
0.0
  10
15.274305555555555
  20
11.303819444444445
  40
0.0
  41
0.0
  42
0.0
  10
15.399305555555555
  20
11.350694444444445
  40
0.0
  41
0.0
  42
0.0
  10
15.399305555555555
  20
11.163194444444445
  40
0.0
  41
0.0
  42
0.0
  10
15.274305555555555
  20
11.210069444444445
  40
0.0
  41
0.0
  42
0.0
  10
15.211805555555555
  20
11.210069444444445
  40
0.0
  41
0.0
  42
0.0
  0
LWPOLYLINE
  5
446
  330
1D
  100
AcDbEntity
  8
0
  6
ByLayer
  62
256
  48
1.0
  60
0
  67
0
  370
9
  100
AcDbPolyline
  90
2
  70
0
  43
0.0
  38
0.0
  39
0.0
  210
0.0
  220
0.0
  230
1.0
  10
15.274305555555555
  20
11.303819444444445
  40
0.0
  41
0.0
  42
0.0
  10
15.274305555555555
  20
11.210069444444445
  40
0.0
  41
0.0
  42
0.0
  0
LWPOLYLINE
  5
447
  330
1D
  100
AcDbEntity
  8
0
  6
ByLayer
  62
256
  48
1.0
  60
0
  67
0
  370
9
  100
AcDbPolyline
  90
6
  70
1
  43
0.0
  38
0.0
  39
0.0
  210
0.0
  220
0.0
  230
1.0
  10
16.25347222222222
  20
11.303819444444445
  40
0.0
  41
0.0
  42
0.0
  10
16.31597222222222
  20
11.303819444444445
  40
0.0
  41
0.0
  42
0.0
  10
16.44097222222222
  20
11.350694444444445
  40
0.0
  41
0.0
  42
0.0
  10
16.44097222222222
  20
11.163194444444445
  40
0.0
  41
0.0
  42
0.0
  10
16.31597222222222
  20
11.210069444444445
  40
0.0
  41
0.0
  42
0.0
  10
16.25347222222222
  20
11.210069444444445
  40
0.0
  41
0.0
  42
0.0
  0
LWPOLYLINE
  5
448
  330
1D
  100
AcDbEntity
  8
0
  6
ByLayer
  62
256
  48
1.0
  60
0
  67
0
  370
9
  100
AcDbPolyline
  90
2
  70
0
  43
0.0
  38
0.0
  39
0.0
  210
0.0
  220
0.0
  230
1.0
  10
16.31597222222222
  20
11.303819444444445
  40
0.0
  41
0.0
  42
0.0
  10
16.31597222222222
  20
11.210069444444445
  40
0.0
  41
0.0
  42
0.0
  0
LWPOLYLINE
  5
449
  330
1D
  100
AcDbEntity
  8
0
  6
ByLayer
  62
256
  48
1.0
  60
0
  67
0
  370
9
  100
AcDbPolyline
  90
6
  70
1
  43
0.0
  38
0.0
  39
0.0
  210
0.0
  220
0.0
  230
1.0
  10
17.29513888888889
  20
11.303819444444445
  40
0.0
  41
0.0
  42
0.0
  10
17.35763888888889
  20
11.303819444444445
  40
0.0
  41
0.0
  42
0.0
  10
17.48263888888889
  20
11.350694444444445
  40
0.0
  41
0.0
  42
0.0
  10
17.48263888888889
  20
11.163194444444445
  40
0.0
  41
0.0
  42
0.0
  10
17.35763888888889
  20
11.210069444444445
  40
0.0
  41
0.0
  42
0.0
  10
17.29513888888889
  20
11.210069444444445
  40
0.0
  41
0.0
  42
0.0
  0
LWPOLYLINE
  5
44A
  330
1D
  100
AcDbEntity
  8
0
  6
ByLayer
  62
256
  48
1.0
  60
0
  67
0
  370
9
  100
AcDbPolyline
  90
2
  70
0
  43
0.0
  38
0.0
  39
0.0
  210
0.0
  220
0.0
  230
1.0
  10
17.35763888888889
  20
11.303819444444445
  40
0.0
  41
0.0
  42
0.0
  10
17.35763888888889
  20
11.210069444444445
  40
0.0
  41
0.0
  42
0.0
  0
LWPOLYLINE
  5
44B
  330
1D
  100
AcDbEntity
  8
0
  6
ByLayer
  62
256
  48
1.0
  60
0
  67
0
  370
9
  100
AcDbPolyline
  90
6
  70
1
  43
0.0
  38
0.0
  39
0.0
  210
0.0
  220
0.0
  230
1.0
  10
18.336805555555554
  20
11.303819444444445
  40
0.0
  41
0.0
  42
0.0
  10
18.399305555555554
  20
11.303819444444445
  40
0.0
  41
0.0
  42
0.0
  10
18.524305555555554
  20
11.350694444444445
  40
0.0
  41
0.0
  42
0.0
  10
18.524305555555554
  20
11.163194444444445
  40
0.0
  41
0.0
  42
0.0
  10
18.399305555555554
  20
11.210069444444445
  40
0.0
  41
0.0
  42
0.0
  10
18.336805555555554
  20
11.210069444444445
  40
0.0
  41
0.0
  42
0.0
  0
LWPOLYLINE
  5
44C
  330
1D
  100
AcDbEntity
  8
0
  6
ByLayer
  62
256
  48
1.0
  60
0
  67
0
  370
9
  100
AcDbPolyline
  90
2
  70
0
  43
0.0
  38
0.0
  39
0.0
  210
0.0
  220
0.0
  230
1.0
  10
18.399305555555554
  20
11.303819444444445
  40
0.0
  41
0.0
  42
0.0
  10
18.399305555555554
  20
11.210069444444445
  40
0.0
  41
0.0
  42
0.0
  0
LWPOLYLINE
  5
44D
  330
1D
  100
AcDbEntity
  8
0
  6
ByLayer
  62
256
  48
1.0
  60
0
  67
0
  370
9
  100
AcDbPolyline
  90
6
  70
1
  43
0.0
  38
0.0
  39
0.0
  210
0.0
  220
0.0
  230
1.0
  10
15.239583333333332
  20
10.72048611111111
  40
0.0
  41
0.0
  42
0.0
  10
15.302083333333332
  20
10.72048611111111
  40
0.0
  41
0.0
  42
0.0
  10
15.427083333333332
  20
10.76736111111111
  40
0.0
  41
0.0
  42
0.0
  10
15.427083333333332
  20
10.57986111111111
  40
0.0
  41
0.0
  42
0.0
  10
15.302083333333332
  20
10.62673611111111
  40
0.0
  41
0.0
  42
0.0
  10
15.239583333333332
  20
10.62673611111111
  40
0.0
  41
0.0
  42
0.0
  0
LWPOLYLINE
  5
44E
  330
1D
  100
AcDbEntity
  8
0
  6
ByLayer
  62
256
  48
1.0
  60
0
  67
0
  370
9
  100
AcDbPolyline
  90
2
  70
0
  43
0.0
  38
0.0
  39
0.0
  210
0.0
  220
0.0
  230
1.0
  10
15.302083333333332
  20
10.72048611111111
  40
0.0
  41
0.0
  42
0.0
  10
15.302083333333332
  20
10.62673611111111
  40
0.0
  41
0.0
  42
0.0
  0
LWPOLYLINE
  5
44F
  330
1D
  100
AcDbEntity
  8
0
  6
ByLayer
  62
256
  48
1.0
  60
0
  67
0
  370
9
  100
AcDbPolyline
  90
6
  70
1
  43
0.0
  38
0.0
  39
0.0
  210
0.0
  220
0.0
  230
1.0
  10
16.28125
  20
10.72048611111111
  40
0.0
  41
0.0
  42
0.0
  10
16.34375
  20
10.72048611111111
  40
0.0
  41
0.0
  42
0.0
  10
16.46875
  20
10.76736111111111
  40
0.0
  41
0.0
  42
0.0
  10
16.46875
  20
10.57986111111111
  40
0.0
  41
0.0
  42
0.0
  10
16.34375
  20
10.62673611111111
  40
0.0
  41
0.0
  42
0.0
  10
16.28125
  20
10.62673611111111
  40
0.0
  41
0.0
  42
0.0
  0
LWPOLYLINE
  5
450
  330
1D
  100
AcDbEntity
  8
0
  6
ByLayer
  62
256
  48
1.0
  60
0
  67
0
  370
9
  100
AcDbPolyline
  90
2
  70
0
  43
0.0
  38
0.0
  39
0.0
  210
0.0
  220
0.0
  230
1.0
  10
16.34375
  20
10.72048611111111
  40
0.0
  41
0.0
  42
0.0
  10
16.34375
  20
10.62673611111111
  40
0.0
  41
0.0
  42
0.0
  0
LWPOLYLINE
  5
451
  330
1D
  100
AcDbEntity
  8
0
  6
ByLayer
  62
256
  48
1.0
  60
0
  67
0
  370
9
  100
AcDbPolyline
  90
6
  70
1
  43
0.0
  38
0.0
  39
0.0
  210
0.0
  220
0.0
  230
1.0
  10
17.322916666666664
  20
10.72048611111111
  40
0.0
  41
0.0
  42
0.0
  10
17.385416666666664
  20
10.72048611111111
  40
0.0
  41
0.0
  42
0.0
  10
17.510416666666664
  20
10.76736111111111
  40
0.0
  41
0.0
  42
0.0
  10
17.510416666666664
  20
10.57986111111111
  40
0.0
  41
0.0
  42
0.0
  10
17.385416666666664
  20
10.62673611111111
  40
0.0
  41
0.0
  42
0.0
  10
17.322916666666664
  20
10.62673611111111
  40
0.0
  41
0.0
  42
0.0
  0
LWPOLYLINE
  5
452
  330
1D
  100
AcDbEntity
  8
0
  6
ByLayer
  62
256
  48
1.0
  60
0
  67
0
  370
9
  100
AcDbPolyline
  90
2
  70
0
  43
0.0
  38
0.0
  39
0.0
  210
0.0
  220
0.0
  230
1.0
  10
17.385416666666664
  20
10.72048611111111
  40
0.0
  41
0.0
  42
0.0
  10
17.385416666666664
  20
10.62673611111111
  40
0.0
  41
0.0
  42
0.0
  0
LWPOLYLINE
  5
453
  330
1D
  100
AcDbEntity
  8
0
  6
ByLayer
  62
256
  48
1.0
  60
0
  67
0
  370
9
  100
AcDbPolyline
  90
6
  70
1
  43
0.0
  38
0.0
  39
0.0
  210
0.0
  220
0.0
  230
1.0
  10
18.364583333333332
  20
10.72048611111111
  40
0.0
  41
0.0
  42
0.0
  10
18.427083333333332
  20
10.72048611111111
  40
0.0
  41
0.0
  42
0.0
  10
18.552083333333332
  20
10.76736111111111
  40
0.0
  41
0.0
  42
0.0
  10
18.552083333333332
  20
10.57986111111111
  40
0.0
  41
0.0
  42
0.0
  10
18.427083333333332
  20
10.62673611111111
  40
0.0
  41
0.0
  42
0.0
  10
18.364583333333332
  20
10.62673611111111
  40
0.0
  41
0.0
  42
0.0
  0
LWPOLYLINE
  5
454
  330
1D
  100
AcDbEntity
  8
0
  6
ByLayer
  62
256
  48
1.0
  60
0
  67
0
  370
9
  100
AcDbPolyline
  90
2
  70
0
  43
0.0
  38
0.0
  39
0.0
  210
0.0
  220
0.0
  230
1.0
  10
18.427083333333332
  20
10.72048611111111
  40
0.0
  41
0.0
  42
0.0
  10
18.427083333333332
  20
10.62673611111111
  40
0.0
  41
0.0
  42
0.0
  0
LWPOLYLINE
  5
455
  330
1D
  100
AcDbEntity
  8
0
  6
ByLayer
  62
256
  48
1.0
  60
0
  67
0
  370
9
  100
AcDbPolyline
  90
4
  70
1
  43
0.0
  38
0.0
  39
0.0
  210
0.0
  220
0.0
  230
1.0
  10
6.920138888888888
  20
12.121527777777779
  40
0.0
  41
0.0
  42
0.0
  10
8.663194444444445
  20
12.121527777777779
  40
0.0
  41
0.0
  42
0.0
  10
8.663194444444445
  20
9.753472222222221
  40
0.0
  41
0.0
  42
0.0
  10
6.920138888888888
  20
9.753472222222221
  40
0.0
  41
0.0
  42
0.0
  0
LWPOLYLINE
  5
456
  330
1D
  100
AcDbEntity
  8
0
  6
ByLayer
  62
256
  48
1.0
  60
0
  67
0
  370
9
  100
AcDbPolyline
  90
2
  70
0
  43
0.0
  38
0.0
  39
0.0
  210
0.0
  220
0.0
  230
1.0
  10
6.920138888888888
  20
11.875
  40
0.0
  41
0.0
  42
0.0
  10
8.663194444444445
  20
11.875
  40
0.0
  41
0.0
  42
0.0
  0
LWPOLYLINE
  5
457
  330
1D
  100
AcDbEntity
  8
0
  6
ByLayer
  62
256
  48
1.0
  60
0
  67
0
  370
9
  100
AcDbPolyline
  90
2
  70
0
  43
0.0
  38
0.0
  39
0.0
  210
0.0
  220
0.0
  230
1.0
  10
7.666666666666666
  20
11.75
  40
0.0
  41
0.0
  42
0.0
  10
7.666666666666666
  20
9.875
  40
0.0
  41
0.0
  42
0.0
  0
LWPOLYLINE
  5
458
  330
1D
  100
AcDbEntity
  8
0
  6
ByLayer
  62
256
  48
1.0
  60
0
  67
0
  370
9
  100
AcDbPolyline
  90
2
  70
0
  43
0.0
  38
0.0
  39
0.0
  210
0.0
  220
0.0
  230
1.0
  10
7.916666666666666
  20
11.75
  40
0.0
  41
0.0
  42
0.0
  10
7.916666666666666
  20
10.375
  40
0.0
  41
0.0
  42
0.0
  0
LWPOLYLINE
  5
459
  330
1D
  100
AcDbEntity
  8
0
  6
ByLayer
  62
256
  48
1.0
  60
0
  67
0
  370
9
  100
AcDbPolyline
  90
2
  70
0
  43
0.0
  38
0.0
  39
0.0
  210
0.0
  220
0.0
  230
1.0
  10
7.916666666666666
  20
10.25
  40
0.0
  41
0.0
  42
0.0
  10
7.916666666666666
  20
10.0
  40
0.0
  41
0.0
  42
0.0
  0
LWPOLYLINE
  5
45A
  330
1D
  100
AcDbEntity
  8
0
  6
ByLayer
  62
256
  48
1.0
  60
0
  67
0
  370
9
  100
AcDbPolyline
  90
2
  70
0
  43
0.0
  38
0.0
  39
0.0
  210
0.0
  220
0.0
  230
1.0
  10
6.920138888888888
  20
11.75
  40
0.0
  41
0.0
  42
0.0
  10
7.666666666666666
  20
11.75
  40
0.0
  41
0.0
  42
0.0
  0
LWPOLYLINE
  5
45B
  330
1D
  100
AcDbEntity
  8
0
  6
ByLayer
  62
256
  48
1.0
  60
0
  67
0
  370
9
  100
AcDbPolyline
  90
2
  70
0
  43
0.0
  38
0.0
  39
0.0
  210
0.0
  220
0.0
  230
1.0
  10
6.920138888888888
  20
11.625
  40
0.0
  41
0.0
  42
0.0
  10
7.666666666666666
  20
11.625
  40
0.0
  41
0.0
  42
0.0
  0
LWPOLYLINE
  5
45C
  330
1D
  100
AcDbEntity
  8
0
  6
ByLayer
  62
256
  48
1.0
  60
0
  67
0
  370
9
  100
AcDbPolyline
  90
2
  70
0
  43
0.0
  38
0.0
  39
0.0
  210
0.0
  220
0.0
  230
1.0
  10
6.920138888888888
  20
11.5
  40
0.0
  41
0.0
  42
0.0
  10
7.666666666666666
  20
11.5
  40
0.0
  41
0.0
  42
0.0
  0
LWPOLYLINE
  5
45D
  330
1D
  100
AcDbEntity
  8
0
  6
ByLayer
  62
256
  48
1.0
  60
0
  67
0
  370
9
  100
AcDbPolyline
  90
2
  70
0
  43
0.0
  38
0.0
  39
0.0
  210
0.0
  220
0.0
  230
1.0
  10
6.920138888888888
  20
11.375
  40
0.0
  41
0.0
  42
0.0
  10
7.666666666666666
  20
11.375
  40
0.0
  41
0.0
  42
0.0
  0
LWPOLYLINE
  5
45E
  330
1D
  100
AcDbEntity
  8
0
  6
ByLayer
  62
256
  48
1.0
  60
0
  67
0
  370
9
  100
AcDbPolyline
  90
2
  70
0
  43
0.0
  38
0.0
  39
0.0
  210
0.0
  220
0.0
  230
1.0
  10
6.920138888888888
  20
11.25
  40
0.0
  41
0.0
  42
0.0
  10
7.666666666666666
  20
11.25
  40
0.0
  41
0.0
  42
0.0
  0
LWPOLYLINE
  5
45F
  330
1D
  100
AcDbEntity
  8
0
  6
ByLayer
  62
256
  48
1.0
  60
0
  67
0
  370
9
  100
AcDbPolyline
  90
2
  70
0
  43
0.0
  38
0.0
  39
0.0
  210
0.0
  220
0.0
  230
1.0
  10
6.920138888888888
  20
11.125
  40
0.0
  41
0.0
  42
0.0
  10
7.666666666666666
  20
11.125
  40
0.0
  41
0.0
  42
0.0
  0
LWPOLYLINE
  5
460
  330
1D
  100
AcDbEntity
  8
0
  6
ByLayer
  62
256
  48
1.0
  60
0
  67
0
  370
9
  100
AcDbPolyline
  90
2
  70
0
  43
0.0
  38
0.0
  39
0.0
  210
0.0
  220
0.0
  230
1.0
  10
6.920138888888888
  20
11.0
  40
0.0
  41
0.0
  42
0.0
  10
7.666666666666666
  20
11.0
  40
0.0
  41
0.0
  42
0.0
  0
LWPOLYLINE
  5
461
  330
1D
  100
AcDbEntity
  8
0
  6
ByLayer
  62
256
  48
1.0
  60
0
  67
0
  370
9
  100
AcDbPolyline
  90
2
  70
0
  43
0.0
  38
0.0
  39
0.0
  210
0.0
  220
0.0
  230
1.0
  10
6.920138888888888
  20
10.875
  40
0.0
  41
0.0
  42
0.0
  10
7.666666666666666
  20
10.875
  40
0.0
  41
0.0
  42
0.0
  0
LWPOLYLINE
  5
462
  330
1D
  100
AcDbEntity
  8
0
  6
ByLayer
  62
256
  48
1.0
  60
0
  67
0
  370
9
  100
AcDbPolyline
  90
2
  70
0
  43
0.0
  38
0.0
  39
0.0
  210
0.0
  220
0.0
  230
1.0
  10
6.920138888888888
  20
10.75
  40
0.0
  41
0.0
  42
0.0
  10
7.666666666666666
  20
10.75
  40
0.0
  41
0.0
  42
0.0
  0
LWPOLYLINE
  5
463
  330
1D
  100
AcDbEntity
  8
0
  6
ByLayer
  62
256
  48
1.0
  60
0
  67
0
  370
9
  100
AcDbPolyline
  90
2
  70
0
  43
0.0
  38
0.0
  39
0.0
  210
0.0
  220
0.0
  230
1.0
  10
6.920138888888888
  20
10.625
  40
0.0
  41
0.0
  42
0.0
  10
7.666666666666666
  20
10.625
  40
0.0
  41
0.0
  42
0.0
  0
LWPOLYLINE
  5
464
  330
1D
  100
AcDbEntity
  8
0
  6
ByLayer
  62
256
  48
1.0
  60
0
  67
0
  370
9
  100
AcDbPolyline
  90
2
  70
0
  43
0.0
  38
0.0
  39
0.0
  210
0.0
  220
0.0
  230
1.0
  10
6.920138888888888
  20
10.5
  40
0.0
  41
0.0
  42
0.0
  10
7.666666666666666
  20
10.5
  40
0.0
  41
0.0
  42
0.0
  0
LWPOLYLINE
  5
465
  330
1D
  100
AcDbEntity
  8
0
  6
ByLayer
  62
256
  48
1.0
  60
0
  67
0
  370
9
  100
AcDbPolyline
  90
2
  70
0
  43
0.0
  38
0.0
  39
0.0
  210
0.0
  220
0.0
  230
1.0
  10
6.920138888888888
  20
10.375
  40
0.0
  41
0.0
  42
0.0
  10
7.666666666666666
  20
10.375
  40
0.0
  41
0.0
  42
0.0
  0
LWPOLYLINE
  5
466
  330
1D
  100
AcDbEntity
  8
0
  6
ByLayer
  62
256
  48
1.0
  60
0
  67
0
  370
9
  100
AcDbPolyline
  90
2
  70
0
  43
0.0
  38
0.0
  39
0.0
  210
0.0
  220
0.0
  230
1.0
  10
6.920138888888888
  20
10.25
  40
0.0
  41
0.0
  42
0.0
  10
7.666666666666666
  20
10.25
  40
0.0
  41
0.0
  42
0.0
  0
LWPOLYLINE
  5
467
  330
1D
  100
AcDbEntity
  8
0
  6
ByLayer
  62
256
  48
1.0
  60
0
  67
0
  370
9
  100
AcDbPolyline
  90
2
  70
0
  43
0.0
  38
0.0
  39
0.0
  210
0.0
  220
0.0
  230
1.0
  10
6.920138888888888
  20
10.125
  40
0.0
  41
0.0
  42
0.0
  10
7.666666666666666
  20
10.125
  40
0.0
  41
0.0
  42
0.0
  0
LWPOLYLINE
  5
468
  330
1D
  100
AcDbEntity
  8
0
  6
ByLayer
  62
256
  48
1.0
  60
0
  67
0
  370
9
  100
AcDbPolyline
  90
2
  70
0
  43
0.0
  38
0.0
  39
0.0
  210
0.0
  220
0.0
  230
1.0
  10
6.920138888888888
  20
10.0
  40
0.0
  41
0.0
  42
0.0
  10
7.666666666666666
  20
10.0
  40
0.0
  41
0.0
  42
0.0
  0
LWPOLYLINE
  5
469
  330
1D
  100
AcDbEntity
  8
0
  6
ByLayer
  62
256
  48
1.0
  60
0
  67
0
  370
9
  100
AcDbPolyline
  90
2
  70
0
  43
0.0
  38
0.0
  39
0.0
  210
0.0
  220
0.0
  230
1.0
  10
6.920138888888888
  20
9.875
  40
0.0
  41
0.0
  42
0.0
  10
7.666666666666666
  20
9.875
  40
0.0
  41
0.0
  42
0.0
  0
LWPOLYLINE
  5
46A
  330
1D
  100
AcDbEntity
  8
0
  6
ByLayer
  62
256
  48
1.0
  60
0
  67
0
  370
9
  100
AcDbPolyline
  90
2
  70
0
  43
0.0
  38
0.0
  39
0.0
  210
0.0
  220
0.0
  230
1.0
  10
7.916666666666666
  20
11.75
  40
0.0
  41
0.0
  42
0.0
  10
8.663194444444445
  20
11.75
  40
0.0
  41
0.0
  42
0.0
  0
LWPOLYLINE
  5
46B
  330
1D
  100
AcDbEntity
  8
0
  6
ByLayer
  62
256
  48
1.0
  60
0
  67
0
  370
9
  100
AcDbPolyline
  90
2
  70
0
  43
0.0
  38
0.0
  39
0.0
  210
0.0
  220
0.0
  230
1.0
  10
7.916666666666666
  20
11.625
  40
0.0
  41
0.0
  42
0.0
  10
8.663194444444445
  20
11.625
  40
0.0
  41
0.0
  42
0.0
  0
LWPOLYLINE
  5
46C
  330
1D
  100
AcDbEntity
  8
0
  6
ByLayer
  62
256
  48
1.0
  60
0
  67
0
  370
9
  100
AcDbPolyline
  90
2
  70
0
  43
0.0
  38
0.0
  39
0.0
  210
0.0
  220
0.0
  230
1.0
  10
7.916666666666666
  20
11.5
  40
0.0
  41
0.0
  42
0.0
  10
8.663194444444445
  20
11.5
  40
0.0
  41
0.0
  42
0.0
  0
LWPOLYLINE
  5
46D
  330
1D
  100
AcDbEntity
  8
0
  6
ByLayer
  62
256
  48
1.0
  60
0
  67
0
  370
9
  100
AcDbPolyline
  90
2
  70
0
  43
0.0
  38
0.0
  39
0.0
  210
0.0
  220
0.0
  230
1.0
  10
7.916666666666666
  20
11.375
  40
0.0
  41
0.0
  42
0.0
  10
8.663194444444445
  20
11.375
  40
0.0
  41
0.0
  42
0.0
  0
LWPOLYLINE
  5
46E
  330
1D
  100
AcDbEntity
  8
0
  6
ByLayer
  62
256
  48
1.0
  60
0
  67
0
  370
9
  100
AcDbPolyline
  90
2
  70
0
  43
0.0
  38
0.0
  39
0.0
  210
0.0
  220
0.0
  230
1.0
  10
7.916666666666666
  20
11.25
  40
0.0
  41
0.0
  42
0.0
  10
8.663194444444445
  20
11.25
  40
0.0
  41
0.0
  42
0.0
  0
LWPOLYLINE
  5
46F
  330
1D
  100
AcDbEntity
  8
0
  6
ByLayer
  62
256
  48
1.0
  60
0
  67
0
  370
9
  100
AcDbPolyline
  90
2
  70
0
  43
0.0
  38
0.0
  39
0.0
  210
0.0
  220
0.0
  230
1.0
  10
7.916666666666666
  20
11.125
  40
0.0
  41
0.0
  42
0.0
  10
8.663194444444445
  20
11.125
  40
0.0
  41
0.0
  42
0.0
  0
LWPOLYLINE
  5
470
  330
1D
  100
AcDbEntity
  8
0
  6
ByLayer
  62
256
  48
1.0
  60
0
  67
0
  370
9
  100
AcDbPolyline
  90
2
  70
0
  43
0.0
  38
0.0
  39
0.0
  210
0.0
  220
0.0
  230
1.0
  10
7.916666666666666
  20
11.0
  40
0.0
  41
0.0
  42
0.0
  10
8.663194444444445
  20
11.0
  40
0.0
  41
0.0
  42
0.0
  0
LWPOLYLINE
  5
471
  330
1D
  100
AcDbEntity
  8
0
  6
ByLayer
  62
256
  48
1.0
  60
0
  67
0
  370
9
  100
AcDbPolyline
  90
2
  70
0
  43
0.0
  38
0.0
  39
0.0
  210
0.0
  220
0.0
  230
1.0
  10
7.916666666666666
  20
10.875
  40
0.0
  41
0.0
  42
0.0
  10
8.663194444444445
  20
10.875
  40
0.0
  41
0.0
  42
0.0
  0
LWPOLYLINE
  5
472
  330
1D
  100
AcDbEntity
  8
0
  6
ByLayer
  62
256
  48
1.0
  60
0
  67
0
  370
9
  100
AcDbPolyline
  90
2
  70
0
  43
0.0
  38
0.0
  39
0.0
  210
0.0
  220
0.0
  230
1.0
  10
7.916666666666666
  20
10.75
  40
0.0
  41
0.0
  42
0.0
  10
8.663194444444445
  20
10.75
  40
0.0
  41
0.0
  42
0.0
  0
LWPOLYLINE
  5
473
  330
1D
  100
AcDbEntity
  8
0
  6
ByLayer
  62
256
  48
1.0
  60
0
  67
0
  370
9
  100
AcDbPolyline
  90
2
  70
0
  43
0.0
  38
0.0
  39
0.0
  210
0.0
  220
0.0
  230
1.0
  10
7.916666666666666
  20
10.625
  40
0.0
  41
0.0
  42
0.0
  10
8.663194444444445
  20
10.625
  40
0.0
  41
0.0
  42
0.0
  0
LWPOLYLINE
  5
474
  330
1D
  100
AcDbEntity
  8
0
  6
ByLayer
  62
256
  48
1.0
  60
0
  67
0
  370
9
  100
AcDbPolyline
  90
2
  70
0
  43
0.0
  38
0.0
  39
0.0
  210
0.0
  220
0.0
  230
1.0
  10
7.916666666666666
  20
10.5
  40
0.0
  41
0.0
  42
0.0
  10
8.663194444444445
  20
10.5
  40
0.0
  41
0.0
  42
0.0
  0
LWPOLYLINE
  5
475
  330
1D
  100
AcDbEntity
  8
0
  6
ByLayer
  62
256
  48
1.0
  60
0
  67
0
  370
9
  100
AcDbPolyline
  90
2
  70
0
  43
0.0
  38
0.0
  39
0.0
  210
0.0
  220
0.0
  230
1.0
  10
7.916666666666666
  20
10.375
  40
0.0
  41
0.0
  42
0.0
  10
8.663194444444445
  20
10.375
  40
0.0
  41
0.0
  42
0.0
  0
LWPOLYLINE
  5
476
  330
1D
  100
AcDbEntity
  8
0
  6
ByLayer
  62
256
  48
1.0
  60
0
  67
0
  370
9
  100
AcDbPolyline
  90
2
  70
0
  43
0.0
  38
0.0
  39
0.0
  210
0.0
  220
0.0
  230
1.0
  10
7.916666666666666
  20
10.25
  40
0.0
  41
0.0
  42
0.0
  10
8.663194444444445
  20
10.25
  40
0.0
  41
0.0
  42
0.0
  0
LWPOLYLINE
  5
477
  330
1D
  100
AcDbEntity
  8
0
  6
ByLayer
  62
256
  48
1.0
  60
0
  67
0
  370
9
  100
AcDbPolyline
  90
2
  70
0
  43
0.0
  38
0.0
  39
0.0
  210
0.0
  220
0.0
  230
1.0
  10
7.916666666666666
  20
10.125
  40
0.0
  41
0.0
  42
0.0
  10
8.663194444444445
  20
10.125
  40
0.0
  41
0.0
  42
0.0
  0
LWPOLYLINE
  5
478
  330
1D
  100
AcDbEntity
  8
0
  6
ByLayer
  62
256
  48
1.0
  60
0
  67
0
  370
9
  100
AcDbPolyline
  90
2
  70
0
  43
0.0
  38
0.0
  39
0.0
  210
0.0
  220
0.0
  230
1.0
  10
7.916666666666666
  20
10.0
  40
0.0
  41
0.0
  42
0.0
  10
8.663194444444445
  20
10.0
  40
0.0
  41
0.0
  42
0.0
  0
LWPOLYLINE
  5
479
  330
1D
  100
AcDbEntity
  8
0
  6
ByLayer
  62
256
  48
1.0
  60
0
  67
0
  370
9
  100
AcDbPolyline
  90
2
  70
0
  43
0.0
  38
0.0
  39
0.0
  210
0.0
  220
0.0
  230
1.0
  10
8.916666666666666
  20
11.479166666666668
  40
0.0
  41
0.0
  42
0.0
  10
8.916666666666666
  20
10.520833333333334
  40
0.0
  41
0.0
  42
0.0
  0
LWPOLYLINE
  5
47A
  330
1D
  100
AcDbEntity
  8
0
  6
ByLayer
  62
256
  48
1.0
  60
0
  67
0
  370
9
  100
AcDbPolyline
  90
2
  70
0
  43
0.0
  38
0.0
  39
0.0
  210
0.0
  220
0.0
  230
1.0
  10
8.898602270722938
  20
11.471684148870697
  40
0.0
  41
0.0
  42
0.0
  10
8.893284870049284
  20
11.490538229481102
  40
0.0
  41
0.0
  42
0.0
  0
LWPOLYLINE
  5
47B
  330
1D
  100
AcDbEntity
  8
0
  6
ByLayer
  62
256
  48
1.0
  60
0
  67
0
  370
9
  100
AcDbPolyline
  90
2
  70
0
  43
0.0
  38
0.0
  39
0.0
  210
0.0
  220
0.0
  230
1.0
  10
8.893284870049284
  20
11.490538229481102
  40
0.0
  41
0.0
  42
0.0
  10
8.892515787287785
  20
11.510112692878442
  40
0.0
  41
0.0
  42
0.0
  0
LWPOLYLINE
  5
47C
  330
1D
  100
AcDbEntity
  8
0
  6
ByLayer
  62
256
  48
1.0
  60
0
  67
0
  370
9
  100
AcDbPolyline
  90
2
  70
0
  43
0.0
  38
0.0
  39
0.0
  210
0.0
  220
0.0
  230
1.0
  10
8.892515787287785
  20
11.510112692878442
  40
0.0
  41
0.0
  42
0.0
  10
8.896337522074282
  20
11.529325851099033
  40
0.0
  41
0.0
  42
0.0
  0
LWPOLYLINE
  5
47D
  330
1D
  100
AcDbEntity
  8
0
  6
ByLayer
  62
256
  48
1.0
  60
0
  67
0
  370
9
  100
AcDbPolyline
  90
2
  70
0
  43
0.0
  38
0.0
  39
0.0
  210
0.0
  220
0.0
  230
1.0
  10
8.896337522074282
  20
11.529325851099033
  40
0.0
  41
0.0
  42
0.0
  10
8.904538884736038
  20
11.547115981960783
  40
0.0
  41
0.0
  42
0.0
  0
LWPOLYLINE
  5
47E
  330
1D
  100
AcDbEntity
  8
0
  6
ByLayer
  62
256
  48
1.0
  60
0
  67
0
  370
9
  100
AcDbPolyline
  90
2
  70
0
  43
0.0
  38
0.0
  39
0.0
  210
0.0
  220
0.0
  230
1.0
  10
8.904538884736038
  20
11.547115981960783
  40
0.0
  41
0.0
  42
0.0
  10
8.916666666666666
  20
11.5625
  40
0.0
  41
0.0
  42
0.0
  0
LWPOLYLINE
  5
47F
  330
1D
  100
AcDbEntity
  8
0
  6
ByLayer
  62
256
  48
1.0
  60
0
  67
0
  370
9
  100
AcDbPolyline
  90
2
  70
0
  43
0.0
  38
0.0
  39
0.0
  210
0.0
  220
0.0
  230
1.0
  10
8.916666666666666
  20
11.5625
  40
0.0
  41
0.0
  42
0.0
  10
8.932050684705883
  20
11.57462778193063
  40
0.0
  41
0.0
  42
0.0
  0
LWPOLYLINE
  5
480
  330
1D
  100
AcDbEntity
  8
0
  6
ByLayer
  62
256
  48
1.0
  60
0
  67
0
  370
9
  100
AcDbPolyline
  90
2
  70
0
  43
0.0
  38
0.0
  39
0.0
  210
0.0
  220
0.0
  230
1.0
  10
8.932050684705883
  20
11.57462778193063
  40
0.0
  41
0.0
  42
0.0
  10
8.949840815567633
  20
11.582829144592385
  40
0.0
  41
0.0
  42
0.0
  0
LWPOLYLINE
  5
481
  330
1D
  100
AcDbEntity
  8
0
  6
ByLayer
  62
256
  48
1.0
  60
0
  67
0
  370
9
  100
AcDbPolyline
  90
2
  70
0
  43
0.0
  38
0.0
  39
0.0
  210
0.0
  220
0.0
  230
1.0
  10
8.949840815567633
  20
11.582829144592385
  40
0.0
  41
0.0
  42
0.0
  10
8.969053973788224
  20
11.586650879378881
  40
0.0
  41
0.0
  42
0.0
  0
LWPOLYLINE
  5
482
  330
1D
  100
AcDbEntity
  8
0
  6
ByLayer
  62
256
  48
1.0
  60
0
  67
0
  370
9
  100
AcDbPolyline
  90
2
  70
0
  43
0.0
  38
0.0
  39
0.0
  210
0.0
  220
0.0
  230
1.0
  10
8.969053973788224
  20
11.586650879378881
  40
0.0
  41
0.0
  42
0.0
  10
8.988628437185564
  20
11.585881796617382
  40
0.0
  41
0.0
  42
0.0
  0
LWPOLYLINE
  5
483
  330
1D
  100
AcDbEntity
  8
0
  6
ByLayer
  62
256
  48
1.0
  60
0
  67
0
  370
9
  100
AcDbPolyline
  90
2
  70
0
  43
0.0
  38
0.0
  39
0.0
  210
0.0
  220
0.0
  230
1.0
  10
8.988628437185564
  20
11.585881796617382
  40
0.0
  41
0.0
  42
0.0
  10
9.00748251779597
  20
11.580564395943728
  40
0.0
  41
0.0
  42
0.0
  0
LWPOLYLINE
  5
484
  330
1D
  100
AcDbEntity
  8
0
  6
ByLayer
  62
256
  48
1.0
  60
0
  67
0
  370
9
  100
AcDbPolyline
  90
2
  70
0
  43
0.0
  38
0.0
  39
0.0
  210
0.0
  220
0.0
  230
1.0
  10
8.666666666666666
  20
11.5625
  40
0.0
  41
0.0
  42
0.0
  10
9.0
  20
11.5625
  40
0.0
  41
0.0
  42
0.0
  0
LWPOLYLINE
  5
485
  330
1D
  100
AcDbEntity
  8
0
  6
ByLayer
  62
256
  48
1.0
  60
0
  67
0
  370
9
  100
AcDbPolyline
  90
2
  70
0
  43
0.0
  38
0.0
  39
0.0
  210
0.0
  220
0.0
  230
1.0
  10
8.934731062610394
  20
10.528315851129303
  40
0.0
  41
0.0
  42
0.0
  10
8.940048463284048
  20
10.509461770518898
  40
0.0
  41
0.0
  42
0.0
  0
LWPOLYLINE
  5
486
  330
1D
  100
AcDbEntity
  8
0
  6
ByLayer
  62
256
  48
1.0
  60
0
  67
0
  370
9
  100
AcDbPolyline
  90
2
  70
0
  43
0.0
  38
0.0
  39
0.0
  210
0.0
  220
0.0
  230
1.0
  10
8.940048463284048
  20
10.509461770518898
  40
0.0
  41
0.0
  42
0.0
  10
8.940817546045547
  20
10.48988730712156
  40
0.0
  41
0.0
  42
0.0
  0
LWPOLYLINE
  5
487
  330
1D
  100
AcDbEntity
  8
0
  6
ByLayer
  62
256
  48
1.0
  60
0
  67
0
  370
9
  100
AcDbPolyline
  90
2
  70
0
  43
0.0
  38
0.0
  39
0.0
  210
0.0
  220
0.0
  230
1.0
  10
8.940817546045547
  20
10.48988730712156
  40
0.0
  41
0.0
  42
0.0
  10
8.93699581125905
  20
10.470674148900967
  40
0.0
  41
0.0
  42
0.0
  0
LWPOLYLINE
  5
488
  330
1D
  100
AcDbEntity
  8
0
  6
ByLayer
  62
256
  48
1.0
  60
0
  67
0
  370
9
  100
AcDbPolyline
  90
2
  70
0
  43
0.0
  38
0.0
  39
0.0
  210
0.0
  220
0.0
  230
1.0
  10
8.93699581125905
  20
10.470674148900967
  40
0.0
  41
0.0
  42
0.0
  10
8.928794448597294
  20
10.452884018039217
  40
0.0
  41
0.0
  42
0.0
  0
LWPOLYLINE
  5
489
  330
1D
  100
AcDbEntity
  8
0
  6
ByLayer
  62
256
  48
1.0
  60
0
  67
0
  370
9
  100
AcDbPolyline
  90
2
  70
0
  43
0.0
  38
0.0
  39
0.0
  210
0.0
  220
0.0
  230
1.0
  10
8.928794448597294
  20
10.452884018039217
  40
0.0
  41
0.0
  42
0.0
  10
8.916666666666666
  20
10.4375
  40
0.0
  41
0.0
  42
0.0
  0
LWPOLYLINE
  5
48A
  330
1D
  100
AcDbEntity
  8
0
  6
ByLayer
  62
256
  48
1.0
  60
0
  67
0
  370
9
  100
AcDbPolyline
  90
2
  70
0
  43
0.0
  38
0.0
  39
0.0
  210
0.0
  220
0.0
  230
1.0
  10
8.916666666666666
  20
10.4375
  40
0.0
  41
0.0
  42
0.0
  10
8.901282648627449
  20
10.425372218069372
  40
0.0
  41
0.0
  42
0.0
  0
LWPOLYLINE
  5
48B
  330
1D
  100
AcDbEntity
  8
0
  6
ByLayer
  62
256
  48
1.0
  60
0
  67
0
  370
9
  100
AcDbPolyline
  90
2
  70
0
  43
0.0
  38
0.0
  39
0.0
  210
0.0
  220
0.0
  230
1.0
  10
8.901282648627449
  20
10.425372218069372
  40
0.0
  41
0.0
  42
0.0
  10
8.8834925177657
  20
10.417170855407615
  40
0.0
  41
0.0
  42
0.0
  0
LWPOLYLINE
  5
48C
  330
1D
  100
AcDbEntity
  8
0
  6
ByLayer
  62
256
  48
1.0
  60
0
  67
0
  370
9
  100
AcDbPolyline
  90
2
  70
0
  43
0.0
  38
0.0
  39
0.0
  210
0.0
  220
0.0
  230
1.0
  10
8.8834925177657
  20
10.417170855407615
  40
0.0
  41
0.0
  42
0.0
  10
8.864279359545108
  20
10.413349120621119
  40
0.0
  41
0.0
  42
0.0
  0
LWPOLYLINE
  5
48D
  330
1D
  100
AcDbEntity
  8
0
  6
ByLayer
  62
256
  48
1.0
  60
0
  67
0
  370
9
  100
AcDbPolyline
  90
2
  70
0
  43
0.0
  38
0.0
  39
0.0
  210
0.0
  220
0.0
  230
1.0
  10
8.864279359545108
  20
10.413349120621119
  40
0.0
  41
0.0
  42
0.0
  10
8.844704896147768
  20
10.414118203382618
  40
0.0
  41
0.0
  42
0.0
  0
LWPOLYLINE
  5
48E
  330
1D
  100
AcDbEntity
  8
0
  6
ByLayer
  62
256
  48
1.0
  60
0
  67
0
  370
9
  100
AcDbPolyline
  90
2
  70
0
  43
0.0
  38
0.0
  39
0.0
  210
0.0
  220
0.0
  230
1.0
  10
8.844704896147768
  20
10.414118203382618
  40
0.0
  41
0.0
  42
0.0
  10
8.825850815537363
  20
10.419435604056272
  40
0.0
  41
0.0
  42
0.0
  0
LWPOLYLINE
  5
48F
  330
1D
  100
AcDbEntity
  8
0
  6
ByLayer
  62
256
  48
1.0
  60
0
  67
0
  370
9
  100
AcDbPolyline
  90
2
  70
0
  43
0.0
  38
0.0
  39
0.0
  210
0.0
  220
0.0
  230
1.0
  10
8.666666666666666
  20
10.4375
  40
0.0
  41
0.0
  42
0.0
  10
8.833333333333332
  20
10.4375
  40
0.0
  41
0.0
  42
0.0
  0
LWPOLYLINE
  5
490
  330
1D
  100
AcDbEntity
  8
0
  6
ByLayer
  62
256
  48
1.0
  60
0
  67
0
  370
9
  100
AcDbPolyline
  90
2
  70
0
  43
0.0
  38
0.0
  39
0.0
  210
0.0
  220
0.0
  230
1.0
  10
8.791666666666666
  20
11.5625
  40
0.0
  41
0.0
  42
0.0
  10
8.791666666666666
  20
11.645833333333334
  40
0.0
  41
0.0
  42
0.0
  0
LWPOLYLINE
  5
491
  330
1D
  100
AcDbEntity
  8
0
  6
ByLayer
  62
256
  48
1.0
  60
0
  67
0
  370
9
  100
AcDbPolyline
  90
2
  70
0
  43
0.0
  38
0.0
  39
0.0
  210
0.0
  220
0.0
  230
1.0
  10
8.791666666666666
  20
11.5625
  40
0.0
  41
0.0
  42
0.0
  10
8.75
  20
11.604166666666668
  40
0.0
  41
0.0
  42
0.0
  0
LWPOLYLINE
  5
492
  330
1D
  100
AcDbEntity
  8
0
  6
ByLayer
  62
256
  48
1.0
  60
0
  67
0
  370
9
  100
AcDbPolyline
  90
2
  70
0
  43
0.0
  38
0.0
  39
0.0
  210
0.0
  220
0.0
  230
1.0
  10
8.791666666666666
  20
11.5625
  40
0.0
  41
0.0
  42
0.0
  10
8.833333333333332
  20
11.604166666666668
  40
0.0
  41
0.0
  42
0.0
  0
LWPOLYLINE
  5
493
  330
1D
  100
AcDbEntity
  8
0
  6
ByLayer
  62
256
  48
1.0
  60
0
  67
0
  370
9
  100
AcDbPolyline
  90
2
  70
0
  43
0.0
  38
0.0
  39
0.0
  210
0.0
  220
0.0
  230
1.0
  10
8.791666666666666
  20
10.4375
  40
0.0
  41
0.0
  42
0.0
  10
8.791666666666666
  20
10.354166666666668
  40
0.0
  41
0.0
  42
0.0
  0
LWPOLYLINE
  5
494
  330
1D
  100
AcDbEntity
  8
0
  6
ByLayer
  62
256
  48
1.0
  60
0
  67
0
  370
9
  100
AcDbPolyline
  90
2
  70
0
  43
0.0
  38
0.0
  39
0.0
  210
0.0
  220
0.0
  230
1.0
  10
8.791666666666666
  20
10.4375
  40
0.0
  41
0.0
  42
0.0
  10
8.75
  20
10.395833333333334
  40
0.0
  41
0.0
  42
0.0
  0
LWPOLYLINE
  5
495
  330
1D
  100
AcDbEntity
  8
0
  6
ByLayer
  62
256
  48
1.0
  60
0
  67
0
  370
9
  100
AcDbPolyline
  90
2
  70
0
  43
0.0
  38
0.0
  39
0.0
  210
0.0
  220
0.0
  230
1.0
  10
8.791666666666666
  20
10.4375
  40
0.0
  41
0.0
  42
0.0
  10
8.833333333333332
  20
10.395833333333334
  40
0.0
  41
0.0
  42
0.0
  0
LWPOLYLINE
  5
496
  330
1D
  100
AcDbEntity
  8
0
  6
ByLayer
  62
256
  48
1.0
  60
0
  67
0
  370
9
  100
AcDbPolyline
  90
4
  70
1
  43
0.0
  38
0.0
  39
0.0
  210
0.0
  220
0.0
  230
1.0
  10
4.857638888888888
  20
4.413194444444445
  40
0.0
  41
0.0
  42
0.0
  10
5.850694444444444
  20
4.413194444444445
  40
0.0
  41
0.0
  42
0.0
  10
5.850694444444444
  20
3.1701388888888893
  40
0.0
  41
0.0
  42
0.0
  10
4.857638888888888
  20
3.1701388888888893
  40
0.0
  41
0.0
  42
0.0
  0
LWPOLYLINE
  5
497
  330
1D
  100
AcDbEntity
  8
0
  6
ByLayer
  62
256
  48
1.0
  60
0
  67
0
  370
9
  100
AcDbPolyline
  90
2
  70
0
  43
0.0
  38
0.0
  39
0.0
  210
0.0
  220
0.0
  230
1.0
  10
4.857638888888888
  20
4.166666666666668
  40
0.0
  41
0.0
  42
0.0
  10
5.850694444444444
  20
4.166666666666668
  40
0.0
  41
0.0
  42
0.0
  0
LWPOLYLINE
  5
498
  330
1D
  100
AcDbEntity
  8
0
  6
ByLayer
  62
256
  48
1.0
  60
0
  67
0
  370
9
  100
AcDbPolyline
  90
2
  70
0
  43
0.0
  38
0.0
  39
0.0
  210
0.0
  220
0.0
  230
1.0
  10
4.857638888888888
  20
4.041666666666668
  40
0.0
  41
0.0
  42
0.0
  10
5.850694444444444
  20
4.041666666666668
  40
0.0
  41
0.0
  42
0.0
  0
LWPOLYLINE
  5
499
  330
1D
  100
AcDbEntity
  8
0
  6
ByLayer
  62
256
  48
1.0
  60
0
  67
0
  370
9
  100
AcDbPolyline
  90
2
  70
0
  43
0.0
  38
0.0
  39
0.0
  210
0.0
  220
0.0
  230
1.0
  10
4.857638888888888
  20
3.916666666666668
  40
0.0
  41
0.0
  42
0.0
  10
5.850694444444444
  20
3.916666666666668
  40
0.0
  41
0.0
  42
0.0
  0
LWPOLYLINE
  5
49A
  330
1D
  100
AcDbEntity
  8
0
  6
ByLayer
  62
256
  48
1.0
  60
0
  67
0
  370
9
  100
AcDbPolyline
  90
2
  70
0
  43
0.0
  38
0.0
  39
0.0
  210
0.0
  220
0.0
  230
1.0
  10
4.857638888888888
  20
3.791666666666668
  40
0.0
  41
0.0
  42
0.0
  10
5.850694444444444
  20
3.791666666666668
  40
0.0
  41
0.0
  42
0.0
  0
LWPOLYLINE
  5
49B
  330
1D
  100
AcDbEntity
  8
0
  6
ByLayer
  62
256
  48
1.0
  60
0
  67
0
  370
9
  100
AcDbPolyline
  90
2
  70
0
  43
0.0
  38
0.0
  39
0.0
  210
0.0
  220
0.0
  230
1.0
  10
4.857638888888888
  20
3.666666666666668
  40
0.0
  41
0.0
  42
0.0
  10
5.850694444444444
  20
3.666666666666668
  40
0.0
  41
0.0
  42
0.0
  0
LWPOLYLINE
  5
49C
  330
1D
  100
AcDbEntity
  8
0
  6
ByLayer
  62
256
  48
1.0
  60
0
  67
0
  370
9
  100
AcDbPolyline
  90
2
  70
0
  43
0.0
  38
0.0
  39
0.0
  210
0.0
  220
0.0
  230
1.0
  10
4.857638888888888
  20
3.541666666666668
  40
0.0
  41
0.0
  42
0.0
  10
5.850694444444444
  20
3.541666666666668
  40
0.0
  41
0.0
  42
0.0
  0
LWPOLYLINE
  5
49D
  330
1D
  100
AcDbEntity
  8
0
  6
ByLayer
  62
256
  48
1.0
  60
0
  67
0
  370
9
  100
AcDbPolyline
  90
2
  70
0
  43
0.0
  38
0.0
  39
0.0
  210
0.0
  220
0.0
  230
1.0
  10
4.857638888888888
  20
3.416666666666668
  40
0.0
  41
0.0
  42
0.0
  10
5.850694444444444
  20
3.416666666666668
  40
0.0
  41
0.0
  42
0.0
  0
LWPOLYLINE
  5
49E
  330
1D
  100
AcDbEntity
  8
0
  6
ByLayer
  62
256
  48
1.0
  60
0
  67
0
  370
9
  100
AcDbPolyline
  90
2
  70
0
  43
0.0
  38
0.0
  39
0.0
  210
0.0
  220
0.0
  230
1.0
  10
4.857638888888888
  20
3.291666666666668
  40
0.0
  41
0.0
  42
0.0
  10
5.850694444444444
  20
3.291666666666668
  40
0.0
  41
0.0
  42
0.0
  0
LWPOLYLINE
  5
49F
  330
1D
  100
AcDbEntity
  8
0
  6
ByLayer
  62
256
  48
1.0
  60
0
  67
0
  370
9
  100
AcDbPolyline
  90
4
  70
1
  43
0.0
  38
0.0
  39
0.0
  210
0.0
  220
0.0
  230
1.0
  10
4.857638888888888
  20
2.7881944444444446
  40
0.0
  41
0.0
  42
0.0
  10
5.850694444444444
  20
2.7881944444444446
  40
0.0
  41
0.0
  42
0.0
  10
5.850694444444444
  20
1.5451388888888893
  40
0.0
  41
0.0
  42
0.0
  10
4.857638888888888
  20
1.5451388888888893
  40
0.0
  41
0.0
  42
0.0
  0
LWPOLYLINE
  5
4A0
  330
1D
  100
AcDbEntity
  8
0
  6
ByLayer
  62
256
  48
1.0
  60
0
  67
0
  370
9
  100
AcDbPolyline
  90
2
  70
0
  43
0.0
  38
0.0
  39
0.0
  210
0.0
  220
0.0
  230
1.0
  10
4.857638888888888
  20
2.541666666666668
  40
0.0
  41
0.0
  42
0.0
  10
5.850694444444444
  20
2.541666666666668
  40
0.0
  41
0.0
  42
0.0
  0
LWPOLYLINE
  5
4A1
  330
1D
  100
AcDbEntity
  8
0
  6
ByLayer
  62
256
  48
1.0
  60
0
  67
0
  370
9
  100
AcDbPolyline
  90
2
  70
0
  43
0.0
  38
0.0
  39
0.0
  210
0.0
  220
0.0
  230
1.0
  10
4.857638888888888
  20
2.416666666666668
  40
0.0
  41
0.0
  42
0.0
  10
5.850694444444444
  20
2.416666666666668
  40
0.0
  41
0.0
  42
0.0
  0
LWPOLYLINE
  5
4A2
  330
1D
  100
AcDbEntity
  8
0
  6
ByLayer
  62
256
  48
1.0
  60
0
  67
0
  370
9
  100
AcDbPolyline
  90
2
  70
0
  43
0.0
  38
0.0
  39
0.0
  210
0.0
  220
0.0
  230
1.0
  10
4.857638888888888
  20
2.291666666666668
  40
0.0
  41
0.0
  42
0.0
  10
5.850694444444444
  20
2.291666666666668
  40
0.0
  41
0.0
  42
0.0
  0
LWPOLYLINE
  5
4A3
  330
1D
  100
AcDbEntity
  8
0
  6
ByLayer
  62
256
  48
1.0
  60
0
  67
0
  370
9
  100
AcDbPolyline
  90
2
  70
0
  43
0.0
  38
0.0
  39
0.0
  210
0.0
  220
0.0
  230
1.0
  10
4.857638888888888
  20
2.166666666666668
  40
0.0
  41
0.0
  42
0.0
  10
5.850694444444444
  20
2.166666666666668
  40
0.0
  41
0.0
  42
0.0
  0
LWPOLYLINE
  5
4A4
  330
1D
  100
AcDbEntity
  8
0
  6
ByLayer
  62
256
  48
1.0
  60
0
  67
0
  370
9
  100
AcDbPolyline
  90
2
  70
0
  43
0.0
  38
0.0
  39
0.0
  210
0.0
  220
0.0
  230
1.0
  10
4.857638888888888
  20
2.041666666666668
  40
0.0
  41
0.0
  42
0.0
  10
5.850694444444444
  20
2.041666666666668
  40
0.0
  41
0.0
  42
0.0
  0
LWPOLYLINE
  5
4A5
  330
1D
  100
AcDbEntity
  8
0
  6
ByLayer
  62
256
  48
1.0
  60
0
  67
0
  370
9
  100
AcDbPolyline
  90
2
  70
0
  43
0.0
  38
0.0
  39
0.0
  210
0.0
  220
0.0
  230
1.0
  10
4.857638888888888
  20
1.9166666666666679
  40
0.0
  41
0.0
  42
0.0
  10
5.850694444444444
  20
1.9166666666666679
  40
0.0
  41
0.0
  42
0.0
  0
LWPOLYLINE
  5
4A6
  330
1D
  100
AcDbEntity
  8
0
  6
ByLayer
  62
256
  48
1.0
  60
0
  67
0
  370
9
  100
AcDbPolyline
  90
2
  70
0
  43
0.0
  38
0.0
  39
0.0
  210
0.0
  220
0.0
  230
1.0
  10
4.857638888888888
  20
1.7916666666666679
  40
0.0
  41
0.0
  42
0.0
  10
5.850694444444444
  20
1.7916666666666679
  40
0.0
  41
0.0
  42
0.0
  0
LWPOLYLINE
  5
4A7
  330
1D
  100
AcDbEntity
  8
0
  6
ByLayer
  62
256
  48
1.0
  60
0
  67
0
  370
9
  100
AcDbPolyline
  90
2
  70
0
  43
0.0
  38
0.0
  39
0.0
  210
0.0
  220
0.0
  230
1.0
  10
4.857638888888888
  20
1.6666666666666679
  40
0.0
  41
0.0
  42
0.0
  10
5.850694444444444
  20
1.6666666666666679
  40
0.0
  41
0.0
  42
0.0
  0
LWPOLYLINE
  5
4A8
  330
1D
  100
AcDbEntity
  8
0
  6
ByLayer
  62
256
  48
1.0
  60
0
  67
0
  370
9
  100
AcDbPolyline
  90
7
  70
1
  43
0.0
  38
0.0
  39
0.0
  210
0.0
  220
0.0
  230
1.0
  10
3.875
  20
9.916666666666668
  40
0.0
  41
0.0
  42
0.0
  10
4.25
  20
9.916666666666668
  40
0.0
  41
0.0
  42
0.0
  10
4.375
  20
9.916666666666668
  40
0.0
  41
0.0
  42
0.0
  10
4.375
  20
9.833333333333334
  40
0.0
  41
0.0
  42
0.0
  10
4.25
  20
9.833333333333334
  40
0.0
  41
0.0
  42
0.0
  10
3.875
  20
9.833333333333334
  40
0.0
  41
0.0
  42
0.0
  10
3.944444444444444
  20
9.875
  40
0.0
  41
0.0
  42
0.0
  0
LWPOLYLINE
  5
4A9
  330
1D
  100
AcDbEntity
  8
0
  6
ByLayer
  62
256
  48
1.0
  60
0
  67
0
  370
9
  100
AcDbPolyline
  90
2
  70
0
  43
0.0
  38
0.0
  39
0.0
  210
0.0
  220
0.0
  230
1.0
  10
4.25
  20
9.916666666666668
  40
0.0
  41
0.0
  42
0.0
  10
4.25
  20
9.833333333333334
  40
0.0
  41
0.0
  42
0.0
  0
LWPOLYLINE
  5
4AA
  330
1D
  100
AcDbEntity
  8
0
  6
ByLayer
  62
256
  48
1.0
  60
0
  67
0
  370
9
  100
AcDbPolyline
  90
8
  70
1
  43
0.0
  38
0.0
  39
0.0
  210
0.0
  220
0.0
  230
1.0
  10
11.902777777777777
  20
11.020833333333334
  40
0.0
  41
0.0
  42
0.0
  10
11.902777777777777
  20
11.104166666666668
  40
0.0
  41
0.0
  42
0.0
  10
12.027777777777777
  20
11.104166666666668
  40
0.0
  41
0.0
  42
0.0
  10
12.416666666666666
  20
11.104166666666668
  40
0.0
  41
0.0
  42
0.0
  10
12.48611111111111
  20
11.0625
  40
0.0
  41
0.0
  42
0.0
  10
12.416666666666666
  20
11.020833333333334
  40
0.0
  41
0.0
  42
0.0
  10
12.027777777777777
  20
11.020833333333334
  40
0.0
  41
0.0
  42
0.0
  10
11.902777777777777
  20
11.020833333333334
  40
0.0
  41
0.0
  42
0.0
  0
LWPOLYLINE
  5
4AB
  330
1D
  100
AcDbEntity
  8
0
  6
ByLayer
  62
256
  48
1.0
  60
0
  67
0
  370
9
  100
AcDbPolyline
  90
2
  70
0
  43
0.0
  38
0.0
  39
0.0
  210
0.0
  220
0.0
  230
1.0
  10
12.027777777777777
  20
11.104166666666668
  40
0.0
  41
0.0
  42
0.0
  10
12.027777777777777
  20
11.020833333333334
  40
0.0
  41
0.0
  42
0.0
  0
LWPOLYLINE
  5
4AC
  330
1D
  100
AcDbEntity
  8
0
  6
ByLayer
  62
256
  48
1.0
  60
0
  67
0
  370
9
  100
AcDbPolyline
  90
4
  70
1
  43
0.0
  38
0.0
  39
0.0
  210
0.0
  220
0.0
  230
1.0
  10
2.315972222222222
  20
0.49652777777777857
  40
0.0
  41
0.0
  42
0.0
  10
3.3090277777777777
  20
0.49652777777777857
  40
0.0
  41
0.0
  42
0.0
  10
3.3090277777777777
  20
-0.7465277777777768
  40
0.0
  41
0.0
  42
0.0
  10
2.315972222222222
  20
-0.7465277777777768
  40
0.0
  41
0.0
  42
0.0
  0
LWPOLYLINE
  5
4AD
  330
1D
  100
AcDbEntity
  8
0
  6
ByLayer
  62
256
  48
1.0
  60
0
  67
0
  370
9
  100
AcDbPolyline
  90
2
  70
0
  43
0.0
  38
0.0
  39
0.0
  210
0.0
  220
0.0
  230
1.0
  10
2.315972222222222
  20
0.08333333333333393
  40
0.0
  41
0.0
  42
0.0
  10
3.3090277777777777
  20
0.08333333333333393
  40
0.0
  41
0.0
  42
0.0
  0
LWPOLYLINE
  5
4AE
  330
1D
  100
AcDbEntity
  8
0
  6
ByLayer
  62
256
  48
1.0
  60
0
  67
0
  370
9
  100
AcDbPolyline
  90
2
  70
0
  43
0.0
  38
0.0
  39
0.0
  210
0.0
  220
0.0
  230
1.0
  10
2.315972222222222
  20
-0.125
  40
0.0
  41
0.0
  42
0.0
  10
3.3090277777777777
  20
-0.125
  40
0.0
  41
0.0
  42
0.0
  0
LWPOLYLINE
  5
4AF
  330
1D
  100
AcDbEntity
  8
0
  6
ByLayer
  62
256
  48
1.0
  60
0
  67
0
  370
9
  100
AcDbPolyline
  90
2
  70
0
  43
0.0
  38
0.0
  39
0.0
  210
0.0
  220
0.0
  230
1.0
  10
2.315972222222222
  20
-0.2638888888888875
  40
0.0
  41
0.0
  42
0.0
  10
3.3090277777777777
  20
-0.2638888888888875
  40
0.0
  41
0.0
  42
0.0
  0
LWPOLYLINE
  5
4B0
  330
1D
  100
AcDbEntity
  8
0
  6
ByLayer
  62
256
  48
1.0
  60
0
  67
0
  370
9
  100
AcDbPolyline
  90
2
  70
0
  43
0.0
  38
0.0
  39
0.0
  210
0.0
  220
0.0
  230
1.0
  10
2.315972222222222
  20
-0.4027777777777768
  40
0.0
  41
0.0
  42
0.0
  10
3.3090277777777777
  20
-0.4027777777777768
  40
0.0
  41
0.0
  42
0.0
  0
LWPOLYLINE
  5
4B1
  330
1D
  100
AcDbEntity
  8
0
  6
ByLayer
  62
256
  48
1.0
  60
0
  67
0
  370
9
  100
AcDbPolyline
  90
2
  70
0
  43
0.0
  38
0.0
  39
0.0
  210
0.0
  220
0.0
  230
1.0
  10
2.315972222222222
  20
-0.5416666666666661
  40
0.0
  41
0.0
  42
0.0
  10
3.3090277777777777
  20
-0.5416666666666661
  40
0.0
  41
0.0
  42
0.0
  0
LWPOLYLINE
  5
4B2
  330
1D
  100
AcDbEntity
  8
0
  6
ByLayer
  62
256
  48
1.0
  60
0
  67
0
  370
9
  100
AcDbPolyline
  90
2
  70
0
  43
0.0
  38
0.0
  39
0.0
  210
0.0
  220
0.0
  230
1.0
  10
4.388888888888888
  20
0.2638888888888893
  40
0.0
  41
0.0
  42
0.0
  10
4.388888888888888
  20
0.06944444444444464
  40
0.0
  41
0.0
  42
0.0
  0
LWPOLYLINE
  5
4B3
  330
1D
  100
AcDbEntity
  8
0
  6
ByLayer
  62
256
  48
1.0
  60
0
  67
0
  370
9
  100
AcDbPolyline
  90
32
  70
1
  43
0.0
  38
0.0
  39
0.0
  210
0.0
  220
0.0
  230
1.0
  10
4.576388888888888
  20
0.16666666666666785
  40
0.0
  41
0.0
  42
0.0
  10
4.574587508926691
  20
0.1483769489776563
  40
0.0
  41
0.0
  42
0.0
  10
4.569252595061822
  20
0.13079009488244075
  40
0.0
  41
0.0
  42
0.0
  10
4.560589165042253
  20
0.11458195732107868
  40
0.0
  41
0.0
  42
0.0
  10
4.548930149625128
  20
0.10037540593042849
  40
0.0
  41
0.0
  42
0.0
  10
4.534723598234477
  20
0.08871639051330327
  40
0.0
  41
0.0
  42
0.0
  10
4.5185154606731155
  20
0.08005296049373456
  40
0.0
  41
0.0
  42
0.0
  10
4.500928606577901
  20
0.07471804662886505
  40
0.0
  41
0.0
  42
0.0
  10
4.482638888888888
  20
0.07291666666666785
  40
0.0
  41
0.0
  42
0.0
  10
4.464349171199877
  20
0.07471804662886505
  40
0.0
  41
0.0
  42
0.0
  10
4.446762317104661
  20
0.08005296049373456
  40
0.0
  41
0.0
  42
0.0
  10
4.430554179543301
  20
0.08871639051330327
  40
0.0
  41
0.0
  42
0.0
  10
4.41634762815265
  20
0.10037540593042849
  40
0.0
  41
0.0
  42
0.0
  10
4.404688612735525
  20
0.11458195732107868
  40
0.0
  41
0.0
  42
0.0
  10
4.396025182715955
  20
0.13079009488244075
  40
0.0
  41
0.0
  42
0.0
  10
4.390690268851086
  20
0.1483769489776563
  40
0.0
  41
0.0
  42
0.0
  10
4.388888888888888
  20
0.16666666666666785
  40
0.0
  41
0.0
  42
0.0
  10
4.390690268851086
  20
0.1849563843556794
  40
0.0
  41
0.0
  42
0.0
  10
4.396025182715955
  20
0.20254323845089495
  40
0.0
  41
0.0
  42
0.0
  10
4.404688612735525
  20
0.21875137601225525
  40
0.0
  41
0.0
  42
0.0
  10
4.41634762815265
  20
0.23295792740290722
  40
0.0
  41
0.0
  42
0.0
  10
4.430554179543301
  20
0.24461694282003066
  40
0.0
  41
0.0
  42
0.0
  10
4.446762317104661
  20
0.25328037283959937
  40
0.0
  41
0.0
  42
0.0
  10
4.464349171199877
  20
0.25861528670446887
  40
0.0
  41
0.0
  42
0.0
  10
4.482638888888888
  20
0.26041666666666785
  40
0.0
  41
0.0
  42
0.0
  10
4.500928606577901
  20
0.25861528670446887
  40
0.0
  41
0.0
  42
0.0
  10
4.5185154606731155
  20
0.25328037283959937
  40
0.0
  41
0.0
  42
0.0
  10
4.534723598234477
  20
0.24461694282003066
  40
0.0
  41
0.0
  42
0.0
  10
4.548930149625128
  20
0.23295792740290722
  40
0.0
  41
0.0
  42
0.0
  10
4.560589165042253
  20
0.21875137601225525
  40
0.0
  41
0.0
  42
0.0
  10
4.569252595061822
  20
0.20254323845089495
  40
0.0
  41
0.0
  42
0.0
  10
4.574587508926691
  20
0.1849563843556794
  40
0.0
  41
0.0
  42
0.0
  0
LWPOLYLINE
  5
4B4
  330
1D
  100
AcDbEntity
  8
0
  6
ByLayer
  62
256
  48
1.0
  60
0
  67
0
  370
9
  100
AcDbPolyline
  90
6
  70
1
  43
0.0
  38
0.0
  39
0.0
  210
0.0
  220
0.0
  230
1.0
  10
6.8125
  20
0.46875
  40
0.0
  41
0.0
  42
0.0
  10
6.893689881604791
  20
0.421875
  40
0.0
  41
0.0
  42
0.0
  10
6.893689881604791
  20
0.328125
  40
0.0
  41
0.0
  42
0.0
  10
6.8125
  20
0.28125
  40
0.0
  41
0.0
  42
0.0
  10
6.731310118395208
  20
0.328125
  40
0.0
  41
0.0
  42
0.0
  10
6.731310118395208
  20
0.421875
  40
0.0
  41
0.0
  42
0.0
  0
LWPOLYLINE
  5
4B5
  330
1D
  100
AcDbEntity
  8
0
  6
ByLayer
  62
256
  48
1.0
  60
0
  67
0
  370
9
  100
AcDbPolyline
  90
2
  70
0
  43
0.0
  38
0.0
  39
0.0
  210
0.0
  220
0.0
  230
1.0
  10
7.982638888888888
  20
0.49652777777777857
  40
0.0
  41
0.0
  42
0.0
  10
11.309027777777777
  20
0.49652777777777857
  40
0.0
  41
0.0
  42
0.0
  0
LWPOLYLINE
  5
4B6
  330
1D
  100
AcDbEntity
  8
0
  6
ByLayer
  62
256
  48
1.0
  60
0
  67
0
  370
9
  100
AcDbPolyline
  90
2
  70
0
  43
0.0
  38
0.0
  39
0.0
  210
0.0
  220
0.0
  230
1.0
  10
7.982638888888888
  20
0.49652777777777857
  40
0.0
  41
0.0
  42
0.0
  10
7.982638888888888
  20
-0.4965277777777768
  40
0.0
  41
0.0
  42
0.0
  0
LWPOLYLINE
  5
4B7
  330
1D
  100
AcDbEntity
  8
0
  6
ByLayer
  62
256
  48
1.0
  60
0
  67
0
  370
9
  100
AcDbPolyline
  90
2
  70
0
  43
0.0
  38
0.0
  39
0.0
  210
0.0
  220
0.0
  230
1.0
  10
11.309027777777777
  20
0.49652777777777857
  40
0.0
  41
0.0
  42
0.0
  10
11.309027777777777
  20
-0.4965277777777768
  40
0.0
  41
0.0
  42
0.0
  0
LWPOLYLINE
  5
4B8
  330
1D
  100
AcDbEntity
  8
0
  6
ByLayer
  62
256
  48
1.0
  60
0
  67
0
  370
9
  100
AcDbPolyline
  90
2
  70
0
  43
0.0
  38
0.0
  39
0.0
  210
0.0
  220
0.0
  230
1.0
  10
7.982638888888888
  20
-0.4965277777777768
  40
0.0
  41
0.0
  42
0.0
  10
11.309027777777777
  20
-0.4965277777777768
  40
0.0
  41
0.0
  42
0.0
  0
LWPOLYLINE
  5
4B9
  330
1D
  100
AcDbEntity
  8
0
  6
ByLayer
  62
256
  48
1.0
  60
0
  67
0
  370
9
  100
AcDbPolyline
  90
4
  70
1
  43
0.0
  38
0.0
  39
0.0
  210
0.0
  220
0.0
  230
1.0
  10
11.982638888888888
  20
0.49652777777777857
  40
0.0
  41
0.0
  42
0.0
  10
12.975694444444443
  20
0.49652777777777857
  40
0.0
  41
0.0
  42
0.0
  10
12.975694444444443
  20
-0.41319444444444287
  40
0.0
  41
0.0
  42
0.0
  10
11.982638888888888
  20
-0.41319444444444287
  40
0.0
  41
0.0
  42
0.0
  0
LWPOLYLINE
  5
4BA
  330
1D
  100
AcDbEntity
  8
0
  6
ByLayer
  62
256
  48
1.0
  60
0
  67
0
  370
9
  100
AcDbPolyline
  90
2
  70
0
  43
0.0
  38
0.0
  39
0.0
  210
0.0
  220
0.0
  230
1.0
  10
11.982638888888888
  20
0.08333333333333393
  40
0.0
  41
0.0
  42
0.0
  10
12.975694444444443
  20
0.08333333333333393
  40
0.0
  41
0.0
  42
0.0
  0
LWPOLYLINE
  5
4BB
  330
1D
  100
AcDbEntity
  8
0
  6
ByLayer
  62
256
  48
1.0
  60
0
  67
0
  370
9
  100
AcDbPolyline
  90
2
  70
0
  43
0.0
  38
0.0
  39
0.0
  210
0.0
  220
0.0
  230
1.0
  10
11.982638888888888
  20
-0.125
  40
0.0
  41
0.0
  42
0.0
  10
12.975694444444443
  20
-0.125
  40
0.0
  41
0.0
  42
0.0
  0
LWPOLYLINE
  5
4BC
  330
1D
  100
AcDbEntity
  8
0
  6
ByLayer
  62
256
  48
1.0
  60
0
  67
0
  370
9
  100
AcDbPolyline
  90
3
  70
0
  43
0.0
  38
0.0
  39
0.0
  210
0.0
  220
0.0
  230
1.0
  10
12.3575
  20
-0.08984375
  40
0.0
  41
0.0
  42
0.0
  10
12.3125
  20
-0.125
  40
0.0
  41
0.0
  42
0.0
  10
12.3575
  20
-0.16015625
  40
0.0
  41
0.0
  42
0.0
  0
LWPOLYLINE
  5
4BD
  330
1D
  100
AcDbEntity
  8
0
  6
ByLayer
  62
256
  48
1.0
  60
0
  67
0
  370
9
  100
AcDbPolyline
  90
3
  70
0
  43
0.0
  38
0.0
  39
0.0
  210
0.0
  220
0.0
  230
1.0
  10
12.600833333333332
  20
-0.08984375
  40
0.0
  41
0.0
  42
0.0
  10
12.645833333333332
  20
-0.125
  40
0.0
  41
0.0
  42
0.0
  10
12.600833333333332
  20
-0.16015625
  40
0.0
  41
0.0
  42
0.0
  0
LWPOLYLINE
  5
4BE
  330
1D
  100
AcDbEntity
  8
0
  6
ByLayer
  62
256
  48
1.0
  60
0
  67
0
  370
9
  100
AcDbPolyline
  90
2
  70
0
  43
0.0
  38
0.0
  39
0.0
  210
0.0
  220
0.0
  230
1.0
  10
11.982638888888888
  20
-0.25
  40
0.0
  41
0.0
  42
0.0
  10
12.3125
  20
-0.25
  40
0.0
  41
0.0
  42
0.0
  0
LWPOLYLINE
  5
4BF
  330
1D
  100
AcDbEntity
  8
0
  6
ByLayer
  62
256
  48
1.0
  60
0
  67
0
  370
9
  100
AcDbPolyline
  90
2
  70
0
  43
0.0
  38
0.0
  39
0.0
  210
0.0
  220
0.0
  230
1.0
  10
12.645833333333332
  20
-0.25
  40
0.0
  41
0.0
  42
0.0
  10
12.975694444444443
  20
-0.25
  40
0.0
  41
0.0
  42
0.0
  0
LWPOLYLINE
  5
4C0
  330
1D
  100
AcDbEntity
  8
0
  6
ByLayer
  62
256
  48
1.0
  60
0
  67
0
  370
9
  100
AcDbPolyline
  90
3
  70
0
  43
0.0
  38
0.0
  39
0.0
  210
0.0
  220
0.0
  230
1.0
  10
12.3575
  20
-0.21484375
  40
0.0
  41
0.0
  42
0.0
  10
12.3125
  20
-0.25
  40
0.0
  41
0.0
  42
0.0
  10
12.3575
  20
-0.28515625
  40
0.0
  41
0.0
  42
0.0
  0
LWPOLYLINE
  5
4C1
  330
1D
  100
AcDbEntity
  8
0
  6
ByLayer
  62
256
  48
1.0
  60
0
  67
0
  370
9
  100
AcDbPolyline
  90
3
  70
0
  43
0.0
  38
0.0
  39
0.0
  210
0.0
  220
0.0
  230
1.0
  10
12.600833333333332
  20
-0.21484375
  40
0.0
  41
0.0
  42
0.0
  10
12.645833333333332
  20
-0.25
  40
0.0
  41
0.0
  42
0.0
  10
12.600833333333332
  20
-0.28515625
  40
0.0
  41
0.0
  42
0.0
  0
LWPOLYLINE
  5
4C2
  330
1D
  100
AcDbEntity
  8
0
  6
ByLayer
  62
256
  48
1.0
  60
0
  67
0
  370
9
  100
AcDbPolyline
  90
2
  70
0
  43
0.0
  38
0.0
  39
0.0
  210
0.0
  220
0.0
  230
1.0
  10
13.79861111111111
  20
0.5
  40
0.0
  41
0.0
  42
0.0
  10
13.79861111111111
  20
0.29166666666666785
  40
0.0
  41
0.0
  42
0.0
  0
LWPOLYLINE
  5
4C3
  330
1D
  100
AcDbEntity
  8
0
  6
ByLayer
  62
256
  48
1.0
  60
0
  67
0
  370
9
  100
AcDbPolyline
  90
2
  70
0
  43
0.0
  38
0.0
  39
0.0
  210
0.0
  220
0.0
  230
1.0
  10
13.79861111111111
  20
0.29166666666666785
  40
0.0
  41
0.0
  42
0.0
  10
13.715277777777777
  20
0.29166666666666785
  40
0.0
  41
0.0
  42
0.0
  0
LWPOLYLINE
  5
4C4
  330
1D
  100
AcDbEntity
  8
0
  6
ByLayer
  62
256
  48
1.0
  60
0
  67
0
  370
9
  100
AcDbPolyline
  90
2
  70
0
  43
0.0
  38
0.0
  39
0.0
  210
0.0
  220
0.0
  230
1.0
  10
13.715277777777777
  20
0.5
  40
0.0
  41
0.0
  42
0.0
  10
13.79861111111111
  20
0.41666666666666785
  40
0.0
  41
0.0
  42
0.0
  0
LWPOLYLINE
  5
4C5
  330
1D
  100
AcDbEntity
  8
0
  6
ByLayer
  62
256
  48
1.0
  60
0
  67
0
  370
9
  100
AcDbPolyline
  90
2
  70
0
  43
0.0
  38
0.0
  39
0.0
  210
0.0
  220
0.0
  230
1.0
  10
13.881944444444443
  20
0.5
  40
0.0
  41
0.0
  42
0.0
  10
13.79861111111111
  20
0.41666666666666785
  40
0.0
  41
0.0
  42
0.0
  0
ENDSEC
  0
SECTION
  2
OBJECTS
  0
DICTIONARY
  5
1
330
0
100
AcDbDictionary
280
0
281
0
  3
ACAD_COLOR
350
2
  3
ACAD_GROUP
350
3
  3
ACAD_LAYOUT
350
4
  3
ACAD_MATERIAL
350
5
  3
ACAD_SORTENTS
350
6
  3
ACAD_MLEADERSTYLE
350
7
  3
ACAD_MLINESTYLE
350
8
  3
ACAD_TABLESTYLE
350
9
  3
ACAD_PLOTSETTINGS
350
A
  3
AcDbVariableDictionary
350
B
  3
ACAD_SCALELIST
350
C
  3
ACAD_VISUALSTYLE
350
D
  3
ACAD_FIELDLIST
350
E
  3
ACAD_IMAGE_DICT
350
F
  0
DICTIONARY
  5
2
330
1
100
AcDbDictionary
280
0
281
0
  0
DICTIONARY
  5
3
330
1
100
AcDbDictionary
280
0
281
0
  0
DICTIONARY
  5
4
330
1
100
AcDbDictionary
280
0
281
0
  3
Model
350
2B
  3
Layout1
350
2C
  0
DICTIONARY
  5
5
330
1
100
AcDbDictionary
280
0
281
0
  0
DICTIONARY
  5
6
330
1
100
AcDbDictionary
280
0
281
0
  0
DICTIONARY
  5
7
330
1
100
AcDbDictionary
280
0
281
0
  0
DICTIONARY
  5
8
330
1
100
AcDbDictionary
280
0
281
0
  0
DICTIONARY
  5
9
330
1
100
AcDbDictionary
280
0
281
0
  0
DICTIONARY
  5
A
330
1
100
AcDbDictionary
280
0
281
0
  0
DICTIONARY
  5
B
330
1
100
AcDbDictionary
280
0
281
0
  0
DICTIONARY
  5
C
330
1
100
AcDbDictionary
280
0
281
0
  0
DICTIONARY
  5
D
330
1
100
AcDbDictionary
280
0
281
0
  0
DICTIONARY
  5
E
330
1
100
AcDbDictionary
280
0
281
0
  0
DICTIONARY
  5
F
330
1
100
AcDbDictionary
280
0
281
0
  0
LAYOUT
  5
2B
330
4
100
AcDbPlotSettings
  1
none_device
  2

  4
ISO_A4_(210.00_x_297.00_MM)
  6

  7

 40
0.0
 41
0.0
 42
0.0
 43
0.0
 44
0.0
 45
0.0
 46
0.0
 47
0.0
 48
0.0
 49
0.0
140
0.0
141
0.0
142
1.0
143
1.0
 70
688
 72
1
 73
0
 74
0
 75
0
 76
0
 77
0
 78
300
147
1.0
148
0.0
149
0.0
100
AcDbLayout
  1
Model
 71
0
 10
-20.0
 20
-7.5
 11
277.0
 21
202.5
 12
0.0
 22
0.0
 32
0.0
 13
0.0
 23
0.0
 33
0.0
 14
25.6999999999999993
 24
19.5
 34
0.0
 15
231.3000000000000114
 25
175.5
 35
0.0
 16
1.0
 26
0.0
 36
0.0
 17
0.0
 27
1.0
 37
0.0
146
0.0
 76
0
330
1D
  0
LAYOUT
  5
2C
330
4
100
AcDbPlotSettings
  1
none_device
  2

  4
ISO_A4_(210.00_x_297.00_MM)
  6

  7

 40
0.0
 41
0.0
 42
0.0
 43
0.0
 44
0.0
 45
0.0
 46
0.0
 47
0.0
 48
0.0
 49
0.0
140
0.0
141
0.0
142
1.0
143
1.0
 70
688
 72
1
 73
0
 74
0
 75
0
 76
0
 77
0
 78
300
147
1.0
148
0.0
149
0.0
100
AcDbLayout
  1
Layout1
 71
1
 10
-20.0
 20
-7.5
 11
277.0
 21
202.5
 12
0.0
 22
0.0
 32
0.0
 13
0.0
 23
0.0
 33
0.0
 14
25.6999999999999993
 24
19.5
 34
0.0
 15
231.3000000000000114
 25
175.5
 35
0.0
 16
1.0
 26
0.0
 36
0.0
 17
0.0
 27
1.0
 37
0.0
146
0.0
 76
0
330
20
  0
ENDSEC
  0
EOF
