  0
SECTION
  2
HEADER
  9
$ANGBASE
 50
0.0
  9
$ANGDIR
 70
1
  9
$AUNITS
 70
0
  9
$AUPREC
 70
0
  9
$ATTMODE
 70
1
  9
$DWGCODEPAGE
  3
ANSI_1252
  9
$TDCREATE
 40
2461190.3583611459471285
  9
$CECOLOR
 62
256
  9
$CELTSCALE
 40
1.0
  9
$CELWEIGHT
370
-1
  9
$CLAYER
  8
0
  9
$CELTYPE
  6
ByLayer
  9
$CMLJUST
 70
0
  9
$CMLSCALE
 40
20.0
  9
$CMLSTYLE
  2
Standard
  9
$DIMSTYLE
  2
Standard
  9
$LWDISPLAY
290
0
  9
$EXTNAMES
290
1
  9
$HANDSEED
  5
3FC
  9
$INSUNITS
 70
1
  9
$LUNITS
 70
2
  9
$LUPREC
 70
4
  9
$LTSCALE
 40
1.0
  9
$MIRRTEXT
 70
0
  9
$INSBASE
 10
0.0
 20
0.0
 30
0.0
  9
$SPLINESEGS
 70
8
  9
$PSLTSCALE
 70
1
  9
$PDMODE
 70
0
  9
$PDSIZE
 40
0.0
  9
$PLINEGEN
 70
0
  9
$TEXTSIZE
 40
0.2
  9
$TEXTSTYLE
  7
Standard
  9
$TDINDWG
 40
0.0
  9
$TDUCREATE
 40
2461190.3583611459471285
  9
$TDUUPDATE
 40
2461190.3583611459471285
  9
$TDUPDATE
 40
2461190.3583611459471285
  9
$ACADVER
  1
AC1015
  9
$EXTMIN
 10
1.1625
 20
-1.9
 30
0.0
9
$EXTMAX
 10
22.84444444444444
 20
15.7125
 30
0.0
9
$LIMMIN
 10
1.1625
 20
-1.9
9
$LIMMAX
 10
22.84444444444444
 20
15.7125
  0
ENDSEC
  0
SECTION
  2
CLASSES
  0
CLASS
  1
ACDBDICTIONARYWDFLT
  2
AcDbDictionaryWithDefault
  3
ObjectDBX Classes
 90
32768
280
0
281
0
  0
CLASS
  1
ACDBPLACEHOLDER
  2
AcDbPlaceHolder
  3
ObjectDBX Classes
 90
0
280
0
281
0
  0
CLASS
  1
LAYOUT
  2
AcDbLayout
  3
ObjectDBX Classes
 90
0
280
0
281
0
  0
CLASS
  1
DICTIONARYVAR
  2
AcDbDictionaryVar
  3
ObjectDBX Classes
 90
0
280
0
281
0
  0
CLASS
  1
TABLESTYLE
  2
AcDbTableStyle
  3
ObjectDBX Classes
 90
4095
280
0
281
0
  0
CLASS
  1
MATERIAL
  2
AcDbMaterial
  3
ObjectDBX Classes
 90
1153
280
0
281
0
  0
CLASS
  1
VISUALSTYLE
  2
AcDbVisualStyle
  3
ObjectDBX Classes
 90
4095
280
0
281
0
  0
CLASS
  1
SCALE
  2
AcDbScale
  3
ObjectDBX Classes
 90
1153
280
0
281
0
  0
CLASS
  1
MLEADERSTYLE
  2
AcDbMLeaderStyle
  3
ObjectDBX Classes
 90
4095
280
0
281
0
  0
CLASS
  1
CELLSTYLEMAP
  2
AcDbCellStyleMap
  3
ObjectDBX Classes
 90
1152
280
0
281
0
  0
CLASS
  1
EXACXREFPANELOBJECT
  2
ExAcXREFPanelObject
  3
ObjectDBX Classes
 90
1025
280
0
281
0
  0
CLASS
  1
NPOCOLLECTION
  2
AcDbImpNonPersistentObjectsCollection
  3
ObjectDBX Classes
 90
1153
280
0
281
0
  0
CLASS
  1
LAYER_INDEX
  2
AcDbLayerIndex
  3
ObjectDBX Classes
 90
0
280
0
281
0
  0
CLASS
  1
SPATIAL_INDEX
  2
AcDbSpatialIndex
  3
ObjectDBX Classes
 90
0
280
0
281
0
  0
CLASS
  1
IDBUFFER
  2
AcDbIdBuffer
  3
ObjectDBX Classes
 90
32768
280
0
281
0
  0
CLASS
  1
ACDBSECTIONVIEWSTYLE
  2
AcDbSectionViewStyle
  3
ObjectDBX Classes
 90
1025
280
0
281
0
  0
CLASS
  1
ACDBDETAILVIEWSTYLE
  2
AcDbDetailViewStyle
  3
ObjectDBX Classes
 90
1025
280
0
281
0
  0
CLASS
  1
MESH
  2
AcDbSubDMesh
  3
ObjectDBX Classes
 90
0
280
0
281
1
  0
CLASS
  1
SORTENTSTABLE
  2
AcDbSortentsTable
  3
ObjectDBX Classes
 90
0
280
0
281
0
  0
CLASS
  1
ACDB_TEXTOBJECTCONTEXTDATA_CLASS
  2
AcDbTextObjectContextData
  3
ObjectDBX Classes
 90
1153
280
0
281
0
  0
CLASS
  1
WIPEOUT
  2
AcDbWipeout
  3
WipeOut
 90
32895
280
0
281
1
  0
CLASS
  1
WIPEOUTVARIABLES
  2
AcDbWipeoutVariables
  3
WipeOut
 90
32768
280
0
281
0
  0
CLASS
  1
DIMASSOC
  2
AcDbDimAssoc
  3
AcDbDimAssoc
 90
0
280
0
281
0
  0
CLASS
  1
ACAD_TABLE
  2
AcDbTable
  3
ObjectDBX Classes
 90
1025
280
0
281
1
  0
CLASS
  1
TABLECONTENT
  2
AcDbTableContent
  3
ObjectDBX Classes
 90
1152
280
0
281
0
  0
CLASS
  1
TABLEGEOMETRY
  2
AcDbTableGeometry
  3
ObjectDBX Classes
 90
1152
280
0
281
0
  0
CLASS
  1
IMAGE
  2
AcDbRasterImage
  3
ISM
 90
32895
280
0
281
1
  0
CLASS
  1
IMAGEDEF
  2
AcDbRasterImageDef
  3
ISM
 90
0
280
0
281
0
  0
CLASS
  1
IMAGEDEF_REACTOR
  2
AcDbRasterImageDefReactor
  3
ISM
 90
1
280
0
281
0
  0
CLASS
  1
DBCOLOR
  2
AcDbColor
  3
ObjectDBX Classes
 90
0
280
0
281
0
  0
CLASS
  1
GEODATA
  2
AcDbGeoData
  3
ObjectDBX Classes
 90
4095
280
0
281
0
  0
CLASS
  1
MULTILEADER
  2
AcDbMLeader
  3
ObjectDBX Classes
 90
1025
280
0
281
0
  0
CLASS
  1
PDFUNDERLAY
  2
AcDbPdfReference
  3
ObjectDBX Classes
 90
4095
280
0
281
1
  0
CLASS
  1
PDFDEFINITION
  2
AcDbPdfDefinition
  3
ObjectDBX Classes
 90
1153
280
0
281
0
  0
CLASS
  1
RASTERVARIABLES
  2
AcDbRasterVariables
  3
ISM
 90
0
280
0
281
0
  0
CLASS
  1
SPATIAL_FILTER
  2
AcDbSpatialFilter
  3
ObjectDBX Classes
 90
0
280
0
281
0
  0
CLASS
  1
ACDB_MLEADEROBJECTCONTEXTDATA_CLASS
  2
AcDbMLeaderObjectContextData
  3
ObjectDBX Classes
 90
1025
280
0
281
0
  0
CLASS
  1
PLOTSETTINGS
  2
AcDbPlotSettings
  3
ObjectDBX Classes
 90
0
280
0
281
0
  0
CLASS
  1
FIELD
  2
AcDbField
  3
ObjectDBX Classes
 90
1152
280
0
281
0
  0
CLASS
  1
FIELDLIST
  2
AcDbFieldList
  3
ObjectDBX Classes
 90
1152
280
0
281
0
  0
CLASS
  1
ACDB_MTEXTATTRIBUTEOBJECTCONTEXTDATA_CLASS
  2
AcDbMTextAttributeObjectContextData
  3
ObjectDBX Classes
 90
1153
280
0
281
0
  0
CLASS
  1
ACDB_BLKREFOBJECTCONTEXTDATA_CLASS
  2
AcDbBlkRefObjectContextData
  3
ObjectDBX Classes
 90
1153
280
0
281
0
  0
ENDSEC
  0
SECTION
  2
TABLES
  0
TABLE
  2
VPORT
  5
18
330
0
100
AcDbSymbolTable
 70
1
  0
VPORT
  5
26
330
18
100
AcDbSymbolTableRecord
100
AcDbViewportTableRecord
  2
*Active
 70
0
 10
0.0
 20
0.0
 11
1.0
 21
1.0
 12
0.0
 22
0.0
 13
0.0
 23
0.0
 14
0.5
 24
0.5
 15
10.0
 25
10.0
 16
0.0
 26
0.0
 36
1.0
 17
0.0
 27
0.0
 37
0.0
 40
10.0
 41
1.0
 75
0
 76
1
  0
ENDTAB
  0
TABLE
  2
LTYPE
  5
14
330
0
100
AcDbSymbolTable
 70
3
  0
LTYPE
  5
19
330
14
100
AcDbSymbolTableRecord
100
AcDbLinetypeTableRecord
  2
ByLayer
 70
0
 72
0
 73
0
 40
0.0
  0
LTYPE
  5
1A
330
14
100
AcDbSymbolTableRecord
100
AcDbLinetypeTableRecord
  2
ByBlock
 70
0
 72
0
 73
0
 40
0.0
  0
LTYPE
  5
1B
330
14
100
AcDbSymbolTableRecord
100
AcDbLinetypeTableRecord
  2
Continuous
 70
0
 72
0
 73
0
 40
0.0
  0
ENDTAB
  0
TABLE
  2
LAYER
  5
13
330
0
100
AcDbSymbolTable
 70
5
  0
LAYER
  5
1C
330
13
100
AcDbSymbolTableRecord
100
AcDbLayerTableRecord
  2
0
 70
0
 62
7
  6
Continuous
290
1
370
9
390
0
  0
LAYER
  5
27
330
13
100
AcDbSymbolTableRecord
100
AcDbLayerTableRecord
  2
WIRES
 70
0
 62
7
  6
Continuous
290
1
370
9
390
0
  0
LAYER
  5
28
330
13
100
AcDbSymbolTableRecord
100
AcDbLayerTableRecord
  2
FILLS
 70
0
 62
9
  6
Continuous
290
1
370
9
390
0
  0
LAYER
  5
29
330
13
100
AcDbSymbolTableRecord
100
AcDbLayerTableRecord
  2
INKFILL
 70
0
 62
7
  6
Continuous
290
1
370
9
390
0
  0
LAYER
  5
2A
330
13
100
AcDbSymbolTableRecord
100
AcDbLayerTableRecord
  2
GUIDES
 70
0
 62
8
  6
Continuous
290
1
370
9
390
0
  0
ENDTAB
  0
TABLE
  2
STYLE
  5
15
330
0
100
AcDbSymbolTable
 70
1
  0
STYLE
  5
23
330
15
100
AcDbSymbolTableRecord
100
AcDbTextStyleTableRecord
  2
Standard
 70
0
  3
Arial Narrow.ttf
 40
0.0
 41
1.0
 42
0.0
 50
0.0
 71
0
  0
ENDTAB
  0
TABLE
  2
VIEW
  5
17
330
0
100
AcDbSymbolTable
 70
0
  0
ENDTAB
  0
TABLE
  2
UCS
  5
16
330
0
100
AcDbSymbolTable
 70
0
  0
ENDTAB
  0
TABLE
  2
APPID
  5
10
330
0
100
AcDbSymbolTable
 70
1
  0
APPID
  5
25
330
10
100
AcDbSymbolTableRecord
100
AcDbRegAppTableRecord
  2
ACAD
 70
0
  0
ENDTAB
  0
TABLE
  2
DIMSTYLE
  5
12
330
0
100
AcDbSymbolTable
 70
1
100
AcDbDimStyleTable
  0
DIMSTYLE
105
24
330
12
100
AcDbSymbolTableRecord
100
AcDbDimStyleTableRecord
  2
Standard
 70
0
  3
<>
  4
[]
 40
1.0
 41
0.18
 42
0.625
 43
3.75
 44
1.25
 45
0.0
 46
0.0
 47
0.0
 48
0.0
 49
1.0
 50
45.0
 70
0
 90
0
140
0.18
141
0.09
142
0.0
143
25.3999999999999986
144
1.0
145
0.0
146
1.0
147
0.625
148
0.0
 71
0
 72
0
 73
0
 74
0
 75
0
 76
0
 77
1
 78
8
 79
0
170
0
171
3
172
0
173
1
174
0
175
0
176
0
177
0
178
0
179
0
271
2
272
2
273
2
274
3
275
0
276
0
277
2
278
46
279
0
280
0
281
0
282
0
283
0
284
8
285
0
286
0
287
0
288
0
289
3
290
0
340
0
371
-2
372
-2
  0
ENDTAB
  0
TABLE
  2
BLOCK_RECORD
  5
11
330
0
100
AcDbSymbolTable
 70
2
  0
BLOCK_RECORD
  5
1D
330
11
100
AcDbSymbolTableRecord
100
AcDbBlockTableRecord
  2
*Model_Space
 70
0
340
2B
 70
0
280
0
281
1
  0
BLOCK_RECORD
  5
20
330
11
100
AcDbSymbolTableRecord
100
AcDbBlockTableRecord
  2
*Paper_Space
 70
0
340
2C
 70
0
280
0
281
1
  0
ENDTAB
  0
ENDSEC
  0
SECTION
  2
BLOCKS
  0
BLOCK
  5
1E
330
1D
100
AcDbEntity
  8
0
  6
ByLayer
 62
256
 48
1.0
 60
0
 67
0
370
-1
100
AcDbBlockBegin
  2
*Model_Space
 70
0
 10
0.0
 20
0.0
 30
0.0
  3
*Model_Space
  0
ENDBLK
  5
1F
330
1D
100
AcDbEntity
  8
0
100
AcDbBlockEnd
  0
BLOCK
  5
21
330
20
100
AcDbEntity
  8
0
  6
ByLayer
 62
256
 48
1.0
 60
0
 67
1
370
-1
100
AcDbBlockBegin
  2
*Paper_Space
 70
0
 10
0.0
 20
0.0
 30
0.0
  3
*Paper_Space
  0
ENDBLK
  5
22
330
20
100
AcDbEntity
  8
0
100
AcDbBlockEnd
  0
ENDSEC
  0
SECTION
  2
ENTITIES
  0
TEXT
  5
331
  330
1D
  100
AcDbEntity
  8
0
  6
ByLayer
  62
256
  48
1.0
  60
0
  67
0
  370
9
  100
AcDbText
  39
0.0
  10
13.645833333333332
  20
12.229166666666666
  30
0.0
  40
0.09375
  1
AMP / 1
  50
0.0
  41
1.0
  51
0.0
  7
Standard
  71
0
  72
1
  11
13.645833333333332
  21
12.229166666666666
  31
0.0
  210
0.0
  220
0.0
  230
1.0
  100
AcDbText
  73
2
  0
TEXT
  5
332
  330
1D
  100
AcDbEntity
  8
0
  6
ByLayer
  62
256
  48
1.0
  60
0
  67
0
  370
9
  100
AcDbText
  39
0.0
  10
13.645833333333332
  20
12.0
  30
0.0
  40
0.09375
  1
4 CH. AMPLIFIER
  50
0.0
  41
1.0
  51
0.0
  7
Standard
  71
0
  72
1
  11
13.645833333333332
  21
12.0
  31
0.0
  210
0.0
  220
0.0
  230
1.0
  100
AcDbText
  73
2
  0
TEXT
  5
333
  330
1D
  100
AcDbEntity
  8
0
  6
ByLayer
  62
256
  48
1.0
  60
0
  67
0
  370
9
  100
AcDbText
  39
0.0
  10
12.82986111111111
  20
11.6875
  30
0.0
  40
0.06944444444444445
  1
INPUT
  50
0.0
  41
1.0
  51
0.0
  7
Standard
  71
0
  72
0
  11
12.82986111111111
  21
11.6875
  31
0.0
  210
0.0
  220
0.0
  230
1.0
  100
AcDbText
  73
2
  0
TEXT
  5
334
  330
1D
  100
AcDbEntity
  8
0
  6
ByLayer
  62
256
  48
1.0
  60
0
  67
0
  370
9
  100
AcDbText
  39
0.0
  10
14.461805555555555
  20
11.6875
  30
0.0
  40
0.06944444444444445
  1
OUTPUT
  50
0.0
  41
1.0
  51
0.0
  7
Standard
  71
0
  72
2
  11
14.461805555555555
  21
11.6875
  31
0.0
  210
0.0
  220
0.0
  230
1.0
  100
AcDbText
  73
2
  0
TEXT
  5
335
  330
1D
  100
AcDbEntity
  8
0
  6
ByLayer
  62
256
  48
1.0
  60
0
  67
0
  370
9
  100
AcDbText
  39
0.0
  10
12.82986111111111
  20
11.5625
  30
0.0
  40
0.06944444444444445
  1
1
  50
0.0
  41
1.0
  51
0.0
  7
Standard
  71
0
  72
0
  11
12.82986111111111
  21
11.5625
  31
0.0
  210
0.0
  220
0.0
  230
1.0
  100
AcDbText
  73
2
  0
TEXT
  5
336
  330
1D
  100
AcDbEntity
  8
0
  6
ByLayer
  62
256
  48
1.0
  60
0
  67
0
  370
9
  100
AcDbText
  39
0.0
  10
14.461805555555555
  20
11.5625
  30
0.0
  40
0.06944444444444445
  1
1
  50
0.0
  41
1.0
  51
0.0
  7
Standard
  71
0
  72
2
  11
14.461805555555555
  21
11.5625
  31
0.0
  210
0.0
  220
0.0
  230
1.0
  100
AcDbText
  73
2
  0
TEXT
  5
337
  330
1D
  100
AcDbEntity
  8
0
  6
ByLayer
  62
256
  48
1.0
  60
0
  67
0
  370
9
  100
AcDbText
  39
0.0
  10
12.82986111111111
  20
11.4375
  30
0.0
  40
0.06944444444444445
  1
2
  50
0.0
  41
1.0
  51
0.0
  7
Standard
  71
0
  72
0
  11
12.82986111111111
  21
11.4375
  31
0.0
  210
0.0
  220
0.0
  230
1.0
  100
AcDbText
  73
2
  0
TEXT
  5
338
  330
1D
  100
AcDbEntity
  8
0
  6
ByLayer
  62
256
  48
1.0
  60
0
  67
0
  370
9
  100
AcDbText
  39
0.0
  10
14.461805555555555
  20
11.4375
  30
0.0
  40
0.06944444444444445
  1
2
  50
0.0
  41
1.0
  51
0.0
  7
Standard
  71
0
  72
2
  11
14.461805555555555
  21
11.4375
  31
0.0
  210
0.0
  220
0.0
  230
1.0
  100
AcDbText
  73
2
  0
TEXT
  5
339
  330
1D
  100
AcDbEntity
  8
0
  6
ByLayer
  62
256
  48
1.0
  60
0
  67
0
  370
9
  100
AcDbText
  39
0.0
  10
12.82986111111111
  20
11.3125
  30
0.0
  40
0.06944444444444445
  1
3
  50
0.0
  41
1.0
  51
0.0
  7
Standard
  71
0
  72
0
  11
12.82986111111111
  21
11.3125
  31
0.0
  210
0.0
  220
0.0
  230
1.0
  100
AcDbText
  73
2
  0
TEXT
  5
33A
  330
1D
  100
AcDbEntity
  8
0
  6
ByLayer
  62
256
  48
1.0
  60
0
  67
0
  370
9
  100
AcDbText
  39
0.0
  10
14.461805555555555
  20
11.3125
  30
0.0
  40
0.06944444444444445
  1
3
  50
0.0
  41
1.0
  51
0.0
  7
Standard
  71
0
  72
2
  11
14.461805555555555
  21
11.3125
  31
0.0
  210
0.0
  220
0.0
  230
1.0
  100
AcDbText
  73
2
  0
TEXT
  5
33B
  330
1D
  100
AcDbEntity
  8
0
  6
ByLayer
  62
256
  48
1.0
  60
0
  67
0
  370
9
  100
AcDbText
  39
0.0
  10
12.82986111111111
  20
11.1875
  30
0.0
  40
0.06944444444444445
  1
4
  50
0.0
  41
1.0
  51
0.0
  7
Standard
  71
0
  72
0
  11
12.82986111111111
  21
11.1875
  31
0.0
  210
0.0
  220
0.0
  230
1.0
  100
AcDbText
  73
2
  0
TEXT
  5
33C
  330
1D
  100
AcDbEntity
  8
0
  6
ByLayer
  62
256
  48
1.0
  60
0
  67
0
  370
9
  100
AcDbText
  39
0.0
  10
14.461805555555555
  20
11.1875
  30
0.0
  40
0.06944444444444445
  1
4
  50
0.0
  41
1.0
  51
0.0
  7
Standard
  71
0
  72
2
  11
14.461805555555555
  21
11.1875
  31
0.0
  210
0.0
  220
0.0
  230
1.0
  100
AcDbText
  73
2
  0
TEXT
  5
33D
  330
1D
  100
AcDbEntity
  8
0
  6
ByLayer
  62
256
  48
1.0
  60
0
  67
0
  370
9
  100
AcDbText
  39
0.0
  10
12.82986111111111
  20
10.9375
  30
0.0
  40
0.06944444444444445
  1
NETWORK
  50
0.0
  41
1.0
  51
0.0
  7
Standard
  71
0
  72
0
  11
12.82986111111111
  21
10.9375
  31
0.0
  210
0.0
  220
0.0
  230
1.0
  100
AcDbText
  73
2
  0
TEXT
  5
33E
  330
1D
  100
AcDbEntity
  8
0
  6
ByLayer
  62
256
  48
1.0
  60
0
  67
0
  370
9
  100
AcDbText
  39
0.0
  10
12.82986111111111
  20
10.8125
  30
0.0
  40
0.06944444444444445
  1
LAN
  50
0.0
  41
1.0
  51
0.0
  7
Standard
  71
0
  72
0
  11
12.82986111111111
  21
10.8125
  31
0.0
  210
0.0
  220
0.0
  230
1.0
  100
AcDbText
  73
2
  0
TEXT
  5
33F
  330
1D
  100
AcDbEntity
  8
0
  6
ByLayer
  62
256
  48
1.0
  60
0
  67
0
  370
9
  100
AcDbText
  39
0.0
  10
12.645833333333332
  20
11.375
  30
0.0
  40
0.08333333333333333
  1
4
  50
0.0
  41
1.0
  51
0.0
  7
Standard
  71
0
  72
1
  11
12.645833333333332
  21
11.375
  31
0.0
  210
0.0
  220
0.0
  230
1.0
  100
AcDbText
  73
2
  0
TEXT
  5
340
  330
1D
  100
AcDbEntity
  8
0
  6
ByLayer
  62
256
  48
1.0
  60
0
  67
0
  370
9
  100
AcDbText
  39
0.0
  10
12.645833333333332
  20
8.770833333333334
  30
0.0
  40
0.09375
  1
NSW / 1
  50
0.0
  41
1.0
  51
0.0
  7
Standard
  71
0
  72
1
  11
12.645833333333332
  21
8.770833333333334
  31
0.0
  210
0.0
  220
0.0
  230
1.0
  100
AcDbText
  73
2
  0
TEXT
  5
341
  330
1D
  100
AcDbEntity
  8
0
  6
ByLayer
  62
256
  48
1.0
  60
0
  67
0
  370
9
  100
AcDbText
  39
0.0
  10
12.645833333333332
  20
8.541666666666668
  30
0.0
  40
0.09375
  1
NETWORK SWITCH
  50
0.0
  41
1.0
  51
0.0
  7
Standard
  71
0
  72
1
  11
12.645833333333332
  21
8.541666666666668
  31
0.0
  210
0.0
  220
0.0
  230
1.0
  100
AcDbText
  73
2
  0
TEXT
  5
342
  330
1D
  100
AcDbEntity
  8
0
  6
ByLayer
  62
256
  48
1.0
  60
0
  67
0
  370
9
  100
AcDbText
  39
0.0
  10
11.82986111111111
  20
8.229166666666668
  30
0.0
  40
0.06944444444444445
  1
INPUT
  50
0.0
  41
1.0
  51
0.0
  7
Standard
  71
0
  72
0
  11
11.82986111111111
  21
8.229166666666668
  31
0.0
  210
0.0
  220
0.0
  230
1.0
  100
AcDbText
  73
2
  0
TEXT
  5
343
  330
1D
  100
AcDbEntity
  8
0
  6
ByLayer
  62
256
  48
1.0
  60
0
  67
0
  370
9
  100
AcDbText
  39
0.0
  10
13.461805555555555
  20
8.229166666666668
  30
0.0
  40
0.06944444444444445
  1
OUTPUT
  50
0.0
  41
1.0
  51
0.0
  7
Standard
  71
0
  72
2
  11
13.461805555555555
  21
8.229166666666668
  31
0.0
  210
0.0
  220
0.0
  230
1.0
  100
AcDbText
  73
2
  0
TEXT
  5
344
  330
1D
  100
AcDbEntity
  8
0
  6
ByLayer
  62
256
  48
1.0
  60
0
  67
0
  370
9
  100
AcDbText
  39
0.0
  10
11.82986111111111
  20
8.104166666666668
  30
0.0
  40
0.06944444444444445
  1
1
  50
0.0
  41
1.0
  51
0.0
  7
Standard
  71
0
  72
0
  11
11.82986111111111
  21
8.104166666666668
  31
0.0
  210
0.0
  220
0.0
  230
1.0
  100
AcDbText
  73
2
  0
TEXT
  5
345
  330
1D
  100
AcDbEntity
  8
0
  6
ByLayer
  62
256
  48
1.0
  60
0
  67
0
  370
9
  100
AcDbText
  39
0.0
  10
13.461805555555555
  20
8.104166666666668
  30
0.0
  40
0.06944444444444445
  1
7
  50
0.0
  41
1.0
  51
0.0
  7
Standard
  71
0
  72
2
  11
13.461805555555555
  21
8.104166666666668
  31
0.0
  210
0.0
  220
0.0
  230
1.0
  100
AcDbText
  73
2
  0
TEXT
  5
346
  330
1D
  100
AcDbEntity
  8
0
  6
ByLayer
  62
256
  48
1.0
  60
0
  67
0
  370
9
  100
AcDbText
  39
0.0
  10
11.82986111111111
  20
7.979166666666667
  30
0.0
  40
0.06944444444444445
  1
2
  50
0.0
  41
1.0
  51
0.0
  7
Standard
  71
0
  72
0
  11
11.82986111111111
  21
7.979166666666667
  31
0.0
  210
0.0
  220
0.0
  230
1.0
  100
AcDbText
  73
2
  0
TEXT
  5
347
  330
1D
  100
AcDbEntity
  8
0
  6
ByLayer
  62
256
  48
1.0
  60
0
  67
0
  370
9
  100
AcDbText
  39
0.0
  10
13.461805555555555
  20
7.979166666666667
  30
0.0
  40
0.06944444444444445
  1
8
  50
0.0
  41
1.0
  51
0.0
  7
Standard
  71
0
  72
2
  11
13.461805555555555
  21
7.979166666666667
  31
0.0
  210
0.0
  220
0.0
  230
1.0
  100
AcDbText
  73
2
  0
TEXT
  5
348
  330
1D
  100
AcDbEntity
  8
0
  6
ByLayer
  62
256
  48
1.0
  60
0
  67
0
  370
9
  100
AcDbText
  39
0.0
  10
11.82986111111111
  20
7.854166666666667
  30
0.0
  40
0.06944444444444445
  1
3
  50
0.0
  41
1.0
  51
0.0
  7
Standard
  71
0
  72
0
  11
11.82986111111111
  21
7.854166666666667
  31
0.0
  210
0.0
  220
0.0
  230
1.0
  100
AcDbText
  73
2
  0
TEXT
  5
349
  330
1D
  100
AcDbEntity
  8
0
  6
ByLayer
  62
256
  48
1.0
  60
0
  67
0
  370
9
  100
AcDbText
  39
0.0
  10
13.461805555555555
  20
7.854166666666667
  30
0.0
  40
0.06944444444444445
  1
9
  50
0.0
  41
1.0
  51
0.0
  7
Standard
  71
0
  72
2
  11
13.461805555555555
  21
7.854166666666667
  31
0.0
  210
0.0
  220
0.0
  230
1.0
  100
AcDbText
  73
2
  0
TEXT
  5
34A
  330
1D
  100
AcDbEntity
  8
0
  6
ByLayer
  62
256
  48
1.0
  60
0
  67
0
  370
9
  100
AcDbText
  39
0.0
  10
11.82986111111111
  20
7.729166666666667
  30
0.0
  40
0.06944444444444445
  1
4
  50
0.0
  41
1.0
  51
0.0
  7
Standard
  71
0
  72
0
  11
11.82986111111111
  21
7.729166666666667
  31
0.0
  210
0.0
  220
0.0
  230
1.0
  100
AcDbText
  73
2
  0
TEXT
  5
34B
  330
1D
  100
AcDbEntity
  8
0
  6
ByLayer
  62
256
  48
1.0
  60
0
  67
0
  370
9
  100
AcDbText
  39
0.0
  10
13.461805555555555
  20
7.729166666666667
  30
0.0
  40
0.06944444444444445
  1
10
  50
0.0
  41
1.0
  51
0.0
  7
Standard
  71
0
  72
2
  11
13.461805555555555
  21
7.729166666666667
  31
0.0
  210
0.0
  220
0.0
  230
1.0
  100
AcDbText
  73
2
  0
TEXT
  5
34C
  330
1D
  100
AcDbEntity
  8
0
  6
ByLayer
  62
256
  48
1.0
  60
0
  67
0
  370
9
  100
AcDbText
  39
0.0
  10
11.82986111111111
  20
7.604166666666667
  30
0.0
  40
0.06944444444444445
  1
5
  50
0.0
  41
1.0
  51
0.0
  7
Standard
  71
0
  72
0
  11
11.82986111111111
  21
7.604166666666667
  31
0.0
  210
0.0
  220
0.0
  230
1.0
  100
AcDbText
  73
2
  0
TEXT
  5
34D
  330
1D
  100
AcDbEntity
  8
0
  6
ByLayer
  62
256
  48
1.0
  60
0
  67
0
  370
9
  100
AcDbText
  39
0.0
  10
13.461805555555555
  20
7.604166666666667
  30
0.0
  40
0.06944444444444445
  1
11
  50
0.0
  41
1.0
  51
0.0
  7
Standard
  71
0
  72
2
  11
13.461805555555555
  21
7.604166666666667
  31
0.0
  210
0.0
  220
0.0
  230
1.0
  100
AcDbText
  73
2
  0
TEXT
  5
34E
  330
1D
  100
AcDbEntity
  8
0
  6
ByLayer
  62
256
  48
1.0
  60
0
  67
0
  370
9
  100
AcDbText
  39
0.0
  10
11.82986111111111
  20
7.479166666666667
  30
0.0
  40
0.06944444444444445
  1
6
  50
0.0
  41
1.0
  51
0.0
  7
Standard
  71
0
  72
0
  11
11.82986111111111
  21
7.479166666666667
  31
0.0
  210
0.0
  220
0.0
  230
1.0
  100
AcDbText
  73
2
  0
TEXT
  5
34F
  330
1D
  100
AcDbEntity
  8
0
  6
ByLayer
  62
256
  48
1.0
  60
0
  67
0
  370
9
  100
AcDbText
  39
0.0
  10
13.461805555555555
  20
7.479166666666667
  30
0.0
  40
0.06944444444444445
  1
12
  50
0.0
  41
1.0
  51
0.0
  7
Standard
  71
0
  72
2
  11
13.461805555555555
  21
7.479166666666667
  31
0.0
  210
0.0
  220
0.0
  230
1.0
  100
AcDbText
  73
2
  0
TEXT
  5
350
  330
1D
  100
AcDbEntity
  8
0
  6
ByLayer
  62
256
  48
1.0
  60
0
  67
0
  370
9
  100
AcDbText
  39
0.0
  10
7.791666666666666
  20
7.895833333333334
  30
0.0
  40
0.09375
  1
TP / 1
  50
0.0
  41
1.0
  51
0.0
  7
Standard
  71
0
  72
1
  11
7.791666666666666
  21
7.895833333333334
  31
0.0
  210
0.0
  220
0.0
  230
1.0
  100
AcDbText
  73
2
  0
TEXT
  5
351
  330
1D
  100
AcDbEntity
  8
0
  6
ByLayer
  62
256
  48
1.0
  60
0
  67
0
  370
9
  100
AcDbText
  39
0.0
  10
7.791666666666666
  20
7.666666666666667
  30
0.0
  40
0.09375
  1
TOUCH PANEL CONTROLLER
  50
0.0
  41
1.0
  51
0.0
  7
Standard
  71
0
  72
1
  11
7.791666666666666
  21
7.666666666666667
  31
0.0
  210
0.0
  220
0.0
  230
1.0
  100
AcDbText
  73
2
  0
TEXT
  5
352
  330
1D
  100
AcDbEntity
  8
0
  6
ByLayer
  62
256
  48
1.0
  60
0
  67
0
  370
9
  100
AcDbText
  39
0.0
  10
6.975694444444444
  20
7.354166666666667
  30
0.0
  40
0.06944444444444445
  1
INPUT
  50
0.0
  41
1.0
  51
0.0
  7
Standard
  71
0
  72
0
  11
6.975694444444444
  21
7.354166666666667
  31
0.0
  210
0.0
  220
0.0
  230
1.0
  100
AcDbText
  73
2
  0
TEXT
  5
353
  330
1D
  100
AcDbEntity
  8
0
  6
ByLayer
  62
256
  48
1.0
  60
0
  67
0
  370
9
  100
AcDbText
  39
0.0
  10
8.60763888888889
  20
7.354166666666667
  30
0.0
  40
0.06944444444444445
  1
OUTPUT
  50
0.0
  41
1.0
  51
0.0
  7
Standard
  71
0
  72
2
  11
8.60763888888889
  21
7.354166666666667
  31
0.0
  210
0.0
  220
0.0
  230
1.0
  100
AcDbText
  73
2
  0
TEXT
  5
354
  330
1D
  100
AcDbEntity
  8
0
  6
ByLayer
  62
256
  48
1.0
  60
0
  67
0
  370
9
  100
AcDbText
  39
0.0
  10
8.60763888888889
  20
7.229166666666667
  30
0.0
  40
0.06944444444444445
  1
ETHERNET
  50
0.0
  41
1.0
  51
0.0
  7
Standard
  71
0
  72
2
  11
8.60763888888889
  21
7.229166666666667
  31
0.0
  210
0.0
  220
0.0
  230
1.0
  100
AcDbText
  73
2
  0
TEXT
  5
355
  330
1D
  100
AcDbEntity
  8
0
  6
ByLayer
  62
256
  48
1.0
  60
0
  67
0
  370
9
  100
AcDbText
  39
0.0
  10
4.9375
  20
12.229166666666666
  30
0.0
  40
0.09375
  1
WMIC / 1
  50
0.0
  41
1.0
  51
0.0
  7
Standard
  71
0
  72
1
  11
4.9375
  21
12.229166666666666
  31
0.0
  210
0.0
  220
0.0
  230
1.0
  100
AcDbText
  73
2
  0
TEXT
  5
356
  330
1D
  100
AcDbEntity
  8
0
  6
ByLayer
  62
256
  48
1.0
  60
0
  67
0
  370
9
  100
AcDbText
  39
0.0
  10
4.9375
  20
12.0
  30
0.0
  40
0.09375
  1
DUAL WIRELESS RX
  50
0.0
  41
1.0
  51
0.0
  7
Standard
  71
0
  72
1
  11
4.9375
  21
12.0
  31
0.0
  210
0.0
  220
0.0
  230
1.0
  100
AcDbText
  73
2
  0
TEXT
  5
357
  330
1D
  100
AcDbEntity
  8
0
  6
ByLayer
  62
256
  48
1.0
  60
0
  67
0
  370
9
  100
AcDbText
  39
0.0
  10
4.121527777777778
  20
11.6875
  30
0.0
  40
0.06944444444444445
  1
INPUT
  50
0.0
  41
1.0
  51
0.0
  7
Standard
  71
0
  72
0
  11
4.121527777777778
  21
11.6875
  31
0.0
  210
0.0
  220
0.0
  230
1.0
  100
AcDbText
  73
2
  0
TEXT
  5
358
  330
1D
  100
AcDbEntity
  8
0
  6
ByLayer
  62
256
  48
1.0
  60
0
  67
0
  370
9
  100
AcDbText
  39
0.0
  10
5.753472222222222
  20
11.6875
  30
0.0
  40
0.06944444444444445
  1
OUTPUT
  50
0.0
  41
1.0
  51
0.0
  7
Standard
  71
0
  72
2
  11
5.753472222222222
  21
11.6875
  31
0.0
  210
0.0
  220
0.0
  230
1.0
  100
AcDbText
  73
2
  0
TEXT
  5
359
  330
1D
  100
AcDbEntity
  8
0
  6
ByLayer
  62
256
  48
1.0
  60
0
  67
0
  370
9
  100
AcDbText
  39
0.0
  10
4.121527777777778
  20
11.5625
  30
0.0
  40
0.06944444444444445
  1
1
  50
0.0
  41
1.0
  51
0.0
  7
Standard
  71
0
  72
0
  11
4.121527777777778
  21
11.5625
  31
0.0
  210
0.0
  220
0.0
  230
1.0
  100
AcDbText
  73
2
  0
TEXT
  5
35A
  330
1D
  100
AcDbEntity
  8
0
  6
ByLayer
  62
256
  48
1.0
  60
0
  67
0
  370
9
  100
AcDbText
  39
0.0
  10
5.753472222222222
  20
11.5625
  30
0.0
  40
0.06944444444444445
  1
1
  50
0.0
  41
1.0
  51
0.0
  7
Standard
  71
0
  72
2
  11
5.753472222222222
  21
11.5625
  31
0.0
  210
0.0
  220
0.0
  230
1.0
  100
AcDbText
  73
2
  0
TEXT
  5
35B
  330
1D
  100
AcDbEntity
  8
0
  6
ByLayer
  62
256
  48
1.0
  60
0
  67
0
  370
9
  100
AcDbText
  39
0.0
  10
4.121527777777778
  20
11.4375
  30
0.0
  40
0.06944444444444445
  1
2
  50
0.0
  41
1.0
  51
0.0
  7
Standard
  71
0
  72
0
  11
4.121527777777778
  21
11.4375
  31
0.0
  210
0.0
  220
0.0
  230
1.0
  100
AcDbText
  73
2
  0
TEXT
  5
35C
  330
1D
  100
AcDbEntity
  8
0
  6
ByLayer
  62
256
  48
1.0
  60
0
  67
0
  370
9
  100
AcDbText
  39
0.0
  10
5.753472222222222
  20
11.4375
  30
0.0
  40
0.06944444444444445
  1
2
  50
0.0
  41
1.0
  51
0.0
  7
Standard
  71
0
  72
2
  11
5.753472222222222
  21
11.4375
  31
0.0
  210
0.0
  220
0.0
  230
1.0
  100
AcDbText
  73
2
  0
TEXT
  5
35D
  330
1D
  100
AcDbEntity
  8
0
  6
ByLayer
  62
256
  48
1.0
  60
0
  67
0
  370
9
  100
AcDbText
  39
0.0
  10
3.319444444444444
  20
11.631944444444445
  30
0.0
  40
0.09375
  1
ANT-1
  50
0.0
  41
1.0
  51
0.0
  7
Standard
  71
0
  72
1
  11
3.319444444444444
  21
11.631944444444445
  31
0.0
  210
0.0
  220
0.0
  230
1.0
  100
AcDbText
  73
2
  0
TEXT
  5
35E
  330
1D
  100
AcDbEntity
  8
0
  6
ByLayer
  62
256
  48
1.0
  60
0
  67
0
  370
9
  100
AcDbText
  39
0.0
  10
2.611111111111111
  20
11.506944444444445
  30
0.0
  40
0.09375
  1
ANT-1
  50
0.0
  41
1.0
  51
0.0
  7
Standard
  71
0
  72
1
  11
2.611111111111111
  21
11.506944444444445
  31
0.0
  210
0.0
  220
0.0
  230
1.0
  100
AcDbText
  73
2
  0
TEXT
  5
35F
  330
1D
  100
AcDbEntity
  8
0
  6
ByLayer
  62
256
  48
1.0
  60
0
  67
0
  370
9
  100
AcDbText
  39
0.0
  10
7.791666666666666
  20
6.6875
  30
0.0
  40
0.09375
  1
BT / 1
  50
0.0
  41
1.0
  51
0.0
  7
Standard
  71
0
  72
1
  11
7.791666666666666
  21
6.6875
  31
0.0
  210
0.0
  220
0.0
  230
1.0
  100
AcDbText
  73
2
  0
TEXT
  5
360
  330
1D
  100
AcDbEntity
  8
0
  6
ByLayer
  62
256
  48
1.0
  60
0
  67
0
  370
9
  100
AcDbText
  39
0.0
  10
7.791666666666666
  20
6.458333333333334
  30
0.0
  40
0.09375
  1
BLUETOOTH PLATE
  50
0.0
  41
1.0
  51
0.0
  7
Standard
  71
0
  72
1
  11
7.791666666666666
  21
6.458333333333334
  31
0.0
  210
0.0
  220
0.0
  230
1.0
  100
AcDbText
  73
2
  0
TEXT
  5
361
  330
1D
  100
AcDbEntity
  8
0
  6
ByLayer
  62
256
  48
1.0
  60
0
  67
0
  370
9
  100
AcDbText
  39
0.0
  10
6.975694444444444
  20
6.145833333333334
  30
0.0
  40
0.06944444444444445
  1
INPUT
  50
0.0
  41
1.0
  51
0.0
  7
Standard
  71
0
  72
0
  11
6.975694444444444
  21
6.145833333333334
  31
0.0
  210
0.0
  220
0.0
  230
1.0
  100
AcDbText
  73
2
  0
TEXT
  5
362
  330
1D
  100
AcDbEntity
  8
0
  6
ByLayer
  62
256
  48
1.0
  60
0
  67
0
  370
9
  100
AcDbText
  39
0.0
  10
8.60763888888889
  20
6.145833333333334
  30
0.0
  40
0.06944444444444445
  1
OUTPUT
  50
0.0
  41
1.0
  51
0.0
  7
Standard
  71
0
  72
2
  11
8.60763888888889
  21
6.145833333333334
  31
0.0
  210
0.0
  220
0.0
  230
1.0
  100
AcDbText
  73
2
  0
TEXT
  5
363
  330
1D
  100
AcDbEntity
  8
0
  6
ByLayer
  62
256
  48
1.0
  60
0
  67
0
  370
9
  100
AcDbText
  39
0.0
  10
8.60763888888889
  20
6.020833333333334
  30
0.0
  40
0.06944444444444445
  1
DANTE
  50
0.0
  41
1.0
  51
0.0
  7
Standard
  71
0
  72
2
  11
8.60763888888889
  21
6.020833333333334
  31
0.0
  210
0.0
  220
0.0
  230
1.0
  100
AcDbText
  73
2
  0
TEXT
  5
364
  330
1D
  100
AcDbEntity
  8
0
  6
ByLayer
  62
256
  48
1.0
  60
0
  67
0
  370
9
  100
AcDbText
  39
0.0
  10
10.583333333333332
  20
12.229166666666666
  30
0.0
  40
0.09375
  1
DSP / 1
  50
0.0
  41
1.0
  51
0.0
  7
Standard
  71
0
  72
1
  11
10.583333333333332
  21
12.229166666666666
  31
0.0
  210
0.0
  220
0.0
  230
1.0
  100
AcDbText
  73
2
  0
TEXT
  5
365
  330
1D
  100
AcDbEntity
  8
0
  6
ByLayer
  62
256
  48
1.0
  60
0
  67
0
  370
9
  100
AcDbText
  39
0.0
  10
10.583333333333332
  20
12.0
  30
0.0
  40
0.09375
  1
AUDIO DSP
  50
0.0
  41
1.0
  51
0.0
  7
Standard
  71
0
  72
1
  11
10.583333333333332
  21
12.0
  31
0.0
  210
0.0
  220
0.0
  230
1.0
  100
AcDbText
  73
2
  0
TEXT
  5
366
  330
1D
  100
AcDbEntity
  8
0
  6
ByLayer
  62
256
  48
1.0
  60
0
  67
0
  370
9
  100
AcDbText
  39
0.0
  10
9.76736111111111
  20
11.6875
  30
0.0
  40
0.06944444444444445
  1
INPUT
  50
0.0
  41
1.0
  51
0.0
  7
Standard
  71
0
  72
0
  11
9.76736111111111
  21
11.6875
  31
0.0
  210
0.0
  220
0.0
  230
1.0
  100
AcDbText
  73
2
  0
TEXT
  5
367
  330
1D
  100
AcDbEntity
  8
0
  6
ByLayer
  62
256
  48
1.0
  60
0
  67
0
  370
9
  100
AcDbText
  39
0.0
  10
11.399305555555555
  20
11.6875
  30
0.0
  40
0.06944444444444445
  1
OUTPUT
  50
0.0
  41
1.0
  51
0.0
  7
Standard
  71
0
  72
2
  11
11.399305555555555
  21
11.6875
  31
0.0
  210
0.0
  220
0.0
  230
1.0
  100
AcDbText
  73
2
  0
TEXT
  5
368
  330
1D
  100
AcDbEntity
  8
0
  6
ByLayer
  62
256
  48
1.0
  60
0
  67
0
  370
9
  100
AcDbText
  39
0.0
  10
9.76736111111111
  20
11.5625
  30
0.0
  40
0.06944444444444445
  1
1
  50
0.0
  41
1.0
  51
0.0
  7
Standard
  71
0
  72
0
  11
9.76736111111111
  21
11.5625
  31
0.0
  210
0.0
  220
0.0
  230
1.0
  100
AcDbText
  73
2
  0
TEXT
  5
369
  330
1D
  100
AcDbEntity
  8
0
  6
ByLayer
  62
256
  48
1.0
  60
0
  67
0
  370
9
  100
AcDbText
  39
0.0
  10
11.399305555555555
  20
11.5625
  30
0.0
  40
0.06944444444444445
  1
1
  50
0.0
  41
1.0
  51
0.0
  7
Standard
  71
0
  72
2
  11
11.399305555555555
  21
11.5625
  31
0.0
  210
0.0
  220
0.0
  230
1.0
  100
AcDbText
  73
2
  0
TEXT
  5
36A
  330
1D
  100
AcDbEntity
  8
0
  6
ByLayer
  62
256
  48
1.0
  60
0
  67
0
  370
9
  100
AcDbText
  39
0.0
  10
9.76736111111111
  20
11.4375
  30
0.0
  40
0.06944444444444445
  1
2
  50
0.0
  41
1.0
  51
0.0
  7
Standard
  71
0
  72
0
  11
9.76736111111111
  21
11.4375
  31
0.0
  210
0.0
  220
0.0
  230
1.0
  100
AcDbText
  73
2
  0
TEXT
  5
36B
  330
1D
  100
AcDbEntity
  8
0
  6
ByLayer
  62
256
  48
1.0
  60
0
  67
0
  370
9
  100
AcDbText
  39
0.0
  10
11.399305555555555
  20
11.4375
  30
0.0
  40
0.06944444444444445
  1
2
  50
0.0
  41
1.0
  51
0.0
  7
Standard
  71
0
  72
2
  11
11.399305555555555
  21
11.4375
  31
0.0
  210
0.0
  220
0.0
  230
1.0
  100
AcDbText
  73
2
  0
TEXT
  5
36C
  330
1D
  100
AcDbEntity
  8
0
  6
ByLayer
  62
256
  48
1.0
  60
0
  67
0
  370
9
  100
AcDbText
  39
0.0
  10
9.76736111111111
  20
11.3125
  30
0.0
  40
0.06944444444444445
  1
3
  50
0.0
  41
1.0
  51
0.0
  7
Standard
  71
0
  72
0
  11
9.76736111111111
  21
11.3125
  31
0.0
  210
0.0
  220
0.0
  230
1.0
  100
AcDbText
  73
2
  0
TEXT
  5
36D
  330
1D
  100
AcDbEntity
  8
0
  6
ByLayer
  62
256
  48
1.0
  60
0
  67
0
  370
9
  100
AcDbText
  39
0.0
  10
11.399305555555555
  20
11.3125
  30
0.0
  40
0.06944444444444445
  1
3
  50
0.0
  41
1.0
  51
0.0
  7
Standard
  71
0
  72
2
  11
11.399305555555555
  21
11.3125
  31
0.0
  210
0.0
  220
0.0
  230
1.0
  100
AcDbText
  73
2
  0
TEXT
  5
36E
  330
1D
  100
AcDbEntity
  8
0
  6
ByLayer
  62
256
  48
1.0
  60
0
  67
0
  370
9
  100
AcDbText
  39
0.0
  10
9.76736111111111
  20
11.1875
  30
0.0
  40
0.06944444444444445
  1
4
  50
0.0
  41
1.0
  51
0.0
  7
Standard
  71
0
  72
0
  11
9.76736111111111
  21
11.1875
  31
0.0
  210
0.0
  220
0.0
  230
1.0
  100
AcDbText
  73
2
  0
TEXT
  5
36F
  330
1D
  100
AcDbEntity
  8
0
  6
ByLayer
  62
256
  48
1.0
  60
0
  67
0
  370
9
  100
AcDbText
  39
0.0
  10
11.399305555555555
  20
11.1875
  30
0.0
  40
0.06944444444444445
  1
4
  50
0.0
  41
1.0
  51
0.0
  7
Standard
  71
0
  72
2
  11
11.399305555555555
  21
11.1875
  31
0.0
  210
0.0
  220
0.0
  230
1.0
  100
AcDbText
  73
2
  0
TEXT
  5
370
  330
1D
  100
AcDbEntity
  8
0
  6
ByLayer
  62
256
  48
1.0
  60
0
  67
0
  370
9
  100
AcDbText
  39
0.0
  10
9.76736111111111
  20
11.0625
  30
0.0
  40
0.06944444444444445
  1
5
  50
0.0
  41
1.0
  51
0.0
  7
Standard
  71
0
  72
0
  11
9.76736111111111
  21
11.0625
  31
0.0
  210
0.0
  220
0.0
  230
1.0
  100
AcDbText
  73
2
  0
TEXT
  5
371
  330
1D
  100
AcDbEntity
  8
0
  6
ByLayer
  62
256
  48
1.0
  60
0
  67
0
  370
9
  100
AcDbText
  39
0.0
  10
11.399305555555555
  20
11.0625
  30
0.0
  40
0.06944444444444445
  1
5
  50
0.0
  41
1.0
  51
0.0
  7
Standard
  71
0
  72
2
  11
11.399305555555555
  21
11.0625
  31
0.0
  210
0.0
  220
0.0
  230
1.0
  100
AcDbText
  73
2
  0
TEXT
  5
372
  330
1D
  100
AcDbEntity
  8
0
  6
ByLayer
  62
256
  48
1.0
  60
0
  67
0
  370
9
  100
AcDbText
  39
0.0
  10
9.76736111111111
  20
10.9375
  30
0.0
  40
0.06944444444444445
  1
6
  50
0.0
  41
1.0
  51
0.0
  7
Standard
  71
0
  72
0
  11
9.76736111111111
  21
10.9375
  31
0.0
  210
0.0
  220
0.0
  230
1.0
  100
AcDbText
  73
2
  0
TEXT
  5
373
  330
1D
  100
AcDbEntity
  8
0
  6
ByLayer
  62
256
  48
1.0
  60
0
  67
0
  370
9
  100
AcDbText
  39
0.0
  10
11.399305555555555
  20
10.9375
  30
0.0
  40
0.06944444444444445
  1
6
  50
0.0
  41
1.0
  51
0.0
  7
Standard
  71
0
  72
2
  11
11.399305555555555
  21
10.9375
  31
0.0
  210
0.0
  220
0.0
  230
1.0
  100
AcDbText
  73
2
  0
TEXT
  5
374
  330
1D
  100
AcDbEntity
  8
0
  6
ByLayer
  62
256
  48
1.0
  60
0
  67
0
  370
9
  100
AcDbText
  39
0.0
  10
9.76736111111111
  20
10.8125
  30
0.0
  40
0.06944444444444445
  1
7
  50
0.0
  41
1.0
  51
0.0
  7
Standard
  71
0
  72
0
  11
9.76736111111111
  21
10.8125
  31
0.0
  210
0.0
  220
0.0
  230
1.0
  100
AcDbText
  73
2
  0
TEXT
  5
375
  330
1D
  100
AcDbEntity
  8
0
  6
ByLayer
  62
256
  48
1.0
  60
0
  67
0
  370
9
  100
AcDbText
  39
0.0
  10
11.399305555555555
  20
10.8125
  30
0.0
  40
0.06944444444444445
  1
7
  50
0.0
  41
1.0
  51
0.0
  7
Standard
  71
0
  72
2
  11
11.399305555555555
  21
10.8125
  31
0.0
  210
0.0
  220
0.0
  230
1.0
  100
AcDbText
  73
2
  0
TEXT
  5
376
  330
1D
  100
AcDbEntity
  8
0
  6
ByLayer
  62
256
  48
1.0
  60
0
  67
0
  370
9
  100
AcDbText
  39
0.0
  10
9.76736111111111
  20
10.6875
  30
0.0
  40
0.06944444444444445
  1
8
  50
0.0
  41
1.0
  51
0.0
  7
Standard
  71
0
  72
0
  11
9.76736111111111
  21
10.6875
  31
0.0
  210
0.0
  220
0.0
  230
1.0
  100
AcDbText
  73
2
  0
TEXT
  5
377
  330
1D
  100
AcDbEntity
  8
0
  6
ByLayer
  62
256
  48
1.0
  60
0
  67
0
  370
9
  100
AcDbText
  39
0.0
  10
11.399305555555555
  20
10.6875
  30
0.0
  40
0.06944444444444445
  1
8
  50
0.0
  41
1.0
  51
0.0
  7
Standard
  71
0
  72
2
  11
11.399305555555555
  21
10.6875
  31
0.0
  210
0.0
  220
0.0
  230
1.0
  100
AcDbText
  73
2
  0
TEXT
  5
378
  330
1D
  100
AcDbEntity
  8
0
  6
ByLayer
  62
256
  48
1.0
  60
0
  67
0
  370
9
  100
AcDbText
  39
0.0
  10
9.76736111111111
  20
10.5625
  30
0.0
  40
0.06944444444444445
  1
9
  50
0.0
  41
1.0
  51
0.0
  7
Standard
  71
0
  72
0
  11
9.76736111111111
  21
10.5625
  31
0.0
  210
0.0
  220
0.0
  230
1.0
  100
AcDbText
  73
2
  0
TEXT
  5
379
  330
1D
  100
AcDbEntity
  8
0
  6
ByLayer
  62
256
  48
1.0
  60
0
  67
0
  370
9
  100
AcDbText
  39
0.0
  10
11.399305555555555
  20
10.5625
  30
0.0
  40
0.06944444444444445
  1
9
  50
0.0
  41
1.0
  51
0.0
  7
Standard
  71
0
  72
2
  11
11.399305555555555
  21
10.5625
  31
0.0
  210
0.0
  220
0.0
  230
1.0
  100
AcDbText
  73
2
  0
TEXT
  5
37A
  330
1D
  100
AcDbEntity
  8
0
  6
ByLayer
  62
256
  48
1.0
  60
0
  67
0
  370
9
  100
AcDbText
  39
0.0
  10
9.76736111111111
  20
10.4375
  30
0.0
  40
0.06944444444444445
  1
10
  50
0.0
  41
1.0
  51
0.0
  7
Standard
  71
0
  72
0
  11
9.76736111111111
  21
10.4375
  31
0.0
  210
0.0
  220
0.0
  230
1.0
  100
AcDbText
  73
2
  0
TEXT
  5
37B
  330
1D
  100
AcDbEntity
  8
0
  6
ByLayer
  62
256
  48
1.0
  60
0
  67
0
  370
9
  100
AcDbText
  39
0.0
  10
11.399305555555555
  20
10.4375
  30
0.0
  40
0.06944444444444445
  1
10
  50
0.0
  41
1.0
  51
0.0
  7
Standard
  71
0
  72
2
  11
11.399305555555555
  21
10.4375
  31
0.0
  210
0.0
  220
0.0
  230
1.0
  100
AcDbText
  73
2
  0
TEXT
  5
37C
  330
1D
  100
AcDbEntity
  8
0
  6
ByLayer
  62
256
  48
1.0
  60
0
  67
0
  370
9
  100
AcDbText
  39
0.0
  10
9.76736111111111
  20
10.1875
  30
0.0
  40
0.06944444444444445
  1
GPIO
  50
0.0
  41
1.0
  51
0.0
  7
Standard
  71
0
  72
0
  11
9.76736111111111
  21
10.1875
  31
0.0
  210
0.0
  220
0.0
  230
1.0
  100
AcDbText
  73
2
  0
TEXT
  5
37D
  330
1D
  100
AcDbEntity
  8
0
  6
ByLayer
  62
256
  48
1.0
  60
0
  67
0
  370
9
  100
AcDbText
  39
0.0
  10
11.399305555555555
  20
10.1875
  30
0.0
  40
0.06944444444444445
  1
NETWORK
  50
0.0
  41
1.0
  51
0.0
  7
Standard
  71
0
  72
2
  11
11.399305555555555
  21
10.1875
  31
0.0
  210
0.0
  220
0.0
  230
1.0
  100
AcDbText
  73
2
  0
TEXT
  5
37E
  330
1D
  100
AcDbEntity
  8
0
  6
ByLayer
  62
256
  48
1.0
  60
0
  67
0
  370
9
  100
AcDbText
  39
0.0
  10
9.76736111111111
  20
10.0625
  30
0.0
  40
0.06944444444444445
  1
1
  50
0.0
  41
1.0
  51
0.0
  7
Standard
  71
0
  72
0
  11
9.76736111111111
  21
10.0625
  31
0.0
  210
0.0
  220
0.0
  230
1.0
  100
AcDbText
  73
2
  0
TEXT
  5
37F
  330
1D
  100
AcDbEntity
  8
0
  6
ByLayer
  62
256
  48
1.0
  60
0
  67
0
  370
9
  100
AcDbText
  39
0.0
  10
11.399305555555555
  20
10.0625
  30
0.0
  40
0.06944444444444445
  1
LAN
  50
0.0
  41
1.0
  51
0.0
  7
Standard
  71
0
  72
2
  11
11.399305555555555
  21
10.0625
  31
0.0
  210
0.0
  220
0.0
  230
1.0
  100
AcDbText
  73
2
  0
TEXT
  5
380
  330
1D
  100
AcDbEntity
  8
0
  6
ByLayer
  62
256
  48
1.0
  60
0
  67
0
  370
9
  100
AcDbText
  39
0.0
  10
9.583333333333332
  20
11.0
  30
0.0
  40
0.08333333333333333
  1
10
  50
0.0
  41
1.0
  51
0.0
  7
Standard
  71
0
  72
1
  11
9.583333333333332
  21
11.0
  31
0.0
  210
0.0
  220
0.0
  230
1.0
  100
AcDbText
  73
2
  0
TEXT
  5
381
  330
1D
  100
AcDbEntity
  8
0
  6
ByLayer
  62
256
  48
1.0
  60
0
  67
0
  370
9
  100
AcDbText
  39
0.0
  10
11.583333333333332
  20
11.375
  30
0.0
  40
0.08333333333333333
  1
4
  50
0.0
  41
1.0
  51
0.0
  7
Standard
  71
0
  72
1
  11
11.583333333333332
  21
11.375
  31
0.0
  210
0.0
  220
0.0
  230
1.0
  100
AcDbText
  73
2
  0
TEXT
  5
382
  330
1D
  100
AcDbEntity
  8
0
  6
ByLayer
  62
256
  48
1.0
  60
0
  67
0
  370
9
  100
AcDbText
  39
0.0
  10
11.583333333333332
  20
10.75
  30
0.0
  40
0.08333333333333333
  1
6
  50
0.0
  41
1.0
  51
0.0
  7
Standard
  71
0
  72
1
  11
11.583333333333332
  21
10.75
  31
0.0
  210
0.0
  220
0.0
  230
1.0
  100
AcDbText
  73
2
  0
TEXT
  5
383
  330
1D
  100
AcDbEntity
  8
0
  6
ByLayer
  62
256
  48
1.0
  60
0
  67
0
  370
9
  100
AcDbText
  39
0.0
  10
14.006944444444443
  20
7.979166666666667
  30
0.0
  40
0.09375
  1
BLDG LAN
  50
0.0
  41
1.0
  51
0.0
  7
Standard
  71
0
  72
0
  11
14.006944444444443
  21
7.979166666666667
  31
0.0
  210
0.0
  220
0.0
  230
1.0
  100
AcDbText
  73
2
  0
TEXT
  5
384
  330
1D
  100
AcDbEntity
  8
0
  6
ByLayer
  62
256
  48
1.0
  60
0
  67
0
  370
9
  100
AcDbText
  39
0.0
  10
15.48611111111111
  20
11.88888888888889
  30
0.0
  40
0.09375
  1
SPK 1
  50
0.0
  41
1.0
  51
0.0
  7
Standard
  71
0
  72
0
  11
15.48611111111111
  21
11.88888888888889
  31
0.0
  210
0.0
  220
0.0
  230
1.0
  100
AcDbText
  73
2
  0
TEXT
  5
385
  330
1D
  100
AcDbEntity
  8
0
  6
ByLayer
  62
256
  48
1.0
  60
0
  67
0
  370
9
  100
AcDbText
  39
0.0
  10
15.48611111111111
  20
11.791666666666668
  30
0.0
  40
0.06944444444444445
  1
MAIN BLEACHERS
  50
0.0
  41
1.0
  51
0.0
  7
Standard
  71
0
  72
0
  11
15.48611111111111
  21
11.791666666666668
  31
0.0
  210
0.0
  220
0.0
  230
1.0
  100
AcDbText
  73
2
  0
TEXT
  5
386
  330
1D
  100
AcDbEntity
  8
0
  6
ByLayer
  62
256
  48
1.0
  60
0
  67
0
  370
9
  100
AcDbText
  39
0.0
  10
15.472222222222221
  20
10.13888888888889
  30
0.0
  40
0.09375
  1
SPK 3
  50
0.0
  41
1.0
  51
0.0
  7
Standard
  71
0
  72
0
  11
15.472222222222221
  21
10.13888888888889
  31
0.0
  210
0.0
  220
0.0
  230
1.0
  100
AcDbText
  73
2
  0
TEXT
  5
387
  330
1D
  100
AcDbEntity
  8
0
  6
ByLayer
  62
256
  48
1.0
  60
0
  67
0
  370
9
  100
AcDbText
  39
0.0
  10
15.472222222222221
  20
10.041666666666668
  30
0.0
  40
0.06944444444444445
  1
SUBWOOFER
  50
0.0
  41
1.0
  51
0.0
  7
Standard
  71
0
  72
0
  11
15.472222222222221
  21
10.041666666666668
  31
0.0
  210
0.0
  220
0.0
  230
1.0
  100
AcDbText
  73
2
  0
TEXT
  5
388
  330
1D
  100
AcDbEntity
  8
0
  6
ByLayer
  62
256
  48
1.0
  60
0
  67
0
  370
9
  100
AcDbText
  39
0.0
  10
5.3125
  20
7.8125
  30
0.0
  40
0.09375
  1
AVP / AV-1
  50
0.0
  41
1.0
  51
0.0
  7
Standard
  71
0
  72
1
  11
5.3125
  21
7.8125
  31
0.0
  210
0.0
  220
0.0
  230
1.0
  100
AcDbText
  73
2
  0
TEXT
  5
389
  330
1D
  100
AcDbEntity
  8
0
  6
ByLayer
  62
256
  48
1.0
  60
0
  67
0
  370
9
  100
AcDbText
  39
0.0
  10
5.3125
  20
7.583333333333334
  30
0.0
  40
0.09375
  1
AV PLATE
  50
0.0
  41
1.0
  51
0.0
  7
Standard
  71
0
  72
1
  11
5.3125
  21
7.583333333333334
  31
0.0
  210
0.0
  220
0.0
  230
1.0
  100
AcDbText
  73
2
  0
TEXT
  5
38A
  330
1D
  100
AcDbEntity
  8
0
  6
ByLayer
  62
256
  48
1.0
  60
0
  67
0
  370
9
  100
AcDbText
  39
0.0
  10
5.3125
  20
7.270833333333334
  30
0.0
  40
0.06944444444444445
  1
INPUTS
  50
0.0
  41
1.0
  51
0.0
  7
Standard
  71
0
  72
1
  11
5.3125
  21
7.270833333333334
  31
0.0
  210
0.0
  220
0.0
  230
1.0
  100
AcDbText
  73
2
  0
TEXT
  5
38B
  330
1D
  100
AcDbEntity
  8
0
  6
ByLayer
  62
256
  48
1.0
  60
0
  67
0
  370
9
  100
AcDbText
  39
0.0
  10
4.871527777777778
  20
7.145833333333334
  30
0.0
  40
0.06944444444444445
  1
1
  50
0.0
  41
1.0
  51
0.0
  7
Standard
  71
0
  72
0
  11
4.871527777777778
  21
7.145833333333334
  31
0.0
  210
0.0
  220
0.0
  230
1.0
  100
AcDbText
  73
2
  0
TEXT
  5
38C
  330
1D
  100
AcDbEntity
  8
0
  6
ByLayer
  62
256
  48
1.0
  60
0
  67
0
  370
9
  100
AcDbText
  39
0.0
  10
4.871527777777778
  20
7.020833333333334
  30
0.0
  40
0.06944444444444445
  1
2
  50
0.0
  41
1.0
  51
0.0
  7
Standard
  71
0
  72
0
  11
4.871527777777778
  21
7.020833333333334
  31
0.0
  210
0.0
  220
0.0
  230
1.0
  100
AcDbText
  73
2
  0
TEXT
  5
38D
  330
1D
  100
AcDbEntity
  8
0
  6
ByLayer
  62
256
  48
1.0
  60
0
  67
0
  370
9
  100
AcDbText
  39
0.0
  10
5.3125
  20
6.770833333333334
  30
0.0
  40
0.06944444444444445
  1
OUTPUTS
  50
0.0
  41
1.0
  51
0.0
  7
Standard
  71
0
  72
1
  11
5.3125
  21
6.770833333333334
  31
0.0
  210
0.0
  220
0.0
  230
1.0
  100
AcDbText
  73
2
  0
TEXT
  5
38E
  330
1D
  100
AcDbEntity
  8
0
  6
ByLayer
  62
256
  48
1.0
  60
0
  67
0
  370
9
  100
AcDbText
  39
0.0
  10
5.753472222222222
  20
6.645833333333334
  30
0.0
  40
0.06944444444444445
  1
1
  50
0.0
  41
1.0
  51
0.0
  7
Standard
  71
0
  72
2
  11
5.753472222222222
  21
6.645833333333334
  31
0.0
  210
0.0
  220
0.0
  230
1.0
  100
AcDbText
  73
2
  0
TEXT
  5
38F
  330
1D
  100
AcDbEntity
  8
0
  6
ByLayer
  62
256
  48
1.0
  60
0
  67
0
  370
9
  100
AcDbText
  39
0.0
  10
5.3125
  20
6.1875
  30
0.0
  40
0.09375
  1
AVP / AV-1
  50
0.0
  41
1.0
  51
0.0
  7
Standard
  71
0
  72
1
  11
5.3125
  21
6.1875
  31
0.0
  210
0.0
  220
0.0
  230
1.0
  100
AcDbText
  73
2
  0
TEXT
  5
390
  330
1D
  100
AcDbEntity
  8
0
  6
ByLayer
  62
256
  48
1.0
  60
0
  67
0
  370
9
  100
AcDbText
  39
0.0
  10
5.3125
  20
5.958333333333334
  30
0.0
  40
0.09375
  1
AV PLATE
  50
0.0
  41
1.0
  51
0.0
  7
Standard
  71
0
  72
1
  11
5.3125
  21
5.958333333333334
  31
0.0
  210
0.0
  220
0.0
  230
1.0
  100
AcDbText
  73
2
  0
TEXT
  5
391
  330
1D
  100
AcDbEntity
  8
0
  6
ByLayer
  62
256
  48
1.0
  60
0
  67
0
  370
9
  100
AcDbText
  39
0.0
  10
5.3125
  20
5.645833333333334
  30
0.0
  40
0.06944444444444445
  1
INPUTS
  50
0.0
  41
1.0
  51
0.0
  7
Standard
  71
0
  72
1
  11
5.3125
  21
5.645833333333334
  31
0.0
  210
0.0
  220
0.0
  230
1.0
  100
AcDbText
  73
2
  0
TEXT
  5
392
  330
1D
  100
AcDbEntity
  8
0
  6
ByLayer
  62
256
  48
1.0
  60
0
  67
0
  370
9
  100
AcDbText
  39
0.0
  10
4.871527777777778
  20
5.520833333333334
  30
0.0
  40
0.06944444444444445
  1
1
  50
0.0
  41
1.0
  51
0.0
  7
Standard
  71
0
  72
0
  11
4.871527777777778
  21
5.520833333333334
  31
0.0
  210
0.0
  220
0.0
  230
1.0
  100
AcDbText
  73
2
  0
TEXT
  5
393
  330
1D
  100
AcDbEntity
  8
0
  6
ByLayer
  62
256
  48
1.0
  60
0
  67
0
  370
9
  100
AcDbText
  39
0.0
  10
4.871527777777778
  20
5.395833333333334
  30
0.0
  40
0.06944444444444445
  1
2
  50
0.0
  41
1.0
  51
0.0
  7
Standard
  71
0
  72
0
  11
4.871527777777778
  21
5.395833333333334
  31
0.0
  210
0.0
  220
0.0
  230
1.0
  100
AcDbText
  73
2
  0
TEXT
  5
394
  330
1D
  100
AcDbEntity
  8
0
  6
ByLayer
  62
256
  48
1.0
  60
0
  67
0
  370
9
  100
AcDbText
  39
0.0
  10
5.3125
  20
5.145833333333334
  30
0.0
  40
0.06944444444444445
  1
OUTPUTS
  50
0.0
  41
1.0
  51
0.0
  7
Standard
  71
0
  72
1
  11
5.3125
  21
5.145833333333334
  31
0.0
  210
0.0
  220
0.0
  230
1.0
  100
AcDbText
  73
2
  0
TEXT
  5
395
  330
1D
  100
AcDbEntity
  8
0
  6
ByLayer
  62
256
  48
1.0
  60
0
  67
0
  370
9
  100
AcDbText
  39
0.0
  10
5.753472222222222
  20
5.020833333333334
  30
0.0
  40
0.06944444444444445
  1
1
  50
0.0
  41
1.0
  51
0.0
  7
Standard
  71
0
  72
2
  11
5.753472222222222
  21
5.020833333333334
  31
0.0
  210
0.0
  220
0.0
  230
1.0
  100
AcDbText
  73
2
  0
TEXT
  5
396
  330
1D
  100
AcDbEntity
  8
0
  6
ByLayer
  62
256
  48
1.0
  60
0
  67
0
  370
9
  100
AcDbText
  39
0.0
  10
5.3125
  20
11.020833333333334
  30
0.0
  40
0.09375
  1
AVP / AV-1
  50
0.0
  41
1.0
  51
0.0
  7
Standard
  71
0
  72
1
  11
5.3125
  21
11.020833333333334
  31
0.0
  210
0.0
  220
0.0
  230
1.0
  100
AcDbText
  73
2
  0
TEXT
  5
397
  330
1D
  100
AcDbEntity
  8
0
  6
ByLayer
  62
256
  48
1.0
  60
0
  67
0
  370
9
  100
AcDbText
  39
0.0
  10
5.3125
  20
10.791666666666668
  30
0.0
  40
0.09375
  1
AV PLATE
  50
0.0
  41
1.0
  51
0.0
  7
Standard
  71
0
  72
1
  11
5.3125
  21
10.791666666666668
  31
0.0
  210
0.0
  220
0.0
  230
1.0
  100
AcDbText
  73
2
  0
TEXT
  5
398
  330
1D
  100
AcDbEntity
  8
0
  6
ByLayer
  62
256
  48
1.0
  60
0
  67
0
  370
9
  100
AcDbText
  39
0.0
  10
5.3125
  20
10.479166666666668
  30
0.0
  40
0.06944444444444445
  1
INPUTS
  50
0.0
  41
1.0
  51
0.0
  7
Standard
  71
0
  72
1
  11
5.3125
  21
10.479166666666668
  31
0.0
  210
0.0
  220
0.0
  230
1.0
  100
AcDbText
  73
2
  0
TEXT
  5
399
  330
1D
  100
AcDbEntity
  8
0
  6
ByLayer
  62
256
  48
1.0
  60
0
  67
0
  370
9
  100
AcDbText
  39
0.0
  10
4.871527777777778
  20
10.354166666666668
  30
0.0
  40
0.06944444444444445
  1
1
  50
0.0
  41
1.0
  51
0.0
  7
Standard
  71
0
  72
0
  11
4.871527777777778
  21
10.354166666666668
  31
0.0
  210
0.0
  220
0.0
  230
1.0
  100
AcDbText
  73
2
  0
TEXT
  5
39A
  330
1D
  100
AcDbEntity
  8
0
  6
ByLayer
  62
256
  48
1.0
  60
0
  67
0
  370
9
  100
AcDbText
  39
0.0
  10
4.871527777777778
  20
10.229166666666668
  30
0.0
  40
0.06944444444444445
  1
2
  50
0.0
  41
1.0
  51
0.0
  7
Standard
  71
0
  72
0
  11
4.871527777777778
  21
10.229166666666668
  31
0.0
  210
0.0
  220
0.0
  230
1.0
  100
AcDbText
  73
2
  0
TEXT
  5
39B
  330
1D
  100
AcDbEntity
  8
0
  6
ByLayer
  62
256
  48
1.0
  60
0
  67
0
  370
9
  100
AcDbText
  39
0.0
  10
5.3125
  20
9.979166666666668
  30
0.0
  40
0.06944444444444445
  1
OUTPUTS
  50
0.0
  41
1.0
  51
0.0
  7
Standard
  71
0
  72
1
  11
5.3125
  21
9.979166666666668
  31
0.0
  210
0.0
  220
0.0
  230
1.0
  100
AcDbText
  73
2
  0
TEXT
  5
39C
  330
1D
  100
AcDbEntity
  8
0
  6
ByLayer
  62
256
  48
1.0
  60
0
  67
0
  370
9
  100
AcDbText
  39
0.0
  10
5.753472222222222
  20
9.854166666666668
  30
0.0
  40
0.06944444444444445
  1
1
  50
0.0
  41
1.0
  51
0.0
  7
Standard
  71
0
  72
2
  11
5.753472222222222
  21
9.854166666666668
  31
0.0
  210
0.0
  220
0.0
  230
1.0
  100
AcDbText
  73
2
  0
TEXT
  5
39D
  330
1D
  100
AcDbEntity
  8
0
  6
ByLayer
  62
256
  48
1.0
  60
0
  67
0
  370
9
  100
AcDbText
  39
0.0
  10
5.3125
  20
9.4375
  30
0.0
  40
0.09375
  1
AVP / AV-1
  50
0.0
  41
1.0
  51
0.0
  7
Standard
  71
0
  72
1
  11
5.3125
  21
9.4375
  31
0.0
  210
0.0
  220
0.0
  230
1.0
  100
AcDbText
  73
2
  0
TEXT
  5
39E
  330
1D
  100
AcDbEntity
  8
0
  6
ByLayer
  62
256
  48
1.0
  60
0
  67
0
  370
9
  100
AcDbText
  39
0.0
  10
5.3125
  20
9.208333333333334
  30
0.0
  40
0.09375
  1
AV PLATE
  50
0.0
  41
1.0
  51
0.0
  7
Standard
  71
0
  72
1
  11
5.3125
  21
9.208333333333334
  31
0.0
  210
0.0
  220
0.0
  230
1.0
  100
AcDbText
  73
2
  0
TEXT
  5
39F
  330
1D
  100
AcDbEntity
  8
0
  6
ByLayer
  62
256
  48
1.0
  60
0
  67
0
  370
9
  100
AcDbText
  39
0.0
  10
5.3125
  20
8.895833333333334
  30
0.0
  40
0.06944444444444445
  1
INPUTS
  50
0.0
  41
1.0
  51
0.0
  7
Standard
  71
0
  72
1
  11
5.3125
  21
8.895833333333334
  31
0.0
  210
0.0
  220
0.0
  230
1.0
  100
AcDbText
  73
2
  0
TEXT
  5
3A0
  330
1D
  100
AcDbEntity
  8
0
  6
ByLayer
  62
256
  48
1.0
  60
0
  67
0
  370
9
  100
AcDbText
  39
0.0
  10
4.871527777777778
  20
8.770833333333334
  30
0.0
  40
0.06944444444444445
  1
1
  50
0.0
  41
1.0
  51
0.0
  7
Standard
  71
0
  72
0
  11
4.871527777777778
  21
8.770833333333334
  31
0.0
  210
0.0
  220
0.0
  230
1.0
  100
AcDbText
  73
2
  0
TEXT
  5
3A1
  330
1D
  100
AcDbEntity
  8
0
  6
ByLayer
  62
256
  48
1.0
  60
0
  67
0
  370
9
  100
AcDbText
  39
0.0
  10
4.871527777777778
  20
8.645833333333334
  30
0.0
  40
0.06944444444444445
  1
2
  50
0.0
  41
1.0
  51
0.0
  7
Standard
  71
0
  72
0
  11
4.871527777777778
  21
8.645833333333334
  31
0.0
  210
0.0
  220
0.0
  230
1.0
  100
AcDbText
  73
2
  0
TEXT
  5
3A2
  330
1D
  100
AcDbEntity
  8
0
  6
ByLayer
  62
256
  48
1.0
  60
0
  67
0
  370
9
  100
AcDbText
  39
0.0
  10
5.3125
  20
8.395833333333334
  30
0.0
  40
0.06944444444444445
  1
OUTPUTS
  50
0.0
  41
1.0
  51
0.0
  7
Standard
  71
0
  72
1
  11
5.3125
  21
8.395833333333334
  31
0.0
  210
0.0
  220
0.0
  230
1.0
  100
AcDbText
  73
2
  0
TEXT
  5
3A3
  330
1D
  100
AcDbEntity
  8
0
  6
ByLayer
  62
256
  48
1.0
  60
0
  67
0
  370
9
  100
AcDbText
  39
0.0
  10
5.753472222222222
  20
8.270833333333334
  30
0.0
  40
0.06944444444444445
  1
1
  50
0.0
  41
1.0
  51
0.0
  7
Standard
  71
0
  72
2
  11
5.753472222222222
  21
8.270833333333334
  31
0.0
  210
0.0
  220
0.0
  230
1.0
  100
AcDbText
  73
2
  0
TEXT
  5
3A4
  330
1D
  100
AcDbEntity
  8
0
  6
ByLayer
  62
256
  48
1.0
  60
0
  67
0
  370
9
  100
AcDbText
  39
0.0
  10
16.51388888888889
  20
11.88888888888889
  30
0.0
  40
0.09375
  1
SPK 1
  50
0.0
  41
1.0
  51
0.0
  7
Standard
  71
0
  72
0
  11
16.51388888888889
  21
11.88888888888889
  31
0.0
  210
0.0
  220
0.0
  230
1.0
  100
AcDbText
  73
2
  0
TEXT
  5
3A5
  330
1D
  100
AcDbEntity
  8
0
  6
ByLayer
  62
256
  48
1.0
  60
0
  67
0
  370
9
  100
AcDbText
  39
0.0
  10
16.51388888888889
  20
11.791666666666668
  30
0.0
  40
0.06944444444444445
  1
MAIN BLEACHERS
  50
0.0
  41
1.0
  51
0.0
  7
Standard
  71
0
  72
0
  11
16.51388888888889
  21
11.791666666666668
  31
0.0
  210
0.0
  220
0.0
  230
1.0
  100
AcDbText
  73
2
  0
TEXT
  5
3A6
  330
1D
  100
AcDbEntity
  8
0
  6
ByLayer
  62
256
  48
1.0
  60
0
  67
0
  370
9
  100
AcDbText
  39
0.0
  10
17.555555555555554
  20
11.88888888888889
  30
0.0
  40
0.09375
  1
SPK 1
  50
0.0
  41
1.0
  51
0.0
  7
Standard
  71
0
  72
0
  11
17.555555555555554
  21
11.88888888888889
  31
0.0
  210
0.0
  220
0.0
  230
1.0
  100
AcDbText
  73
2
  0
TEXT
  5
3A7
  330
1D
  100
AcDbEntity
  8
0
  6
ByLayer
  62
256
  48
1.0
  60
0
  67
0
  370
9
  100
AcDbText
  39
0.0
  10
17.555555555555554
  20
11.791666666666668
  30
0.0
  40
0.06944444444444445
  1
MAIN BLEACHERS
  50
0.0
  41
1.0
  51
0.0
  7
Standard
  71
0
  72
0
  11
17.555555555555554
  21
11.791666666666668
  31
0.0
  210
0.0
  220
0.0
  230
1.0
  100
AcDbText
  73
2
  0
TEXT
  5
3A8
  330
1D
  100
AcDbEntity
  8
0
  6
ByLayer
  62
256
  48
1.0
  60
0
  67
0
  370
9
  100
AcDbText
  39
0.0
  10
18.59722222222222
  20
11.88888888888889
  30
0.0
  40
0.09375
  1
SPK 1
  50
0.0
  41
1.0
  51
0.0
  7
Standard
  71
0
  72
0
  11
18.59722222222222
  21
11.88888888888889
  31
0.0
  210
0.0
  220
0.0
  230
1.0
  100
AcDbText
  73
2
  0
TEXT
  5
3A9
  330
1D
  100
AcDbEntity
  8
0
  6
ByLayer
  62
256
  48
1.0
  60
0
  67
0
  370
9
  100
AcDbText
  39
0.0
  10
18.59722222222222
  20
11.791666666666668
  30
0.0
  40
0.06944444444444445
  1
MAIN BLEACHERS
  50
0.0
  41
1.0
  51
0.0
  7
Standard
  71
0
  72
0
  11
18.59722222222222
  21
11.791666666666668
  31
0.0
  210
0.0
  220
0.0
  230
1.0
  100
AcDbText
  73
2
  0
TEXT
  5
3AA
  330
1D
  100
AcDbEntity
  8
0
  6
ByLayer
  62
256
  48
1.0
  60
0
  67
0
  370
9
  100
AcDbText
  39
0.0
  10
15.48611111111111
  20
11.305555555555555
  30
0.0
  40
0.09375
  1
SPK 1
  50
0.0
  41
1.0
  51
0.0
  7
Standard
  71
0
  72
0
  11
15.48611111111111
  21
11.305555555555555
  31
0.0
  210
0.0
  220
0.0
  230
1.0
  100
AcDbText
  73
2
  0
TEXT
  5
3AB
  330
1D
  100
AcDbEntity
  8
0
  6
ByLayer
  62
256
  48
1.0
  60
0
  67
0
  370
9
  100
AcDbText
  39
0.0
  10
15.48611111111111
  20
11.208333333333334
  30
0.0
  40
0.06944444444444445
  1
MAIN BLEACHERS
  50
0.0
  41
1.0
  51
0.0
  7
Standard
  71
0
  72
0
  11
15.48611111111111
  21
11.208333333333334
  31
0.0
  210
0.0
  220
0.0
  230
1.0
  100
AcDbText
  73
2
  0
TEXT
  5
3AC
  330
1D
  100
AcDbEntity
  8
0
  6
ByLayer
  62
256
  48
1.0
  60
0
  67
0
  370
9
  100
AcDbText
  39
0.0
  10
16.52777777777778
  20
11.305555555555555
  30
0.0
  40
0.09375
  1
SPK 1
  50
0.0
  41
1.0
  51
0.0
  7
Standard
  71
0
  72
0
  11
16.52777777777778
  21
11.305555555555555
  31
0.0
  210
0.0
  220
0.0
  230
1.0
  100
AcDbText
  73
2
  0
TEXT
  5
3AD
  330
1D
  100
AcDbEntity
  8
0
  6
ByLayer
  62
256
  48
1.0
  60
0
  67
0
  370
9
  100
AcDbText
  39
0.0
  10
16.52777777777778
  20
11.208333333333334
  30
0.0
  40
0.06944444444444445
  1
MAIN BLEACHERS
  50
0.0
  41
1.0
  51
0.0
  7
Standard
  71
0
  72
0
  11
16.52777777777778
  21
11.208333333333334
  31
0.0
  210
0.0
  220
0.0
  230
1.0
  100
AcDbText
  73
2
  0
TEXT
  5
3AE
  330
1D
  100
AcDbEntity
  8
0
  6
ByLayer
  62
256
  48
1.0
  60
0
  67
0
  370
9
  100
AcDbText
  39
0.0
  10
17.569444444444443
  20
11.305555555555555
  30
0.0
  40
0.09375
  1
SPK 1
  50
0.0
  41
1.0
  51
0.0
  7
Standard
  71
0
  72
0
  11
17.569444444444443
  21
11.305555555555555
  31
0.0
  210
0.0
  220
0.0
  230
1.0
  100
AcDbText
  73
2
  0
TEXT
  5
3AF
  330
1D
  100
AcDbEntity
  8
0
  6
ByLayer
  62
256
  48
1.0
  60
0
  67
0
  370
9
  100
AcDbText
  39
0.0
  10
17.569444444444443
  20
11.208333333333334
  30
0.0
  40
0.06944444444444445
  1
MAIN BLEACHERS
  50
0.0
  41
1.0
  51
0.0
  7
Standard
  71
0
  72
0
  11
17.569444444444443
  21
11.208333333333334
  31
0.0
  210
0.0
  220
0.0
  230
1.0
  100
AcDbText
  73
2
  0
TEXT
  5
3B0
  330
1D
  100
AcDbEntity
  8
0
  6
ByLayer
  62
256
  48
1.0
  60
0
  67
0
  370
9
  100
AcDbText
  39
0.0
  10
18.61111111111111
  20
11.305555555555555
  30
0.0
  40
0.09375
  1
SPK 1
  50
0.0
  41
1.0
  51
0.0
  7
Standard
  71
0
  72
0
  11
18.61111111111111
  21
11.305555555555555
  31
0.0
  210
0.0
  220
0.0
  230
1.0
  100
AcDbText
  73
2
  0
TEXT
  5
3B1
  330
1D
  100
AcDbEntity
  8
0
  6
ByLayer
  62
256
  48
1.0
  60
0
  67
0
  370
9
  100
AcDbText
  39
0.0
  10
18.61111111111111
  20
11.208333333333334
  30
0.0
  40
0.06944444444444445
  1
MAIN BLEACHERS
  50
0.0
  41
1.0
  51
0.0
  7
Standard
  71
0
  72
0
  11
18.61111111111111
  21
11.208333333333334
  31
0.0
  210
0.0
  220
0.0
  230
1.0
  100
AcDbText
  73
2
  0
TEXT
  5
3B2
  330
1D
  100
AcDbEntity
  8
0
  6
ByLayer
  62
256
  48
1.0
  60
0
  67
0
  370
9
  100
AcDbText
  39
0.0
  10
15.513888888888888
  20
10.722222222222221
  30
0.0
  40
0.09375
  1
SPK 2
  50
0.0
  41
1.0
  51
0.0
  7
Standard
  71
0
  72
0
  11
15.513888888888888
  21
10.722222222222221
  31
0.0
  210
0.0
  220
0.0
  230
1.0
  100
AcDbText
  73
2
  0
TEXT
  5
3B3
  330
1D
  100
AcDbEntity
  8
0
  6
ByLayer
  62
256
  48
1.0
  60
0
  67
0
  370
9
  100
AcDbText
  39
0.0
  10
15.513888888888888
  20
10.625
  30
0.0
  40
0.06944444444444445
  1
COURT COVERAGE
  50
0.0
  41
1.0
  51
0.0
  7
Standard
  71
0
  72
0
  11
15.513888888888888
  21
10.625
  31
0.0
  210
0.0
  220
0.0
  230
1.0
  100
AcDbText
  73
2
  0
TEXT
  5
3B4
  330
1D
  100
AcDbEntity
  8
0
  6
ByLayer
  62
256
  48
1.0
  60
0
  67
0
  370
9
  100
AcDbText
  39
0.0
  10
16.555555555555554
  20
10.722222222222221
  30
0.0
  40
0.09375
  1
SPK 2
  50
0.0
  41
1.0
  51
0.0
  7
Standard
  71
0
  72
0
  11
16.555555555555554
  21
10.722222222222221
  31
0.0
  210
0.0
  220
0.0
  230
1.0
  100
AcDbText
  73
2
  0
TEXT
  5
3B5
  330
1D
  100
AcDbEntity
  8
0
  6
ByLayer
  62
256
  48
1.0
  60
0
  67
0
  370
9
  100
AcDbText
  39
0.0
  10
16.555555555555554
  20
10.625
  30
0.0
  40
0.06944444444444445
  1
COURT COVERAGE
  50
0.0
  41
1.0
  51
0.0
  7
Standard
  71
0
  72
0
  11
16.555555555555554
  21
10.625
  31
0.0
  210
0.0
  220
0.0
  230
1.0
  100
AcDbText
  73
2
  0
TEXT
  5
3B6
  330
1D
  100
AcDbEntity
  8
0
  6
ByLayer
  62
256
  48
1.0
  60
0
  67
0
  370
9
  100
AcDbText
  39
0.0
  10
17.59722222222222
  20
10.722222222222221
  30
0.0
  40
0.09375
  1
SPK 2
  50
0.0
  41
1.0
  51
0.0
  7
Standard
  71
0
  72
0
  11
17.59722222222222
  21
10.722222222222221
  31
0.0
  210
0.0
  220
0.0
  230
1.0
  100
AcDbText
  73
2
  0
TEXT
  5
3B7
  330
1D
  100
AcDbEntity
  8
0
  6
ByLayer
  62
256
  48
1.0
  60
0
  67
0
  370
9
  100
AcDbText
  39
0.0
  10
17.59722222222222
  20
10.625
  30
0.0
  40
0.06944444444444445
  1
COURT COVERAGE
  50
0.0
  41
1.0
  51
0.0
  7
Standard
  71
0
  72
0
  11
17.59722222222222
  21
10.625
  31
0.0
  210
0.0
  220
0.0
  230
1.0
  100
AcDbText
  73
2
  0
TEXT
  5
3B8
  330
1D
  100
AcDbEntity
  8
0
  6
ByLayer
  62
256
  48
1.0
  60
0
  67
0
  370
9
  100
AcDbText
  39
0.0
  10
18.63888888888889
  20
10.722222222222221
  30
0.0
  40
0.09375
  1
SPK 2
  50
0.0
  41
1.0
  51
0.0
  7
Standard
  71
0
  72
0
  11
18.63888888888889
  21
10.722222222222221
  31
0.0
  210
0.0
  220
0.0
  230
1.0
  100
AcDbText
  73
2
  0
TEXT
  5
3B9
  330
1D
  100
AcDbEntity
  8
0
  6
ByLayer
  62
256
  48
1.0
  60
0
  67
0
  370
9
  100
AcDbText
  39
0.0
  10
18.63888888888889
  20
10.625
  30
0.0
  40
0.06944444444444445
  1
COURT COVERAGE
  50
0.0
  41
1.0
  51
0.0
  7
Standard
  71
0
  72
0
  11
18.63888888888889
  21
10.625
  31
0.0
  210
0.0
  220
0.0
  230
1.0
  100
AcDbText
  73
2
  0
TEXT
  5
3BA
  330
1D
  100
AcDbEntity
  8
0
  6
ByLayer
  62
256
  48
1.0
  60
0
  67
0
  370
9
  100
AcDbText
  39
0.0
  10
7.791666666666666
  20
12.229166666666666
  30
0.0
  40
0.09375
  1
MIX / 1
  50
0.0
  41
1.0
  51
0.0
  7
Standard
  71
0
  72
1
  11
7.791666666666666
  21
12.229166666666666
  31
0.0
  210
0.0
  220
0.0
  230
1.0
  100
AcDbText
  73
2
  0
TEXT
  5
3BB
  330
1D
  100
AcDbEntity
  8
0
  6
ByLayer
  62
256
  48
1.0
  60
0
  67
0
  370
9
  100
AcDbText
  39
0.0
  10
7.791666666666666
  20
12.0
  30
0.0
  40
0.09375
  1
RACK MOUNT MIXER
  50
0.0
  41
1.0
  51
0.0
  7
Standard
  71
0
  72
1
  11
7.791666666666666
  21
12.0
  31
0.0
  210
0.0
  220
0.0
  230
1.0
  100
AcDbText
  73
2
  0
TEXT
  5
3BC
  330
1D
  100
AcDbEntity
  8
0
  6
ByLayer
  62
256
  48
1.0
  60
0
  67
0
  370
9
  100
AcDbText
  39
0.0
  10
6.975694444444444
  20
11.6875
  30
0.0
  40
0.06944444444444445
  1
INPUT
  50
0.0
  41
1.0
  51
0.0
  7
Standard
  71
0
  72
0
  11
6.975694444444444
  21
11.6875
  31
0.0
  210
0.0
  220
0.0
  230
1.0
  100
AcDbText
  73
2
  0
TEXT
  5
3BD
  330
1D
  100
AcDbEntity
  8
0
  6
ByLayer
  62
256
  48
1.0
  60
0
  67
0
  370
9
  100
AcDbText
  39
0.0
  10
8.60763888888889
  20
11.6875
  30
0.0
  40
0.06944444444444445
  1
OUTPUT
  50
0.0
  41
1.0
  51
0.0
  7
Standard
  71
0
  72
2
  11
8.60763888888889
  21
11.6875
  31
0.0
  210
0.0
  220
0.0
  230
1.0
  100
AcDbText
  73
2
  0
TEXT
  5
3BE
  330
1D
  100
AcDbEntity
  8
0
  6
ByLayer
  62
256
  48
1.0
  60
0
  67
0
  370
9
  100
AcDbText
  39
0.0
  10
6.975694444444444
  20
11.5625
  30
0.0
  40
0.06944444444444445
  1
1
  50
0.0
  41
1.0
  51
0.0
  7
Standard
  71
0
  72
0
  11
6.975694444444444
  21
11.5625
  31
0.0
  210
0.0
  220
0.0
  230
1.0
  100
AcDbText
  73
2
  0
TEXT
  5
3BF
  330
1D
  100
AcDbEntity
  8
0
  6
ByLayer
  62
256
  48
1.0
  60
0
  67
0
  370
9
  100
AcDbText
  39
0.0
  10
8.60763888888889
  20
11.5625
  30
0.0
  40
0.06944444444444445
  1
1
  50
0.0
  41
1.0
  51
0.0
  7
Standard
  71
0
  72
2
  11
8.60763888888889
  21
11.5625
  31
0.0
  210
0.0
  220
0.0
  230
1.0
  100
AcDbText
  73
2
  0
TEXT
  5
3C0
  330
1D
  100
AcDbEntity
  8
0
  6
ByLayer
  62
256
  48
1.0
  60
0
  67
0
  370
9
  100
AcDbText
  39
0.0
  10
6.975694444444444
  20
11.4375
  30
0.0
  40
0.06944444444444445
  1
2
  50
0.0
  41
1.0
  51
0.0
  7
Standard
  71
0
  72
0
  11
6.975694444444444
  21
11.4375
  31
0.0
  210
0.0
  220
0.0
  230
1.0
  100
AcDbText
  73
2
  0
TEXT
  5
3C1
  330
1D
  100
AcDbEntity
  8
0
  6
ByLayer
  62
256
  48
1.0
  60
0
  67
0
  370
9
  100
AcDbText
  39
0.0
  10
8.60763888888889
  20
11.4375
  30
0.0
  40
0.06944444444444445
  1
2
  50
0.0
  41
1.0
  51
0.0
  7
Standard
  71
0
  72
2
  11
8.60763888888889
  21
11.4375
  31
0.0
  210
0.0
  220
0.0
  230
1.0
  100
AcDbText
  73
2
  0
TEXT
  5
3C2
  330
1D
  100
AcDbEntity
  8
0
  6
ByLayer
  62
256
  48
1.0
  60
0
  67
0
  370
9
  100
AcDbText
  39
0.0
  10
6.975694444444444
  20
11.3125
  30
0.0
  40
0.06944444444444445
  1
3
  50
0.0
  41
1.0
  51
0.0
  7
Standard
  71
0
  72
0
  11
6.975694444444444
  21
11.3125
  31
0.0
  210
0.0
  220
0.0
  230
1.0
  100
AcDbText
  73
2
  0
TEXT
  5
3C3
  330
1D
  100
AcDbEntity
  8
0
  6
ByLayer
  62
256
  48
1.0
  60
0
  67
0
  370
9
  100
AcDbText
  39
0.0
  10
8.60763888888889
  20
11.3125
  30
0.0
  40
0.06944444444444445
  1
3
  50
0.0
  41
1.0
  51
0.0
  7
Standard
  71
0
  72
2
  11
8.60763888888889
  21
11.3125
  31
0.0
  210
0.0
  220
0.0
  230
1.0
  100
AcDbText
  73
2
  0
TEXT
  5
3C4
  330
1D
  100
AcDbEntity
  8
0
  6
ByLayer
  62
256
  48
1.0
  60
0
  67
0
  370
9
  100
AcDbText
  39
0.0
  10
6.975694444444444
  20
11.1875
  30
0.0
  40
0.06944444444444445
  1
4
  50
0.0
  41
1.0
  51
0.0
  7
Standard
  71
0
  72
0
  11
6.975694444444444
  21
11.1875
  31
0.0
  210
0.0
  220
0.0
  230
1.0
  100
AcDbText
  73
2
  0
TEXT
  5
3C5
  330
1D
  100
AcDbEntity
  8
0
  6
ByLayer
  62
256
  48
1.0
  60
0
  67
0
  370
9
  100
AcDbText
  39
0.0
  10
8.60763888888889
  20
11.1875
  30
0.0
  40
0.06944444444444445
  1
4
  50
0.0
  41
1.0
  51
0.0
  7
Standard
  71
0
  72
2
  11
8.60763888888889
  21
11.1875
  31
0.0
  210
0.0
  220
0.0
  230
1.0
  100
AcDbText
  73
2
  0
TEXT
  5
3C6
  330
1D
  100
AcDbEntity
  8
0
  6
ByLayer
  62
256
  48
1.0
  60
0
  67
0
  370
9
  100
AcDbText
  39
0.0
  10
6.975694444444444
  20
11.0625
  30
0.0
  40
0.06944444444444445
  1
5
  50
0.0
  41
1.0
  51
0.0
  7
Standard
  71
0
  72
0
  11
6.975694444444444
  21
11.0625
  31
0.0
  210
0.0
  220
0.0
  230
1.0
  100
AcDbText
  73
2
  0
TEXT
  5
3C7
  330
1D
  100
AcDbEntity
  8
0
  6
ByLayer
  62
256
  48
1.0
  60
0
  67
0
  370
9
  100
AcDbText
  39
0.0
  10
8.60763888888889
  20
11.0625
  30
0.0
  40
0.06944444444444445
  1
5
  50
0.0
  41
1.0
  51
0.0
  7
Standard
  71
0
  72
2
  11
8.60763888888889
  21
11.0625
  31
0.0
  210
0.0
  220
0.0
  230
1.0
  100
AcDbText
  73
2
  0
TEXT
  5
3C8
  330
1D
  100
AcDbEntity
  8
0
  6
ByLayer
  62
256
  48
1.0
  60
0
  67
0
  370
9
  100
AcDbText
  39
0.0
  10
6.975694444444444
  20
10.9375
  30
0.0
  40
0.06944444444444445
  1
6
  50
0.0
  41
1.0
  51
0.0
  7
Standard
  71
0
  72
0
  11
6.975694444444444
  21
10.9375
  31
0.0
  210
0.0
  220
0.0
  230
1.0
  100
AcDbText
  73
2
  0
TEXT
  5
3C9
  330
1D
  100
AcDbEntity
  8
0
  6
ByLayer
  62
256
  48
1.0
  60
0
  67
0
  370
9
  100
AcDbText
  39
0.0
  10
8.60763888888889
  20
10.9375
  30
0.0
  40
0.06944444444444445
  1
6
  50
0.0
  41
1.0
  51
0.0
  7
Standard
  71
0
  72
2
  11
8.60763888888889
  21
10.9375
  31
0.0
  210
0.0
  220
0.0
  230
1.0
  100
AcDbText
  73
2
  0
TEXT
  5
3CA
  330
1D
  100
AcDbEntity
  8
0
  6
ByLayer
  62
256
  48
1.0
  60
0
  67
0
  370
9
  100
AcDbText
  39
0.0
  10
6.975694444444444
  20
10.8125
  30
0.0
  40
0.06944444444444445
  1
7
  50
0.0
  41
1.0
  51
0.0
  7
Standard
  71
0
  72
0
  11
6.975694444444444
  21
10.8125
  31
0.0
  210
0.0
  220
0.0
  230
1.0
  100
AcDbText
  73
2
  0
TEXT
  5
3CB
  330
1D
  100
AcDbEntity
  8
0
  6
ByLayer
  62
256
  48
1.0
  60
0
  67
0
  370
9
  100
AcDbText
  39
0.0
  10
8.60763888888889
  20
10.8125
  30
0.0
  40
0.06944444444444445
  1
7
  50
0.0
  41
1.0
  51
0.0
  7
Standard
  71
0
  72
2
  11
8.60763888888889
  21
10.8125
  31
0.0
  210
0.0
  220
0.0
  230
1.0
  100
AcDbText
  73
2
  0
TEXT
  5
3CC
  330
1D
  100
AcDbEntity
  8
0
  6
ByLayer
  62
256
  48
1.0
  60
0
  67
0
  370
9
  100
AcDbText
  39
0.0
  10
6.975694444444444
  20
10.6875
  30
0.0
  40
0.06944444444444445
  1
8
  50
0.0
  41
1.0
  51
0.0
  7
Standard
  71
0
  72
0
  11
6.975694444444444
  21
10.6875
  31
0.0
  210
0.0
  220
0.0
  230
1.0
  100
AcDbText
  73
2
  0
TEXT
  5
3CD
  330
1D
  100
AcDbEntity
  8
0
  6
ByLayer
  62
256
  48
1.0
  60
0
  67
0
  370
9
  100
AcDbText
  39
0.0
  10
8.60763888888889
  20
10.6875
  30
0.0
  40
0.06944444444444445
  1
8
  50
0.0
  41
1.0
  51
0.0
  7
Standard
  71
0
  72
2
  11
8.60763888888889
  21
10.6875
  31
0.0
  210
0.0
  220
0.0
  230
1.0
  100
AcDbText
  73
2
  0
TEXT
  5
3CE
  330
1D
  100
AcDbEntity
  8
0
  6
ByLayer
  62
256
  48
1.0
  60
0
  67
0
  370
9
  100
AcDbText
  39
0.0
  10
6.975694444444444
  20
10.5625
  30
0.0
  40
0.06944444444444445
  1
9
  50
0.0
  41
1.0
  51
0.0
  7
Standard
  71
0
  72
0
  11
6.975694444444444
  21
10.5625
  31
0.0
  210
0.0
  220
0.0
  230
1.0
  100
AcDbText
  73
2
  0
TEXT
  5
3CF
  330
1D
  100
AcDbEntity
  8
0
  6
ByLayer
  62
256
  48
1.0
  60
0
  67
0
  370
9
  100
AcDbText
  39
0.0
  10
8.60763888888889
  20
10.5625
  30
0.0
  40
0.06944444444444445
  1
9
  50
0.0
  41
1.0
  51
0.0
  7
Standard
  71
0
  72
2
  11
8.60763888888889
  21
10.5625
  31
0.0
  210
0.0
  220
0.0
  230
1.0
  100
AcDbText
  73
2
  0
TEXT
  5
3D0
  330
1D
  100
AcDbEntity
  8
0
  6
ByLayer
  62
256
  48
1.0
  60
0
  67
0
  370
9
  100
AcDbText
  39
0.0
  10
6.975694444444444
  20
10.4375
  30
0.0
  40
0.06944444444444445
  1
10
  50
0.0
  41
1.0
  51
0.0
  7
Standard
  71
0
  72
0
  11
6.975694444444444
  21
10.4375
  31
0.0
  210
0.0
  220
0.0
  230
1.0
  100
AcDbText
  73
2
  0
TEXT
  5
3D1
  330
1D
  100
AcDbEntity
  8
0
  6
ByLayer
  62
256
  48
1.0
  60
0
  67
0
  370
9
  100
AcDbText
  39
0.0
  10
8.60763888888889
  20
10.4375
  30
0.0
  40
0.06944444444444445
  1
10
  50
0.0
  41
1.0
  51
0.0
  7
Standard
  71
0
  72
2
  11
8.60763888888889
  21
10.4375
  31
0.0
  210
0.0
  220
0.0
  230
1.0
  100
AcDbText
  73
2
  0
TEXT
  5
3D2
  330
1D
  100
AcDbEntity
  8
0
  6
ByLayer
  62
256
  48
1.0
  60
0
  67
0
  370
9
  100
AcDbText
  39
0.0
  10
6.975694444444444
  20
10.3125
  30
0.0
  40
0.06944444444444445
  1
11
  50
0.0
  41
1.0
  51
0.0
  7
Standard
  71
0
  72
0
  11
6.975694444444444
  21
10.3125
  31
0.0
  210
0.0
  220
0.0
  230
1.0
  100
AcDbText
  73
2
  0
TEXT
  5
3D3
  330
1D
  100
AcDbEntity
  8
0
  6
ByLayer
  62
256
  48
1.0
  60
0
  67
0
  370
9
  100
AcDbText
  39
0.0
  10
6.975694444444444
  20
10.1875
  30
0.0
  40
0.06944444444444445
  1
12
  50
0.0
  41
1.0
  51
0.0
  7
Standard
  71
0
  72
0
  11
6.975694444444444
  21
10.1875
  31
0.0
  210
0.0
  220
0.0
  230
1.0
  100
AcDbText
  73
2
  0
TEXT
  5
3D4
  330
1D
  100
AcDbEntity
  8
0
  6
ByLayer
  62
256
  48
1.0
  60
0
  67
0
  370
9
  100
AcDbText
  39
0.0
  10
8.60763888888889
  20
10.1875
  30
0.0
  40
0.06944444444444445
  1
NETWORK
  50
0.0
  41
1.0
  51
0.0
  7
Standard
  71
0
  72
2
  11
8.60763888888889
  21
10.1875
  31
0.0
  210
0.0
  220
0.0
  230
1.0
  100
AcDbText
  73
2
  0
TEXT
  5
3D5
  330
1D
  100
AcDbEntity
  8
0
  6
ByLayer
  62
256
  48
1.0
  60
0
  67
0
  370
9
  100
AcDbText
  39
0.0
  10
6.975694444444444
  20
10.0625
  30
0.0
  40
0.06944444444444445
  1
13
  50
0.0
  41
1.0
  51
0.0
  7
Standard
  71
0
  72
0
  11
6.975694444444444
  21
10.0625
  31
0.0
  210
0.0
  220
0.0
  230
1.0
  100
AcDbText
  73
2
  0
TEXT
  5
3D6
  330
1D
  100
AcDbEntity
  8
0
  6
ByLayer
  62
256
  48
1.0
  60
0
  67
0
  370
9
  100
AcDbText
  39
0.0
  10
8.60763888888889
  20
10.0625
  30
0.0
  40
0.06944444444444445
  1
LAN
  50
0.0
  41
1.0
  51
0.0
  7
Standard
  71
0
  72
2
  11
8.60763888888889
  21
10.0625
  31
0.0
  210
0.0
  220
0.0
  230
1.0
  100
AcDbText
  73
2
  0
TEXT
  5
3D7
  330
1D
  100
AcDbEntity
  8
0
  6
ByLayer
  62
256
  48
1.0
  60
0
  67
0
  370
9
  100
AcDbText
  39
0.0
  10
6.975694444444444
  20
9.9375
  30
0.0
  40
0.06944444444444445
  1
14
  50
0.0
  41
1.0
  51
0.0
  7
Standard
  71
0
  72
0
  11
6.975694444444444
  21
9.9375
  31
0.0
  210
0.0
  220
0.0
  230
1.0
  100
AcDbText
  73
2
  0
TEXT
  5
3D8
  330
1D
  100
AcDbEntity
  8
0
  6
ByLayer
  62
256
  48
1.0
  60
0
  67
0
  370
9
  100
AcDbText
  39
0.0
  10
8.791666666666666
  20
11.0
  30
0.0
  40
0.08333333333333333
  1
10
  50
0.0
  41
1.0
  51
0.0
  7
Standard
  71
0
  72
1
  11
8.791666666666666
  21
11.0
  31
0.0
  210
0.0
  220
0.0
  230
1.0
  100
AcDbText
  73
2
  0
TEXT
  5
3D9
  330
1D
  100
AcDbEntity
  8
0
  6
ByLayer
  62
256
  48
1.0
  60
0
  67
0
  370
9
  100
AcDbText
  39
0.0
  10
5.354166666666666
  20
4.520833333333334
  30
0.0
  40
0.09375
  1
FB / AV-2
  50
0.0
  41
1.0
  51
0.0
  7
Standard
  71
0
  72
1
  11
5.354166666666666
  21
4.520833333333334
  31
0.0
  210
0.0
  220
0.0
  230
1.0
  100
AcDbText
  73
2
  0
TEXT
  5
3DA
  330
1D
  100
AcDbEntity
  8
0
  6
ByLayer
  62
256
  48
1.0
  60
0
  67
0
  370
9
  100
AcDbText
  39
0.0
  10
5.354166666666666
  20
4.291666666666668
  30
0.0
  40
0.09375
  1
FLOOR BOX
  50
0.0
  41
1.0
  51
0.0
  7
Standard
  71
0
  72
1
  11
5.354166666666666
  21
4.291666666666668
  31
0.0
  210
0.0
  220
0.0
  230
1.0
  100
AcDbText
  73
2
  0
TEXT
  5
3DB
  330
1D
  100
AcDbEntity
  8
0
  6
ByLayer
  62
256
  48
1.0
  60
0
  67
0
  370
9
  100
AcDbText
  39
0.0
  10
5.354166666666666
  20
3.979166666666668
  30
0.0
  40
0.06944444444444445
  1
INPUTS
  50
0.0
  41
1.0
  51
0.0
  7
Standard
  71
0
  72
1
  11
5.354166666666666
  21
3.979166666666668
  31
0.0
  210
0.0
  220
0.0
  230
1.0
  100
AcDbText
  73
2
  0
TEXT
  5
3DC
  330
1D
  100
AcDbEntity
  8
0
  6
ByLayer
  62
256
  48
1.0
  60
0
  67
0
  370
9
  100
AcDbText
  39
0.0
  10
4.913194444444444
  20
3.854166666666668
  30
0.0
  40
0.06944444444444445
  1
1
  50
0.0
  41
1.0
  51
0.0
  7
Standard
  71
0
  72
0
  11
4.913194444444444
  21
3.854166666666668
  31
0.0
  210
0.0
  220
0.0
  230
1.0
  100
AcDbText
  73
2
  0
TEXT
  5
3DD
  330
1D
  100
AcDbEntity
  8
0
  6
ByLayer
  62
256
  48
1.0
  60
0
  67
0
  370
9
  100
AcDbText
  39
0.0
  10
4.913194444444444
  20
3.729166666666668
  30
0.0
  40
0.06944444444444445
  1
2
  50
0.0
  41
1.0
  51
0.0
  7
Standard
  71
0
  72
0
  11
4.913194444444444
  21
3.729166666666668
  31
0.0
  210
0.0
  220
0.0
  230
1.0
  100
AcDbText
  73
2
  0
TEXT
  5
3DE
  330
1D
  100
AcDbEntity
  8
0
  6
ByLayer
  62
256
  48
1.0
  60
0
  67
0
  370
9
  100
AcDbText
  39
0.0
  10
5.354166666666666
  20
3.479166666666668
  30
0.0
  40
0.06944444444444445
  1
OUTPUTS
  50
0.0
  41
1.0
  51
0.0
  7
Standard
  71
0
  72
1
  11
5.354166666666666
  21
3.479166666666668
  31
0.0
  210
0.0
  220
0.0
  230
1.0
  100
AcDbText
  73
2
  0
TEXT
  5
3DF
  330
1D
  100
AcDbEntity
  8
0
  6
ByLayer
  62
256
  48
1.0
  60
0
  67
0
  370
9
  100
AcDbText
  39
0.0
  10
5.795138888888888
  20
3.354166666666668
  30
0.0
  40
0.06944444444444445
  1
1
  50
0.0
  41
1.0
  51
0.0
  7
Standard
  71
0
  72
2
  11
5.795138888888888
  21
3.354166666666668
  31
0.0
  210
0.0
  220
0.0
  230
1.0
  100
AcDbText
  73
2
  0
TEXT
  5
3E0
  330
1D
  100
AcDbEntity
  8
0
  6
ByLayer
  62
256
  48
1.0
  60
0
  67
0
  370
9
  100
AcDbText
  39
0.0
  10
5.354166666666666
  20
2.895833333333334
  30
0.0
  40
0.09375
  1
FB / AV-2
  50
0.0
  41
1.0
  51
0.0
  7
Standard
  71
0
  72
1
  11
5.354166666666666
  21
2.895833333333334
  31
0.0
  210
0.0
  220
0.0
  230
1.0
  100
AcDbText
  73
2
  0
TEXT
  5
3E1
  330
1D
  100
AcDbEntity
  8
0
  6
ByLayer
  62
256
  48
1.0
  60
0
  67
0
  370
9
  100
AcDbText
  39
0.0
  10
5.354166666666666
  20
2.666666666666668
  30
0.0
  40
0.09375
  1
FLOOR BOX
  50
0.0
  41
1.0
  51
0.0
  7
Standard
  71
0
  72
1
  11
5.354166666666666
  21
2.666666666666668
  31
0.0
  210
0.0
  220
0.0
  230
1.0
  100
AcDbText
  73
2
  0
TEXT
  5
3E2
  330
1D
  100
AcDbEntity
  8
0
  6
ByLayer
  62
256
  48
1.0
  60
0
  67
0
  370
9
  100
AcDbText
  39
0.0
  10
5.354166666666666
  20
2.354166666666668
  30
0.0
  40
0.06944444444444445
  1
INPUTS
  50
0.0
  41
1.0
  51
0.0
  7
Standard
  71
0
  72
1
  11
5.354166666666666
  21
2.354166666666668
  31
0.0
  210
0.0
  220
0.0
  230
1.0
  100
AcDbText
  73
2
  0
TEXT
  5
3E3
  330
1D
  100
AcDbEntity
  8
0
  6
ByLayer
  62
256
  48
1.0
  60
0
  67
0
  370
9
  100
AcDbText
  39
0.0
  10
4.913194444444444
  20
2.229166666666668
  30
0.0
  40
0.06944444444444445
  1
1
  50
0.0
  41
1.0
  51
0.0
  7
Standard
  71
0
  72
0
  11
4.913194444444444
  21
2.229166666666668
  31
0.0
  210
0.0
  220
0.0
  230
1.0
  100
AcDbText
  73
2
  0
TEXT
  5
3E4
  330
1D
  100
AcDbEntity
  8
0
  6
ByLayer
  62
256
  48
1.0
  60
0
  67
0
  370
9
  100
AcDbText
  39
0.0
  10
4.913194444444444
  20
2.104166666666668
  30
0.0
  40
0.06944444444444445
  1
2
  50
0.0
  41
1.0
  51
0.0
  7
Standard
  71
0
  72
0
  11
4.913194444444444
  21
2.104166666666668
  31
0.0
  210
0.0
  220
0.0
  230
1.0
  100
AcDbText
  73
2
  0
TEXT
  5
3E5
  330
1D
  100
AcDbEntity
  8
0
  6
ByLayer
  62
256
  48
1.0
  60
0
  67
0
  370
9
  100
AcDbText
  39
0.0
  10
5.354166666666666
  20
1.8541666666666679
  30
0.0
  40
0.06944444444444445
  1
OUTPUTS
  50
0.0
  41
1.0
  51
0.0
  7
Standard
  71
0
  72
1
  11
5.354166666666666
  21
1.8541666666666679
  31
0.0
  210
0.0
  220
0.0
  230
1.0
  100
AcDbText
  73
2
  0
TEXT
  5
3E6
  330
1D
  100
AcDbEntity
  8
0
  6
ByLayer
  62
256
  48
1.0
  60
0
  67
0
  370
9
  100
AcDbText
  39
0.0
  10
5.795138888888888
  20
1.7291666666666679
  30
0.0
  40
0.06944444444444445
  1
1
  50
0.0
  41
1.0
  51
0.0
  7
Standard
  71
0
  72
2
  11
5.795138888888888
  21
1.7291666666666679
  31
0.0
  210
0.0
  220
0.0
  230
1.0
  100
AcDbText
  73
2
  0
TEXT
  5
3E7
  330
1D
  100
AcDbEntity
  8
0
  6
ByLayer
  62
256
  48
1.0
  60
0
  67
0
  370
9
  100
AcDbText
  39
0.0
  10
4.083333333333333
  20
9.875
  30
0.0
  40
0.05555555555555555
  1
DSP / 1
  50
0.0
  41
1.0
  51
0.0
  7
Standard
  71
0
  72
1
  11
4.083333333333333
  21
9.875
  31
0.0
  210
0.0
  220
0.0
  230
1.0
  100
AcDbText
  73
2
  0
TEXT
  5
3E8
  330
1D
  100
AcDbEntity
  8
0
  6
ByLayer
  62
256
  48
1.0
  60
0
  67
0
  370
9
  100
AcDbText
  39
0.0
  10
4.3125
  20
9.875
  30
0.0
  40
0.05555555555555555
  1
1
  50
0.0
  41
1.0
  51
0.0
  7
Standard
  71
0
  72
1
  11
4.3125
  21
9.875
  31
0.0
  210
0.0
  220
0.0
  230
1.0
  100
AcDbText
  73
2
  0
TEXT
  5
3E9
  330
1D
  100
AcDbEntity
  8
0
  6
ByLayer
  62
256
  48
1.0
  60
0
  67
0
  370
9
  100
AcDbText
  39
0.0
  10
11.965277777777777
  20
11.0625
  30
0.0
  40
0.05555555555555555
  1
1
  50
0.0
  41
1.0
  51
0.0
  7
Standard
  71
0
  72
1
  11
11.965277777777777
  21
11.0625
  31
0.0
  210
0.0
  220
0.0
  230
1.0
  100
AcDbText
  73
2
  0
TEXT
  5
3EA
  330
1D
  100
AcDbEntity
  8
0
  6
ByLayer
  62
256
  48
1.0
  60
0
  67
0
  370
9
  100
AcDbText
  39
0.0
  10
12.23611111111111
  20
11.0625
  30
0.0
  40
0.05555555555555555
  1
AVP / AV-1
  50
0.0
  41
1.0
  51
0.0
  7
Standard
  71
0
  72
1
  11
12.23611111111111
  21
11.0625
  31
0.0
  210
0.0
  220
0.0
  230
1.0
  100
AcDbText
  73
2
  0
TEXT
  5
3EB
  330
1D
  100
AcDbEntity
  8
0
  6
ByLayer
  62
256
  48
1.0
  60
0
  67
0
  370
9
  100
AcDbText
  39
0.0
  10
3.8611111111111107
  20
12.4375
  30
0.0
  40
0.125
  1
ER / GYM
  50
0.0
  41
1.0
  51
0.0
  7
Standard
  71
0
  72
0
  11
3.8611111111111107
  21
12.4375
  31
0.0
  210
0.0
  220
0.0
  230
1.0
  100
AcDbText
  73
1
  0
TEXT
  5
3EC
  330
1D
  100
AcDbEntity
  8
0
  6
ByLayer
  62
256
  48
1.0
  60
0
  67
0
  370
9
  100
AcDbText
  39
0.0
  10
9.951388888888888
  20
9.395833333333334
  30
0.0
  40
0.09375
  1
FIRE ALARM
  50
0.0
  41
1.0
  51
0.0
  7
Standard
  71
0
  72
2
  11
9.951388888888888
  21
9.395833333333334
  31
0.0
  210
0.0
  220
0.0
  230
1.0
  100
AcDbText
  73
2
  0
TEXT
  5
3ED
  330
1D
  100
AcDbEntity
  8
0
  6
ByLayer
  62
256
  48
1.0
  60
0
  67
0
  370
9
  100
AcDbText
  39
0.0
  10
2.8125
  20
0.6041666666666679
  30
0.0
  40
0.09375
  1
JBOX / 1
  50
0.0
  41
1.0
  51
0.0
  7
Standard
  71
0
  72
1
  11
2.8125
  21
0.6041666666666679
  31
0.0
  210
0.0
  220
0.0
  230
1.0
  100
AcDbText
  73
2
  0
TEXT
  5
3EE
  330
1D
  100
AcDbEntity
  8
0
  6
ByLayer
  62
256
  48
1.0
  60
0
  67
0
  370
9
  100
AcDbText
  39
0.0
  10
2.8125
  20
0.29166666666666785
  30
0.0
  40
0.09375
  1
JBOX
  50
0.0
  41
1.0
  51
0.0
  7
Standard
  71
0
  72
1
  11
2.8125
  21
0.29166666666666785
  31
0.0
  210
0.0
  220
0.0
  230
1.0
  100
AcDbText
  73
2
  0
TEXT
  5
3EF
  330
1D
  100
AcDbEntity
  8
0
  6
ByLayer
  62
256
  48
1.0
  60
0
  67
0
  370
9
  100
AcDbText
  39
0.0
  10
4.482638888888888
  20
0.16666666666666785
  30
0.0
  40
0.06944444444444445
  1
1
  50
0.0
  41
1.0
  51
0.0
  7
Standard
  71
0
  72
1
  11
4.482638888888888
  21
0.16666666666666785
  31
0.0
  210
0.0
  220
0.0
  230
1.0
  100
AcDbText
  73
2
  0
TEXT
  5
3F0
  330
1D
  100
AcDbEntity
  8
0
  6
ByLayer
  62
256
  48
1.0
  60
0
  67
0
  370
9
  100
AcDbText
  39
0.0
  10
4.270833333333333
  20
0.21527777777777857
  30
0.0
  40
0.09375
  1
MIC 1
  50
0.0
  41
1.0
  51
0.0
  7
Standard
  71
0
  72
2
  11
4.270833333333333
  21
0.21527777777777857
  31
0.0
  210
0.0
  220
0.0
  230
1.0
  100
AcDbText
  73
2
  0
TEXT
  5
3F1
  330
1D
  100
AcDbEntity
  8
0
  6
ByLayer
  62
256
  48
1.0
  60
0
  67
0
  370
9
  100
AcDbText
  39
0.0
  10
4.270833333333333
  20
0.11805555555555713
  30
0.0
  40
0.06944444444444445
  1
OVERHEAD
  50
0.0
  41
1.0
  51
0.0
  7
Standard
  71
0
  72
2
  11
4.270833333333333
  21
0.11805555555555713
  31
0.0
  210
0.0
  220
0.0
  230
1.0
  100
AcDbText
  73
2
  0
TEXT
  5
3F2
  330
1D
  100
AcDbEntity
  8
0
  6
ByLayer
  62
256
  48
1.0
  60
0
  67
0
  370
9
  100
AcDbText
  39
0.0
  10
6.8125
  20
0.375
  30
0.0
  40
0.0625
  1
VC
  50
0.0
  41
1.0
  51
0.0
  7
Standard
  71
0
  72
1
  11
6.8125
  21
0.375
  31
0.0
  210
0.0
  220
0.0
  230
1.0
  100
AcDbText
  73
2
  0
TEXT
  5
3F3
  330
1D
  100
AcDbEntity
  8
0
  6
ByLayer
  62
256
  48
1.0
  60
0
  67
0
  370
9
  100
AcDbText
  39
0.0
  10
8.0625
  20
0.3583333333333343
  30
0.0
  40
0.16666666666666666
  1
FIXTURE ANNOTATION BLOCK (PALETTE ROW  NOT CONNECTED)
  50
0.0
  41
1.0
  51
0.0
  7
Standard
  71
0
  72
0
  11
8.0625
  21
0.3583333333333343
  31
0.0
  210
0.0
  220
0.0
  230
1.0
  100
AcDbText
  73
2
  0
TEXT
  5
3F4
  330
1D
  100
AcDbEntity
  8
0
  6
ByLayer
  62
256
  48
1.0
  60
0
  67
0
  370
9
  100
AcDbText
  39
0.0
  10
12.479166666666666
  20
0.6041666666666679
  30
0.0
  40
0.09375
  1
LPP / 1
  50
0.0
  41
1.0
  51
0.0
  7
Standard
  71
0
  72
1
  11
12.479166666666666
  21
0.6041666666666679
  31
0.0
  210
0.0
  220
0.0
  230
1.0
  100
AcDbText
  73
2
  0
TEXT
  5
3F5
  330
1D
  100
AcDbEntity
  8
0
  6
ByLayer
  62
256
  48
1.0
  60
0
  67
0
  370
9
  100
AcDbText
  39
0.0
  10
12.479166666666666
  20
0.34557291666666856
  30
0.0
  40
0.09375
  1
LOUDSPEAKER
  50
0.0
  41
1.0
  51
0.0
  7
Standard
  71
0
  72
1
  11
12.479166666666666
  21
0.34557291666666856
  31
0.0
  210
0.0
  220
0.0
  230
1.0
  100
AcDbText
  73
2
  0
TEXT
  5
3F6
  330
1D
  100
AcDbEntity
  8
0
  6
ByLayer
  62
256
  48
1.0
  60
0
  67
0
  370
9
  100
AcDbText
  39
0.0
  10
12.479166666666666
  20
0.23776041666666714
  30
0.0
  40
0.09375
  1
PATCH
  50
0.0
  41
1.0
  51
0.0
  7
Standard
  71
0
  72
1
  11
12.479166666666666
  21
0.23776041666666714
  31
0.0
  210
0.0
  220
0.0
  230
1.0
  100
AcDbText
  73
2
  0
TEXT
  5
3F7
  330
1D
  100
AcDbEntity
  8
0
  6
ByLayer
  62
256
  48
1.0
  60
0
  67
0
  370
9
  100
AcDbText
  39
0.0
  10
12.034722222222221
  20
-0.125
  30
0.0
  40
0.08333333333333333
  1
1
  50
0.0
  41
1.0
  51
0.0
  7
Standard
  71
0
  72
0
  11
12.034722222222221
  21
-0.125
  31
0.0
  210
0.0
  220
0.0
  230
1.0
  100
AcDbText
  73
1
  0
TEXT
  5
3F8
  330
1D
  100
AcDbEntity
  8
0
  6
ByLayer
  62
256
  48
1.0
  60
0
  67
0
  370
9
  100
AcDbText
  39
0.0
  10
12.92361111111111
  20
-0.125
  30
0.0
  40
0.08333333333333333
  1
1
  50
0.0
  41
1.0
  51
0.0
  7
Standard
  71
0
  72
2
  11
12.92361111111111
  21
-0.125
  31
0.0
  210
0.0
  220
0.0
  230
1.0
  100
AcDbText
  73
1
  0
TEXT
  5
3F9
  330
1D
  100
AcDbEntity
  8
0
  6
ByLayer
  62
256
  48
1.0
  60
0
  67
0
  370
9
  100
AcDbText
  39
0.0
  10
12.034722222222221
  20
-0.25
  30
0.0
  40
0.08333333333333333
  1
2
  50
0.0
  41
1.0
  51
0.0
  7
Standard
  71
0
  72
0
  11
12.034722222222221
  21
-0.25
  31
0.0
  210
0.0
  220
0.0
  230
1.0
  100
AcDbText
  73
1
  0
TEXT
  5
3FA
  330
1D
  100
AcDbEntity
  8
0
  6
ByLayer
  62
256
  48
1.0
  60
0
  67
0
  370
9
  100
AcDbText
  39
0.0
  10
12.92361111111111
  20
-0.25
  30
0.0
  40
0.08333333333333333
  1
2
  50
0.0
  41
1.0
  51
0.0
  7
Standard
  71
0
  72
2
  11
12.92361111111111
  21
-0.25
  31
0.0
  210
0.0
  220
0.0
  230
1.0
  100
AcDbText
  73
1
  0
TEXT
  5
3FB
  330
1D
  100
AcDbEntity
  8
0
  6
ByLayer
  62
256
  48
1.0
  60
0
  67
0
  370
9
  100
AcDbText
  39
0.0
  10
13.944444444444443
  20
0.3611111111111125
  30
0.0
  40
0.09375
  1
ANT TX
  50
0.0
  41
1.0
  51
0.0
  7
Standard
  71
0
  72
1
  11
13.944444444444443
  21
0.3611111111111125
  31
0.0
  210
0.0
  220
0.0
  230
1.0
  100
AcDbText
  73
2
  0
ENDSEC
  0
SECTION
  2
OBJECTS
  0
DICTIONARY
  5
1
330
0
100
AcDbDictionary
280
0
281
0
  3
ACAD_COLOR
350
2
  3
ACAD_GROUP
350
3
  3
ACAD_LAYOUT
350
4
  3
ACAD_MATERIAL
350
5
  3
ACAD_SORTENTS
350
6
  3
ACAD_MLEADERSTYLE
350
7
  3
ACAD_MLINESTYLE
350
8
  3
ACAD_TABLESTYLE
350
9
  3
ACAD_PLOTSETTINGS
350
A
  3
AcDbVariableDictionary
350
B
  3
ACAD_SCALELIST
350
C
  3
ACAD_VISUALSTYLE
350
D
  3
ACAD_FIELDLIST
350
E
  3
ACAD_IMAGE_DICT
350
F
  0
DICTIONARY
  5
2
330
1
100
AcDbDictionary
280
0
281
0
  0
DICTIONARY
  5
3
330
1
100
AcDbDictionary
280
0
281
0
  0
DICTIONARY
  5
4
330
1
100
AcDbDictionary
280
0
281
0
  3
Model
350
2B
  3
Layout1
350
2C
  0
DICTIONARY
  5
5
330
1
100
AcDbDictionary
280
0
281
0
  0
DICTIONARY
  5
6
330
1
100
AcDbDictionary
280
0
281
0
  0
DICTIONARY
  5
7
330
1
100
AcDbDictionary
280
0
281
0
  0
DICTIONARY
  5
8
330
1
100
AcDbDictionary
280
0
281
0
  0
DICTIONARY
  5
9
330
1
100
AcDbDictionary
280
0
281
0
  0
DICTIONARY
  5
A
330
1
100
AcDbDictionary
280
0
281
0
  0
DICTIONARY
  5
B
330
1
100
AcDbDictionary
280
0
281
0
  0
DICTIONARY
  5
C
330
1
100
AcDbDictionary
280
0
281
0
  0
DICTIONARY
  5
D
330
1
100
AcDbDictionary
280
0
281
0
  0
DICTIONARY
  5
E
330
1
100
AcDbDictionary
280
0
281
0
  0
DICTIONARY
  5
F
330
1
100
AcDbDictionary
280
0
281
0
  0
LAYOUT
  5
2B
330
4
100
AcDbPlotSettings
  1
none_device
  2

  4
ISO_A4_(210.00_x_297.00_MM)
  6

  7

 40
0.0
 41
0.0
 42
0.0
 43
0.0
 44
0.0
 45
0.0
 46
0.0
 47
0.0
 48
0.0
 49
0.0
140
0.0
141
0.0
142
1.0
143
1.0
 70
688
 72
1
 73
0
 74
0
 75
0
 76
0
 77
0
 78
300
147
1.0
148
0.0
149
0.0
100
AcDbLayout
  1
Model
 71
0
 10
-20.0
 20
-7.5
 11
277.0
 21
202.5
 12
0.0
 22
0.0
 32
0.0
 13
0.0
 23
0.0
 33
0.0
 14
25.6999999999999993
 24
19.5
 34
0.0
 15
231.3000000000000114
 25
175.5
 35
0.0
 16
1.0
 26
0.0
 36
0.0
 17
0.0
 27
1.0
 37
0.0
146
0.0
 76
0
330
1D
  0
LAYOUT
  5
2C
330
4
100
AcDbPlotSettings
  1
none_device
  2

  4
ISO_A4_(210.00_x_297.00_MM)
  6

  7

 40
0.0
 41
0.0
 42
0.0
 43
0.0
 44
0.0
 45
0.0
 46
0.0
 47
0.0
 48
0.0
 49
0.0
140
0.0
141
0.0
142
1.0
143
1.0
 70
688
 72
1
 73
0
 74
0
 75
0
 76
0
 77
0
 78
300
147
1.0
148
0.0
149
0.0
100
AcDbLayout
  1
Layout1
 71
1
 10
-20.0
 20
-7.5
 11
277.0
 21
202.5
 12
0.0
 22
0.0
 32
0.0
 13
0.0
 23
0.0
 33
0.0
 14
25.6999999999999993
 24
19.5
 34
0.0
 15
231.3000000000000114
 25
175.5
 35
0.0
 16
1.0
 26
0.0
 36
0.0
 17
0.0
 27
1.0
 37
0.0
146
0.0
 76
0
330
20
  0
ENDSEC
  0
EOF
